<svg width="344" height="237" viewBox="0 0 344 237" fill="none" xmlns="http://www.w3.org/2000/svg">
<path d="M112.969 40.3906C112.969 49.5052 105.938 57.0573 91.875 63.0469C79.2708 68.4115 65.2344 71.0938 49.7656 71.0938C38.0469 71.0938 28.2031 70.1042 20.2344 68.125C6.74479 64.6875 0 58.724 0 50.2344C0 40.4427 6.74479 32.5781 20.2344 26.6406C30.9635 21.9531 41.9531 19.6094 53.2031 19.6094C58.6719 19.6094 61.4062 20.1823 61.4062 21.3281C61.4062 22.474 58.4896 23.5677 52.6562 24.6094C23.8021 29.6094 9.375 37.6302 9.375 48.6719C9.375 53.3073 14.7396 56.7969 25.4688 59.1406C33.125 60.8594 41.224 61.7188 49.7656 61.7188C64.2448 61.7188 77.0312 59.2969 88.125 54.4531C98.4375 49.974 103.594 45.2865 103.594 40.3906C103.594 37.9427 101.771 33.5938 98.125 27.3438C97.6562 26.5625 97.4219 25.7552 97.4219 24.9219C97.4219 23.6198 97.9167 22.526 98.9062 21.6406C99.8958 20.7031 101.042 20.2344 102.344 20.2344C104.01 20.2344 105.312 21.0417 106.25 22.6562C110.729 30.3125 112.969 36.224 112.969 40.3906ZM90.0781 9.0625C85.7031 10.9375 80.4427 11.875 74.2969 11.875C68.724 11.875 65.9375 10.7031 65.9375 8.35938C65.9375 6.69271 68.3073 5.49479 73.0469 4.76562C76.276 4.29688 80.7292 2.86458 86.4062 0.46875C87.0833 0.15625 87.7604 0 88.4375 0C91.4583 0 92.9688 1.64062 92.9688 4.92188C92.9688 6.90104 92.0052 8.28125 90.0781 9.0625ZM156.406 60.4688C152.135 67.5521 144.922 71.0938 134.766 71.0938C131.641 71.0938 130.078 69.5312 130.078 66.4062C130.078 63.2812 131.641 61.7188 134.766 61.7188C141.276 61.7188 147.005 59.5312 151.953 55.1562C153.255 54.0104 154.427 53.4375 155.469 53.4375C156.979 53.4375 157.734 54.401 157.734 56.3281C157.734 57.5781 157.292 58.9583 156.406 60.4688ZM135.469 71.0938C126.198 71.0938 121.38 67.6823 121.016 60.8594C120.234 47.1094 118.672 30.8854 116.328 12.1875C116.276 11.875 116.25 11.5885 116.25 11.3281C116.25 9.86979 116.823 8.54167 117.969 7.34375C119.167 6.09375 120.521 5.46875 122.031 5.46875C124.062 5.46875 125.208 6.5625 125.469 8.75C126.615 21.1979 128.203 38.099 130.234 59.4531C130.391 60.9635 132.135 61.7188 135.469 61.7188C138.594 61.7188 140.156 63.2812 140.156 66.4062C140.156 69.5312 138.594 71.0938 135.469 71.0938ZM148.516 23.2031L145.859 27.5C144.922 29.0104 143.646 29.7656 142.031 29.7656C140.729 29.7656 139.583 29.3229 138.594 28.4375C137.604 27.5 137.109 26.3802 137.109 25.0781C137.109 24.2448 137.37 23.3854 137.891 22.5L140.547 18.2031C141.484 16.6927 142.76 15.9375 144.375 15.9375C145.677 15.9375 146.823 16.4062 147.812 17.3438C148.802 18.2292 149.297 19.3229 149.297 20.625C149.297 21.4583 149.036 22.3177 148.516 23.2031ZM213.359 43.8281C213.464 45.2344 213.516 46.5625 213.516 47.8125C213.516 54.4792 212.526 57.8125 210.547 57.8125C208.932 57.8125 207.552 55.0521 206.406 49.5312C205.469 45 203.75 38.4115 201.25 29.7656C200.938 28.776 200.781 27.8385 200.781 26.9531C200.781 23.0469 202.37 21.0938 205.547 21.0938C207.474 21.0938 208.776 22.2396 209.453 24.5312C211.589 31.7708 212.891 38.2031 213.359 43.8281ZM258.75 71.0938C250.208 71.0938 245.391 67.6823 244.297 60.8594C243.828 57.6302 242.865 48.3333 241.406 32.9688C237.917 43.6458 233.255 52.2396 227.422 58.75C220.339 66.6146 210.911 72.2656 199.141 75.7031C189.349 78.5156 179.714 79.9219 170.234 79.9219C164.557 79.9219 161.719 78.9062 161.719 76.875C161.719 75.3125 163.724 74.1667 167.734 73.4375C184.87 70.4167 197.786 66.7969 206.484 62.5781C214.818 58.5156 221.615 52.2396 226.875 43.75C229.323 39.7917 232.396 33.0208 236.094 23.4375C238.542 17.0833 240.807 13.9062 242.891 13.9062C247.005 13.9062 249.688 20.9896 250.938 35.1562C251.146 40.7292 251.979 48.4896 253.438 58.4375C254.062 60.625 255.833 61.7188 258.75 61.7188C261.875 61.7188 263.438 63.2812 263.438 66.4062C263.438 69.5312 261.875 71.0938 258.75 71.0938ZM305.156 36.0156C305.417 36.6406 305.547 37.2917 305.547 37.9688C305.547 40.9896 303.906 42.5 300.625 42.5C298.646 42.5 297.266 41.5104 296.484 39.5312C295.755 37.8646 294.479 37.0312 292.656 37.0312C290.573 37.0312 288.385 38.4115 286.094 41.1719C285.208 42.3177 284.766 43.6198 284.766 45.0781C284.766 50.2865 288.333 53.5938 295.469 55C297.969 55.5208 299.219 57.0312 299.219 59.5312C299.219 62.7604 297.708 64.375 294.688 64.375C290.469 64.375 286.12 62.2917 281.641 58.125C277.161 53.9062 274.922 49.6094 274.922 45.2344C274.922 41.849 276.224 38.5417 278.828 35.3125C282.943 30.1562 287.865 27.5781 293.594 27.5781C299.01 27.5781 302.865 30.3906 305.156 36.0156ZM315.859 56.6406C309.089 60.3385 300 63.6719 288.594 66.6406C277.031 69.6094 267.214 71.0938 259.141 71.0938C256.016 71.0938 254.453 69.5312 254.453 66.4062C254.453 63.2812 256.016 61.7188 259.141 61.7188C266.38 61.7188 275.365 60.3385 286.094 57.5781C296.823 54.8177 305.234 51.7708 311.328 48.4375C312.109 47.9688 312.917 47.7344 313.75 47.7344C315 47.7344 316.068 48.2552 316.953 49.2969C317.891 50.2865 318.359 51.4062 318.359 52.6562C318.359 54.4271 317.526 55.7552 315.859 56.6406ZM338.75 51.6406C338.854 52.7865 338.906 53.9062 338.906 55C338.906 61.9271 337.786 65.3906 335.547 65.3906C333.88 65.3906 332.5 62.7083 331.406 57.3438C330.833 54.4792 329.948 47.8906 328.75 37.5781C327.969 30.8073 327.083 22.2656 326.094 11.9531V11.4062C326.094 9.0625 326.693 7.08333 327.891 5.46875C329.036 3.90625 330.339 3.125 331.797 3.125C333.568 3.125 334.557 4.29688 334.766 6.64062C335.755 17.1615 337.083 32.1615 338.75 51.6406ZM343.594 86.4062C343.594 89.4271 341.953 92.2396 338.672 94.8438C335.443 97.5 332.292 98.8281 329.219 98.8281C327.5 98.8281 326.641 98.0208 326.641 96.4062C326.641 95.1042 327.344 94.1927 328.75 93.6719C333.229 92.0573 335.938 89.974 336.875 87.4219C333.073 86.4844 331.172 84.8958 331.172 82.6562C331.172 80.8333 332.083 78.776 333.906 76.4844C335.469 74.5052 337.188 72.9427 339.062 71.7969C339.688 71.4323 340.339 71.25 341.016 71.25C342.943 71.25 343.906 72.0573 343.906 73.6719C343.906 74.5052 343.464 75.2865 342.578 76.0156C340.13 77.9427 338.542 79.8438 337.812 81.7188C340.052 82.3438 341.354 82.7604 341.719 82.9688C342.969 83.6458 343.594 84.7917 343.594 86.4062Z" fill="#FFF000"/>
<path d="M48.9251 202.388H57.7571V215.828H33.5651C14.4611 215.828 0.733125 207.092 0.733125 188.852C0.733125 173.3 12.9251 161.78 33.5651 161.78H35.4851V156.98H48.9251V202.388ZM29.6291 202.388H35.4851V175.22H30.3011C22.4291 175.22 14.1731 180.212 14.1731 188.852C14.1731 197.684 21.6611 202.388 29.6291 202.388ZM40.8611 149.876C36.8291 149.876 33.3731 147.476 33.3731 142.964C33.3731 138.932 36.6371 136.148 40.8611 136.148C45.1811 136.148 48.3491 138.932 48.3491 142.964C48.3491 147.476 44.8931 149.876 40.8611 149.876ZM20.0291 149.876C15.9971 149.876 12.5411 147.476 12.5411 142.964C12.5411 138.932 15.8051 136.148 20.0291 136.148C24.2531 136.148 27.5171 138.932 27.5171 142.964C27.5171 147.476 24.0611 149.876 20.0291 149.876ZM55.9219 215.828V202.388H75.9859V161.78H89.4259V202.388H107.09V215.828H55.9219ZM92.4019 236.276C88.3699 236.276 84.9139 233.876 84.9139 229.46C84.9139 225.332 88.1779 222.548 92.4019 222.548C96.7219 222.548 99.8899 225.332 99.8899 229.46C99.8899 233.876 96.4339 236.276 92.4019 236.276ZM71.5699 236.276C67.5379 236.276 64.0819 233.876 64.0819 229.46C64.0819 225.332 67.3459 222.548 71.5699 222.548C75.7939 222.548 79.0579 225.332 79.0579 229.46C79.0579 233.876 75.6019 236.276 71.5699 236.276ZM105.141 215.828V202.388H125.205V161.78H138.645V215.828H105.141ZM120.981 153.62C116.949 153.62 113.493 151.22 113.493 146.708C113.493 142.676 116.757 139.892 120.981 139.892C125.205 139.892 128.469 142.676 128.469 146.708C128.469 151.22 125.013 153.62 120.981 153.62ZM141.813 153.62C137.781 153.62 134.325 151.22 134.325 146.708C134.325 142.676 137.589 139.892 141.813 139.892C146.133 139.892 149.301 142.676 149.301 146.708C149.301 151.22 145.845 153.62 141.813 153.62ZM199.204 161.78L199.108 202.388H208.036V215.828H198.916C197.956 228.404 191.716 236.948 174.436 236.948C169.252 236.948 166.276 236.276 160.42 234.644L159.46 221.108C164.644 222.74 168.964 223.508 173.476 223.508C180.868 223.508 184.708 222.548 185.572 215.828H184.036C165.7 215.828 151.108 208.052 151.108 188.756C151.108 171.956 164.836 161.78 184.036 161.78H199.204ZM164.548 188.756C164.548 197.684 171.46 202.388 180.1 202.388H185.764V175.22H180.1C172.132 175.22 164.548 180.596 164.548 188.756ZM206.203 215.828V202.388H225.115V215.828H206.203ZM223.172 215.828V202.388H242.084V215.828H223.172ZM240.141 215.828V202.388H259.053V215.828H240.141ZM257.109 215.828V202.388H266.517V161.78H279.957V166.58H309.237C317.877 166.58 324.405 168.692 329.205 173.78C333.237 178.1 334.773 185.204 334.773 193.076V215.828H257.109ZM310.581 179.924H279.957V202.388H321.333V192.5C321.333 188.66 320.469 185.876 318.741 183.668C317.109 181.556 314.037 179.924 310.581 179.924Z" fill="white"/>
</svg>
