<svg width="263" height="241" viewBox="0 0 263 241" fill="none" xmlns="http://www.w3.org/2000/svg">
<path d="M38.4 150.356C38.4 153.716 39.648 156.5 41.568 157.268V157.46H20.928V157.268C22.752 156.5 24 153.716 24 150.356V86.8043H14.016C9.024 86.8043 5.76 88.6283 0.864 99.1883H0.672L1.632 85.2683H60.96L61.824 99.1883H61.632C56.832 88.6283 53.472 86.8043 48.576 86.8043H38.4V150.356ZM95.649 158.516C80.385 158.516 69.249 148.34 69.249 132.212V92.7563C69.249 89.6843 67.617 86.7083 65.217 85.4603V85.2683H87.777V85.4603C85.377 86.6123 83.649 89.4923 83.649 92.7563V134.516C83.649 146.42 90.849 155.156 100.929 155.156C111.393 155.156 122.049 145.844 122.049 130.004V92.7563C122.049 89.4923 120.417 86.6123 117.921 85.4603V85.2683H127.617V85.4603C125.217 86.7083 123.585 89.6843 123.585 92.7563V130.004C123.585 146.612 112.257 158.516 95.649 158.516ZM151.627 123.38H159.499C172.939 123.38 179.947 118.484 179.947 105.524C179.947 92.6603 173.035 86.8043 162.283 86.8043H151.627V123.38ZM134.059 157.46V157.268C135.883 156.5 137.131 153.716 137.131 150.356V92.3723C137.131 88.9163 135.883 86.1323 134.059 85.4603V85.2683H164.299C183.403 85.2683 194.539 91.7003 194.539 104.66C194.539 117.332 183.787 122.516 174.859 124.244C184.651 125.876 192.043 130.484 192.043 138.26V150.26C192.043 153.62 193.291 156.404 195.115 157.172V157.364H174.475V157.172C176.395 156.404 177.643 153.62 177.643 150.26V138.26C177.643 127.124 174.475 124.916 164.491 124.916H151.627V150.356C151.627 153.716 152.875 156.5 154.699 157.268V157.46H134.059ZM202.496 157.46V157.268C204.32 156.5 205.568 153.716 205.568 150.356V92.3723C205.568 88.9163 204.32 86.1323 202.496 85.4603V85.2683H221.312L254.144 132.116V92.3723C254.144 88.9163 252.992 86.1323 251.072 85.4603V85.2683H258.848V85.4603C256.928 86.1323 255.776 88.9163 255.776 92.3723V157.46H254.336L207.104 90.1643V150.356C207.104 153.716 208.352 156.5 210.272 157.268V157.46H202.496Z" fill="#FFF100"/>
<path d="M125.64 71.016L139.944 15.912C140.904 12.456 140.808 9.672 139.272 8.99999V8.808H147.048V8.99999C144.936 9.672 142.536 12.456 141.672 15.912L126.6 73.704L126.696 73.896C127.752 77.256 129.96 80.04 132.072 80.808V81H110.664V80.808C112.296 80.04 112.392 77.256 111.528 73.896L101.928 37.704L92.52 73.704L92.616 73.896C93.768 77.256 95.88 80.04 97.992 80.808V81H76.584V80.808C78.312 80.04 78.408 77.256 77.448 73.896L62.088 15.912C61.128 12.456 58.728 9.672 56.712 8.99999V8.808H77.832V8.99999C76.2 9.672 76.104 12.456 77.064 15.912L91.56 71.016L101.064 34.536L96.168 15.912C95.208 12.456 92.808 9.672 90.792 8.99999V8.808H113.064V8.99999C112.2 9.288 111.432 9.768 110.664 10.536C110.28 11.88 110.472 13.704 111.048 15.912L125.64 71.016ZM150.653 81V80.808C152.477 80.04 153.725 77.256 153.725 73.896V15.144C153.725 12.36 152.477 9.96 150.653 8.99999V8.808H201.341L203.26 19.656H203.069C198.749 12.936 194.812 10.344 188.957 10.344H168.221V42.024H178.781C184.925 42.024 189.725 38.28 190.973 32.712H191.165V52.872H190.973C189.725 47.304 184.925 43.56 178.781 43.56H168.221V79.464H187.613C192.509 79.464 198.941 72.456 203.741 61.896H204.029L199.997 81H150.653Z" fill="white"/>
<path d="M21.44 188.946V188.874C22.124 188.586 22.592 187.542 22.592 186.282V164.538C22.592 163.242 22.124 162.198 21.44 161.946V161.874H29.18V161.946C28.496 162.198 28.028 163.242 28.028 164.538V175.086H38.396V164.538C38.396 163.242 37.928 162.198 37.208 161.946V161.874H44.948V161.946C44.264 162.198 43.796 163.242 43.796 164.538V186.282C43.796 187.542 44.264 188.586 44.948 188.874V188.946H37.208V188.874C37.928 188.586 38.396 187.542 38.396 186.282V175.662H28.028V186.282C28.028 187.542 28.496 188.586 29.18 188.874V188.946H21.44ZM77.3975 188.946V188.874C78.0815 188.586 78.5495 187.542 78.5495 186.282V164.25C78.5495 163.206 78.0815 162.306 77.3975 161.946V161.874H96.4055L97.1255 165.942H97.0535C95.4335 163.422 93.9575 162.45 91.7615 162.45H83.9855V174.33H87.9455C90.2495 174.33 92.0495 172.926 92.5175 170.838H92.5895V178.398H92.5175C92.0495 176.31 90.2495 174.906 87.9455 174.906H83.9855V188.37H91.2575C93.0935 188.37 95.5055 185.742 97.3055 181.782H97.4135L95.9015 188.946H77.3975ZM137.412 165.582L132.84 179.406H142.056L137.412 165.582ZM127.872 188.946V188.874C128.7 188.586 129.492 187.542 129.924 186.282L137.124 164.61L137.088 164.538C136.656 163.242 135.828 162.198 135.072 161.946V161.874H143.064V161.946C142.452 162.198 142.344 163.242 142.776 164.538L150.084 186.282C150.516 187.542 151.308 188.586 152.1 188.874V188.946H144.072V188.874C144.72 188.586 144.828 187.542 144.396 186.282L142.272 179.982H132.624L130.536 186.282C130.104 187.542 130.248 188.586 130.824 188.874V188.946H127.872ZM189.643 162.414V188.37C196.735 188.442 200.263 184.266 200.263 174.51C200.263 166.446 197.887 162.234 189.643 162.414ZM189.067 188.946H183.055V188.874C183.739 188.586 184.207 187.542 184.207 186.282V164.538C184.207 163.242 183.739 162.198 183.055 161.946V161.874H188.959C199.039 161.478 205.735 163.098 205.735 175.266C205.735 187.11 199.291 189.342 189.067 188.946ZM253.038 184.23C253.038 176.958 238.602 178.506 238.602 169.326C238.602 164.934 241.95 161.874 247.746 161.874C253.938 161.874 256.926 165.366 257.502 167.598C258.366 171.162 253.326 172.17 251.814 166.05C251.454 164.646 250.626 162.486 247.782 162.486C244.722 162.486 243.57 164.97 243.57 166.986C243.57 174.114 258.006 172.962 258.006 181.674C258.006 186.282 253.974 189.342 247.962 189.342C241.518 189.342 238.53 185.814 237.954 183.618C237.054 180.054 242.13 179.046 243.642 185.166C244.002 186.534 244.794 188.73 248.07 188.73C251.058 188.73 253.038 186.93 253.038 184.23Z" fill="white"/>
</svg>
