<svg width="123" height="136" viewBox="0 0 123 136" fill="none" xmlns="http://www.w3.org/2000/svg">
<g clip-path="url(#clip0_604_149)">
<path d="M74.4531 94.1188C73.989 94.1188 73.5167 94.1188 72.8205 94.3503C73.9891 88.8289 69.3233 82.8447 62.7846 82.8447C57.1824 82.8447 52.7487 87.2172 52.7487 92.7385C52.7487 93.2014 52.7487 93.656 52.9808 94.3503C52.5167 94.3503 52.0443 94.1188 51.3482 94.1188C45.746 94.1188 41.3123 98.4913 41.3123 104.013C41.3123 110.451 47.1465 114.824 52.9808 113.906C51.8123 119.428 56.4863 125.412 63.0167 125.412C69.5471 125.412 73.9891 119.659 73.0526 113.906C78.6548 115.055 84.7211 110.451 84.7211 104.013C84.4891 98.4913 80.0553 94.1188 74.4531 94.1188ZM63.0167 88.5975C65.3537 88.5975 67.2183 90.4407 67.2183 92.7385C67.2183 94.5817 64.8813 97.3424 63.0167 99.6402C60.92 97.3424 58.815 94.5734 58.815 92.7385C58.815 90.4407 60.6797 88.5975 63.0167 88.5975ZM47.3786 104.013C47.3786 101.715 49.2432 99.8716 51.5802 99.8716C53.4449 99.8716 56.246 102.169 58.583 104.013C56.246 106.087 53.4449 108.154 51.5802 108.154C49.2432 108.385 47.3786 106.31 47.3786 104.013ZM63.0167 119.659C60.6879 119.659 58.815 117.816 58.815 115.518C58.815 113.675 60.9117 110.914 63.0167 108.616C65.1217 110.914 67.2183 113.675 67.2183 115.518C67.2183 117.816 65.3537 119.659 63.0167 119.659ZM74.4531 108.385C72.5885 108.385 69.7874 106.31 67.4504 104.244C69.7791 102.169 72.5802 100.103 74.4531 100.103C76.7902 100.103 78.6548 101.946 78.6548 104.244C78.6548 106.319 76.7902 108.385 74.4531 108.385Z" fill="black"/>
<path d="M26.6105 48.0967C26.6105 44.1872 23.3453 40.9636 19.3757 40.9636C15.4061 40.9636 12.1409 44.1872 12.1409 48.0967C12.1409 52.0063 15.4061 55.2298 19.3757 55.2298C23.3453 55.2298 26.6105 52.0063 26.6105 48.0967ZM17.7431 48.0967C17.7431 47.4107 18.4392 46.7164 19.1436 46.7164C19.8481 46.7164 20.5442 47.4024 20.5442 48.0967C20.5442 48.791 19.8398 49.4771 19.1436 49.4771C18.4475 49.4771 17.7431 48.791 17.7431 48.0967Z" fill="black"/>
<path d="M36.8784 55.2298C40.848 55.2298 44.1132 52.0063 44.1132 48.0967C44.1132 44.1872 40.848 40.9636 36.8784 40.9636C32.9087 40.9636 29.6436 44.1872 29.6436 48.0967C29.6436 52.0063 32.6767 55.2298 36.8784 55.2298ZM36.8784 46.485C37.5745 46.485 38.2789 47.171 38.2789 47.8653C38.2789 48.5596 37.5745 49.2456 36.8784 49.2456C36.1822 49.2456 35.4778 48.5596 35.4778 47.8653C35.2458 47.171 35.9419 46.485 36.8784 46.485Z" fill="black"/>
<path d="M111.1 92.5071C117.638 92.5071 123 87.2172 123 80.7702V40.9637C123 34.5166 117.63 29.2267 111.1 29.2267H108.299V20.4818C108.299 18.8701 106.898 17.4897 105.265 17.4897H96.398V2.9921C96.398 1.38033 94.9975 0 93.3649 0H32.445C30.8124 0 29.4119 1.38033 29.4119 2.9921V17.4897H20.5445C18.9119 17.4897 17.5113 18.8701 17.5113 20.4818V29.2267H11.9091C5.37042 29.2267 0.00854492 34.5166 0.00854492 40.9637V81.0016C0.00854492 87.4404 5.37871 92.7385 11.9091 92.7385H26.3787V133.008C26.3787 134.62 27.7793 136 29.4119 136H96.6301C98.2627 136 99.6632 134.62 99.6632 133.008V92.5071H111.1ZM102.464 23.4739V29.2267H96.6301V23.4739H102.464ZM90.7876 6.21563V29.2267H35.2461V17.7212H73.2848C74.9174 17.7212 76.3179 16.3408 76.3179 14.7291C76.3179 13.1173 74.9174 11.737 73.2848 11.737H35.2461V5.9842H90.7958V6.21563H90.7876ZM23.5693 23.4739H29.4036V29.2267H23.5693V23.4739ZM6.06656 81.0016V40.9637C6.06656 37.7401 8.63562 34.9795 12.1329 34.9795H111.091C114.357 34.9795 117.158 37.5087 117.158 40.9637V43.7243H64.4091C62.7765 43.7243 61.3759 45.1047 61.3759 46.7164C61.3759 48.3282 62.7765 49.7085 64.4091 49.7085H116.926V81.233C116.926 84.4566 114.357 87.2172 110.859 87.2172H108.058V75.7117C108.058 74.0999 106.658 72.7196 105.025 72.7196H20.3041C18.6715 72.7196 17.271 74.0999 17.271 75.7117V87.2172H11.6688C8.86766 86.7543 6.06656 84.2251 6.06656 81.0016ZM23.5693 86.7543V78.0095H26.6025V86.7543H23.5693ZM32.445 130.016V78.2409H93.829V118.51H84.9616C83.329 118.51 81.9284 119.891 81.9284 121.502C81.9284 123.114 83.329 124.494 84.9616 124.494H93.829V130.247H32.445V130.016ZM99.4229 78.2409H102.456V86.9858H99.4229V78.2409Z" fill="black"/>
<path d="M81.9199 11.9685C83.5939 11.9685 84.953 13.3075 84.953 14.9606C84.953 16.6137 83.5939 17.9527 81.9199 17.9527C80.2458 17.9527 78.8867 16.6137 78.8867 14.9606C78.8867 13.3075 80.2458 11.9685 81.9199 11.9685Z" fill="black"/>
<path d="M76.0856 118.279C77.7597 118.279 79.1188 119.618 79.1188 121.271C79.1188 122.924 77.7597 124.263 76.0856 124.263C74.4116 124.263 73.0525 122.924 73.0525 121.271C73.0525 119.618 74.4116 118.279 76.0856 118.279Z" fill="black"/>
<path d="M55.7817 43.4929C57.4557 43.4929 58.8148 44.8319 58.8148 46.485C58.8148 48.1381 57.4557 49.4771 55.7817 49.4771C54.1076 49.4771 52.7485 48.1381 52.7485 46.485C52.7485 44.8319 54.1076 43.4929 55.7817 43.4929Z" fill="black"/>
</g>
<defs>
<clipPath id="clip0_604_149">
<rect width="123" height="136" fill="white"/>
</clipPath>
</defs>
</svg>
