<svg width="225" height="122" viewBox="0 0 225 122" fill="none" xmlns="http://www.w3.org/2000/svg">
<g clip-path="url(#clip0_604_167)">
<path d="M60.5587 28.6285H58.1151C56.545 28.6285 55.077 29.4727 54.278 30.8423L43.584 49.3965C42.9058 50.5502 42.5527 51.8729 42.5527 53.2143V61.3376C42.5527 62.7915 43.1288 64.2173 44.1415 65.2492L45.6188 66.7594C46.6408 67.8006 48.053 68.3916 49.4931 68.3916H55.7924C57.3254 68.3916 58.7655 67.6318 59.6575 66.3748L62.6027 62.163C63.4017 61.028 63.8198 59.6866 63.8198 58.2984V31.921C63.8198 30.1012 62.3518 28.6191 60.5494 28.6191L60.5587 28.6285ZM56.8887 64.4049C56.6379 64.7614 56.2291 64.9771 55.8017 64.9771H49.5024C48.9542 64.9771 48.4246 64.752 48.0437 64.358L46.5664 62.8478C46.1762 62.4538 45.9532 61.9004 45.9532 61.347V53.2236C45.9532 52.492 46.1483 51.7791 46.52 51.1412L57.2139 32.587C57.3997 32.2681 57.7435 32.0711 58.1151 32.0711H60.4286V58.3171C60.4286 58.9831 60.2149 59.6585 59.834 60.2026L56.8887 64.4143V64.4049Z" fill="black"/>
<path d="M11.205 76.5713H8.78936C7.02407 76.5713 5.59326 78.0159 5.59326 79.7981V87.2179C5.59326 89.0002 7.02407 90.4447 8.78936 90.4447H11.205C12.9703 90.4447 14.4011 89.0002 14.4011 87.2179V79.7981C14.4011 78.0159 12.9703 76.5713 11.205 76.5713ZM11.0006 80.0045V87.0116H9.00306V80.0045H11.0006Z" fill="black"/>
<path d="M211.974 48.8714V22.8223C211.974 20.7587 210.311 19.0796 208.267 19.0796H97.8433C95.7993 19.0796 94.1362 20.7587 94.1362 22.8223V48.8714C94.1362 50.1377 95.2604 52.6141 97.8433 52.6141H208.276C210.06 52.6141 211.965 51.1133 211.965 48.8714H211.974ZM208.573 22.8223V48.8714C208.573 49.1434 208.258 49.1809 208.267 49.1809H97.834C97.6761 49.1809 97.5739 48.8901 97.5367 48.7494V22.8223C97.5367 22.6535 97.6761 22.5128 97.8433 22.5128H208.267C208.434 22.5128 208.573 22.6535 208.573 22.8223Z" fill="black"/>
<path d="M223.3 51.7606H220.447C220.373 51.7606 220.308 51.7794 220.234 51.7794V16.2468C220.234 4.38077 216.248 0.37539 204.458 0.37539H114.874C111.548 0.37539 108.268 0.281588 105.081 0.187785C91.0053 -0.224948 77.7006 -0.6283 61.144 7.08229C60.0941 7.57007 46.5107 15.2338 45.5259 16.9128C41.3728 23.995 29.7126 44.6503 28.1889 47.3425L1.67238 71.4311C0.603915 72.3972 0 73.7949 0 75.2582V94.9568C0 105.322 4.08804 111.607 10.9076 111.776H20.9326C21.806 111.776 22.6143 111.382 23.1532 110.678C23.7013 109.965 23.8779 109.055 23.6549 108.174C23.1532 106.26 22.9023 104.29 22.9023 102.311C22.9023 89.6194 33.1317 79.2917 45.7024 79.2917C58.2731 79.2917 68.5025 89.6194 68.5025 102.311C68.5025 104.29 68.2516 106.26 67.7499 108.174C67.5269 109.037 67.7128 109.975 68.2423 110.678C68.7719 111.372 69.571 111.776 70.4443 111.776H155.318C156.191 111.776 156.999 111.372 157.538 110.678C158.086 109.965 158.263 109.055 158.04 108.183C157.538 106.269 157.287 104.29 157.287 102.32C157.287 89.6288 167.517 79.3011 180.087 79.3011C192.658 79.3011 202.887 89.6288 202.887 102.32C202.887 104.3 202.637 106.279 202.135 108.183C201.912 109.055 202.088 109.965 202.637 110.678C203.175 111.382 203.984 111.776 204.857 111.776H206.325C206.567 111.776 206.79 111.729 207.013 111.635C220.522 110.425 220.401 100.988 220.28 91.0077C220.28 90.4543 220.28 89.8727 220.262 89.3005C220.327 89.3005 220.392 89.3193 220.466 89.3193H223.318C224.257 89.3193 225.019 88.5501 225.019 87.6027V53.4678C225.019 52.5204 224.257 51.7512 223.318 51.7512L223.3 51.7606ZM220.67 85.8955V55.1938H221.59V85.8955H220.67ZM206.269 102.32C206.269 87.734 194.516 75.8679 180.069 75.8679C165.621 75.8679 153.868 87.734 153.868 102.32C153.868 104.375 154.11 106.401 154.574 108.352H71.1969C71.6521 106.373 71.8844 104.346 71.8844 102.32C71.8844 87.734 60.1313 75.8679 45.6838 75.8679C31.2363 75.8679 19.4832 87.734 19.4832 102.32C19.4832 104.384 19.7155 106.41 20.1893 108.352H11.1956C8.84503 108.352 3.39121 107.048 3.39121 94.9662V75.2676C3.39121 74.7704 3.59561 74.3108 3.93938 73.9919L30.6417 49.7063C30.7811 49.5844 30.8926 49.4437 30.9855 49.2842C31.1155 49.0591 43.7885 26.5745 48.3317 18.817C49.7347 17.5695 60.1778 11.3034 62.5377 10.1965C78.3695 2.83303 91.284 3.20824 104.979 3.62097C108.175 3.71477 111.473 3.81796 114.855 3.81796H204.439C214.39 3.81796 216.815 6.25683 216.815 16.2562V87.6871C216.815 88.8409 216.833 89.9759 216.842 91.0734C216.973 101.645 217.047 107.47 206.26 108.267C206.111 108.277 205.972 108.305 205.833 108.361H205.573C206.028 106.391 206.26 104.365 206.26 102.33L206.269 102.32Z" fill="black"/>
<path d="M45.6188 83.1562C35.0085 83.1562 26.3772 91.8705 26.3772 102.573C26.3772 113.276 35.0085 122 45.6188 122C56.2292 122 64.8605 113.286 64.8605 102.573C64.8605 91.8612 56.2292 83.1562 45.6188 83.1562ZM61.7294 102.583C61.7294 111.55 54.501 118.839 45.6281 118.839C36.7552 118.839 29.5268 111.541 29.5268 102.583C29.5268 93.6246 36.7552 86.3268 45.6281 86.3268C54.501 86.3268 61.7294 93.6246 61.7294 102.583Z" fill="black"/>
<path d="M45.6281 92.7522C40.2579 92.7522 35.8911 97.1609 35.8911 102.573C35.8911 107.986 40.2579 112.404 45.6281 112.404C50.9983 112.404 55.365 107.995 55.365 102.573C55.365 97.1516 50.9983 92.7522 45.6281 92.7522ZM45.6281 109.018C42.1161 109.018 39.2545 106.128 39.2545 102.583C39.2545 99.037 42.1161 96.1479 45.6281 96.1479C49.1401 96.1479 52.0017 99.037 52.0017 102.583C52.0017 106.128 49.1401 109.018 45.6281 109.018Z" fill="black"/>
<path d="M180.106 83.1562C169.496 83.1562 160.864 91.8705 160.864 102.573C160.864 113.276 169.496 122 180.106 122C190.716 122 199.348 113.286 199.348 102.573C199.348 91.8612 190.716 83.1562 180.106 83.1562ZM196.207 102.583C196.207 111.55 188.979 118.839 180.106 118.839C171.233 118.839 164.005 111.541 164.005 102.583C164.005 93.6246 171.233 86.3268 180.106 86.3268C188.979 86.3268 196.207 93.6246 196.207 102.583Z" fill="black"/>
<path d="M180.106 92.7522C174.736 92.7522 170.369 97.1609 170.369 102.573C170.369 107.986 174.736 112.404 180.106 112.404C185.476 112.404 189.843 107.995 189.843 102.573C189.843 97.1516 185.476 92.7522 180.106 92.7522ZM186.479 102.583C186.479 106.128 183.618 109.018 180.106 109.018C176.594 109.018 173.732 106.128 173.732 102.583C173.732 99.037 176.594 96.1479 180.106 96.1479C183.618 96.1479 186.479 99.037 186.479 102.583Z" fill="black"/>
<path d="M80.2834 28.835H70.565C68.521 28.835 66.8579 30.514 66.8579 32.5777V55.6813C66.8579 57.8857 68.809 59.4241 70.565 59.4241H80.302C82.0487 59.4241 83.9905 57.82 83.9905 55.6813V32.5777C83.9905 30.514 82.3274 28.835 80.2834 28.835ZM70.2491 32.5777C70.2491 32.4088 70.3885 32.2681 70.5557 32.2681H80.2741C80.4413 32.2681 80.5807 32.4088 80.5807 32.5777V55.6813C80.5807 55.7845 80.3484 55.9721 80.2741 55.9909H70.5929C70.4721 55.9627 70.2491 55.7845 70.2491 55.6813V32.5777Z" fill="black"/>
<path d="M88.9427 17.2034C88.0043 17.2034 87.2424 17.9726 87.2424 18.92V72.5377C87.2424 73.4851 88.0043 74.2543 88.9427 74.2543C89.8811 74.2543 90.6429 73.4851 90.6429 72.5377V18.92C90.6429 17.9726 89.8811 17.2034 88.9427 17.2034Z" fill="black"/>
<path d="M71.4942 20.6366H81.4634C82.4018 20.6366 83.1637 19.8674 83.1637 18.92C83.1637 17.9726 82.4018 17.2034 81.4634 17.2034H71.4942C70.5558 17.2034 69.7939 17.9726 69.7939 18.92C69.7939 19.8674 70.5558 20.6366 71.4942 20.6366Z" fill="black"/>
<path d="M54.947 23.751C55.458 22.963 55.235 21.8937 54.4545 21.3778C53.6741 20.8618 52.6149 21.087 52.1039 21.8749L38.7713 42.4365C35.4637 47.5394 33.717 53.449 33.717 59.5461V71.5717C33.717 72.5191 34.4789 73.2883 35.4173 73.2883C36.3557 73.2883 37.1175 72.5191 37.1175 71.5717V59.5461C37.1175 54.1243 38.6691 48.862 41.6144 44.3219L54.947 23.7604V23.751Z" fill="black"/>
</g>
<defs>
<clipPath id="clip0_604_167">
<rect width="225" height="122" fill="white"/>
</clipPath>
</defs>
</svg>
