<svg width="159" height="135" viewBox="0 0 159 135" fill="none" xmlns="http://www.w3.org/2000/svg">
<g clip-path="url(#clip0_604_113)">
<path d="M126.657 50.121C126.551 49.6722 126.446 49.2234 126.332 48.7747C126.144 48.0192 125.948 47.2563 125.744 46.5009C125.54 45.7529 125.337 45.0199 125.118 44.2869C125.027 43.9802 124.937 43.6736 124.839 43.3669C124.703 42.9256 124.575 42.4768 124.431 42.043C124.341 41.7513 124.25 41.4671 124.152 41.1828C123.994 40.6892 123.835 40.203 123.669 39.7168C123.601 39.5149 123.533 39.3129 123.458 39.1035C123.232 38.4453 123.005 37.7946 122.764 37.1513C122.764 37.1289 122.749 37.1139 122.741 37.0915C116.23 19.2525 106.076 5.64707 96.0791 1.99701C95.9207 1.93717 95.7622 1.90726 95.5963 1.88482C93.9666 1.32384 92.3521 1.02466 90.7678 1.02466C89.6286 1.02466 88.5044 1.16677 87.4256 1.45848C80.6582 3.26107 75.8901 10.3218 73.9964 21.3468C73.838 22.2818 73.7022 23.2467 73.589 24.2265L18.1597 57.8325L18.1144 57.653C17.9484 57.0471 17.5637 56.546 17.0205 56.2393C16.4848 55.9327 15.8284 55.8429 15.2324 56L1.75042 59.5753C1.14686 59.7398 0.63384 60.1213 0.324516 60.6598C0.00764758 61.1983 -0.0753418 61.8266 0.0906369 62.4325L8.87242 94.9614C9.03839 95.5673 9.42316 96.0684 9.96637 96.3751C10.321 96.5845 10.7284 96.6892 11.1433 96.6892C11.347 96.6892 11.5507 96.6593 11.7544 96.607L25.2364 93.0317C26.4888 92.7026 27.2357 91.4161 26.9037 90.1745L26.8509 89.995L30.3591 90.0847L54.6674 133.781C55.0824 134.521 55.8745 134.985 56.7271 134.985C57.0439 134.985 57.3533 134.925 57.6475 134.798L69.8545 129.63C70.4656 129.368 70.9409 128.867 71.1597 128.238C71.3709 127.618 71.3106 126.929 70.9861 126.346L50.9178 90.5933L92.0202 91.6255C98.3198 99.9204 105.397 104.924 111.923 104.924C113.069 104.924 114.201 104.775 115.287 104.491C122.047 102.688 126.815 95.6271 128.701 84.6021C130.346 74.9983 129.675 63.173 126.846 50.8914C126.785 50.6371 126.725 50.3753 126.664 50.1135L126.657 50.121ZM21.7358 89.1348L12.7955 91.5058L5.22843 63.4796L14.1686 61.1086L14.3874 61.9089C14.395 61.9538 14.4025 62.0061 14.4101 62.051L21.4717 88.1849C21.4717 88.1849 21.4943 88.2522 21.5094 88.2896L21.7358 89.1273V89.1348ZM81.4956 58.2364C78.1232 45.7828 77.0896 33.3591 78.5835 23.2467C80.0094 13.583 83.6835 7.27764 88.6478 5.95374C89.3343 5.77423 90.0435 5.67699 90.7753 5.67699C90.979 5.67699 91.1827 5.69195 91.3789 5.70691C85.8412 15.3482 84.9057 32.3943 88.942 50.667C89.3343 52.4846 89.7493 54.1974 90.2095 55.8579C90.2095 55.8803 90.217 55.9028 90.2246 55.9252C90.2321 55.9626 90.2472 55.9925 90.2548 56.0299C90.4207 56.6358 90.5943 57.2715 90.7829 57.9148C90.798 57.9746 90.8206 58.0419 90.8357 58.1018C91.1752 59.2761 91.5524 60.5102 91.9824 61.8416C91.9975 61.9014 92.0277 61.9463 92.0503 62.0061C97.7992 79.4337 107.064 93.3533 116.555 98.8509C115.77 99.3744 114.94 99.7634 114.058 100.003C108.61 101.454 101.798 97.1455 95.3096 88.312C89.5079 80.4135 84.6039 69.7401 81.4956 58.2514V58.2364ZM122.402 52.6342C126.317 70.4806 125.125 87.3023 119.882 95.3354C111.643 91.2067 102.99 78.6109 97.3843 63.0234C98.1086 62.8813 98.8479 62.7242 99.6024 62.5297C103.601 61.4601 107.2 59.7323 109.72 57.668C112.752 55.1922 114.027 52.3948 113.326 49.7994C112.42 46.4859 108.49 44.5038 102.801 44.5038C100.349 44.5038 97.6559 44.8778 95.0304 45.5809C94.2986 45.7679 93.5743 45.9922 92.8501 46.2391C89.8398 29.9484 90.9866 14.7423 96.0565 7.07569C99.7231 8.90072 103.616 12.4984 107.403 17.6594C108.467 19.1104 109.501 20.6512 110.497 22.2743C110.572 22.4015 110.647 22.5286 110.73 22.6558C110.934 22.9849 111.13 23.3215 111.326 23.658C111.5 23.9497 111.666 24.2489 111.84 24.5406C111.915 24.6753 111.99 24.8024 112.066 24.9371C114.918 30.0382 117.483 35.8947 119.542 42.1627C119.595 42.3123 119.641 42.4619 119.686 42.6115C119.829 43.0453 119.965 43.4791 120.101 43.9204C120.184 44.2046 120.274 44.4814 120.357 44.7656C120.455 45.1022 120.561 45.4388 120.659 45.7753C120.848 46.4186 121.029 47.0693 121.202 47.7126C121.217 47.7574 121.225 47.8023 121.24 47.8547C121.368 48.3334 121.489 48.8046 121.61 49.2833C121.647 49.4404 121.693 49.5974 121.73 49.7545C121.851 50.2257 121.964 50.6969 122.077 51.1682C122.13 51.3851 122.175 51.602 122.228 51.8264C122.289 52.0956 122.349 52.3649 122.409 52.6416L122.402 52.6342ZM94.7814 54.721C94.4344 53.427 94.11 52.133 93.8082 50.8391C94.6079 50.5473 95.4227 50.2856 96.2375 50.0761C98.4858 49.4778 100.757 49.1561 102.801 49.1561C106.581 49.1561 108.573 50.2332 108.784 51.0036C108.935 51.5646 108.362 52.7239 106.732 54.0553C104.71 55.7083 101.753 57.1145 98.4028 58.012C97.5276 58.2364 96.6902 58.4159 95.8905 58.558C95.4982 57.294 95.121 56.015 94.7739 54.721H94.7814ZM31.868 85.4623H31.8303C31.8303 85.4623 31.8303 85.4623 31.8227 85.4623L25.5759 85.3052L19.4271 62.5297L72.7365 30.2102C72.4422 39.2157 73.755 49.56 76.471 59.5902C79.187 69.6354 83.2686 79.2392 88.0593 86.8759L31.868 85.4623ZM45.6442 90.8177L65.5994 126.368L57.7456 129.689L35.8515 90.3315L45.6442 90.8177Z" fill="black"/>
<path d="M70.9709 58.6253L30.5928 69.3661C29.3405 69.6952 28.5936 70.9817 28.9255 72.2233C29.2047 73.2405 30.1326 73.9511 31.1964 73.9511C31.3926 73.9511 31.5963 73.9212 31.8075 73.8688L72.1856 63.1281C72.7891 62.9635 73.3022 62.582 73.6115 62.0435C73.9284 61.505 74.0113 60.8767 73.8454 60.2708C73.5059 59.0367 72.2158 58.2962 70.9634 58.6253H70.9709Z" fill="black"/>
<path d="M140.682 41.9384L154.028 38.4005C155.281 38.0714 156.028 36.7849 155.688 35.5433C155.349 34.3091 154.066 33.5687 152.806 33.8978L139.46 37.4356C138.856 37.6002 138.343 37.9816 138.034 38.5202C137.717 39.0587 137.634 39.687 137.8 40.2929C138.079 41.3101 139.015 42.0207 140.071 42.0207C140.267 42.0207 140.471 41.9907 140.682 41.9384Z" fill="black"/>
<path d="M156.646 53.5916H142.855C141.557 53.5916 140.501 54.6387 140.501 55.9252C140.501 57.2117 141.557 58.2588 142.855 58.2588H156.646C157.944 58.2588 159 57.2117 159 55.9252C159 54.6387 157.944 53.5916 156.646 53.5916Z" fill="black"/>
<path d="M155.205 73.6146L141.874 70.0767C140.622 69.7476 139.339 70.4881 138.999 71.7297C138.668 72.9713 139.414 74.2503 140.667 74.5869L153.998 78.1248C154.202 78.1771 154.398 78.2071 154.601 78.2071C155.665 78.2071 156.601 77.4965 156.872 76.4793C157.038 75.8809 156.948 75.2526 156.638 74.7066C156.322 74.168 155.816 73.7791 155.213 73.622L155.205 73.6146Z" fill="black"/>
<path d="M122.621 14.3309C123.247 14.3309 123.843 14.0916 124.288 13.6503L134.043 3.97908C134.488 3.53778 134.729 2.95437 134.729 2.32608C134.729 1.69779 134.488 1.11438 134.043 0.673079C133.598 0.23178 133.009 -0.00756836 132.376 -0.00756836C131.742 -0.00756836 131.153 0.23178 130.708 0.673079L120.953 10.3443C120.033 11.2568 120.033 12.7303 120.953 13.6428C121.398 14.0841 121.987 14.3234 122.621 14.3234V14.3309Z" fill="black"/>
<path d="M147.185 16.7094C146.537 15.5949 145.096 15.2135 143.971 15.8567L132.013 22.6931C130.889 23.3364 130.505 24.765 131.153 25.8794C131.576 26.5975 132.353 27.0463 133.19 27.0463C133.598 27.0463 134.005 26.9415 134.36 26.7321L146.318 19.8957C147.442 19.2525 147.827 17.8239 147.178 16.7094H147.185Z" fill="black"/>
</g>
<defs>
<clipPath id="clip0_604_113">
<rect width="159" height="135" fill="white"/>
</clipPath>
</defs>
</svg>
