<svg width="93" height="149" viewBox="0 0 93 149" fill="none" xmlns="http://www.w3.org/2000/svg">
<g clip-path="url(#clip0_604_180)">
<path d="M82.4321 132.517V127.74C82.4321 125.333 82.0533 122.907 81.3241 120.547C81.2957 120.377 81.2389 120.208 81.1632 120.058C80.5003 118.055 79.6102 116.089 78.4549 114.218C75.6046 109.601 73.6728 104.938 72.6974 100.358C71.9967 97.0484 68.8339 94.6506 65.1786 94.6506H63.3226C60.3776 82.3421 58.995 69.3189 59.0992 54.9512H63.4268C68.2183 54.9512 72.1103 51.0865 72.1103 46.3286C72.1103 41.5707 68.2183 37.706 63.4268 37.706H62.2715L71.9967 10.6818C72.3755 9.62868 71.8262 8.47211 70.7656 8.09599C65.5669 6.24359 61.2488 6.2624 57.8966 8.1524C56.3057 3.42269 51.8077 0 46.5142 0C41.2208 0 36.7228 3.42269 35.1319 8.1524C31.7797 6.2624 27.4616 6.24359 22.2628 8.09599C21.2023 8.47211 20.653 9.62868 21.0318 10.6818L30.757 37.706H29.6017C24.8101 37.706 20.9182 41.5707 20.9182 46.3286C20.9182 51.0865 24.8101 54.9512 29.6017 54.9512H33.9198C34.024 69.3283 32.6414 82.3609 29.6964 94.6506H27.8404C24.1851 94.6506 21.0223 97.0484 20.3216 100.358C19.3462 104.938 17.4145 109.601 14.5641 114.218C13.3994 116.099 12.4998 118.074 11.8464 120.086C11.7801 120.227 11.7327 120.368 11.7043 120.528C10.9752 122.897 10.5964 125.323 10.5964 127.74V132.517C4.46964 134.51 0.0284424 140.236 0.0284424 146.978C0.0284424 148.097 0.937515 149 2.06439 149H90.983C92.1099 149 93.019 148.097 93.019 146.978C93.019 140.236 88.5778 134.51 82.451 132.517H82.4321ZM25.5677 11.293C31.1358 9.82614 33.6073 11.6503 35.0088 13.2394C35.5675 13.8788 36.4671 14.0951 37.2625 13.8036C38.058 13.5027 38.5883 12.7505 38.5883 11.9042C38.5883 7.56942 42.1393 4.04329 46.5048 4.04329C50.8702 4.04329 54.4213 7.56942 54.4213 11.9042C54.4213 12.7505 54.9516 13.5027 55.747 13.8036C56.5424 14.0951 57.442 13.8788 58.0007 13.2394C59.4022 11.6503 61.8643 9.82614 67.4418 11.293L57.9439 37.706H35.094L25.5961 11.293H25.5677ZM24.9806 46.3286C24.9806 43.8086 27.0449 41.7587 29.5828 41.7587H59.3549H63.4078C65.9457 41.7587 68.01 43.8086 68.01 46.3286C68.01 48.8486 65.9457 50.8985 63.4078 50.8985H29.5828C27.0449 50.8985 24.9806 48.8486 24.9806 46.3286ZM37.9822 54.9512H55.0179C54.9137 69.2625 56.2678 82.3045 59.1371 94.6506H33.863C36.7322 82.3233 38.0864 69.2907 37.9822 54.9512ZM24.2988 101.195C24.6018 99.7471 26.0885 98.7033 27.8214 98.7033H31.2778C31.2778 98.7033 31.2967 98.7033 31.3062 98.7033C31.3157 98.7033 31.3252 98.7033 31.3441 98.7033H61.6655C61.6655 98.7033 61.6844 98.7033 61.7033 98.7033C61.7033 98.7033 61.7223 98.7033 61.7317 98.7033H65.1881C66.921 98.7033 68.4077 99.7565 68.7108 101.195C69.7808 106.235 71.8925 111.322 74.9796 116.334C75.4909 117.171 75.9455 118.027 76.3526 118.892H16.6569C17.0546 118.027 17.5091 117.171 18.03 116.334C21.1265 111.322 23.2382 106.235 24.2988 101.195ZM14.6494 127.74C14.6494 126.141 14.8577 124.533 15.2459 122.944H77.7541C78.1424 124.533 78.3507 126.141 78.3507 127.74V131.792C78.1234 131.783 77.9056 131.755 77.6689 131.755H15.3217C15.0944 131.755 14.8672 131.783 14.6399 131.792V127.74H14.6494ZM4.26131 144.947C5.2272 139.757 9.81991 135.808 15.3217 135.808H77.6689C83.1707 135.808 87.7634 139.757 88.7293 144.947H4.26131Z" fill="black"/>
</g>
<defs>
<clipPath id="clip0_604_180">
<rect width="93" height="149" fill="white"/>
</clipPath>
</defs>
</svg>
