<svg width="159" height="144" viewBox="0 0 159 144" fill="none" xmlns="http://www.w3.org/2000/svg">
<g clip-path="url(#clip0_604_159)">
<path d="M158.925 52.5601C158.375 45.7901 155.163 40.7601 149.399 37.6101C146.805 36.1918 143.852 35.5074 140.29 35.5156C135.343 35.5238 130.388 35.5156 125.442 35.5156C116.892 35.5156 108.058 35.5156 99.3657 35.5568C97.6557 35.5568 96.7131 35.293 96.2376 33.7922C96.0791 33.2974 95.7455 32.8851 95.4535 32.5223L95.245 32.2584C93.4599 29.9331 91.0992 28.086 88.238 26.7748C88.1212 26.7171 87.8126 26.5769 87.6457 26.478C87.7375 26.346 87.9043 26.1399 87.9961 26.0327C91.7748 21.4479 95.5453 16.8549 99.3157 12.2536L99.6577 11.8413C101.701 9.35103 103.812 6.77003 105.847 4.19727C106.665 3.16652 107.157 2.3749 107.065 1.64926C106.99 1.08028 106.598 0.709211 106.256 0.445339C104.921 -0.585411 103.995 0.321649 102.844 1.70698C101.459 3.37267 100.091 5.0631 98.7234 6.74529L97.3304 8.45221C93.0511 13.7049 88.7802 18.9576 84.5093 24.2103L84.3925 24.3588C83.917 24.9525 83.6918 25.1751 83.208 25.0679C81.2894 24.6556 79.3625 24.7381 77.494 24.8205L76.6264 24.8535C75.6171 24.8947 74.9331 24.5814 74.1823 23.7486C69.3859 18.4299 64.5644 13.1442 59.7346 7.8585L57.1487 5.02187C56.6482 4.46939 56.1394 3.96638 55.6472 3.5211C54.7713 2.73773 53.8287 2.66351 53.0446 3.33144C52.1187 4.1313 52.0103 5.15381 52.7527 6.07736L52.9779 6.35773C53.2532 6.70406 53.5284 7.05039 53.8287 7.37198C58.8254 12.8061 63.822 18.2402 68.8604 23.7156L71.171 26.2224C70.804 26.4038 70.4286 26.5934 70.0532 26.7666C66.0743 28.6219 63.43 31.038 61.9785 34.155C61.4363 35.3177 60.8023 35.4826 59.5761 35.5074C48.5735 35.4826 37.5792 35.4991 26.5766 35.5156H21.7801C19.945 35.5238 18.3017 35.5568 16.7501 35.6146C9.62637 35.8867 2.64442 41.5847 0.842627 48.5938C0.292079 50.7377 0.0418298 53.0549 0.0418298 55.8832V85.6431L0.0251465 107.916C0.0251465 108.748 0.0251465 109.581 0.058513 110.414C0.55067 119.815 7.72448 127.153 17.1255 127.854C17.4842 127.879 17.8596 127.854 18.2266 127.821C18.994 127.755 19.5029 127.731 19.7114 128.011C19.9783 128.366 19.7782 128.902 19.4528 129.685C19.3194 130.007 19.1859 130.328 19.1025 130.633C18.6437 132.324 18.1432 133.998 17.6427 135.68C17.1839 137.23 16.7168 138.789 16.283 140.347C15.9744 141.452 16.0328 142.285 16.4498 142.879C16.8753 143.489 17.6343 143.827 18.8189 143.934C19.3611 143.984 19.9033 143.984 20.4288 143.975C20.8709 143.975 21.313 143.967 21.7551 143.992C21.8886 144 22.0304 144.008 22.1555 144.008C23.8072 144.008 25.0417 143.274 26.001 141.708C27.3357 139.547 28.7371 137.379 30.0884 135.284C31.373 133.305 32.6576 131.318 33.9005 129.314C34.4928 128.357 35.0934 128.036 36.2779 128.036H36.2863C59.8013 128.069 83.3164 128.069 106.832 128.061H120.237H120.779C121.438 128.061 122.097 128.061 122.756 128.044C123.373 128.028 123.757 128.25 124.124 128.852C126.067 132.002 128.053 135.136 130.03 138.261L130.956 139.72C131.364 140.364 131.673 140.908 131.94 141.361C133.508 144.074 133.817 144.058 138.88 143.951H139.047C140.09 143.926 141.124 143.81 141.675 143.118C142.225 142.417 142.075 141.353 141.833 140.306C141.558 139.135 141.216 137.972 140.882 136.843C140.732 136.331 140.582 135.828 140.432 135.317L139.873 133.379C139.431 131.845 138.989 130.312 138.588 128.77C138.546 128.621 138.463 128.267 138.438 128.077C138.613 128.044 138.964 128.036 139.205 128.019L139.798 128.003C140.849 127.97 141.941 127.929 143.009 127.78C150.125 126.758 155.063 122.874 157.69 116.236C158.842 113.325 158.933 110.348 158.933 107.305C158.933 95.7609 158.95 84.2165 158.958 72.6639L158.975 57.9695C158.975 57.4335 158.983 56.8975 159 56.3533C159.025 55.1081 159.05 53.8217 158.95 52.5601H158.925ZM65.7823 35.5321C68.168 31.104 74.174 28.3333 80.7389 28.7126C85.527 28.993 90.924 32.1182 92.3921 35.3342C88.5383 35.631 70.9374 35.7712 65.7823 35.5403V35.5321ZM154.988 55.2895L154.946 108.138C154.946 110.125 154.838 112.459 154.054 114.677C152.102 120.21 147.48 123.641 141.7 123.855C136.72 124.036 131.865 124.061 126.476 124.069C115.207 124.086 103.937 124.086 92.6591 124.078H80.0298L68.7686 124.045C53.053 124.045 37.3456 124.045 21.63 124.045C20.9376 124.045 20.2453 124.012 19.5529 123.979C18.8522 123.946 18.1599 123.913 17.4592 123.913C11.3114 123.905 4.47124 118.528 4.07918 110.554C4.01245 109.284 4.00411 108.023 4.00411 107.074C4.00411 90.1454 3.99577 73.2163 4.00411 56.2873C4.00411 54.9844 4.02079 53.5826 4.12923 52.2055C4.60471 46.153 9.66808 39.7623 17.309 39.5397C18.2767 39.5149 19.2443 39.4819 20.2119 39.4902C57.7493 39.6551 94.8946 39.5809 129.437 39.4737C131.206 39.4737 132.991 39.5067 134.768 39.5479C136.995 39.5974 139.289 39.6551 141.558 39.6056C147.622 39.4654 154.295 44.3306 154.913 52.6343C154.979 53.5331 154.979 54.4567 154.979 55.273L154.988 55.2895ZM30.0133 127.945L29.9466 128.052C29.638 128.564 29.3961 128.976 29.1458 129.372L23.3317 138.624C22.7478 139.547 22.2473 140.108 21.3797 140.24C20.6207 140.355 20.4872 140.215 20.4872 140.207C20.4872 140.207 20.3621 140.058 20.5623 139.366C21.0044 137.807 21.5216 136.241 22.0137 134.723L22.4725 133.305C22.6393 132.785 22.8145 132.274 22.9897 131.763C23.3484 130.732 23.7071 129.66 23.9907 128.58C24.1325 128.052 24.2826 127.92 24.8499 127.92C24.8749 127.92 24.8916 127.92 24.9166 127.92C26.2179 127.937 27.5275 127.937 28.9873 127.937H30.0217L30.0133 127.945ZM137.529 140.025C137.028 140.355 136.386 140.108 135.927 139.844C135.602 139.654 135.327 139.259 135.143 138.97C134.651 138.203 134.159 137.444 133.667 136.686C131.906 133.973 130.088 131.169 128.545 128.234C128.503 128.151 128.47 128.094 128.47 128.019H129.571C130.789 128.019 132.023 128.028 133.249 128.019C133.875 128.003 134.059 128.143 134.217 128.687C134.726 130.427 135.268 132.159 135.802 133.89C136.328 135.573 136.845 137.255 137.345 138.945C137.379 139.061 137.42 139.176 137.47 139.3C137.696 139.894 137.654 139.96 137.52 140.042L137.529 140.025Z" fill="black"/>
<path d="M101.643 49.7563C96.3709 46.9939 90.5985 45.1221 84.5008 44.1738C71.4544 42.1618 58.4582 42.1782 45.8706 44.215C38.5133 45.4107 31.8984 47.802 26.1927 51.3231C19.3943 55.5203 14.798 61.4327 12.5374 68.9036C10.452 75.7807 10.1517 83.0042 11.6449 90.3844C13.4717 99.4055 18.2514 106.571 25.8507 111.684C29.7379 114.306 34.2591 116.302 39.6728 117.794C47.0134 119.814 54.6293 120.812 62.8375 120.812C64.0387 120.812 65.2566 120.787 66.4911 120.746C67.025 120.746 67.634 120.754 68.2846 120.763C69.8779 120.787 71.8632 120.82 73.8068 120.721C83.5915 120.243 92.1 118.223 99.816 114.537C109.334 109.985 115.54 102.828 118.268 93.2623C120.086 86.8881 120.328 79.9944 118.993 72.7709C117.1 62.5294 111.261 54.7781 101.651 49.7481L101.643 49.7563ZM114.906 90.5741C112.612 99.9663 106.94 106.86 98.0643 111.065C91.4243 114.207 84.0586 116.062 75.5335 116.722C73.2479 116.904 70.9539 116.961 69.1188 117.003C68.4181 117.019 67.7841 117.035 67.2836 117.06C56.4979 116.912 48.1896 116.335 40.1232 113.902C35.1433 112.401 31.2894 110.661 27.9778 108.427C20.3953 103.306 16.116 96.1071 14.8814 86.4263C14.2641 81.6024 14.5478 76.7043 15.7239 71.8639C17.6509 63.923 22.3639 57.8292 29.7379 53.7721C35.1349 50.7953 41.3494 48.8163 48.7151 47.7196C54.3874 46.8785 60.0431 46.4497 65.6486 46.4497C72.0884 46.4497 78.4531 47.0104 84.701 48.1236C92.5421 49.5172 98.9818 52.1229 104.387 56.081C109.684 59.9566 113.154 65.1104 114.706 71.4186C116.332 78.0236 116.399 84.472 114.906 90.5741Z" fill="black"/>
<path d="M126.96 46.1694V45.988C126.96 45.7571 126.96 45.5263 126.943 45.2954C126.818 43.7863 126.376 43.3328 124.958 43.2916C124.374 43.2751 123.924 43.4153 123.607 43.7204C123.164 44.1492 123.123 44.7841 123.131 45.2789C123.139 45.7406 123.131 46.2024 123.131 46.6642L123.089 88.5044C123.089 97.7482 123.089 106.984 123.089 116.228C123.089 116.986 123.123 117.737 123.148 118.495V118.726C123.198 119.806 123.857 120.359 125.108 120.375H125.15C126.192 120.375 126.835 119.806 126.893 118.8L126.918 118.396C126.968 117.646 127.018 116.871 127.018 116.096C127.002 95.3734 126.985 74.6594 126.96 53.9372V46.1694Z" fill="black"/>
<path d="M139.864 98.449C139.864 98.449 139.823 98.449 139.798 98.449C136.211 98.449 133.266 101.261 133.216 104.741C133.191 106.398 133.883 108.064 135.11 109.309C136.327 110.546 137.979 111.263 139.631 111.288C139.656 111.288 139.681 111.288 139.706 111.288C143.259 111.288 146.337 108.476 146.437 105.112C146.488 103.463 145.804 101.789 144.569 100.519C143.309 99.2241 141.591 98.4655 139.864 98.449ZM139.706 107.421C139.08 107.421 138.471 107.157 137.996 106.67C137.479 106.151 137.187 105.433 137.203 104.724C137.228 103.553 138.588 102.217 139.764 102.209H139.773C140.381 102.209 141.049 102.523 141.574 103.05C142.1 103.578 142.4 104.246 142.383 104.84C142.35 106.241 141.124 107.421 139.706 107.421Z" fill="black"/>
<path d="M151.351 71.8308C150.942 71.468 150.391 71.468 150.058 71.468H132.132C131.689 71.468 130.872 71.468 130.38 72.0782C130.105 72.4246 130.046 72.8451 130.03 73.1337C129.979 73.9088 130.196 74.519 130.655 74.8901C131.164 75.3107 131.831 75.3107 132.273 75.3107L148.848 75.3271C148.948 75.3271 149.073 75.3272 149.207 75.3354C149.407 75.3436 149.624 75.3519 149.833 75.3519C150.358 75.3519 150.892 75.2942 151.251 75.0303C152.01 74.4613 151.901 73.1337 151.801 72.6719C151.718 72.3009 151.568 72.0287 151.351 71.8308Z" fill="black"/>
<path d="M151.084 63.486C150.675 63.2057 150.208 63.1562 149.807 63.1479H149.557L131.865 63.2304C131.581 63.2304 131.197 63.2304 130.839 63.4366C130.196 63.7911 129.954 64.5992 130.18 65.6382C130.246 65.9598 130.346 66.3062 130.605 66.5783C131.064 67.0566 131.756 67.0648 132.132 67.0648C135.343 67.0813 138.58 67.0978 141.808 67.0978C144.235 67.0978 146.671 67.0978 149.082 67.0813C150.166 67.0813 151.659 67.0648 151.809 65.16C151.859 64.4756 151.584 63.8406 151.084 63.4943V63.486Z" fill="black"/>
<path d="M150.725 55.1411C150.3 54.935 149.849 54.935 149.482 54.935L131.673 54.8855C131.423 54.8855 131.089 54.8855 130.764 55.0504C130.246 55.3225 129.971 55.8998 129.996 56.6831C130.021 57.6067 130.397 58.3158 131.031 58.6292C131.423 58.8188 131.831 58.8188 132.165 58.8271L148.022 58.8683H148.431C148.598 58.8766 148.773 58.8848 148.948 58.8848C149.791 58.8848 150.7 58.8024 151.276 58.2169C151.626 57.8541 151.793 57.3593 151.76 56.7491C151.718 56.0564 151.317 55.4297 150.734 55.1494L150.725 55.1411Z" fill="black"/>
</g>
<defs>
<clipPath id="clip0_604_159">
<rect width="159" height="144" fill="white"/>
</clipPath>
</defs>
</svg>
