<svg width="455" height="242" viewBox="0 0 455 242" fill="none" xmlns="http://www.w3.org/2000/svg">
<path d="M117.298 42.6562C117.298 51.7708 110.267 59.3229 96.2043 65.3125C83.6002 70.6771 69.5637 73.3594 54.095 73.3594C42.3762 73.3594 32.5325 72.3698 24.5637 70.3906C11.0741 66.9531 4.32935 60.9896 4.32935 52.5C4.32935 42.7083 11.0741 34.8438 24.5637 28.9062C35.2929 24.2188 46.2825 21.875 57.5325 21.875C63.0012 21.875 65.7356 22.4479 65.7356 23.5938C65.7356 24.7396 62.8189 25.8333 56.9856 26.875C28.1314 31.875 13.7043 39.8958 13.7043 50.9375C13.7043 55.5729 19.0689 59.0625 29.7981 61.4062C37.4543 63.125 45.5533 63.9844 54.095 63.9844C68.5741 63.9844 81.3606 61.5625 92.4543 56.7188C102.767 52.2396 107.923 47.5521 107.923 42.6562C107.923 40.2083 106.1 35.8594 102.454 29.6094C101.986 28.8281 101.751 28.0208 101.751 27.1875C101.751 25.8854 102.246 24.7917 103.236 23.9062C104.225 22.9688 105.371 22.5 106.673 22.5C108.34 22.5 109.642 23.3073 110.579 24.9219C115.059 32.5781 117.298 38.4896 117.298 42.6562ZM94.4075 11.3281C90.0325 13.2031 84.7721 14.1406 78.6262 14.1406C73.0533 14.1406 70.2668 12.9688 70.2668 10.625C70.2668 8.95833 72.6366 7.76042 77.3762 7.03125C80.6054 6.5625 85.0585 5.13021 90.7356 2.73438C91.4127 2.42188 92.0898 2.26562 92.7668 2.26562C95.7877 2.26562 97.2981 3.90625 97.2981 7.1875C97.2981 9.16667 96.3346 10.5469 94.4075 11.3281ZM144.486 73.3594C135.215 73.3594 130.397 69.9479 130.032 63.125C129.251 49.375 127.689 33.151 125.345 14.4531C125.293 14.1406 125.267 13.8542 125.267 13.5938C125.267 12.1354 125.84 10.8073 126.986 9.60938C128.184 8.35938 129.538 7.73438 131.048 7.73438C133.079 7.73438 134.225 8.82812 134.486 11.0156C135.631 23.4635 137.22 40.3646 139.251 61.7188C139.407 63.2292 141.152 63.9844 144.486 63.9844C147.611 63.9844 149.173 65.5469 149.173 68.6719C149.173 71.7969 147.611 73.3594 144.486 73.3594ZM184.642 33.5938C189.746 35.4688 193.314 40.3646 195.345 48.2812C195.762 59.0104 196.647 64.375 198.001 64.375H198.314C200.605 64.1667 202.402 64.0625 203.704 64.0625H204.017C204.486 64.1146 204.72 64.3229 204.72 64.6875V72.1094C204.72 72.6823 201.934 73.125 196.361 73.4375C190.944 72.3438 188.236 69.7656 188.236 65.7031C188.288 64.349 188.314 63.0469 188.314 61.7969C188.314 50.2344 185.501 44.2188 179.876 43.75C178.991 43.6979 178.157 43.6719 177.376 43.6719C172.272 43.6719 168.184 45.0781 165.111 47.8906C163.965 49.0885 163.392 50.1042 163.392 50.9375C163.392 51.5625 165.085 53.125 168.47 55.625C168.47 55.7292 168.809 56.849 169.486 58.9844C169.486 64.6094 166.803 68.9062 161.439 71.875C159.199 72.3438 153.939 72.7865 145.657 73.2031L145.345 72.5781V64.8438C145.397 64.5833 145.71 64.4531 146.282 64.4531C146.803 64.4531 147.48 64.5312 148.314 64.6875C148.47 64.7396 148.626 64.7656 148.782 64.7656C149.928 64.7656 150.501 63.9062 150.501 62.1875C150.501 61.6667 150.449 61.0417 150.345 60.3125C150.345 51.8229 156.725 43.4375 169.486 35.1562C172.506 33.3854 175.579 32.5 178.704 32.5C180.684 32.5 182.663 32.8646 184.642 33.5938ZM238.079 73.3594C231.465 73.3594 226.699 71.0417 223.782 66.4062C217.324 71.0417 210.71 73.3594 203.939 73.3594C200.814 73.3594 199.251 71.7969 199.251 68.6719C199.251 65.5469 200.814 63.9844 203.939 63.9844C211.022 63.9844 217.637 60.625 223.782 53.9062C225.032 52.5 226.413 51.7969 227.923 51.7969C230.684 51.7969 232.064 53.2812 232.064 56.25C232.064 56.7188 231.96 57.3177 231.751 58.0469C231.543 58.724 231.439 59.2448 231.439 59.6094C231.439 62.526 233.652 63.9844 238.079 63.9844C241.204 63.9844 242.767 65.5469 242.767 68.6719C242.767 71.7969 241.204 73.3594 238.079 73.3594ZM233.47 98.4375C229.095 100.312 223.835 101.25 217.689 101.25C212.116 101.25 209.329 100.078 209.329 97.7344C209.329 96.0677 211.699 94.8698 216.439 94.1406C219.668 93.6719 224.121 92.2396 229.798 89.8438C230.475 89.5312 231.152 89.375 231.829 89.375C234.85 89.375 236.361 91.0156 236.361 94.2969C236.361 96.276 235.397 97.6562 233.47 98.4375ZM272.298 33.5938C277.402 35.4688 280.97 40.3646 283.001 48.2812C283.418 59.0104 284.303 64.375 285.657 64.375H285.97C288.262 64.1667 290.059 64.0625 291.361 64.0625H291.673C292.142 64.1146 292.376 64.3229 292.376 64.6875V72.1094C292.376 72.6823 289.59 73.125 284.017 73.4375C278.6 72.3438 275.892 69.7656 275.892 65.7031C275.944 64.349 275.97 63.0469 275.97 61.7969C275.97 50.2344 273.157 44.2188 267.532 43.75C266.647 43.6979 265.814 43.6719 265.032 43.6719C259.928 43.6719 255.84 45.0781 252.767 47.8906C251.621 49.0885 251.048 50.1042 251.048 50.9375C251.048 51.5625 252.741 53.125 256.126 55.625C256.126 55.7292 256.465 56.849 257.142 58.9844C257.142 64.6094 254.46 68.9062 249.095 71.875C246.855 72.3438 241.595 72.7865 233.314 73.2031L233.001 72.5781V64.8438C233.053 64.5833 233.366 64.4531 233.939 64.4531C234.46 64.4531 235.137 64.5312 235.97 64.6875C236.126 64.7396 236.282 64.7656 236.439 64.7656C237.585 64.7656 238.157 63.9062 238.157 62.1875C238.157 61.6667 238.105 61.0417 238.001 60.3125C238.001 51.8229 244.381 43.4375 257.142 35.1562C260.163 33.3854 263.236 32.5 266.361 32.5C268.34 32.5 270.319 32.8646 272.298 33.5938ZM377.923 34.4531C374.069 39.974 366.934 45.8854 356.517 52.1875C346.152 58.4375 337.506 62.0833 330.579 63.125C328.392 63.4375 326.361 63.5938 324.486 63.5938C317.09 63.5938 312.142 61.1458 309.642 56.25C309.381 57.0833 309.199 57.5 309.095 57.5C309.043 57.5 309.017 57.3698 309.017 57.1094C309.017 54.5573 310.527 52.2396 313.548 50.1562C315.579 50.1562 317.194 51.0417 318.392 52.8125C319.434 54.375 321.178 55.1562 323.626 55.1562C325.137 55.1562 326.907 54.8698 328.939 54.2969C343.21 50.8073 356.96 42.4219 370.189 29.1406C370.762 28.3073 371.048 27.5521 371.048 26.875C371.048 25.1042 369.173 24.2188 365.423 24.2188C362.09 24.2188 356.282 27.8385 348.001 35.0781C339.147 42.7865 334.694 49.0104 334.642 53.75C334.642 60.5729 340.085 63.9844 350.97 63.9844C354.095 63.9844 355.657 65.5469 355.657 68.6719C355.657 71.7969 354.095 73.3594 350.97 73.3594C334.095 73.3594 325.657 67.1354 325.657 54.6875V53.9844C325.762 48.8802 328.444 43.3333 333.704 37.3438C335.684 35.0521 340.319 30.6771 347.611 24.2188C349.798 22.2396 352.741 20.3906 356.439 18.6719C360.605 16.6406 364.121 15.625 366.986 15.625C376.673 15.625 381.517 18.776 381.517 25.0781C381.517 27.8906 380.319 31.0156 377.923 34.4531ZM321.204 54.1406C318.079 57.3177 313.861 61.1979 308.548 65.7812C302.454 70.7292 296.803 73.2031 291.595 73.2031C288.47 73.2031 286.907 71.6406 286.907 68.5156C286.907 65.3906 288.47 63.8281 291.595 63.8281C295.501 63.8281 299.876 61.6667 304.72 57.3438C309.147 53.1771 312.454 49.8698 314.642 47.4219C315.579 46.3802 316.647 45.8594 317.845 45.8594C319.043 45.8594 320.137 46.3802 321.126 47.4219C322.116 48.4115 322.611 49.5573 322.611 50.8594C322.611 52.1094 322.142 53.2031 321.204 54.1406ZM376.907 73.3594C372.376 74.2969 367.793 74.7656 363.157 74.7656C358.522 74.7656 353.809 74.2969 349.017 73.3594C346.152 73.3594 344.72 71.7969 344.72 68.6719C344.72 65.5469 346.152 63.9844 349.017 63.9844C354.746 64.9219 360.111 65.3906 365.111 65.3906C370.111 65.3906 374.772 64.9219 379.095 63.9844C380.501 63.9844 381.204 65.5469 381.204 68.6719C381.204 71.7969 379.772 73.3594 376.907 73.3594ZM412.923 73.3594C406.309 73.3594 401.543 71.0417 398.626 66.4062C392.168 71.0417 385.553 73.3594 378.782 73.3594C375.657 73.3594 374.095 71.7969 374.095 68.6719C374.095 65.5469 375.657 63.9844 378.782 63.9844C385.866 63.9844 392.48 60.625 398.626 53.9062C399.876 52.5 401.256 51.7969 402.767 51.7969C405.527 51.7969 406.907 53.2812 406.907 56.25C406.907 56.7188 406.803 57.3177 406.595 58.0469C406.387 58.724 406.282 59.2448 406.282 59.6094C406.282 62.526 408.496 63.9844 412.923 63.9844C416.048 63.9844 417.611 65.5469 417.611 68.6719C417.611 71.7969 416.048 73.3594 412.923 73.3594ZM403.548 41.5625C399.173 43.4375 393.913 44.375 387.767 44.375C382.194 44.375 379.407 43.2031 379.407 40.8594C379.407 39.1927 381.777 37.9948 386.517 37.2656C389.746 36.7969 394.199 35.3646 399.876 32.9688C400.553 32.6562 401.23 32.5 401.907 32.5C404.928 32.5 406.439 34.1406 406.439 37.4219C406.439 39.401 405.475 40.7812 403.548 41.5625ZM434.251 52.6562C434.355 53.9062 434.407 55.0781 434.407 56.1719C434.407 62.6302 430.996 67.1354 424.173 69.6875C417.663 72.1354 412.324 73.3594 408.157 73.3594C405.032 73.3594 403.47 71.7969 403.47 68.6719C403.47 65.5469 405.032 63.9844 408.157 63.9844C411.803 63.9844 415.736 63.125 419.954 61.4062C422.35 60.4167 423.835 59.4271 424.407 58.4375C424.824 57.6562 425.032 56.3802 425.032 54.6094C425.032 54.0885 425.006 53.5156 424.954 52.8906C423.965 42.9948 422.637 27.6562 420.97 6.875V6.25C420.97 4.63542 421.543 3.22917 422.689 2.03125C423.991 0.677083 425.371 0 426.829 0C428.704 0 429.746 1.09375 429.954 3.28125C432.142 29.7396 433.574 46.1979 434.251 52.6562ZM454.642 53.9062C454.746 55.0521 454.798 56.1719 454.798 57.2656C454.798 64.1927 453.678 67.6562 451.439 67.6562C449.772 67.6562 448.392 64.974 447.298 59.6094C446.725 56.7448 445.84 50.1562 444.642 39.8438C443.861 33.0729 442.975 24.5312 441.986 14.2188V13.6719C441.986 11.3281 442.585 9.34896 443.782 7.73438C444.928 6.17188 446.23 5.39062 447.689 5.39062C449.46 5.39062 450.449 6.5625 450.657 8.90625C451.647 19.4271 452.975 34.4271 454.642 53.9062Z" fill="#FFF000"/>
<path d="M48.192 204.654H57.024V218.094H32.832C13.728 218.094 -2.89679e-05 209.358 -2.89679e-05 191.118C-2.89679e-05 175.566 12.192 164.046 32.832 164.046H34.752V159.246H48.192V204.654ZM28.896 204.654H34.752V177.486H29.568C21.696 177.486 13.44 182.478 13.44 191.118C13.44 199.95 20.928 204.654 28.896 204.654ZM40.128 152.142C36.096 152.142 32.64 149.742 32.64 145.23C32.64 141.198 35.904 138.414 40.128 138.414C44.448 138.414 47.616 141.198 47.616 145.23C47.616 149.742 44.16 152.142 40.128 152.142ZM19.296 152.142C15.264 152.142 11.808 149.742 11.808 145.23C11.808 141.198 15.072 138.414 19.296 138.414C23.52 138.414 26.784 141.198 26.784 145.23C26.784 149.742 23.328 152.142 19.296 152.142ZM55.1887 218.094V204.654H74.1007V218.094H55.1887ZM72.1575 218.094V204.654H91.0695V218.094H72.1575ZM89.1262 218.094V204.654H108.038V218.094H89.1262ZM106.095 218.094V204.654H125.007V218.094H106.095ZM123.064 218.094V204.654H143.128V164.046H156.568V204.654H174.232V218.094H123.064ZM159.544 238.542C155.512 238.542 152.056 236.142 152.056 231.726C152.056 227.598 155.32 224.814 159.544 224.814C163.864 224.814 167.032 227.598 167.032 231.726C167.032 236.142 163.576 238.542 159.544 238.542ZM138.712 238.542C134.68 238.542 131.224 236.142 131.224 231.726C131.224 227.598 134.488 224.814 138.712 224.814C142.936 224.814 146.2 227.598 146.2 231.726C146.2 236.142 142.744 238.542 138.712 238.542ZM172.282 218.094V204.654H182.746C180.634 200.238 178.714 194.67 178.714 188.622C178.714 179.502 182.746 172.494 188.314 167.886C192.73 164.238 198.97 162.222 205.786 162.222C212.89 162.222 219.226 164.238 225.754 167.502L221.242 179.694C217.21 177.39 211.93 175.566 207.418 175.566C203.002 175.566 199.546 176.622 196.954 178.83C193.498 181.71 192.25 185.454 192.25 189.678C192.25 195.822 194.17 200.718 197.338 204.654H227.77V218.094H172.282ZM243.919 218.094V140.238H257.359V218.094H243.919ZM267.892 218.094V204.654H301.396V189.966C301.396 186.126 300.532 183.342 298.804 181.134C297.172 179.022 294.1 177.486 290.644 177.486H284.884V164.046H289.3C297.94 164.046 304.468 166.158 309.268 171.246C313.3 175.566 314.836 182.67 314.836 190.542V204.654H325.204V218.094H267.892ZM342.223 238.542C337.999 238.542 334.351 236.046 334.351 231.342C334.351 227.118 337.807 224.238 342.223 224.238C346.735 224.238 350.095 227.118 350.095 231.342C350.095 236.046 346.447 238.542 342.223 238.542ZM323.407 218.094V204.654H335.311V164.046H348.751V218.094H323.407ZM379.972 241.806C372.484 241.806 367.876 238.542 367.876 229.902V225.486H387.844V232.686H375.556C375.556 235.758 376.9 237.486 380.74 237.486H384.772V241.806H379.972ZM361.444 218.094L359.812 204.654H387.172C391.492 204.654 395.332 203.598 398.02 201.39C400.612 199.182 402.052 196.11 402.052 191.406V133.134H421.732V146.574H415.492V190.926C415.492 198.798 413.188 206.67 408.292 211.182C402.82 216.174 394.66 218.094 384.388 218.094H361.444ZM373.444 199.854V149.262H386.884V199.854H373.444ZM438.637 218.094V140.238H452.077V218.094H438.637Z" fill="white"/>
</svg>
