<svg width="510" height="167" viewBox="0 0 510 167" fill="none" xmlns="http://www.w3.org/2000/svg">
<path d="M24.075 70.2002C15.15 70.2002 9.6 68.4002 5.025 64.0502C1.35 60.6002 5.58794e-08 54.6002 5.58794e-08 48.5252V32.1002H10.5V47.2502C10.5 51.6752 11.325 54.9002 13.65 56.8502C16.2 59.0252 20.4 59.7002 24.825 59.7002H35.775V38.5502C35.775 31.3502 37.725 26.1752 42.225 22.5752C45.675 19.8752 50.775 18.6002 56.55 18.6002H70.725V50.3252H78.75V60.8252H60.225V29.1002H55.425C52.8 29.1002 50.775 29.6252 49.05 30.9752C47.325 32.3252 46.275 35.3252 46.275 37.8752V70.2002H24.075ZM20.325 83.9252C17.175 83.9252 14.475 82.0502 14.475 78.6002C14.475 75.3752 17.025 73.2002 20.325 73.2002C23.625 73.2002 26.175 75.3752 26.175 78.6002C26.175 82.0502 23.475 83.9252 20.325 83.9252ZM36.6 83.9252C33.45 83.9252 30.75 82.0502 30.75 78.6002C30.75 75.3752 33.3 73.2002 36.6 73.2002C39.975 73.2002 42.45 75.3752 42.45 78.6002C42.45 82.0502 39.75 83.9252 36.6 83.9252ZM77.3291 60.8252V50.3252H84.6791V18.6002H95.1791V22.3502H118.054C124.804 22.3502 129.904 24.0002 133.654 27.9752C136.804 31.3502 138.004 36.9002 138.004 43.0502V60.8252H77.3291ZM119.104 32.7752H95.1791V50.3252H127.504V42.6002C127.504 39.6002 126.829 37.4252 125.479 35.7002C124.204 34.0502 121.804 32.7752 119.104 32.7752ZM111.079 15.6002C107.779 15.6002 104.929 13.6502 104.929 9.97519C104.929 6.67519 107.629 4.42519 111.079 4.42519C114.604 4.42519 117.229 6.67519 117.229 9.97519C117.229 13.6502 114.379 15.6002 111.079 15.6002ZM151.605 60.8252V0.000191629H162.105V50.3252H171.705V60.8252H151.605ZM170.2 60.8252V50.3252H177.475C177.1 48.8252 176.95 47.1752 176.95 45.5252C176.95 32.7752 187 22.5752 199.375 22.5752C212.05 22.5752 222.175 32.5502 222.175 45.5252C222.175 47.1752 221.95 48.8252 221.65 50.3252H230.05V60.8252H216.025C211.825 65.2502 205.825 67.9502 199.375 67.9502C193 67.9502 187.15 65.1752 183.025 60.8252H170.2ZM199.375 57.4502C206.275 57.4502 211.675 52.4252 211.675 45.3752C211.675 38.3252 206.575 33.0752 199.375 33.0752C192.4 33.0752 187.45 38.5502 187.45 45.3752C187.45 52.1252 192.625 57.4502 199.375 57.4502ZM228.574 60.8252V50.3252H235.924V0.000191629H251.299V10.5002H246.424V60.8252H228.574ZM264.032 60.8252V0.000191629H274.532V60.8252H264.032ZM310.947 77.3252C308.997 77.3252 306.897 77.0252 305.622 76.6502L304.872 66.1502C306.822 66.6752 308.247 66.8252 309.822 66.8252C314.022 66.8252 315.447 64.6502 315.447 59.4752V18.6002H325.947V57.9752C325.947 71.5502 321.672 77.3252 310.947 77.3252ZM340.204 60.8252V0.000191629H350.704V50.3252H360.304V60.8252H340.204ZM358.799 60.8252V50.3252H405.524V42.3002C405.524 39.3002 404.849 37.1252 403.499 35.4002C402.224 33.7502 399.824 32.4752 397.124 32.4752H365.774C363.899 30.0002 362.324 26.5502 362.174 22.0502L374.324 0.000191629H385.574L373.949 22.0502H396.074C402.824 22.0502 407.924 23.7002 411.674 27.6752C414.824 31.0502 416.024 36.6002 416.024 42.7502V50.3252H424.049V60.8252H358.799ZM422.593 60.8252V50.3252H438.268V18.6002H448.768V50.3252H462.568V60.8252H422.593ZM451.168 12.2252C448.018 12.2252 445.318 10.3502 445.318 6.82519C445.318 3.67519 447.868 1.50019 451.168 1.50019C454.543 1.50019 457.018 3.67519 457.018 6.82519C457.018 10.3502 454.318 12.2252 451.168 12.2252ZM434.893 12.2252C431.743 12.2252 429.043 10.3502 429.043 6.82519C429.043 3.67519 431.593 1.50019 434.893 1.50019C438.193 1.50019 440.743 3.67519 440.743 6.82519C440.743 10.3502 438.043 12.2252 434.893 12.2252ZM475.745 76.8002C472.445 76.8002 469.595 74.8502 469.595 71.1752C469.595 67.8752 472.295 65.6252 475.745 65.6252C479.27 65.6252 481.895 67.8752 481.895 71.1752C481.895 74.8502 479.045 76.8002 475.745 76.8002ZM461.045 60.8252V50.3252H470.345V18.6002H480.845V60.8252H461.045ZM503.061 77.2502C497.211 77.2502 493.611 74.7002 493.611 67.9502V64.5002H509.211V70.1252H499.611C499.611 72.5252 500.661 73.8752 503.661 73.8752H506.811V77.2502H503.061ZM496.236 60.8252V0.000191629H506.736V60.8252H496.236Z" fill="#FFF000"/>
<path d="M95.4111 144.185C90.2236 144.185 87.1299 142.263 86.1299 138.419C86.0674 138.138 86.0361 137.872 86.0361 137.622C86.0361 135.81 87.0049 134.903 88.9424 134.903C90.3174 134.903 91.1924 135.606 91.5674 137.013C91.8486 138.044 93.1299 138.56 95.4111 138.56C97.2861 138.56 98.2236 139.497 98.2236 141.372C98.2236 143.247 97.2861 144.185 95.4111 144.185ZM91.5205 141.372C91.5205 150.372 86.8018 157.06 77.3643 161.435C70.4893 164.653 62.5049 166.263 53.4111 166.263C46.0986 166.263 39.708 165.231 34.2393 163.169C26.458 160.263 22.5674 155.716 22.5674 149.528C22.5674 143.841 26.0205 139.31 32.9268 135.935C39.6143 132.653 48.3018 131.013 58.9893 131.013C60.8018 131.013 62.6299 131.06 64.4736 131.153C67.7549 131.341 69.3955 131.997 69.3955 133.122C69.3955 134.185 67.7861 134.794 64.5674 134.95C52.3174 135.544 42.9893 137.294 36.583 140.2C30.9893 142.731 28.1924 145.841 28.1924 149.528C28.1924 153.685 31.6143 156.731 38.458 158.669C43.0205 159.981 48.0049 160.638 53.4111 160.638C61.8174 160.638 69.0049 159.216 74.9736 156.372C82.2549 152.903 85.8955 147.903 85.8955 141.372C85.8955 139.435 84.8018 127.575 82.6143 105.794V105.325C82.6143 103.575 83.5674 102.7 85.4736 102.7C87.1299 102.7 88.0518 103.544 88.2393 105.231C90.4268 127.2 91.5205 139.247 91.5205 141.372ZM116.927 144.185C112.958 144.185 110.099 142.794 108.349 140.013C104.474 142.794 100.505 144.185 96.4424 144.185C94.5674 144.185 93.6299 143.247 93.6299 141.372C93.6299 139.497 94.5674 138.56 96.4424 138.56C100.692 138.56 104.661 136.544 108.349 132.513C109.099 131.669 109.927 131.247 110.833 131.247C112.489 131.247 113.317 132.138 113.317 133.919C113.317 134.2 113.255 134.56 113.13 134.997C113.005 135.403 112.942 135.716 112.942 135.935C112.942 137.685 114.271 138.56 116.927 138.56C118.802 138.56 119.739 139.497 119.739 141.372C119.739 143.247 118.802 144.185 116.927 144.185ZM109.849 155.95L108.255 158.528C107.692 159.435 106.927 159.888 105.958 159.888C105.177 159.888 104.489 159.606 103.896 159.044C103.302 158.513 103.005 157.856 103.005 157.075C103.005 156.575 103.161 156.06 103.474 155.528L105.067 152.95C105.63 152.044 106.396 151.591 107.364 151.591C108.146 151.591 108.833 151.856 109.427 152.388C110.021 152.95 110.317 153.622 110.317 154.403C110.317 154.903 110.161 155.419 109.849 155.95ZM147.067 144.185C141.317 144.185 136.786 143.372 133.474 141.747C129.88 139.935 128.083 137.294 128.083 133.825C128.083 133.544 128.099 133.278 128.13 133.028C128.38 129.278 129.802 126.2 132.396 123.794C134.677 121.7 137.161 120.653 139.849 120.653C141.161 120.653 142.271 120.966 143.177 121.591C144.864 122.747 145.708 124.653 145.708 127.31C145.708 130.372 144.942 132.981 143.411 135.138C140.942 138.544 136.974 141.122 131.505 142.872C127.161 143.622 122.567 143.997 117.724 143.997C115.849 143.997 114.911 143.06 114.911 141.185C114.911 139.403 115.88 138.513 117.817 138.513H118.099C122.161 138.419 126.161 138.06 130.099 137.435C134.38 136.06 137.317 134.263 138.911 132.044C139.599 131.075 139.942 130.185 139.942 129.372C139.942 127.997 139.208 127.31 137.739 127.31C135.333 127.31 134.021 128.903 133.802 132.091V132.466C133.802 134.341 134.974 135.825 137.317 136.919C139.692 138.013 142.942 138.56 147.067 138.56C148.942 138.56 149.88 139.497 149.88 141.372C149.88 143.247 148.942 144.185 147.067 144.185ZM144.208 110.247C141.583 111.372 138.427 111.935 134.739 111.935C131.396 111.935 129.724 111.231 129.724 109.825C129.724 108.825 131.146 108.106 133.989 107.669C135.927 107.388 138.599 106.528 142.005 105.091C142.411 104.903 142.817 104.81 143.224 104.81C145.036 104.81 145.942 105.794 145.942 107.763C145.942 108.95 145.364 109.778 144.208 110.247ZM168.302 144.185C164.333 144.185 161.474 142.794 159.724 140.013C155.849 142.794 151.88 144.185 147.817 144.185C145.942 144.185 145.005 143.247 145.005 141.372C145.005 139.497 145.942 138.56 147.817 138.56C152.067 138.56 156.036 136.544 159.724 132.513C160.474 131.669 161.302 131.247 162.208 131.247C163.864 131.247 164.692 132.138 164.692 133.919C164.692 134.2 164.63 134.56 164.505 134.997C164.38 135.403 164.317 135.716 164.317 135.935C164.317 137.685 165.646 138.56 168.302 138.56C170.177 138.56 171.114 139.497 171.114 141.372C171.114 143.247 170.177 144.185 168.302 144.185ZM162.677 125.106C160.052 126.231 156.896 126.794 153.208 126.794C149.864 126.794 148.192 126.091 148.192 124.685C148.192 123.685 149.614 122.966 152.458 122.528C154.396 122.247 157.067 121.388 160.474 119.95C160.88 119.763 161.286 119.669 161.692 119.669C163.505 119.669 164.411 120.653 164.411 122.622C164.411 123.81 163.833 124.638 162.677 125.106ZM172.474 144.185H165.442C163.567 144.185 162.63 143.247 162.63 141.372C162.63 139.497 163.567 138.56 165.442 138.56H172.474C174.349 138.56 175.286 139.497 175.286 141.372C175.286 143.247 174.349 144.185 172.474 144.185ZM217.942 143.716C213.38 143.716 210.396 142.091 208.989 138.841C208.802 138.403 208.708 137.966 208.708 137.528C208.708 136.716 208.989 136.044 209.552 135.513C210.114 134.95 210.755 134.669 211.474 134.669C212.474 134.669 213.208 135.2 213.677 136.263C214.208 137.481 215.63 138.091 217.942 138.091C219.817 138.091 220.755 139.028 220.755 140.903C220.755 142.778 219.817 143.716 217.942 143.716ZM216.208 133.778C215.396 136.528 213.911 138.872 211.755 140.81C209.349 142.997 206.661 144.091 203.692 144.091C201.692 144.091 199.692 143.56 197.692 142.497C196.692 141.997 196.192 141.231 196.192 140.2C196.192 139.419 196.474 138.716 197.036 138.091C197.599 137.466 198.255 137.153 199.005 137.153C199.505 137.153 199.989 137.294 200.458 137.575C201.614 138.263 202.755 138.606 203.88 138.606C207.224 138.606 209.521 136.466 210.771 132.185C211.177 130.841 212.052 130.169 213.396 130.169C215.333 130.169 216.302 131.075 216.302 132.888C216.302 133.169 216.271 133.466 216.208 133.778ZM205.005 135.185C203.817 137.966 202.052 140.31 199.708 142.216C197.146 144.31 194.458 145.356 191.646 145.356C187.739 145.356 185.083 143.356 183.677 139.356C183.552 138.981 183.489 138.638 183.489 138.325C183.489 136.513 184.474 135.606 186.442 135.606C187.724 135.606 188.583 136.231 189.021 137.481C189.583 139.106 190.552 139.919 191.927 139.919C193.583 139.919 195.192 139.122 196.755 137.528C198.067 136.247 199.099 134.747 199.849 133.028C200.317 131.872 201.146 131.294 202.333 131.294C204.271 131.294 205.239 132.2 205.239 134.013C205.239 134.388 205.161 134.778 205.005 135.185ZM192.677 135.981C188.458 141.45 182.552 144.185 174.958 144.185C174.177 144.185 173.38 144.153 172.567 144.091C170.692 144.091 169.755 143.153 169.755 141.278C169.755 139.403 170.692 138.466 172.567 138.466C173.38 138.528 174.177 138.56 174.958 138.56C180.677 138.56 185.083 136.544 188.177 132.513C188.771 131.763 189.505 131.388 190.38 131.388C191.13 131.388 191.802 131.669 192.396 132.231C192.989 132.794 193.286 133.466 193.286 134.247C193.286 134.841 193.083 135.419 192.677 135.981ZM241.427 120.325C244.489 121.45 246.63 124.388 247.849 129.138C248.099 135.575 248.63 138.794 249.442 138.794H249.63C251.005 138.669 252.083 138.606 252.864 138.606H253.052C253.333 138.638 253.474 138.763 253.474 138.981V143.435C253.474 143.778 251.802 144.044 248.458 144.231C245.208 143.575 243.583 142.028 243.583 139.591C243.614 138.778 243.63 137.997 243.63 137.247C243.63 130.31 241.942 126.7 238.567 126.419C238.036 126.388 237.536 126.372 237.067 126.372C234.005 126.372 231.552 127.216 229.708 128.903C229.021 129.622 228.677 130.231 228.677 130.731C228.677 131.106 229.692 132.044 231.724 133.544C231.724 133.606 231.927 134.278 232.333 135.56C232.333 138.935 230.724 141.513 227.505 143.294C226.161 143.575 223.005 143.841 218.036 144.091L217.849 143.716V139.075C217.88 138.919 218.067 138.841 218.411 138.841C218.724 138.841 219.13 138.888 219.63 138.981C219.724 139.013 219.817 139.028 219.911 139.028C220.599 139.028 220.942 138.513 220.942 137.481C220.942 137.169 220.911 136.794 220.849 136.356C220.849 131.263 224.677 126.231 232.333 121.263C234.146 120.2 235.989 119.669 237.864 119.669C239.052 119.669 240.239 119.888 241.427 120.325ZM268.661 131.763C268.724 132.513 268.755 133.216 268.755 133.872C268.755 137.747 266.708 140.45 262.614 141.981C258.708 143.45 255.505 144.185 253.005 144.185C251.13 144.185 250.192 143.247 250.192 141.372C250.192 139.497 251.13 138.56 253.005 138.56C255.192 138.56 257.552 138.044 260.083 137.013C261.521 136.419 262.411 135.825 262.755 135.231C263.005 134.763 263.13 133.997 263.13 132.935C263.13 132.622 263.114 132.278 263.083 131.903C262.489 125.966 261.692 116.763 260.692 104.294V103.919C260.692 102.95 261.036 102.106 261.724 101.388C262.505 100.575 263.333 100.169 264.208 100.169C265.333 100.169 265.958 100.825 266.083 102.138C267.396 118.013 268.255 127.888 268.661 131.763ZM280.896 132.513C280.958 133.2 280.989 133.872 280.989 134.528C280.989 138.685 280.317 140.763 278.974 140.763C277.974 140.763 277.146 139.153 276.489 135.935C276.146 134.216 275.614 130.263 274.896 124.075C274.427 120.013 273.896 114.888 273.302 108.7V108.372C273.302 106.966 273.661 105.778 274.38 104.81C275.067 103.872 275.849 103.403 276.724 103.403C277.786 103.403 278.38 104.106 278.505 105.513C279.099 111.825 279.896 120.825 280.896 132.513ZM374.364 125.763C374.364 131.231 370.146 135.763 361.708 139.356C354.146 142.575 345.724 144.185 336.442 144.185C329.411 144.185 323.505 143.591 318.724 142.403C310.63 140.341 306.583 136.763 306.583 131.669C306.583 125.794 310.63 121.075 318.724 117.513C325.161 114.7 331.755 113.294 338.505 113.294C341.786 113.294 343.427 113.638 343.427 114.325C343.427 115.013 341.677 115.669 338.177 116.294C320.864 119.294 312.208 124.106 312.208 130.731C312.208 133.513 315.427 135.606 321.864 137.013C326.458 138.044 331.317 138.56 336.442 138.56C345.13 138.56 352.802 137.106 359.458 134.2C365.646 131.513 368.739 128.7 368.739 125.763C368.739 124.294 367.646 121.685 365.458 117.935C365.177 117.466 365.036 116.981 365.036 116.481C365.036 115.7 365.333 115.044 365.927 114.513C366.521 113.95 367.208 113.669 367.989 113.669C368.989 113.669 369.771 114.153 370.333 115.122C373.021 119.716 374.364 123.263 374.364 125.763ZM360.63 106.966C358.005 108.091 354.849 108.653 351.161 108.653C347.817 108.653 346.146 107.95 346.146 106.544C346.146 105.544 347.567 104.825 350.411 104.388C352.349 104.106 355.021 103.247 358.427 101.81C358.833 101.622 359.239 101.528 359.646 101.528C361.458 101.528 362.364 102.513 362.364 104.481C362.364 105.669 361.786 106.497 360.63 106.966ZM386.927 132.513C386.989 133.2 387.021 133.872 387.021 134.528C387.021 138.685 386.349 140.763 385.005 140.763C384.005 140.763 383.177 139.153 382.521 135.935C382.177 134.216 381.646 130.263 380.927 124.075C380.458 120.013 379.927 114.888 379.333 108.7V108.372C379.333 106.966 379.692 105.778 380.411 104.81C381.099 103.872 381.88 103.403 382.755 103.403C383.817 103.403 384.411 104.106 384.536 105.513C385.13 111.825 385.927 120.825 386.927 132.513ZM420.536 135.138C420.536 141.169 415.849 145.841 406.474 149.153C400.911 151.122 395.255 152.106 389.505 152.106C387.88 152.106 386.458 151.903 385.239 151.497C384.021 151.122 383.411 150.716 383.411 150.278C383.411 149.466 384.489 148.856 386.646 148.45C394.052 147.044 399.021 145.888 401.552 144.981C410.458 141.794 414.911 138.935 414.911 136.403C414.911 135.56 414.646 135.138 414.114 135.138C413.989 135.138 413.864 135.153 413.739 135.185C413.021 135.372 412.271 135.466 411.489 135.466C408.083 135.466 406.38 134.153 406.38 131.528C406.38 129.778 407.052 128.138 408.396 126.606C409.771 125.044 411.442 124.263 413.411 124.263C415.224 124.263 416.896 125.513 418.427 128.013C419.833 130.356 420.536 132.731 420.536 135.138ZM454.567 138.185C454.567 143.122 450.567 146.763 442.567 149.106C436.224 150.981 431.067 151.919 427.099 151.919C425.817 151.919 424.708 151.669 423.771 151.169C422.833 150.669 422.364 150.106 422.364 149.481C422.364 147.794 423.942 146.778 427.099 146.435C431.505 145.935 436.052 144.95 440.739 143.481C446.458 141.7 449.317 139.95 449.317 138.231C449.317 137.263 448.427 135.981 446.646 134.388C444.864 132.763 443.974 131.481 443.974 130.544C443.974 128.544 444.786 127.544 446.411 127.544C447.224 127.544 448.677 128.591 450.771 130.685C453.302 133.216 454.567 135.716 454.567 138.185ZM465.63 93.8408C465.63 95.6533 464.646 97.3564 462.677 98.9502C460.739 100.513 458.849 101.294 457.005 101.294C455.974 101.294 455.458 100.81 455.458 99.8408C455.458 99.0596 455.88 98.5127 456.724 98.2002C459.411 97.2314 461.036 95.9814 461.599 94.4502C459.317 93.8877 458.177 92.9346 458.177 91.5908C458.177 90.4971 458.724 89.2627 459.817 87.8877C460.755 86.7002 461.786 85.7627 462.911 85.0752C463.286 84.8564 463.677 84.7471 464.083 84.7471C465.239 84.7471 465.817 85.2314 465.817 86.2002C465.817 86.7002 465.552 87.1689 465.021 87.6064C463.552 88.7627 462.599 89.9033 462.161 91.0283C463.505 91.4033 464.286 91.6533 464.505 91.7783C465.255 92.1846 465.63 92.8721 465.63 93.8408ZM470.646 144.185C465.083 144.185 462.192 142.138 461.974 138.044C461.505 129.794 460.567 120.06 459.161 108.841C459.13 108.653 459.114 108.481 459.114 108.325C459.114 107.45 459.458 106.653 460.146 105.935C460.864 105.185 461.677 104.81 462.583 104.81C463.802 104.81 464.489 105.466 464.646 106.778C465.333 114.247 466.286 124.388 467.505 137.2C467.599 138.106 468.646 138.56 470.646 138.56C472.521 138.56 473.458 139.497 473.458 141.372C473.458 143.247 472.521 144.185 470.646 144.185ZM488.177 132.794C488.177 136.231 486.036 139.075 481.755 141.325C478.161 143.231 474.505 144.185 470.786 144.185C468.911 144.185 467.974 143.247 467.974 141.372C467.974 139.497 468.911 138.56 470.786 138.56C472.661 138.56 474.958 138.028 477.677 136.966C480.927 135.716 482.552 134.325 482.552 132.794C482.552 130.388 482.13 128.341 481.286 126.653C481.036 126.185 480.911 125.731 480.911 125.294C480.911 124.513 481.208 123.856 481.802 123.325C482.427 122.794 483.114 122.528 483.864 122.528C484.958 122.528 485.771 123.06 486.302 124.122C487.552 126.622 488.177 129.513 488.177 132.794ZM487.802 152.247L486.208 154.825C485.646 155.731 484.88 156.185 483.911 156.185C483.13 156.185 482.442 155.903 481.849 155.341C481.255 154.81 480.958 154.153 480.958 153.372C480.958 152.872 481.114 152.356 481.427 151.825L483.021 149.247C483.583 148.341 484.349 147.888 485.317 147.888C486.099 147.888 486.786 148.153 487.38 148.685C487.974 149.247 488.271 149.919 488.271 150.7C488.271 151.2 488.114 151.716 487.802 152.247Z" fill="white"/>
</svg>
