<svg width="387" height="158" viewBox="0 0 387 158" fill="none" xmlns="http://www.w3.org/2000/svg">
<path d="M53.28 48.76L54.4 49.48C50.96 57.56 45.36 68.12 30.24 68.12C13.92 68.12 2.8 55.8 2.8 37.4C2.8 18.76 14.24 6.84 29.68 6.84C42.24 6.84 48.88 14.6 50.16 19.56C52.16 27.48 40.88 29.72 37.52 16.12C36.8 13 34.96 8.2 29.28 8.2C20.96 8.2 14.96 18.44 14.96 34.76C14.96 51.8 21.44 63.32 34.08 63.32C43.52 63.32 50.24 56.92 53.28 48.76ZM73.6994 38.6H80.2594C91.4594 38.6 97.2994 34.52 97.2994 23.72C97.2994 13 91.5394 8.12 82.5794 8.12H73.6994V38.6ZM59.0594 67V66.84C60.5794 66.2 61.6194 63.88 61.6194 61.08V12.76C61.6194 9.88 60.5794 7.56 59.0594 7V6.84H84.2594C100.179 6.84 109.459 12.2 109.459 23C109.459 33.56 100.499 37.88 93.0594 39.32C101.219 40.68 107.379 44.52 107.379 51V61C107.379 63.8 108.419 66.12 109.939 66.76V66.92H92.7394V66.76C94.3394 66.12 95.3794 63.8 95.3794 61V51C95.3794 41.72 92.7394 39.88 84.4194 39.88H73.6994V61.08C73.6994 63.88 74.7394 66.2 76.2594 66.84V67H59.0594ZM116.091 67V66.84C117.611 66.2 118.651 63.88 118.651 61.08V12.12C118.651 9.8 117.611 7.8 116.091 7V6.84H158.331L159.931 15.88H159.771C156.171 10.28 152.891 8.12 148.011 8.12H130.731V34.52H139.531C144.651 34.52 148.651 31.4 149.691 26.76H149.851V43.56H149.691C148.651 38.92 144.651 35.8 139.531 35.8H130.731V65.72H146.891C150.971 65.72 156.331 59.88 160.331 51.08H160.571L157.211 67H116.091ZM183.856 15.08L173.696 45.8H194.176L183.856 15.08ZM162.656 67V66.84C164.496 66.2 166.256 63.88 167.216 61.08L183.216 12.92L183.136 12.76C182.176 9.88 180.336 7.56 178.656 7V6.84H196.416V7C195.056 7.56 194.816 9.88 195.776 12.76L212.016 61.08C212.976 63.88 214.736 66.2 216.496 66.84V67H198.656V66.84C200.096 66.2 200.336 63.88 199.376 61.08L194.656 47.08H173.216L168.576 61.08C167.616 63.88 167.936 66.2 169.216 66.84V67H162.656ZM240.203 61.08C240.203 63.88 241.243 66.2 242.843 66.84V67H225.643V66.84C227.163 66.2 228.203 63.88 228.203 61.08V8.12H219.883C215.723 8.12 213.003 9.64 208.923 18.44H208.763L209.563 6.84H259.003L259.723 18.44H259.563C255.563 9.64 252.763 8.12 248.683 8.12H240.203V61.08ZM263.591 67V66.84C265.111 66.2 266.151 63.88 266.151 61.08V12.76C266.151 9.88 265.111 7.56 263.591 7V6.84H280.791V7C279.271 7.56 278.231 9.88 278.231 12.76V61.08C278.231 63.88 279.271 66.2 280.791 66.84V67H263.591ZM316.224 58.76L331.584 12.76C332.464 9.88 332.224 7.56 330.944 7V6.84H337.504V7C335.664 7.56 333.904 9.88 332.944 12.76L316.944 60.92L317.024 61.08C317.984 63.88 319.744 66.2 321.504 66.84V67H303.664V66.84C305.104 66.2 305.344 63.88 304.384 61.08L288.144 12.76C287.184 9.88 285.344 7.56 283.664 7V6.84H301.424V7C300.064 7.56 299.824 9.88 300.784 12.76L316.224 58.76ZM340.309 67V66.84C341.829 66.2 342.869 63.88 342.869 61.08V12.12C342.869 9.8 341.829 7.8 340.309 7V6.84H382.549L384.149 15.88H383.989C380.389 10.28 377.109 8.12 372.229 8.12H354.949V34.52H363.749C368.869 34.52 372.869 31.4 373.909 26.76H374.069V43.56H373.909C372.869 38.92 368.869 35.8 363.749 35.8H354.949V65.72H371.109C375.189 65.72 380.549 59.88 384.549 51.08H384.789L381.429 67H340.309Z" fill="white"/>
<path d="M39.84 70.04V127.72C55.6 127.88 63.44 118.6 63.44 96.92C63.44 79 58.16 69.64 39.84 70.04ZM38.56 129H25.2V128.84C26.72 128.2 27.76 125.88 27.76 123.08V74.76C27.76 71.88 26.72 69.56 25.2 69V68.84H38.32C60.72 67.96 75.6 71.56 75.6 98.6C75.6 124.92 61.28 129.88 38.56 129ZM81.9188 129V128.84C83.4388 128.2 84.4788 125.88 84.4788 123.08V74.12C84.4788 71.8 83.4388 69.8 81.9188 69V68.84H124.159L125.759 77.88H125.599C121.999 72.28 118.719 70.12 113.839 70.12H96.5588V96.52H105.359C110.479 96.52 114.479 93.4 115.519 88.76H115.679V105.56H115.519C114.479 100.92 110.479 97.8 105.359 97.8H96.5588V127.72H112.719C116.799 127.72 122.159 121.88 126.159 113.08H126.399L123.039 129H81.9188ZM164.884 118.52C164.884 102.36 132.804 105.8 132.804 85.4C132.804 75.64 140.244 68.84 153.124 68.84C166.884 68.84 173.524 76.6 174.804 81.56C176.724 89.48 165.524 91.72 162.164 78.12C161.364 75 159.524 70.2 153.204 70.2C146.404 70.2 143.844 75.72 143.844 80.2C143.844 96.04 175.924 93.48 175.924 112.84C175.924 123.08 166.964 129.88 153.604 129.88C139.284 129.88 132.644 122.04 131.364 117.16C129.364 109.24 140.644 107 144.004 120.6C144.804 123.64 146.564 128.52 153.844 128.52C160.484 128.52 164.884 124.52 164.884 118.52ZM182.075 129V128.84C183.595 128.2 184.635 125.88 184.635 123.08V74.76C184.635 71.88 183.595 69.56 182.075 69V68.84H199.275V69C197.755 69.56 196.715 71.88 196.715 74.76V123.08C196.715 125.88 197.755 128.2 199.275 128.84V129H182.075ZM255.109 99.96V115.24C251.509 122.44 245.589 130.12 232.709 130.12C216.389 130.12 205.269 117.8 205.269 99.4C205.269 80.76 216.709 68.84 232.149 68.84C244.709 68.84 251.349 76.6 252.629 81.56C254.629 89.48 243.349 91.72 239.989 78.12C239.269 75 237.429 70.2 231.749 70.2C223.429 70.2 217.429 80.44 217.429 96.76C217.429 113.8 223.909 125.32 236.549 125.32C238.869 125.32 241.109 124.84 243.109 124.2V95.88H238.709C233.829 95.88 230.549 98.04 226.949 103.64H226.789L228.389 94.6H257.749V94.76C256.149 95.56 255.109 97.64 255.109 99.96ZM263.013 129V128.84C264.533 128.2 265.573 125.88 265.573 123.08V74.76C265.573 71.88 264.533 69.56 263.013 69V68.84H278.693L306.053 107.88V74.76C306.053 71.88 305.093 69.56 303.493 69V68.84H309.973V69C308.373 69.56 307.413 71.88 307.413 74.76V129H306.213L266.853 72.92V123.08C266.853 125.88 267.893 128.2 269.493 128.84V129H263.013ZM349.416 118.52C349.416 102.36 317.336 105.8 317.336 85.4C317.336 75.64 324.776 68.84 337.656 68.84C351.416 68.84 358.056 76.6 359.336 81.56C361.256 89.48 350.056 91.72 346.696 78.12C345.896 75 344.056 70.2 337.736 70.2C330.936 70.2 328.376 75.72 328.376 80.2C328.376 96.04 360.456 93.48 360.456 112.84C360.456 123.08 351.496 129.88 338.136 129.88C323.816 129.88 317.176 122.04 315.896 117.16C313.896 109.24 325.176 107 328.536 120.6C329.336 123.64 331.096 128.52 338.376 128.52C345.016 128.52 349.416 124.52 349.416 118.52Z" fill="#FFF000"/>
</svg>
