<svg width="446" height="145" viewBox="0 0 446 145" fill="none" xmlns="http://www.w3.org/2000/svg">
<path d="M94.1875 85.625C92.3958 85.625 90.625 85.3542 88.875 84.8125C88.9583 85.5625 89 86.2917 89 87C89 96.5417 82.6875 103.917 70.0625 109.125C60.4375 113.125 50.1042 115.125 39.0625 115.125C28.0208 115.125 18.8125 113.062 11.4375 108.938C3.8125 104.688 0 99.2292 0 92.5625C0 85.2708 4.91667 79.375 14.75 74.875C23.7917 70.7917 34.7292 68.75 47.5625 68.75C49.1042 68.75 50.6667 68.7917 52.25 68.875C58.5417 69.1667 61.6875 70 61.6875 71.375C61.6875 72.6667 58.5 73.4792 52.125 73.8125C38.5417 74.5625 27.625 76.7292 19.375 80.3125C11.4583 83.7708 7.5 87.8542 7.5 92.5625C7.5 96.1458 9.95833 99.3958 14.875 102.312C20.875 105.854 28.9375 107.625 39.0625 107.625C47.5208 107.625 56 106.167 64.5 103.25C75.8333 99.2917 81.5 93.8542 81.5 86.9375C81.5 84.3125 80.375 80.9583 78.125 76.875C77.6667 76.0833 77.4375 75.2917 77.4375 74.5C77.4375 72.125 78.6042 70.9375 80.9375 70.9375C82.1042 70.9375 83.1667 71.4583 84.125 72.5C87.6667 76.25 91.0208 78.125 94.1875 78.125C96.6875 78.125 97.9375 79.375 97.9375 81.875C97.9375 84.375 96.6875 85.625 94.1875 85.625ZM73.875 54.6875L71.75 58.125C71 59.3333 69.9792 59.9375 68.6875 59.9375C67.6458 59.9375 66.7292 59.5833 65.9375 58.875C65.1458 58.125 64.75 57.2292 64.75 56.1875C64.75 55.5208 64.9583 54.8333 65.375 54.125L67.5 50.6875C68.25 49.4792 69.2708 48.875 70.5625 48.875C71.6042 48.875 72.5208 49.25 73.3125 50C74.1042 50.7083 74.5 51.5833 74.5 52.625C74.5 53.2917 74.2917 53.9792 73.875 54.6875ZM116.375 69.0625C116.458 70.0625 116.5 71 116.5 71.875C116.5 77.0417 113.771 80.6458 108.312 82.6875C103.104 84.6458 98.8333 85.625 95.5 85.625C93 85.625 91.75 84.375 91.75 81.875C91.75 79.375 93 78.125 95.5 78.125C98.4167 78.125 101.562 77.4375 104.938 76.0625C106.854 75.2708 108.042 74.4792 108.5 73.6875C108.833 73.0625 109 72.0417 109 70.625C109 70.2083 108.979 69.75 108.938 69.25C108.146 61.3333 107.083 49.0625 105.75 32.4375V31.9375C105.75 30.6458 106.208 29.5208 107.125 28.5625C108.167 27.4792 109.271 26.9375 110.438 26.9375C111.938 26.9375 112.771 27.8125 112.938 29.5625C114.688 50.7292 115.833 63.8958 116.375 69.0625ZM160.75 81.8125C160.75 84.2708 159.521 85.5 157.062 85.5H153.188C150.729 85.5 149.5 84.2708 149.5 81.8125C149.5 79.3958 150.729 78.1875 153.188 78.1875H157.062C159.521 78.1875 160.75 79.3958 160.75 81.8125ZM152.562 78.0625C153.729 80.7708 154.312 83.25 154.312 85.5C154.312 93.5 148 99.7292 135.375 104.188C127.583 106.938 119.958 108.312 112.5 108.312C110.375 108.312 108.521 108.062 106.938 107.562C105.354 107.062 104.562 106.521 104.562 105.938C104.562 104.854 105.958 104.062 108.75 103.562C118.417 101.729 125.146 100.125 128.938 98.75C140.979 94.4167 147 90.5833 147 87.25C147 86.2083 146.5 85.6875 145.5 85.6875C139.125 85.6875 135.938 84.0625 135.938 80.8125C135.938 78.5208 136.812 76.375 138.562 74.375C140.354 72.375 142.521 71.375 145.062 71.375C148.062 71.375 150.562 73.6042 152.562 78.0625ZM213.125 5.5625C205 16.8125 193.375 25.5 178.25 31.625C177.333 32 176.521 32.1875 175.812 32.1875C174.688 32.1875 174.125 31.75 174.125 30.875C174.125 29.7917 175 28.6875 176.75 27.5625C191 18.2708 201.167 9.64583 207.25 1.6875C208.083 0.5625 209.125 0 210.375 0C212.75 0 213.938 1.10417 213.938 3.3125C213.938 4.0625 213.667 4.8125 213.125 5.5625ZM178.25 69.0625C178.25 72.8958 177.812 75.6667 176.938 77.375C175.812 79.6667 173.562 81.4375 170.188 82.6875C164.979 84.6458 160.708 85.625 157.375 85.625C154.875 85.625 153.625 84.375 153.625 81.875C153.625 79.375 154.875 78.125 157.375 78.125C160.292 78.125 163.438 77.4375 166.812 76.0625C168.688 75.2708 169.854 74.4375 170.312 73.5625C170.646 72.9375 170.812 71.5 170.812 69.25C170.812 68.875 169.833 59.5 167.875 41.125V40.6875C167.875 39.3542 168.354 38.1875 169.312 37.1875C170.312 36.1875 171.396 35.6875 172.562 35.6875C174.062 35.6875 174.896 36.5417 175.062 38.25C175.729 45.2917 176.396 49.8333 177.062 51.875C177.854 60.25 178.25 65.9792 178.25 69.0625ZM316.688 91.375C316.688 98.4583 310.896 104.708 299.312 110.125C288.354 115.208 276.583 117.75 264 117.75C252.417 117.75 243.333 115.854 236.75 112.062C230.333 108.396 227.125 103.396 227.125 97.0625C227.125 88.6042 232.896 81.875 244.438 76.875C253.938 72.7917 264.375 70.75 275.75 70.75C276.917 70.75 278.042 70.7708 279.125 70.8125C282.292 70.9792 283.875 71.6042 283.875 72.6875C283.875 73.8125 282.229 74.5208 278.938 74.8125C269.938 75.6042 261.375 77.4375 253.25 80.3125C240.708 84.7292 234.438 90.4375 234.438 97.4375C234.438 100.354 236.479 103.021 240.562 105.438C246.021 108.646 253.833 110.25 264 110.25C273.458 110.25 282.521 108.646 291.188 105.438C299.188 102.438 304.688 98.9375 307.688 94.9375C308.146 94.3125 308.375 93.7917 308.375 93.375C308.375 92.6667 307.667 92.2292 306.25 92.0625C301.125 91.3958 297.667 90.8125 295.875 90.3125C291.625 89.1042 289.5 87.375 289.5 85.125C289.5 84.3333 289.771 83.4792 290.312 82.5625C291.062 81.1875 292.042 80.5 293.25 80.5C293.792 80.5 294.354 80.625 294.938 80.875C295.479 81.125 296.167 81.6458 297 82.4375C297.583 82.9792 298.688 83.3542 300.312 83.5625C306.188 84.3542 309.729 84.9375 310.938 85.3125C314.771 86.4792 316.688 88.5 316.688 91.375ZM281.938 141.875C278.438 143.375 274.229 144.125 269.312 144.125C264.854 144.125 262.625 143.188 262.625 141.312C262.625 139.979 264.521 139.021 268.312 138.438C270.896 138.062 274.458 136.917 279 135C279.542 134.75 280.083 134.625 280.625 134.625C283.042 134.625 284.25 135.938 284.25 138.562C284.25 140.146 283.479 141.25 281.938 141.875ZM324.688 53.8125C328.771 55.3125 331.625 59.2292 333.25 65.5625C333.583 74.1458 334.292 78.4375 335.375 78.4375H335.625C337.458 78.2708 338.896 78.1875 339.938 78.1875H340.188C340.562 78.2292 340.75 78.3958 340.75 78.6875V84.625C340.75 85.0833 338.521 85.4375 334.062 85.6875C329.729 84.8125 327.562 82.75 327.562 79.5C327.604 78.4167 327.625 77.375 327.625 76.375C327.625 67.125 325.375 62.3125 320.875 61.9375C320.167 61.8958 319.5 61.875 318.875 61.875C314.792 61.875 311.521 63 309.062 65.25C308.146 66.2083 307.688 67.0208 307.688 67.6875C307.688 68.1875 309.042 69.4375 311.75 71.4375C311.75 71.5208 312.021 72.4167 312.562 74.125C312.562 78.625 310.417 82.0625 306.125 84.4375C304.333 84.8125 300.125 85.1667 293.5 85.5L293.25 85V78.8125C293.292 78.6042 293.542 78.5 294 78.5C294.417 78.5 294.958 78.5625 295.625 78.6875C295.75 78.7292 295.875 78.75 296 78.75C296.917 78.75 297.375 78.0625 297.375 76.6875C297.375 76.2708 297.333 75.7708 297.25 75.1875C297.25 68.3958 302.354 61.6875 312.562 55.0625C314.979 53.6458 317.438 52.9375 319.938 52.9375C321.521 52.9375 323.104 53.2292 324.688 53.8125ZM367.438 85.625C362.146 85.625 358.333 83.7708 356 80.0625C350.833 83.7708 345.542 85.625 340.125 85.625C337.625 85.625 336.375 84.375 336.375 81.875C336.375 79.375 337.625 78.125 340.125 78.125C345.792 78.125 351.083 75.4375 356 70.0625C357 68.9375 358.104 68.375 359.312 68.375C361.521 68.375 362.625 69.5625 362.625 71.9375C362.625 72.3125 362.542 72.7917 362.375 73.375C362.208 73.9167 362.125 74.3333 362.125 74.625C362.125 76.9583 363.896 78.125 367.438 78.125C369.938 78.125 371.188 79.375 371.188 81.875C371.188 84.375 369.938 85.625 367.438 85.625ZM363.75 105.688C360.25 107.188 356.042 107.938 351.125 107.938C346.667 107.938 344.438 107 344.438 105.125C344.438 103.792 346.333 102.833 350.125 102.25C352.708 101.875 356.271 100.729 360.812 98.8125C361.354 98.5625 361.896 98.4375 362.438 98.4375C364.854 98.4375 366.062 99.75 366.062 102.375C366.062 103.958 365.292 105.062 363.75 105.688ZM373 85.625H363.625C361.125 85.625 359.875 84.375 359.875 81.875C359.875 79.375 361.125 78.125 363.625 78.125H373C375.5 78.125 376.75 79.375 376.75 81.875C376.75 84.375 375.5 85.625 373 85.625ZM441.062 63.8125C442.188 63.3542 443.104 63.125 443.812 63.125C445.104 63.125 445.75 63.875 445.75 65.375C445.75 68.2917 443.667 73.3125 439.5 80.4375C438.417 82.2708 437.229 83.1875 435.938 83.1875C434.688 83.1875 434.062 82.4167 434.062 80.875C434.062 80.3333 434.167 79.7083 434.375 79L436.062 73.5C426.688 76.4167 416 79.0833 404 81.5C390.542 84.25 380.25 85.625 373.125 85.625C370.625 85.625 369.375 84.375 369.375 81.875C369.375 79.375 370.625 78.125 373.125 78.125C381.042 78.125 393 76.3542 409 72.8125C423.792 69.5208 434.479 66.5208 441.062 63.8125Z" fill="#FFF000"/>
</svg>
