<svg width="821" height="259" viewBox="0 0 821 259" fill="none" xmlns="http://www.w3.org/2000/svg">
<path d="M133.881 87.8822C131.82 85.9846 129.281 84.9834 126.544 84.9834C122.967 84.9834 120.014 86.687 118.006 89.9214L114.266 95.9706C113.196 97.7843 112.656 99.6348 112.656 101.469C112.656 104.332 113.794 106.89 115.939 108.866C118 110.764 120.539 111.765 123.282 111.765C126.864 111.765 129.816 110.056 131.82 106.822L135.559 100.772C136.623 98.9585 137.169 97.1081 137.169 95.2734C137.169 92.4165 136.036 89.8585 133.886 87.877L133.881 87.8822ZM132.307 98.8642L128.61 104.84C127.304 106.942 125.526 107.99 123.282 107.99C121.467 107.99 119.873 107.356 118.499 106.088C117.119 104.819 116.432 103.283 116.432 101.469C116.432 100.311 116.794 99.1158 117.518 97.8839L121.215 91.9081C122.521 89.806 124.294 88.7576 126.544 88.7576C128.353 88.7576 129.952 89.3919 131.327 90.6605C132.701 91.929 133.393 93.4702 133.393 95.2787C133.393 96.4371 133.031 97.6323 132.307 98.8642Z" fill="white"/>
<path d="M209.993 123.464C209.06 114.553 207.051 91.4725 204.02 54.8152C203.543 49.8196 200.511 46.8369 195.912 46.8369C192.823 46.8369 189.97 48.1789 187.421 50.8261C185.14 53.2112 183.981 56.0628 183.981 59.3024V60.3246L183.991 60.4766C186.304 89.3023 188.171 110.863 189.54 124.492C189.603 125.268 189.634 125.965 189.634 126.578C189.634 128.869 189.346 129.797 189.241 130.053C189.068 130.268 188.187 131.191 184.914 132.538C179.528 134.735 174.483 135.846 169.921 135.846C169.522 135.846 169.15 135.872 168.777 135.904C168.41 135.872 168.038 135.846 167.634 135.846C163.229 135.846 158.262 132.952 152.908 127.28C149.913 124.03 146.73 123.344 144.585 123.344C138.407 123.344 134.72 127.071 134.72 133.309C134.72 135.353 135.291 137.382 136.382 139.258C139.969 145.764 141.784 151.037 141.784 154.932C141.784 165.122 132.685 173.468 114.759 179.727C100.437 184.638 85.9567 187.128 71.7337 187.128C54.8885 187.128 41.3788 184.198 31.5821 178.416C24.2976 174.097 20.6002 169.484 20.6002 164.708C20.6002 158.198 26.7887 152.196 38.9873 146.87C52.8589 140.847 71.5921 137.146 94.652 135.872C107.134 135.222 114.864 133.655 114.864 127.868C114.864 122.08 106.861 120.309 94.8671 119.753C92.035 119.606 89.224 119.528 86.5179 119.528C63.7569 119.528 44.0325 123.223 27.8638 130.52C9.37185 138.975 0 150.476 0 164.708C0 177.719 7.34749 188.407 21.8327 196.475C35.1746 203.934 51.9621 207.714 71.7337 207.714C91.5053 207.714 109.987 204.107 127.105 196.994C150.091 187.516 161.954 173.73 162.374 156.012C164.12 156.279 165.877 156.415 167.634 156.415C168.033 156.415 168.405 156.389 168.777 156.358C169.144 156.389 169.517 156.415 169.921 156.415C176.24 156.415 183.965 154.665 193.531 151.069C204.455 146.985 210.224 139.258 210.224 128.733C210.224 127.113 210.146 125.362 209.988 123.449L209.993 123.464ZM192.215 147.551C183.152 150.959 175.721 152.657 169.926 152.657C169.522 152.657 169.15 152.62 168.782 152.584C168.415 152.62 168.048 152.657 167.639 152.657C164.524 152.657 161.44 152.185 158.398 151.247C158.545 152.552 158.613 153.821 158.613 155.053C158.613 171.643 147.632 184.465 125.668 193.524C108.922 200.48 90.9442 203.955 71.739 203.955C52.5338 203.955 36.5119 200.37 23.684 193.199C10.4207 185.807 3.7865 176.319 3.7865 164.724C3.7865 152.049 12.3402 141.79 29.4476 133.969C45.1758 126.872 64.2027 123.318 86.5284 123.318C89.2083 123.318 91.9302 123.391 94.6835 123.532C105.629 124.041 111.104 125.488 111.104 127.878C111.104 130.127 105.561 131.537 94.4685 132.119C70.8369 133.424 51.8467 137.193 37.4979 143.421C23.7259 149.433 16.84 156.531 16.84 164.719C16.84 170.946 21.1142 176.602 29.6679 181.671C40.1044 187.831 54.1333 190.908 71.7442 190.908C86.4602 190.908 101.213 188.371 115.997 183.302C135.711 176.419 145.57 166.962 145.57 154.937C145.57 150.371 143.614 144.542 139.697 137.439C138.9 136.066 138.501 134.687 138.501 133.309C138.501 129.178 140.531 127.113 144.59 127.113C146.619 127.113 148.465 128.02 150.133 129.828C156.295 136.349 162.127 139.61 167.639 139.61C168.043 139.61 168.415 139.646 168.782 139.683C169.15 139.646 169.517 139.61 169.926 139.61C174.997 139.61 180.472 138.414 186.346 136.024C189.676 134.651 191.743 133.272 192.545 131.893C193.127 130.808 193.416 129.031 193.416 126.568C193.416 125.844 193.379 125.047 193.306 124.177C191.926 110.412 190.08 89.0769 187.762 60.1673V59.2971C187.762 57.0535 188.559 55.0983 190.154 53.4313C191.963 51.5495 193.888 50.6059 195.917 50.6059C198.524 50.6059 199.977 52.1261 200.265 55.1717C203.307 91.9757 205.3 114.873 206.244 123.857C206.391 125.598 206.459 127.228 206.459 128.748C206.459 137.733 201.712 144.002 192.215 147.551Z" fill="white"/>
<path d="M369.656 0C366.279 0 363.347 1.54115 361.223 4.41376C350.949 17.849 333.412 32.6891 309.119 48.5251C304.882 51.2509 302.821 54.1707 302.821 57.4574C302.821 60.4716 304.897 63.5119 309.533 63.5119C311.275 63.5119 313.131 63.0978 315.192 62.2591C342.049 51.3872 363.016 35.7084 377.507 15.6526C378.918 13.6973 379.636 11.6372 379.636 9.53518C379.636 3.56455 375.907 0 369.661 0H369.656ZM374.439 13.4457C360.305 33.0088 340.082 48.111 313.771 58.7627C312.177 59.4127 310.761 59.743 309.533 59.743C307.577 59.743 306.597 58.9829 306.597 57.4627C306.597 55.5808 308.117 53.6623 311.165 51.7017C335.955 35.5459 353.639 20.5486 364.223 6.70975C365.67 4.75448 367.485 3.77423 369.656 3.77423C373.789 3.77423 375.855 5.6928 375.855 9.53518C375.855 10.8404 375.383 12.1404 374.439 13.4457Z" fill="white"/>
<path d="M315.465 93.6219L315.428 93.2026L315.297 92.8042C314.563 90.5554 313.393 84.763 311.988 69.9177C311.505 64.9954 308.474 62.0547 303.88 62.0547C300.822 62.0547 298.022 63.3023 295.499 65.8237C293.145 68.2822 291.949 71.2072 291.949 74.5201V75.4847L291.97 75.6839C296.013 113.615 296.978 123.119 297.057 124.277C297.052 128.728 296.643 129.865 296.616 129.933C296.595 129.98 296.003 131.039 292.447 132.538C287.061 134.735 282.016 135.846 277.453 135.846C276.834 135.846 276.226 135.883 275.644 135.956H271.668C267.656 128.093 262.438 124.109 256.14 124.109C250.617 124.109 245.866 126.285 241.99 130.615C238.34 134.782 236.489 139.385 236.489 144.291C236.489 149.701 239.808 156.122 255.39 156.526C254.215 158.67 249.075 163.922 226.797 171.937C220.43 174.249 208.808 177.006 192.299 180.141C189.729 180.602 181.904 182.002 181.904 187.983C181.904 192.271 186.824 193.823 188.675 194.404C191.785 195.385 195.425 195.883 199.489 195.883C212.831 195.883 226.645 193.398 240.537 188.497C262.082 180.891 273.903 170.082 275.743 156.327C276.315 156.4 276.876 156.437 277.443 156.437C283.762 156.437 291.487 154.686 301.043 151.095C307.824 148.584 312.476 144.847 314.836 140.04C316.65 136.496 317.537 131.207 317.537 123.863C317.537 118.338 316.855 108.446 315.454 93.6219H315.465ZM311.49 138.315C309.533 142.299 305.621 145.381 299.747 147.552C290.685 150.959 283.253 152.657 277.458 152.657C276.708 152.657 276.048 152.568 275.429 152.442H272.24C272.24 166.355 261.258 177.185 239.294 184.937C225.738 189.718 212.474 192.108 199.499 192.108C195.802 192.108 192.577 191.673 189.823 190.803C187.07 189.933 185.691 188.989 185.691 187.978C185.691 186.096 188.119 184.717 192.975 183.847C209.789 180.66 221.5 177.871 228.092 175.481C249.039 167.943 259.517 161.28 259.517 155.483C259.517 153.674 258.646 152.767 256.911 152.767C245.819 152.767 240.275 149.942 240.275 144.291C240.275 140.307 241.796 136.575 244.843 133.099C247.958 129.624 251.729 127.884 256.15 127.884C261.368 127.884 265.716 131.763 269.198 139.51C269.24 139.605 269.272 139.699 269.314 139.793C269.634 139.767 269.943 139.73 270.284 139.73H275.901C276.383 139.662 276.902 139.62 277.458 139.62C282.53 139.62 288.005 138.425 293.879 136.035C297.141 134.661 299.17 133.209 299.968 131.689C300.545 130.604 300.838 128.104 300.838 124.188C300.838 123.538 299.134 107.235 295.725 75.2855V74.5254C295.725 72.2084 296.559 70.1798 298.226 68.4394C299.968 66.6991 301.85 65.8342 303.88 65.8342C306.486 65.8342 307.939 67.3229 308.228 70.2899C309.387 82.5351 310.546 90.4296 311.705 93.9836C313.079 108.546 313.771 118.506 313.771 123.868C313.771 130.536 313.011 135.353 311.49 138.32V138.315Z" fill="white"/>
<path d="M441.421 234.086C439.953 234.086 438.495 234.411 437.073 235.056C429.527 238.238 423.6 240.151 419.426 240.759C415.844 241.31 406.33 242.772 406.33 249.487C406.33 255.238 411.512 258.152 421.739 258.152C430.769 258.152 438.657 256.732 445.118 253.964C449.235 252.297 451.501 249.01 451.501 244.707C451.501 238.06 447.73 234.086 441.421 234.086ZM443.708 250.468C437.619 253.078 430.297 254.378 421.744 254.378C413.987 254.378 410.112 252.748 410.112 249.487C410.112 247.17 413.41 245.503 420.008 244.487C424.502 243.837 430.701 241.839 438.599 238.511C439.538 238.076 440.482 237.861 441.426 237.861C445.627 237.861 447.735 240.141 447.735 244.707C447.735 247.459 446.393 249.383 443.713 250.468H443.708Z" fill="white"/>
<path d="M677.904 169.861C676.436 169.861 674.973 170.186 673.557 170.831C666.01 174.008 660.083 175.926 655.909 176.534C652.327 177.085 642.813 178.547 642.813 185.262C642.813 191.013 647.995 193.927 658.222 193.927C667.247 193.927 675.14 192.507 681.601 189.739C685.713 188.072 687.979 184.785 687.979 180.482C687.979 173.835 684.208 169.861 677.899 169.861H677.904ZM680.186 186.237C674.097 188.848 666.775 190.153 658.222 190.153C650.465 190.153 646.589 188.523 646.589 185.262C646.589 182.945 649.888 181.278 656.486 180.261C660.98 179.611 667.179 177.614 675.077 174.286C676.016 173.85 676.96 173.636 677.904 173.636C682.105 173.636 684.208 175.916 684.208 180.482C684.208 183.234 682.865 185.157 680.186 186.243V186.237Z" fill="white"/>
<path d="M813.704 109.762C811.963 109.762 809.934 110.244 807.484 111.24C796.288 115.843 777.733 121.043 752.328 126.694C724.889 132.764 704.169 135.841 690.732 135.841C690.428 135.841 690.145 135.862 689.862 135.883C689.578 135.857 689.301 135.841 688.991 135.841C683.526 135.841 683.526 134.336 683.526 133.566C683.526 133.55 683.553 133.23 683.81 132.365C684.208 131.024 684.397 129.876 684.397 128.853C684.397 122.61 680.831 118.883 674.857 118.883C672.644 118.883 669.361 119.612 666.309 123.045C658.432 131.653 650.308 135.841 641.476 135.841C639.892 135.841 638.429 136.087 637.123 136.58C632.183 137.026 627.143 137.251 622.124 137.251C616.046 137.251 609.627 136.905 603.029 136.224C602.667 136.098 602.284 136.014 601.886 135.972L601.676 135.946C601.676 135.946 600.674 135.946 600.48 135.956L599.405 135.841H599.18C598.519 135.841 597.869 135.92 597.208 136.087C596.5 136.129 595.745 136.187 594.937 136.25C594.428 134.284 593.626 129.414 593.17 117.625L593.154 117.221L593.054 116.833C589.913 104.599 584.112 96.851 575.805 93.8001C572.643 92.6364 569.423 92.0493 566.239 92.0493C561.231 92.0493 556.27 93.4647 551.497 96.2639L551.35 96.353C532.533 108.556 522.993 121.394 522.993 134.509V134.777L523.03 135.039C523.077 135.364 523.114 135.673 523.14 135.956C522.563 135.883 521.955 135.846 521.331 135.846H463.705C457.254 135.846 453.405 139.694 453.405 146.141C453.405 146.975 453.473 147.782 453.609 148.547C453.258 149.659 453.08 150.744 453.08 151.792C453.08 157.574 457.731 161.831 466.93 164.446C470.145 165.343 475.972 166.344 484.761 167.497C479.842 173.473 471.005 178.878 458.481 183.569C443.897 188.968 428.42 191.705 412.493 191.705C395.569 191.705 382.494 189.063 373.642 183.863C367.799 180.408 364.841 176.823 364.841 173.201C364.841 162.858 375.005 154.036 395.05 146.98C408.816 142.11 423.537 138.96 438.809 137.618C441.788 137.356 450.84 136.554 450.84 130.164C450.84 123.774 441.93 123.292 438.946 123.134C437 123.061 434.976 123.024 432.93 123.024C412.718 123.024 393.891 126.709 376.956 133.985C355.464 143.29 344.566 156.269 344.566 172.551C344.566 184.964 350.839 194.845 363.2 201.906C375.184 208.799 391.767 212.295 412.487 212.295C434.829 212.295 456.032 207.719 475.521 198.682C497.023 188.633 507.921 176.513 507.921 162.659C507.921 160.767 507.559 158.575 506.4 156.431H521.326C522.616 156.431 523.812 156.274 524.897 155.97C534.148 155.446 540.064 154.896 542.97 154.287L543.525 154.172L544.024 153.894C552.745 149.072 557.172 141.927 557.172 132.659V132.077L556.993 131.522C556.201 129.037 555.887 127.978 555.756 127.532V126.086L554.224 124.953C551.418 122.883 549.924 121.614 549.137 120.886C549.326 120.629 549.588 120.314 549.95 119.931C553.527 116.708 558.247 115.14 564.377 115.14C565.374 115.14 566.47 115.177 567.545 115.235C574.389 115.806 575.826 127.155 575.826 136.58C575.826 138.242 575.789 140.024 575.721 141.869V142.011C575.721 147.289 578.207 154.078 590.054 156.468L590.532 156.562L591.014 156.536C593.243 156.41 595.194 156.269 596.83 156.106C597.517 156.306 598.241 156.416 599.001 156.426C606.113 157.003 613.345 157.296 620.488 157.296C627.631 157.296 634.984 157.003 642.106 156.421H642.242L642.305 156.41C651.126 156.248 659.827 153.459 668.218 148.123C673.037 153.637 680.002 156.426 688.986 156.426C689.29 156.426 689.573 156.405 689.856 156.384C690.14 156.41 690.418 156.426 690.727 156.426C703.319 156.426 721.643 153.989 745.185 149.182C763.253 145.544 779.815 141.534 794.531 137.23L793.66 140.071C793.193 141.665 792.963 143.08 792.963 144.396C792.963 150.146 796.754 152.191 800.001 152.191C803.666 152.191 806.845 149.958 809.456 145.539C817.229 132.255 820.847 123.328 820.847 117.447C820.847 112.776 818.042 109.762 813.699 109.762H813.704ZM806.2 143.641C804.317 146.833 802.25 148.422 800.001 148.422C797.751 148.422 796.739 147.085 796.739 144.401C796.739 143.463 796.917 142.372 797.284 141.141L800.221 131.579C783.911 136.653 765.319 141.287 744.446 145.491C721.035 150.272 703.13 152.662 690.732 152.662C690.423 152.662 690.15 152.626 689.862 152.605C689.573 152.626 689.301 152.662 688.991 152.662C679.787 152.662 673.153 149.439 669.094 142.991C660.283 149.313 651.257 152.526 642.032 152.652C641.99 152.652 641.954 152.662 641.912 152.662C634.805 153.244 627.668 153.533 620.493 153.533C613.319 153.533 606.286 153.244 599.18 152.662C598.472 152.662 597.853 152.526 597.318 152.269C595.582 152.458 593.421 152.626 590.81 152.773C583.268 151.252 579.503 147.662 579.503 142.011C579.576 140.129 579.613 138.315 579.613 136.575C579.613 120.492 575.7 112.121 567.87 111.471C566.638 111.398 565.479 111.361 564.393 111.361C557.287 111.361 551.597 113.316 547.323 117.232C545.728 118.899 544.931 120.309 544.931 121.467C544.931 122.338 547.286 124.513 552.001 127.988C552.001 128.135 552.473 129.692 553.411 132.659C553.411 140.485 549.677 146.461 542.214 150.592C539.477 151.163 533.482 151.708 524.242 152.227C523.413 152.51 522.453 152.657 521.341 152.657H495.754C501.355 154.744 504.166 158.072 504.166 162.654C504.166 174.972 494.091 185.839 473.942 195.259C454.878 204.097 434.399 208.516 412.508 208.516C392.359 208.516 376.558 205.219 365.104 198.624C353.938 192.25 348.358 183.553 348.358 172.54C348.358 157.831 358.396 146.131 378.477 137.44C395.002 130.342 413.159 126.788 432.951 126.788C434.981 126.788 436.937 126.825 438.825 126.898C444.332 127.186 447.09 128.277 447.09 130.159C447.09 132.04 444.227 133.351 438.5 133.854C422.845 135.233 407.946 138.42 393.812 143.416C371.995 151.095 361.086 161.018 361.086 173.19C361.086 178.259 364.637 182.898 371.743 187.102C381.241 192.68 394.829 195.469 412.514 195.469C428.966 195.469 444.73 192.68 459.808 187.102C473.727 181.887 483.293 175.801 488.511 168.844C489.308 167.759 489.707 166.853 489.707 166.129C489.707 164.897 488.474 164.137 486.01 163.849C477.094 162.69 471.079 161.673 467.963 160.809C460.569 158.706 456.871 155.698 456.871 151.787C456.871 150.838 457.113 149.837 457.558 148.789C457.328 148.018 457.196 147.143 457.196 146.136C457.196 141.791 459.373 139.615 463.721 139.615H521.347C523.009 139.615 524.346 139.94 525.374 140.574C526.45 140.223 527 139.08 527 137.115C527 136.391 526.927 135.521 526.785 134.504C526.785 122.694 535.664 111.031 553.422 99.5087C557.628 97.0449 561.902 95.8131 566.255 95.8131C569.008 95.8131 571.762 96.3215 574.52 97.3332C581.621 99.9438 586.588 106.753 589.415 117.767C589.997 132.69 591.224 140.155 593.112 140.155H593.547C595.157 140.008 596.594 139.898 597.853 139.83C598.267 139.704 598.702 139.615 599.201 139.615C599.584 139.662 599.966 139.694 600.349 139.736C600.58 139.736 600.837 139.72 601.052 139.72H601.487C601.744 139.751 601.938 139.82 602.09 139.919C608.913 140.643 615.6 141.025 622.145 141.025C627.563 141.025 632.865 140.774 638.057 140.286C638.996 139.856 640.123 139.615 641.497 139.615C651.352 139.615 660.561 134.939 669.115 125.593C670.856 123.638 672.775 122.657 674.878 122.657C678.717 122.657 680.642 124.723 680.642 128.853C680.642 129.503 680.495 130.321 680.207 131.296C679.913 132.276 679.771 133.021 679.771 133.524C679.771 137.581 682.85 139.61 689.012 139.61C689.322 139.61 689.594 139.647 689.883 139.668C690.171 139.647 690.444 139.61 690.753 139.61C704.525 139.61 725.33 136.533 753.162 130.374C778.892 124.649 797.483 119.433 808.937 114.726C810.893 113.929 812.488 113.531 813.72 113.531C815.965 113.531 817.092 114.836 817.092 117.447C817.092 122.521 813.468 131.249 806.221 143.636L806.2 143.641Z" fill="white"/>
</svg>
