<svg width="411" height="176" viewBox="0 0 411 176" fill="none" xmlns="http://www.w3.org/2000/svg">
<path d="M36.4 56.52C36.4 40.36 4.32 43.8 4.32 23.4C4.32 13.64 11.76 6.84 24.64 6.84C38.4 6.84 45.04 14.6 46.32 19.56C48.24 27.48 37.04 29.72 33.68 16.12C32.88 13 31.04 8.2 24.72 8.2C17.92 8.2 15.36 13.72 15.36 18.2C15.36 34.04 47.44 31.48 47.44 50.84C47.44 61.08 38.48 67.88 25.12 67.88C10.8 67.88 4.16 60.04 2.88 55.16C0.88 47.24 12.16 45 15.52 58.6C16.32 61.64 18.08 66.52 25.36 66.52C32 66.52 36.4 62.52 36.4 56.52ZM82.3906 61.08C82.3906 63.88 83.4306 66.2 85.0306 66.84V67H67.8306V66.84C69.3506 66.2 70.3906 63.88 70.3906 61.08V8.12H62.0706C57.9106 8.12 55.1906 9.64 51.1106 18.44H50.9506L51.7506 6.84H101.191L101.911 18.44H101.751C97.7506 9.64 94.9506 8.12 90.8706 8.12H82.3906V61.08ZM120.418 38.6H126.978C138.178 38.6 144.018 34.52 144.018 23.72C144.018 13 138.258 8.12 129.298 8.12H120.418V38.6ZM105.778 67V66.84C107.298 66.2 108.338 63.88 108.338 61.08V12.76C108.338 9.88 107.298 7.56 105.778 7V6.84H130.978C146.898 6.84 156.178 12.2 156.178 23C156.178 33.56 147.218 37.88 139.778 39.32C147.938 40.68 154.098 44.52 154.098 51V61C154.098 63.8 155.138 66.12 156.658 66.76V66.92H139.458V66.76C141.058 66.12 142.098 63.8 142.098 61V51C142.098 41.72 139.458 39.88 131.138 39.88H120.418V61.08C120.418 63.88 121.458 66.2 122.978 66.84V67H105.778ZM180.809 15.08L170.649 45.8H191.129L180.809 15.08ZM159.609 67V66.84C161.449 66.2 163.209 63.88 164.169 61.08L180.169 12.92L180.089 12.76C179.129 9.88 177.289 7.56 175.609 7V6.84H193.369V7C192.009 7.56 191.769 9.88 192.729 12.76L208.969 61.08C209.929 63.88 211.689 66.2 213.449 66.84V67H195.609V66.84C197.049 66.2 197.289 63.88 196.329 61.08L191.609 47.08H170.169L165.529 61.08C164.569 63.88 164.889 66.2 166.169 66.84V67H159.609ZM237.156 61.08C237.156 63.88 238.196 66.2 239.796 66.84V67H222.596V66.84C224.116 66.2 225.156 63.88 225.156 61.08V8.12H216.836C212.676 8.12 209.956 9.64 205.876 18.44H205.716L206.516 6.84H255.956L256.676 18.44H256.516C252.516 9.64 249.716 8.12 245.636 8.12H237.156V61.08ZM260.544 67V66.84C262.064 66.2 263.104 63.88 263.104 61.08V12.12C263.104 9.8 262.064 7.8 260.544 7V6.84H302.784L304.384 15.88H304.224C300.624 10.28 297.344 8.12 292.464 8.12H275.184V34.52H283.984C289.104 34.52 293.104 31.4 294.144 26.76H294.304V43.56H294.144C293.104 38.92 289.104 35.8 283.984 35.8H275.184V65.72H291.344C295.424 65.72 300.784 59.88 304.784 51.08H305.024L301.664 67H260.544ZM359.281 37.96V53.24C355.681 60.44 349.761 68.12 336.881 68.12C320.561 68.12 309.441 55.8 309.441 37.4C309.441 18.76 320.881 6.84 336.321 6.84C348.881 6.84 355.521 14.6 356.801 19.56C358.801 27.48 347.521 29.72 344.161 16.12C343.441 13 341.601 8.2 335.921 8.2C327.601 8.2 321.601 18.44 321.601 34.76C321.601 51.8 328.081 63.32 340.721 63.32C343.041 63.32 345.281 62.84 347.281 62.2V33.88H342.881C338.001 33.88 334.721 36.04 331.121 41.64H330.961L332.561 32.6H361.921V32.76C360.321 33.56 359.281 35.64 359.281 37.96ZM390.352 35.08V61.08C390.352 63.88 391.392 66.2 392.912 66.84V67H375.712V66.84C377.312 66.2 378.352 63.88 378.352 61.08V37.88L364.032 13.24C362.512 10.6 360.112 7.96 358.032 7V6.84H378.512V7C376.512 8.04 376.192 10.6 377.712 13.24L389.712 33.8L401.632 13.24C403.232 10.52 403.712 8.04 401.872 7V6.84H410.112V7C407.872 7.96 404.752 10.52 403.072 13.24L390.352 35.08Z" fill="white"/>
<path d="M69.408 107.92H77.28C90.72 107.92 97.728 103.024 97.728 90.064C97.728 77.2 90.816 71.344 80.064 71.344H69.408V107.92ZM51.84 142V141.808C53.664 141.04 54.912 138.256 54.912 134.896V76.912C54.912 73.456 53.664 70.672 51.84 70V69.808H83.136C102.144 69.808 112.32 76.24 112.32 88.624C112.32 105.232 94.368 109.456 85.536 109.456H69.408V134.896C69.408 138.256 70.656 141.04 72.48 141.808V142H51.84ZM117.934 142V141.808C119.758 141.04 121.006 138.256 121.006 134.896V76.912C121.006 73.456 119.758 70.672 117.934 70V69.808H138.574V70C136.75 70.672 135.502 73.456 135.502 76.912V140.464H154.894C159.79 140.464 166.222 133.456 171.022 122.896H171.31L167.278 142H117.934ZM197.659 79.696L185.467 116.56H210.043L197.659 79.696ZM172.219 142V141.808C174.427 141.04 176.539 138.256 177.691 134.896L196.891 77.104L196.795 76.912C195.643 73.456 193.435 70.672 191.419 70V69.808H212.731V70C211.099 70.672 210.811 73.456 211.963 76.912L231.451 134.896C232.603 138.256 234.715 141.04 236.827 141.808V142H215.419V141.808C217.147 141.04 217.435 138.256 216.283 134.896L210.619 118.096H184.891L179.323 134.896C178.171 138.256 178.555 141.04 180.091 141.808V142H172.219ZM240.653 142V141.808C242.477 141.04 243.725 138.256 243.725 134.896V76.912C243.725 73.456 242.477 70.672 240.653 70V69.808H259.469L292.301 116.656V76.912C292.301 73.456 291.149 70.672 289.229 70V69.808H297.005V70C295.085 70.672 293.933 73.456 293.933 76.912V142H292.493L245.261 74.704V134.896C245.261 138.256 246.509 141.04 248.429 141.808V142H240.653ZM344.336 129.424C344.336 110.032 305.84 114.16 305.84 89.68C305.84 77.968 314.768 69.808 330.224 69.808C346.736 69.808 354.704 79.12 356.24 85.072C358.544 94.576 345.104 97.264 341.072 80.944C340.112 77.2 337.904 71.44 330.32 71.44C322.16 71.44 319.088 78.064 319.088 83.44C319.088 102.448 357.584 99.376 357.584 122.608C357.584 134.896 346.832 143.056 330.8 143.056C313.616 143.056 305.648 133.648 304.112 127.792C301.712 118.288 315.248 115.6 319.28 131.92C320.24 135.568 322.352 141.424 331.088 141.424C339.056 141.424 344.336 136.624 344.336 129.424Z" fill="#FFF000"/>
</svg>
