<svg xmlns="http://www.w3.org/2000/svg" version="1.0" preserveAspectRatio="xMidYMid meet" viewBox="194.99 512.22 1529.01 54.78">

<g transform="translate(0.000000,1080.000000) scale(0.100000,-0.100000)" fill="#000000" stroke="none">
<path d="M16810 5671 c-30 -4 -77 -17 -104 -29 -38 -17 -67 -22 -137 -22 -82 0 -92 -2 -147 -34 -77 -46 -130 -49 -197 -13 -114 60 -257 55 -405 -12 -444 -203 -463 -209 -666 -214 -104 -3 -170 0 -219 10 -199 40 -229 43 -547 43 l-317 0 -65 36 -65 35 -67 -17 c-51 -12 -84 -15 -138 -9 -39 5 -194 9 -344 11 -261 2 -275 3 -303 23 -15 11 -32 21 -37 21 -4 0 -59 -21 -122 -47 l-115 -47 -251 -4 -252 -4 -123 53 -124 53 -145 0 -145 -1 -95 -45 c-149 -71 -179 -79 -256 -69 -64 10 -67 9 -119 -24 -29 -19 -63 -37 -76 -40 -13 -3 -87 6 -163 19 -77 14 -143 23 -146 21 -7 -4 -140 -41 -200 -56 -19 -4 -100 -13 -179 -19 -152 -12 -259 -6 -494 27 -100 14 -125 21 -166 48 -49 32 -61 35 -241 46 -8 1 -28 -2 -45 -5 -25 -6 -44 1 -120 49 l-90 57 -130 14 c-232 24 -290 20 -595 -49 -71 -16 -106 -29 -138 -54 -53 -40 -87 -50 -109 -32 -12 11 -49 13 -159 11 -137 -3 -145 -3 -186 21 -35 20 -61 26 -138 29 -70 4 -108 11 -144 28 -27 12 -81 27 -120 32 -65 9 -100 8 -257 -8 -54 -5 -149 10 -394 66 -239 54 -237 53 -256 42 -14 -9 -186 -12 -626 -12 -588 0 -609 -1 -633 -20 -14 -11 -28 -20 -33 -20 -4 0 -44 -23 -90 -52 -45 -28 -114 -66 -153 -84 -101 -47 -314 -91 -476 -99 -31 -2 -62 -6 -67 -10 -24 -14 -202 -56 -272 -64 -42 -5 -118 -21 -169 -36 l-92 -29 -96 32 c-54 17 -151 42 -217 55 -248 50 -256 51 -377 38 -81 -8 -130 -8 -173 -1 -83 14 -285 14 -370 0 -38 -7 -108 -23 -155 -36 -47 -14 -114 -33 -150 -44 -158 -45 -157 -45 -242 -15 l-78 27 -82 -26 c-99 -31 -99 -31 -163 -7 -102 38 -95 40 -95 -23 l0 -56 7645 0 7645 0 0 210 0 209 -27 15 c-16 7 -59 26 -98 40 -38 15 -94 38 -123 51 -53 25 -80 28 -182 16z"/>
</g>
</svg>