<svg xmlns="http://www.w3.org/2000/svg" version="1.0" preserveAspectRatio="xMidYMid meet" viewBox="194 513 1529.87 52">

<g transform="translate(0.000000,1080.000000) scale(0.100000,-0.100000)" fill="#000000" stroke="none">
<path d="M1942 5438 l3 -231 55 -19 c30 -10 59 -23 64 -28 6 -6 49 -10 97 -10 74 0 99 5 162 30 63 25 89 30 161 30 76 0 90 3 134 29 79 47 118 48 193 9 63 -32 67 -33 184 -32 115 1 123 3 185 34 36 18 94 44 129 57 35 13 110 46 165 72 165 79 225 93 414 97 139 3 177 0 250 -17 104 -25 376 -38 642 -31 l175 4 63 -36 c73 -41 83 -42 164 -20 51 15 68 15 131 4 44 -8 174 -14 339 -15 254 -3 268 -4 302 -24 32 -20 37 -21 63 -8 15 8 69 32 118 52 l90 37 241 5 241 6 122 -52 c139 -60 207 -73 336 -64 81 6 103 12 225 66 l135 59 82 -6 c74 -6 85 -5 104 13 61 56 96 59 292 26 88 -15 104 -15 155 -2 31 9 92 25 134 36 214 56 741 26 859 -50 40 -25 55 -29 117 -29 39 0 74 -4 77 -10 8 -13 61 -13 83 1 21 13 69 -8 163 -71 l55 -38 186 -18 187 -18 128 23 c231 43 319 68 370 107 39 30 52 35 77 29 17 -4 103 -10 191 -14 143 -5 164 -8 195 -28 29 -19 49 -23 115 -23 60 0 97 -7 150 -26 99 -36 249 -49 330 -28 71 19 101 14 490 -71 151 -34 215 -41 215 -26 0 8 166 11 616 11 l617 0 116 69 c203 122 300 157 490 181 47 6 107 16 134 22 26 5 58 8 69 4 12 -3 29 -1 40 5 30 16 210 59 248 59 38 0 171 31 231 55 33 13 43 11 130 -16 52 -16 150 -41 219 -54 69 -14 159 -32 201 -40 64 -13 92 -14 174 -4 74 10 120 10 198 1 244 -29 338 -15 768 112 l56 17 76 -30 75 -30 96 30 c89 28 99 29 129 15 66 -29 249 -96 263 -96 12 0 14 14 12 68 l-3 67 -7648 3 -7647 2 2 -232z"/>
</g>
</svg>