<svg width="347" height="237" viewBox="0 0 347 237" fill="none" xmlns="http://www.w3.org/2000/svg">
<path d="M115.658 40.3906C115.658 49.5052 108.626 57.0573 94.564 63.0469C81.9598 68.4115 67.9233 71.0938 52.4546 71.0938C40.7358 71.0938 30.8921 70.1042 22.9233 68.125C9.43376 64.6875 2.68896 58.724 2.68896 50.2344C2.68896 40.4427 9.43376 32.5781 22.9233 26.6406C33.6525 21.9531 44.6421 19.6094 55.8921 19.6094C61.3608 19.6094 64.0952 20.1823 64.0952 21.3281C64.0952 22.474 61.1785 23.5677 55.3452 24.6094C26.491 29.6094 12.064 37.6302 12.064 48.6719C12.064 53.3073 17.4285 56.7969 28.1577 59.1406C35.814 60.8594 43.9129 61.7188 52.4546 61.7188C66.9338 61.7188 79.7202 59.2969 90.814 54.4531C101.126 49.974 106.283 45.2865 106.283 40.3906C106.283 37.9427 104.46 33.5938 100.814 27.3438C100.345 26.5625 100.111 25.7552 100.111 24.9219C100.111 23.6198 100.606 22.526 101.595 21.6406C102.585 20.7031 103.731 20.2344 105.033 20.2344C106.699 20.2344 108.001 21.0417 108.939 22.6562C113.418 30.3125 115.658 36.224 115.658 40.3906ZM92.7671 9.0625C88.3921 10.9375 83.1317 11.875 76.9858 11.875C71.4129 11.875 68.6265 10.7031 68.6265 8.35938C68.6265 6.69271 70.9963 5.49479 75.7358 4.76562C78.965 4.29688 83.4181 2.86458 89.0952 0.46875C89.7723 0.15625 90.4494 0 91.1265 0C94.1473 0 95.6577 1.64062 95.6577 4.92188C95.6577 6.90104 94.6942 8.28125 92.7671 9.0625ZM159.095 60.4688C154.824 67.5521 147.611 71.0938 137.455 71.0938C134.33 71.0938 132.767 69.5312 132.767 66.4062C132.767 63.2812 134.33 61.7188 137.455 61.7188C143.965 61.7188 149.694 59.5312 154.642 55.1562C155.944 54.0104 157.116 53.4375 158.158 53.4375C159.668 53.4375 160.423 54.401 160.423 56.3281C160.423 57.5781 159.981 58.9583 159.095 60.4688ZM138.158 71.0938C128.887 71.0938 124.069 67.6823 123.705 60.8594C122.923 47.1094 121.361 30.8854 119.017 12.1875C118.965 11.875 118.939 11.5885 118.939 11.3281C118.939 9.86979 119.512 8.54167 120.658 7.34375C121.856 6.09375 123.21 5.46875 124.72 5.46875C126.751 5.46875 127.897 6.5625 128.158 8.75C129.304 21.1979 130.892 38.099 132.923 59.4531C133.08 60.9635 134.824 61.7188 138.158 61.7188C141.283 61.7188 142.845 63.2812 142.845 66.4062C142.845 69.5312 141.283 71.0938 138.158 71.0938ZM151.205 23.2031L148.548 27.5C147.611 29.0104 146.335 29.7656 144.72 29.7656C143.418 29.7656 142.272 29.3229 141.283 28.4375C140.293 27.5 139.798 26.3802 139.798 25.0781C139.798 24.2448 140.059 23.3854 140.58 22.5L143.236 18.2031C144.173 16.6927 145.449 15.9375 147.064 15.9375C148.366 15.9375 149.512 16.4062 150.501 17.3438C151.491 18.2292 151.986 19.3229 151.986 20.625C151.986 21.4583 151.725 22.3177 151.205 23.2031ZM216.048 43.8281C216.153 45.2344 216.205 46.5625 216.205 47.8125C216.205 54.4792 215.215 57.8125 213.236 57.8125C211.621 57.8125 210.241 55.0521 209.095 49.5312C208.158 45 206.439 38.4115 203.939 29.7656C203.626 28.776 203.47 27.8385 203.47 26.9531C203.47 23.0469 205.059 21.0938 208.236 21.0938C210.163 21.0938 211.465 22.2396 212.142 24.5312C214.278 31.7708 215.58 38.2031 216.048 43.8281ZM261.439 71.0938C252.897 71.0938 248.08 67.6823 246.986 60.8594C246.517 57.6302 245.554 48.3333 244.095 32.9688C240.606 43.6458 235.944 52.2396 230.111 58.75C223.028 66.6146 213.6 72.2656 201.83 75.7031C192.038 78.5156 182.403 79.9219 172.923 79.9219C167.246 79.9219 164.408 78.9062 164.408 76.875C164.408 75.3125 166.413 74.1667 170.423 73.4375C187.559 70.4167 200.475 66.7969 209.173 62.5781C217.507 58.5156 224.304 52.2396 229.564 43.75C232.012 39.7917 235.085 33.0208 238.783 23.4375C241.231 17.0833 243.496 13.9062 245.58 13.9062C249.694 13.9062 252.376 20.9896 253.626 35.1562C253.835 40.7292 254.668 48.4896 256.126 58.4375C256.751 60.625 258.522 61.7188 261.439 61.7188C264.564 61.7188 266.126 63.2812 266.126 66.4062C266.126 69.5312 264.564 71.0938 261.439 71.0938ZM307.845 36.0156C308.106 36.6406 308.236 37.2917 308.236 37.9688C308.236 40.9896 306.595 42.5 303.314 42.5C301.335 42.5 299.955 41.5104 299.173 39.5312C298.444 37.8646 297.168 37.0312 295.345 37.0312C293.262 37.0312 291.074 38.4115 288.783 41.1719C287.897 42.3177 287.455 43.6198 287.455 45.0781C287.455 50.2865 291.022 53.5938 298.158 55C300.658 55.5208 301.908 57.0312 301.908 59.5312C301.908 62.7604 300.397 64.375 297.376 64.375C293.158 64.375 288.809 62.2917 284.33 58.125C279.85 53.9062 277.611 49.6094 277.611 45.2344C277.611 41.849 278.913 38.5417 281.517 35.3125C285.632 30.1562 290.554 27.5781 296.283 27.5781C301.699 27.5781 305.554 30.3906 307.845 36.0156ZM318.548 56.6406C311.778 60.3385 302.689 63.6719 291.283 66.6406C279.72 69.6094 269.903 71.0938 261.83 71.0938C258.705 71.0938 257.142 69.5312 257.142 66.4062C257.142 63.2812 258.705 61.7188 261.83 61.7188C269.069 61.7188 278.054 60.3385 288.783 57.5781C299.512 54.8177 307.923 51.7708 314.017 48.4375C314.798 47.9688 315.606 47.7344 316.439 47.7344C317.689 47.7344 318.757 48.2552 319.642 49.2969C320.58 50.2865 321.048 51.4062 321.048 52.6562C321.048 54.4271 320.215 55.7552 318.548 56.6406ZM341.439 51.6406C341.543 52.7865 341.595 53.9062 341.595 55C341.595 61.9271 340.475 65.3906 338.236 65.3906C336.569 65.3906 335.189 62.7083 334.095 57.3438C333.522 54.4792 332.637 47.8906 331.439 37.5781C330.658 30.8073 329.772 22.2656 328.783 11.9531V11.4062C328.783 9.0625 329.382 7.08333 330.58 5.46875C331.725 3.90625 333.028 3.125 334.486 3.125C336.257 3.125 337.246 4.29688 337.455 6.64062C338.444 17.1615 339.772 32.1615 341.439 51.6406ZM346.283 86.4062C346.283 89.4271 344.642 92.2396 341.361 94.8438C338.132 97.5 334.981 98.8281 331.908 98.8281C330.189 98.8281 329.33 98.0208 329.33 96.4062C329.33 95.1042 330.033 94.1927 331.439 93.6719C335.918 92.0573 338.626 89.974 339.564 87.4219C335.762 86.4844 333.861 84.8958 333.861 82.6562C333.861 80.8333 334.772 78.776 336.595 76.4844C338.158 74.5052 339.876 72.9427 341.751 71.7969C342.376 71.4323 343.028 71.25 343.705 71.25C345.632 71.25 346.595 72.0573 346.595 73.6719C346.595 74.5052 346.153 75.2865 345.267 76.0156C342.819 77.9427 341.231 79.8438 340.501 81.7188C342.741 82.3438 344.043 82.7604 344.408 82.9688C345.658 83.6458 346.283 84.7917 346.283 86.4062Z" fill="#FFF000"/>
<path d="M48.1922 202.388H57.0242V215.828H32.8322C13.7282 215.828 0.000215173 207.092 0.000215173 188.852C0.000215173 173.3 12.1922 161.78 32.8322 161.78H34.7522V156.98H48.1922V202.388ZM28.8962 202.388H34.7522V175.22H29.5682C21.6962 175.22 13.4402 180.212 13.4402 188.852C13.4402 197.684 20.9282 202.388 28.8962 202.388ZM40.1282 149.876C36.0962 149.876 32.6402 147.476 32.6402 142.964C32.6402 138.932 35.9042 136.148 40.1282 136.148C44.4482 136.148 47.6162 138.932 47.6162 142.964C47.6162 147.476 44.1602 149.876 40.1282 149.876ZM19.2962 149.876C15.2642 149.876 11.8082 147.476 11.8082 142.964C11.8082 138.932 15.0722 136.148 19.2962 136.148C23.5202 136.148 26.7842 138.932 26.7842 142.964C26.7842 147.476 23.3282 149.876 19.2962 149.876ZM55.189 215.828V202.388H74.101V215.828H55.189ZM72.1577 215.828V202.388H91.0697V215.828H72.1577ZM89.1265 215.828V202.388H108.038V215.828H89.1265ZM106.095 215.828V202.388H125.007V215.828H106.095ZM123.064 215.828V202.388H141.976V215.828H123.064ZM140.033 215.828V202.388H158.945V215.828H140.033ZM157.001 215.828V202.388H177.065V161.78H190.505V202.388H208.169V215.828H157.001ZM193.481 236.276C189.449 236.276 185.993 233.876 185.993 229.46C185.993 225.332 189.257 222.548 193.481 222.548C197.801 222.548 200.969 225.332 200.969 229.46C200.969 233.876 197.513 236.276 193.481 236.276ZM172.649 236.276C168.617 236.276 165.161 233.876 165.161 229.46C165.161 225.332 168.425 222.548 172.649 222.548C176.873 222.548 180.137 225.332 180.137 229.46C180.137 233.876 176.681 236.276 172.649 236.276ZM214.092 154.388V147.38C214.092 138.74 218.7 135.476 226.188 135.476H231.948V139.796H226.956C223.116 139.796 221.772 141.524 221.772 144.596V147.188H235.02V154.388H214.092ZM206.22 215.828V202.388H218.124V161.78H231.564V215.828H206.22ZM248.001 236.948C245.505 236.948 242.817 236.564 241.185 236.084L240.225 222.644C242.721 223.316 244.545 223.508 246.561 223.508C251.937 223.508 253.761 220.724 253.761 214.1V161.78H267.201V202.388H277.569V215.828H267.105C266.337 230.612 260.673 236.948 248.001 236.948ZM275.689 215.828V202.388H285.001C284.521 200.468 284.329 198.356 284.329 196.244C284.329 179.924 297.193 166.868 313.033 166.868C329.257 166.868 342.217 179.636 342.217 196.244C342.217 212.564 328.681 224.948 313.033 224.948C304.873 224.948 297.385 221.396 292.105 215.828H275.689ZM313.033 211.508C321.865 211.508 328.777 205.076 328.777 196.052C328.777 187.028 322.249 180.308 313.033 180.308C304.105 180.308 297.769 187.316 297.769 196.052C297.769 204.692 304.393 211.508 313.033 211.508Z" fill="white"/>
</svg>
