<svg width="321" height="220" viewBox="0 0 321 220" fill="none" xmlns="http://www.w3.org/2000/svg">
<path d="M47.624 88.6796L48.52 89.2556C45.768 95.7196 41.288 104.168 29.192 104.168C16.136 104.168 7.24 94.3116 7.24 79.5916C7.24 64.6796 16.392 55.1436 28.744 55.1436C38.792 55.1436 44.104 61.3516 45.128 65.3196C46.728 71.6556 37.704 73.4476 35.016 62.5676C34.44 60.0716 32.968 56.2316 28.424 56.2316C21.768 56.2316 16.968 64.4236 16.968 77.4796C16.968 91.1116 22.152 100.328 32.264 100.328C39.816 100.328 45.192 95.2076 47.624 88.6796ZM63.9595 80.5516H69.2075C78.1675 80.5516 82.8395 77.2876 82.8395 68.6476C82.8395 60.0716 78.2315 56.1676 71.0635 56.1676H63.9595V80.5516ZM52.2475 103.272V103.144C53.4635 102.632 54.2955 100.776 54.2955 98.5356V59.8796C54.2955 57.5756 53.4635 55.7196 52.2475 55.2716V55.1436H72.4075C85.1435 55.1436 92.5675 59.4316 92.5675 68.0716C92.5675 76.5196 85.3995 79.9756 79.4475 81.1276C85.9755 82.2156 90.9035 85.2876 90.9035 90.4716V98.4716C90.9035 100.712 91.7355 102.568 92.9515 103.08V103.208H79.1915V103.08C80.4715 102.568 81.3035 100.712 81.3035 98.4716V90.4716C81.3035 83.0476 79.1915 81.5756 72.5355 81.5756H63.9595V98.5356C63.9595 100.776 64.7915 102.632 66.0075 103.144V103.272H52.2475ZM97.8725 103.272V103.144C99.0885 102.632 99.9205 100.776 99.9205 98.5356V59.3676C99.9205 57.5116 99.0885 55.9116 97.8725 55.2716V55.1436H131.665L132.944 62.3756H132.817C129.937 57.8956 127.312 56.1676 123.409 56.1676H109.585V77.2876H116.625C120.721 77.2876 123.921 74.7916 124.753 71.0796H124.881V84.5196H124.753C123.921 80.8076 120.721 78.3116 116.625 78.3116H109.585V102.248H122.513C125.777 102.248 130.065 97.5756 133.265 90.5356H133.457L130.769 103.272H97.8725ZM152.085 61.7356L143.957 86.3116H160.341L152.085 61.7356ZM135.125 103.272V103.144C136.597 102.632 138.005 100.776 138.773 98.5356L151.573 60.0076L151.509 59.8796C150.741 57.5756 149.269 55.7196 147.925 55.2716V55.1436H162.133V55.2716C161.045 55.7196 160.853 57.5756 161.621 59.8796L174.613 98.5356C175.381 100.776 176.789 102.632 178.197 103.144V103.272H163.925V103.144C165.077 102.632 165.269 100.776 164.501 98.5356L160.725 87.3356H143.573L139.861 98.5356C139.093 100.776 139.349 102.632 140.373 103.144V103.272H135.125ZM197.163 98.5356C197.163 100.776 197.995 102.632 199.275 103.144V103.272H185.515V103.144C186.731 102.632 187.562 100.776 187.562 98.5356V56.1676H180.907C177.579 56.1676 175.403 57.3836 172.139 64.4236H172.011L172.651 55.1436H212.203L212.779 64.4236H212.651C209.451 57.3836 207.211 56.1676 203.947 56.1676H197.163V98.5356ZM215.873 103.272V103.144C217.089 102.632 217.921 100.776 217.921 98.5356V59.8796C217.921 57.5756 217.089 55.7196 215.873 55.2716V55.1436H229.633V55.2716C228.417 55.7196 227.585 57.5756 227.585 59.8796V98.5356C227.585 100.776 228.417 102.632 229.633 103.144V103.272H215.873ZM257.98 96.6796L270.268 59.8796C270.972 57.5756 270.78 55.7196 269.756 55.2716V55.1436H275.004V55.2716C273.532 55.7196 272.124 57.5756 271.356 59.8796L258.556 98.4076L258.62 98.5356C259.388 100.776 260.796 102.632 262.204 103.144V103.272H247.932V103.144C249.083 102.632 249.276 100.776 248.508 98.5356L235.516 59.8796C234.748 57.5756 233.276 55.7196 231.931 55.2716V55.1436H246.14V55.2716C245.052 55.7196 244.86 57.5756 245.628 59.8796L257.98 96.6796ZM277.248 103.272V103.144C278.464 102.632 279.296 100.776 279.296 98.5356V59.3676C279.296 57.5116 278.464 55.9116 277.248 55.2716V55.1436H311.04L312.319 62.3756H312.192C309.312 57.8956 306.688 56.1676 302.784 56.1676H288.96V77.2876H296C300.096 77.2876 303.296 74.7916 304.128 71.0796H304.256V84.5196H304.128C303.296 80.8076 300.096 78.3116 296 78.3116H288.96V102.248H301.888C305.152 102.248 309.44 97.5756 312.64 90.5356H312.832L310.144 103.272H277.248Z" fill="#FFF100"/>
<path d="M104.84 29.232C104.84 44.08 109.896 53.68 118.088 53.68C125.448 53.68 130.504 45.808 130.504 29.872C130.504 13.872 125.448 6.256 117.832 6.256C109.896 6.256 104.84 14.384 104.84 29.232ZM95.24 29.936C95.24 15.152 104.2 5.168 117.576 5.168C131.208 5.168 140.168 15.472 140.168 30.256C140.168 45.04 131.208 54.704 117.832 54.704C104.2 54.704 95.24 44.72 95.24 29.936ZM164.454 54.704C154.278 54.704 146.854 47.92 146.854 37.168V10.864C146.854 8.816 145.766 6.832 144.166 6V5.872H159.206V6C157.606 6.768 156.454 8.688 156.454 10.864V38.704C156.454 46.64 161.253 52.464 167.974 52.464C174.95 52.464 182.054 46.256 182.054 35.696V10.864C182.054 8.688 180.966 6.768 179.302 6V5.872H185.766V6C184.166 6.832 183.078 8.816 183.078 10.864V35.696C183.078 46.768 175.526 54.704 164.454 54.704ZM201.772 31.28H207.02C215.98 31.28 220.652 28.016 220.652 19.376C220.652 10.8 216.044 6.896 208.876 6.896H201.772V31.28ZM190.06 54V53.872C191.276 53.36 192.108 51.504 192.108 49.264V10.608C192.108 8.304 191.276 6.448 190.06 6V5.872H210.22C222.956 5.872 230.38 10.16 230.38 18.8C230.38 27.248 223.212 30.704 217.26 31.856C223.788 32.944 228.716 36.016 228.716 41.2V49.2C228.716 51.44 229.548 53.296 230.764 53.808V53.936H217.004V53.808C218.284 53.296 219.116 51.44 219.116 49.2V41.2C219.116 33.776 217.004 32.304 210.348 32.304H201.772V49.264C201.772 51.504 202.604 53.36 203.82 53.872V54H190.06Z" fill="white"/>
<path d="M46 183.412C46 187.437 47.495 190.772 49.795 191.692V191.922H25.07V191.692C27.255 190.772 28.75 187.437 28.75 183.412V107.282H16.79C10.81 107.282 6.9 109.467 1.035 122.117H0.805L1.955 105.442H73.025L74.06 122.117H73.83C68.08 109.467 64.055 107.282 58.19 107.282H46V183.412ZM79.6195 191.922V191.692C81.8045 190.772 83.2995 187.437 83.2995 183.412V113.032C83.2995 109.697 81.8045 106.822 79.6195 105.672V105.442H140.34L142.64 118.437H142.41C137.235 110.387 132.52 107.282 125.505 107.282H100.665V145.232H113.315C120.675 145.232 126.425 140.747 127.92 134.077H128.15V158.227H127.92C126.425 151.557 120.675 147.072 113.315 147.072H100.665V190.082H123.895C129.76 190.082 137.465 181.687 143.215 169.037H143.56L138.73 191.922H79.6195ZM177.033 117.287L162.428 161.447H191.868L177.033 117.287ZM146.558 191.922V191.692C149.203 190.772 151.733 187.437 153.113 183.412L176.113 114.182L175.998 113.952C174.618 109.812 171.973 106.477 169.558 105.672V105.442H195.088V105.672C193.133 106.477 192.788 109.812 194.168 113.952L217.513 183.412C218.893 187.437 221.423 190.772 223.953 191.692V191.922H198.308V191.692C200.378 190.772 200.723 187.437 199.343 183.412L192.558 163.287H161.738L155.068 183.412C153.688 187.437 154.148 190.772 155.988 191.692V191.922H146.558ZM263.151 188.932L234.056 112.802V183.412C234.056 187.437 235.551 190.772 237.851 191.692V191.922H228.536V191.692C230.721 190.772 232.216 187.437 232.216 183.412V113.952C232.216 109.812 230.721 106.477 228.536 105.672V105.442H249.811L272.466 164.782L295.006 105.442H316.051V105.672C313.866 106.477 312.371 109.812 312.371 113.952V183.412C312.371 187.437 313.866 190.772 316.051 191.692V191.922H291.326V191.692C293.511 190.772 295.006 187.437 295.006 183.412V110.732L264.991 188.932H263.151Z" fill="white"/>
</svg>
