<svg width="164" height="72" viewBox="0 0 164 72" fill="none" xmlns="http://www.w3.org/2000/svg">
<g clip-path="url(#clip0_601_69)">
<path d="M35.4328 46.5741C34.454 45.4698 33.959 43.9494 33.959 42.0183C33.959 41.5355 33.9701 41.1693 33.9979 40.914C34.0202 40.5811 34.1481 40.4201 34.3817 40.4201H37.5518C37.8076 40.4201 37.9188 40.5866 37.8966 40.914C37.8465 41.369 37.8187 41.6742 37.8187 41.8296C37.8187 42.7452 38.0134 43.4444 38.4138 43.9272C38.8087 44.41 39.3648 44.6541 40.0767 44.6541C41.5561 44.6541 42.2958 43.7108 42.2958 41.8296C42.2958 40.9917 42.1623 40.2703 41.8954 39.6765C41.6284 39.0772 41.2113 38.5501 40.6551 38.095L37.4072 35.5757C36.2615 34.7101 35.4272 33.7667 34.9045 32.7346C34.3817 31.7024 34.1203 30.465 34.1203 29.0167C34.1203 27.0356 34.6152 25.5041 35.6108 24.422C36.6063 23.3399 38.0467 22.8016 39.9321 22.8016C41.8175 22.8016 43.3914 23.3177 44.4259 24.3443C45.4603 25.3764 45.972 26.8303 45.972 28.7115C45.972 28.939 45.9442 29.333 45.8941 29.8934C45.8663 30.2763 45.7551 30.465 45.5493 30.465H42.3014C42.0455 30.465 41.9343 30.2763 41.9565 29.8934C41.9788 29.6881 41.9955 29.4107 41.9955 29.0555C41.9955 28.2176 41.8231 27.5628 41.4782 27.0911C41.1334 26.6194 40.6551 26.3864 40.0434 26.3864C38.7419 26.3864 38.0801 27.2132 38.0579 28.8668C38.0579 29.6826 38.208 30.3651 38.5139 30.9256C38.8198 31.486 39.2759 32.0076 39.8876 32.4904L43.0244 34.932C44.1979 35.8476 45.0321 36.8132 45.5271 37.8287C46.0221 38.8442 46.2723 40.1538 46.2723 41.7575C46.2223 46.0802 44.12 48.2389 39.9655 48.2389C37.9244 48.2389 36.4172 47.6839 35.4384 46.5797L35.4328 46.5741Z" fill="white"/>
<path d="M48.9029 47.889C48.8251 47.8113 48.7861 47.7115 48.7861 47.5838V23.4396C48.7861 23.3119 48.8195 23.212 48.8807 23.1344C48.9419 23.0567 49.0253 23.0178 49.1309 23.0178H59.1474C59.3754 23.0178 59.4922 23.1566 59.4922 23.4396V26.2252C59.4922 26.5304 59.3754 26.6803 59.1474 26.6803H52.7627V33.5834H58.5745C58.8025 33.5834 58.9193 33.7221 58.9193 34.0051V36.6354C58.9193 36.9128 58.8025 37.0571 58.5745 37.0571H52.7627V44.3431H59.1474C59.3754 44.3431 59.4922 44.493 59.4922 44.7982V47.5838C59.4922 47.8613 59.3754 48.0056 59.1474 48.0056H49.1699C49.0698 48.0056 48.9808 47.9667 48.9029 47.889Z" fill="white"/>
<path d="M62.2619 47.889C62.2007 47.8113 62.1674 47.7115 62.1674 47.5838L62.5122 23.4396C62.5122 23.1621 62.629 23.0178 62.857 23.0178H67.1394C67.3674 23.0178 67.5232 23.1344 67.5955 23.3619L70.8434 36.5189L74.0525 23.3619C74.1303 23.1344 74.2805 23.0178 74.5085 23.0178H78.7909C79.0468 23.0178 79.1747 23.1566 79.1747 23.4396L79.4806 47.5838C79.4806 47.7115 79.4472 47.8113 79.386 47.889C79.3249 47.9667 79.2414 48.0056 79.1357 48.0056H75.9267C75.6709 48.0056 75.543 47.8668 75.543 47.5838L75.4262 34.9984C75.4262 33.0174 75.4874 31.0696 75.6153 29.1663H75.5374C75.1815 30.8976 74.7588 32.4957 74.2749 33.9718L71.2939 44.6483C71.2161 44.8259 71.0881 44.9147 70.9102 44.9147H70.7211C70.5431 44.9147 70.4152 44.8259 70.3373 44.6483L67.3174 33.9718C66.8335 32.3459 66.4275 30.7422 66.0938 29.1663H66.016C66.1439 31.0752 66.2051 33.0174 66.2051 34.9984L66.0883 47.5838C66.0883 47.7115 66.0549 47.8113 65.9937 47.889C65.927 47.9667 65.8491 48.0056 65.7435 48.0056H62.4955C62.3954 48.0056 62.312 47.9667 62.2452 47.889H62.2619Z" fill="white"/>
<path d="M82.5617 47.889C82.5005 47.8113 82.4672 47.7115 82.4672 47.5838V23.4396C82.4672 23.3119 82.5005 23.212 82.5617 23.1344C82.6229 23.0567 82.7063 23.0178 82.812 23.0178H86.0989C86.199 23.0178 86.2824 23.0567 86.3491 23.1344C86.4103 23.212 86.4437 23.3119 86.4437 23.4396V47.5838C86.4437 47.7115 86.4103 47.8113 86.3491 47.889C86.288 47.9667 86.2045 48.0056 86.0989 48.0056H82.812C82.7119 48.0056 82.6284 47.9667 82.5617 47.889Z" fill="white"/>
<path d="M89.3857 40.0315V30.992C89.3857 28.2729 89.9697 26.2253 91.1432 24.8546C92.3167 23.484 94.0241 22.7959 96.2654 22.7959C98.3788 22.7959 100.025 23.4229 101.199 24.6826C102.372 25.9423 102.956 27.6625 102.956 29.8488C102.956 30.3816 102.917 30.9143 102.839 31.4525C102.789 31.73 102.672 31.8743 102.494 31.8743H99.2075C98.9294 31.8743 98.8126 31.7245 98.8627 31.4192C98.8905 31.164 98.9016 30.7977 98.9016 30.315C98.9016 27.7457 98.0229 26.4639 96.2654 26.4639C95.2699 26.4639 94.5413 26.8301 94.0686 27.5682C93.5959 28.3062 93.3623 29.4992 93.3623 31.1529V39.8484C93.3623 41.5242 93.5959 42.7339 94.0686 43.472C94.5413 44.21 95.2699 44.5762 96.2654 44.5762C98.0507 44.5762 98.9405 43.2777 98.9405 40.6863C98.9405 40.2313 98.9294 39.8706 98.9016 39.6209C98.9016 39.3157 99.0184 39.1658 99.2464 39.1658H102.455C102.711 39.1658 102.85 39.3157 102.878 39.6209C102.906 39.8761 102.917 40.259 102.917 40.764C102.917 43.1279 102.35 44.9647 101.215 46.2743C100.081 47.5839 98.4289 48.2387 96.2654 48.2387C91.6771 48.2387 89.3857 45.5085 89.3857 40.0371V40.0315Z" fill="white"/>
<path d="M107.122 46.2687C105.948 44.9591 105.364 43.0225 105.364 40.4532V30.6535C105.364 28.0343 105.948 26.0699 107.122 24.7603C108.295 23.4507 110.003 22.7959 112.244 22.7959C114.485 22.7959 116.193 23.4507 117.366 24.7603C118.54 26.0699 119.123 28.0343 119.123 30.6535V40.4532C119.123 43.0225 118.54 44.9591 117.366 46.2687C116.193 47.5783 114.485 48.2331 112.244 48.2331C110.003 48.2331 108.295 47.5783 107.122 46.2687ZM114.441 43.5441C114.913 42.856 115.147 41.7628 115.147 40.2646V30.8421C115.147 29.2939 114.913 28.173 114.441 27.4849C113.968 26.7968 113.239 26.4528 112.244 26.4528C111.248 26.4528 110.52 26.7968 110.047 27.4849C109.574 28.173 109.341 29.2884 109.341 30.8421V40.2646C109.341 41.7628 109.574 42.856 110.047 43.5441C110.52 44.2322 111.248 44.5762 112.244 44.5762C113.239 44.5762 113.968 44.2322 114.441 43.5441Z" fill="white"/>
<path d="M122.182 47.889C122.104 47.8113 122.066 47.7115 122.066 47.5838V23.4396C122.066 23.1621 122.193 23.0178 122.449 23.0178H125.658C125.758 23.0178 125.847 23.0567 125.925 23.1344C126.003 23.212 126.042 23.3119 126.042 23.4396V44.3376H132.004C132.26 44.3376 132.388 44.4874 132.388 44.7926V47.5783C132.388 47.8557 132.26 48 132.004 48H122.449C122.349 48 122.26 47.9612 122.182 47.8835V47.889Z" fill="white"/>
<path d="M135.519 46.2687C134.346 44.9591 133.762 43.0225 133.762 40.4532V30.6535C133.762 28.0343 134.346 26.0699 135.519 24.7603C136.693 23.4507 138.4 22.7959 140.641 22.7959C142.883 22.7959 144.59 23.4507 145.763 24.7603C146.937 26.0699 147.521 28.0343 147.521 30.6535V40.4532C147.521 43.0225 146.937 44.9591 145.763 46.2687C144.59 47.5783 142.883 48.2331 140.641 48.2331C138.4 48.2331 136.693 47.5783 135.519 46.2687ZM142.838 43.5441C143.311 42.856 143.544 41.7628 143.544 40.2646V30.8421C143.544 29.2939 143.311 28.173 142.838 27.4849C142.365 26.7968 141.637 26.4528 140.641 26.4528C139.646 26.4528 138.917 26.7968 138.444 27.4849C137.972 28.173 137.738 29.2884 137.738 30.8421V40.2646C137.738 41.7628 137.972 42.856 138.444 43.5441C138.917 44.2322 139.646 44.5762 140.641 44.5762C141.637 44.5762 142.365 44.2322 142.838 43.5441Z" fill="white"/>
<path d="M150.563 47.889C150.502 47.8113 150.469 47.7115 150.469 47.5838V23.4396C150.469 23.3119 150.502 23.212 150.563 23.1344C150.624 23.0567 150.708 23.0178 150.813 23.0178H155.324C155.552 23.0178 155.68 23.1177 155.708 23.323L159.111 36.2913C159.339 37.157 159.59 38.2224 159.857 39.4932C160.124 40.7639 160.324 41.8183 160.452 42.6562H160.53C160.452 41.5353 160.385 40.2645 160.318 38.8439C160.257 37.4178 160.224 36.2525 160.224 35.3369V23.4396C160.224 23.1621 160.352 23.0178 160.607 23.0178H163.627C163.883 23.0178 164.011 23.1566 164.011 23.4396V47.5838C164.011 47.8613 163.894 48.0056 163.666 48.0056H159.195C158.989 48.0056 158.878 47.9168 158.85 47.7392L155.413 35.0761C154.979 33.5001 154.534 31.3027 154.073 28.4782H153.995C154.173 31.68 154.262 34.2382 154.262 36.1415V47.5838C154.262 47.8613 154.145 48.0056 153.917 48.0056H150.819C150.719 48.0056 150.635 47.9667 150.569 47.889H150.563Z" fill="white"/>
<path d="M54.8483 54.5258C54.8706 54.4703 54.8984 54.4259 54.9651 54.4259H55.6047C55.6714 54.4259 55.7104 54.4647 55.7326 54.5258L58.0184 60.9794C58.0351 61.0405 58.0073 61.0793 57.9517 61.0793H57.2676C57.2009 61.0793 57.1619 61.0516 57.1397 60.9794L56.628 59.5311H53.9362L53.4245 60.9794C53.3967 61.046 53.3578 61.0793 53.2966 61.0793H52.6126C52.5514 61.0793 52.5236 61.0405 52.5458 60.9794L54.8594 54.5258H54.8483ZM56.3388 58.732L55.2877 55.7078H55.271L54.2143 58.732H56.3388Z" fill="white"/>
<path d="M59.0696 54.5258C59.0696 54.4703 59.1085 54.4259 59.1697 54.4259H61.411C62.54 54.4259 63.2797 54.9031 63.5856 55.8409C63.7024 56.2016 63.7636 56.5623 63.7636 57.7498C63.7636 58.9373 63.7024 59.2925 63.5856 59.6587C63.2797 60.5965 62.54 61.0738 61.411 61.0738H59.1697C59.1085 61.0738 59.0696 61.0349 59.0696 60.9739V54.5202V54.5258ZM60.0039 60.2691H61.2275C62.0283 60.2691 62.5289 60.0028 62.7458 59.3591C62.8348 59.1149 62.8848 58.7931 62.8848 57.7554C62.8848 56.7177 62.8348 56.3958 62.7458 56.1517C62.5289 55.508 62.0283 55.2416 61.2275 55.2416H60.0039C59.965 55.2416 59.9427 55.2638 59.9427 55.3027V60.2136C59.9427 60.2525 59.965 60.2747 60.0039 60.2747V60.2691Z" fill="white"/>
<path d="M66.6778 61.0793C66.6166 61.0793 66.5777 61.0405 66.561 60.9794L64.4031 54.5424C64.3753 54.4647 64.4142 54.4259 64.4699 54.4259H65.1373C65.2151 54.4259 65.254 54.4536 65.2763 54.5258L66.9837 59.6587H67.0004L68.6466 54.5258C68.6689 54.4592 68.7078 54.4259 68.7745 54.4259H69.453C69.5142 54.4259 69.5532 54.4647 69.5198 54.5424L67.373 60.9794C67.3508 61.0405 67.3118 61.0793 67.2562 61.0793H66.6778Z" fill="white"/>
<path d="M70.5376 54.5258C70.5376 54.4703 70.5765 54.4259 70.6377 54.4259H74.6476C74.7088 54.4259 74.7477 54.4647 74.7477 54.5258V55.1417C74.7477 55.2028 74.7088 55.2416 74.6476 55.2416H71.4719C71.433 55.2416 71.4108 55.2638 71.4108 55.3027V57.256C71.4108 57.2948 71.433 57.317 71.4719 57.317H74.1693C74.2305 57.317 74.2694 57.3558 74.2694 57.4169V58.0328C74.2694 58.0939 74.2305 58.1327 74.1693 58.1327H71.4719C71.433 58.1327 71.4108 58.1494 71.4108 58.1938V60.2192C71.4108 60.258 71.433 60.2802 71.4719 60.2802H74.6476C74.7088 60.2802 74.7477 60.3191 74.7477 60.3801V60.9961C74.7477 61.0571 74.7088 61.096 74.6476 61.096H70.6377C70.5765 61.096 70.5376 61.0571 70.5376 60.9961V54.5424V54.5258Z" fill="white"/>
<path d="M79.9143 61.0793C79.8476 61.0793 79.8142 61.0516 79.7864 60.9794L78.4516 58.2604H76.9834C76.9444 58.2604 76.9222 58.277 76.9222 58.3214V60.9794C76.9222 61.0405 76.8833 61.0793 76.8221 61.0793H76.1436C76.088 61.0793 76.0435 61.0405 76.0435 60.9794V54.5258C76.0435 54.4703 76.0824 54.4259 76.1436 54.4259H78.5573C79.8031 54.4259 80.6429 55.1861 80.6429 56.3404C80.6429 57.2393 80.1312 57.8941 79.3304 58.1494L80.7486 60.9572C80.7875 61.0183 80.7597 61.0738 80.6874 61.0738H79.9032L79.9143 61.0793ZM79.7753 56.3459C79.7753 55.6523 79.3137 55.2416 78.5406 55.2416H76.9834C76.9444 55.2416 76.9222 55.2638 76.9222 55.3027V57.3947C76.9222 57.4335 76.9389 57.4557 76.9834 57.4557H78.5406C79.3137 57.4557 79.7753 57.0451 79.7753 56.3515V56.3459Z" fill="white"/>
<path d="M83.5294 61.0792C83.4683 61.0792 83.4293 61.0404 83.4293 60.9794V55.2971C83.4293 55.2582 83.4126 55.236 83.3682 55.236H81.544C81.4828 55.236 81.4438 55.1972 81.4438 55.1361V54.5202C81.4438 54.4647 81.4828 54.4203 81.544 54.4203H86.1768C86.2379 54.4203 86.2769 54.4591 86.2769 54.5202V55.1361C86.2769 55.1972 86.2379 55.236 86.1768 55.236H84.3526C84.3136 55.236 84.2914 55.2582 84.2914 55.2971V60.9794C84.2914 61.0404 84.2524 61.0792 84.1913 61.0792H83.5128H83.5294Z" fill="white"/>
<path d="M87.3224 54.5258C87.3224 54.4703 87.3613 54.4259 87.4225 54.4259H88.0954C88.1566 54.4259 88.1956 54.4647 88.1956 54.5258V60.9794C88.1956 61.0405 88.1566 61.0793 88.0954 61.0793H87.4225C87.3613 61.0793 87.3224 61.0405 87.3224 60.9794V54.5258Z" fill="white"/>
<path d="M89.5136 60.3579C89.4747 60.3191 89.4636 60.258 89.5025 60.2136L89.9363 59.7031C89.9752 59.6532 90.0253 59.6532 90.0753 59.692C90.5036 60.036 91.171 60.3745 91.9385 60.3745C92.8617 60.3745 93.4067 59.914 93.4067 59.2425C93.4067 58.6765 93.0842 58.2936 92.0163 58.1604L91.6826 58.1105C90.3868 57.9329 89.725 57.317 89.725 56.2737C89.725 55.0918 90.5759 54.3315 91.8995 54.3315C92.6837 54.3315 93.4401 54.5868 93.9295 54.9475C93.9796 54.9863 93.9851 55.0363 93.9462 55.0862L93.6125 55.6245C93.5736 55.6744 93.5235 55.6744 93.4735 55.6411C92.934 55.3082 92.4335 55.1417 91.8662 55.1417C91.0542 55.1417 90.6037 55.5801 90.6037 56.2182C90.6037 56.7732 90.9763 57.145 92.0052 57.2837L92.3278 57.3336C93.6292 57.5112 94.2855 58.105 94.2855 59.1926C94.2855 60.3579 93.4623 61.1958 91.8551 61.1958C90.9151 61.1958 90.003 60.8129 89.5136 60.3634V60.3579Z" fill="white"/>
<path d="M95.6313 54.5258C95.6313 54.4703 95.6703 54.4259 95.7315 54.4259H96.4044C96.4656 54.4259 96.5045 54.4647 96.5045 54.5258V60.9794C96.5045 61.0405 96.4656 61.0793 96.4044 61.0793H95.7315C95.6703 61.0793 95.6313 61.0405 95.6313 60.9794V54.5258Z" fill="white"/>
<path d="M98.1453 54.5258C98.1453 54.4703 98.1842 54.4259 98.2454 54.4259H98.8738C98.9517 54.4259 99.0017 54.4426 99.0407 54.5258L102.061 59.5145H102.1V54.5258C102.1 54.4703 102.138 54.4259 102.2 54.4259H102.817C102.878 54.4259 102.917 54.4647 102.917 54.5258V60.9794C102.917 61.0405 102.878 61.0793 102.817 61.0793H102.189C102.122 61.0793 102.061 61.0627 102.022 60.9794L98.9906 56.013H98.9628V60.9794C98.9628 61.0405 98.9239 61.0793 98.8627 61.0793H98.2454C98.1842 61.0793 98.1453 61.0405 98.1453 60.9794V54.5258Z" fill="white"/>
<path d="M104.319 57.7553C104.319 56.6621 104.374 56.257 104.497 55.8797C104.83 54.8531 105.653 54.3259 106.782 54.3259C107.911 54.3259 108.662 54.9141 108.996 55.6466C109.024 55.7077 109.013 55.7521 108.968 55.7853L108.379 56.0684C108.317 56.0961 108.273 56.0795 108.24 56.0184C107.917 55.4247 107.483 55.1361 106.777 55.1361C106.02 55.1361 105.542 55.4857 105.336 56.1238C105.247 56.368 105.197 56.7398 105.197 57.7553C105.197 58.7708 105.247 59.1426 105.336 59.3867C105.542 60.0249 106.02 60.3745 106.777 60.3745C107.455 60.3745 108 60.0415 108.206 59.4145C108.273 59.187 108.334 58.8651 108.334 58.3657C108.334 58.3269 108.312 58.3102 108.273 58.3102H106.977C106.916 58.3102 106.877 58.2714 106.877 58.2103V57.6443C106.877 57.5833 106.916 57.5444 106.977 57.5444H109.102C109.157 57.5444 109.202 57.5833 109.202 57.6443V58.1437C109.202 58.743 109.135 59.2869 109.035 59.6087C108.712 60.6186 107.878 61.1847 106.771 61.1847C105.665 61.1847 104.819 60.6575 104.485 59.6309C104.369 59.248 104.307 58.8485 104.307 57.7553H104.319Z" fill="white"/>
<path d="M114.696 54.5258C114.719 54.4703 114.747 54.4259 114.813 54.4259H115.453C115.52 54.4259 115.559 54.4647 115.581 54.5258L117.867 60.9794C117.883 61.0405 117.855 61.0793 117.8 61.0793H117.116C117.049 61.0793 117.01 61.0516 116.988 60.9794L116.476 59.5311H113.784L113.273 60.9794C113.245 61.046 113.206 61.0793 113.145 61.0793H112.461C112.4 61.0793 112.372 61.0405 112.394 60.9794L114.708 54.5258H114.696ZM116.187 58.732L115.136 55.7078H115.119L114.062 58.732H116.193H116.187Z" fill="white"/>
<path d="M118.49 57.7553C118.49 56.6621 118.551 56.257 118.667 55.8797C119.001 54.8531 119.824 54.3259 120.953 54.3259C122.082 54.3259 122.833 54.9141 123.167 55.6466C123.195 55.7077 123.183 55.7521 123.139 55.7853L122.549 56.0684C122.494 56.0961 122.444 56.0795 122.41 56.0184C122.088 55.4247 121.654 55.1361 120.953 55.1361C120.197 55.1361 119.719 55.4857 119.513 56.1238C119.424 56.368 119.374 56.7398 119.374 57.7553C119.374 58.7708 119.424 59.1426 119.513 59.3867C119.719 60.0249 120.197 60.3745 120.953 60.3745C121.626 60.3745 122.177 60.0415 122.383 59.4145C122.449 59.187 122.511 58.8651 122.511 58.3657C122.511 58.3269 122.494 58.3102 122.449 58.3102H121.153C121.098 58.3102 121.053 58.2714 121.053 58.2103V57.6443C121.053 57.5833 121.092 57.5444 121.153 57.5444H123.284C123.339 57.5444 123.384 57.5833 123.384 57.6443V58.1437C123.384 58.743 123.317 59.2869 123.217 59.6087C122.894 60.6186 122.06 61.1847 120.953 61.1847C119.847 61.1847 119.001 60.6575 118.667 59.6309C118.551 59.248 118.49 58.8485 118.49 57.7553Z" fill="white"/>
<path d="M124.791 54.5258C124.791 54.4703 124.83 54.4259 124.891 54.4259H128.901C128.962 54.4259 129.001 54.4647 129.001 54.5258V55.1417C129.001 55.2028 128.962 55.2416 128.901 55.2416H125.725C125.686 55.2416 125.67 55.2638 125.67 55.3027V57.256C125.67 57.2948 125.686 57.317 125.725 57.317H128.422C128.478 57.317 128.523 57.3558 128.523 57.4169V58.0328C128.523 58.0939 128.484 58.1327 128.422 58.1327H125.725C125.686 58.1327 125.67 58.1494 125.67 58.1938V60.2192C125.67 60.258 125.686 60.2802 125.725 60.2802H128.901C128.962 60.2802 129.001 60.3191 129.001 60.3801V60.9961C129.001 61.0571 128.962 61.096 128.901 61.096H124.891C124.83 61.096 124.791 61.0571 124.791 60.9961V54.5424V54.5258Z" fill="white"/>
<path d="M130.308 54.5258C130.308 54.4703 130.347 54.4259 130.408 54.4259H131.036C131.114 54.4259 131.164 54.4426 131.203 54.5258L134.223 59.5145H134.262V54.5258C134.262 54.4703 134.301 54.4259 134.362 54.4259H134.98C135.041 54.4259 135.08 54.4647 135.08 54.5258V60.9794C135.08 61.0405 135.041 61.0793 134.98 61.0793H134.351C134.284 61.0793 134.223 61.0627 134.184 60.9794L131.153 56.013H131.125V60.9794C131.125 61.0405 131.086 61.0793 131.025 61.0793H130.408C130.347 61.0793 130.308 61.0405 130.308 60.9794V54.5258Z" fill="white"/>
<path d="M136.481 57.7553C136.481 56.6511 136.531 56.2682 136.659 55.8853C136.993 54.8365 137.788 54.3204 138.873 54.3204C139.863 54.3204 140.625 54.8088 141.008 55.6578C141.031 55.7077 141.019 55.7577 140.969 55.7854L140.38 56.0684C140.319 56.0962 140.263 56.0684 140.241 56.0185C139.974 55.5024 139.562 55.1306 138.867 55.1306C138.172 55.1306 137.699 55.4802 137.482 56.1073C137.393 56.3792 137.354 56.7066 137.354 57.7498C137.354 58.793 137.393 59.1204 137.482 59.3923C137.699 60.0194 138.139 60.369 138.867 60.369C139.596 60.369 139.974 59.9972 140.241 59.4811C140.258 59.4312 140.319 59.4034 140.38 59.4312L140.969 59.7142C141.019 59.7419 141.031 59.7919 141.008 59.8418C140.625 60.6908 139.863 61.1792 138.873 61.1792C137.783 61.1792 136.993 60.6631 136.659 59.6143C136.531 59.2314 136.481 58.8541 136.481 57.7498V57.7553Z" fill="white"/>
<path d="M143.684 61.0793C143.622 61.0793 143.583 61.0404 143.583 60.9794V58.3602L141.615 54.5368C141.598 54.4813 141.626 54.4314 141.692 54.4314H142.388C142.454 54.4314 142.493 54.4591 142.532 54.5313L144.023 57.378H144.039L145.519 54.5313C145.547 54.4647 145.586 54.4314 145.658 54.4314H146.331C146.409 54.4314 146.431 54.4813 146.409 54.5368L144.44 58.3602V60.9794C144.44 61.0404 144.401 61.0793 144.34 61.0793H143.672H143.684Z" fill="white"/>
<path d="M3.22012 33.045C3.22012 33.045 2.12448 42.7671 11.3233 44.7648L17.1964 45.9024L17.9861 47.0732L13.2421 58.7431L8.77058 64.7306L12.3745 62.6774L16.5846 59.2037L19.2542 54.9808L22.0516 51.3516L24.888 45.2698L24.1039 39.2989L22.9026 33.2726L19.966 29.5602L14.8105 27.79L12.2076 27.3572L6.81846 28.1285L4.5827 30.3482L3.22012 33.0561V33.045Z" fill="#FFF000"/>
<path d="M4.73292 6.36493C4.73292 6.36493 3.14786 12.6133 7.4136 17.2579C7.4136 17.2579 10.4836 21.2921 15.8338 18.1679C15.8338 18.1679 22.2908 16.2868 22.3743 9.28932C22.3743 9.28932 21.6957 4.25626 13.6537 2.54157C13.6537 2.54157 5.15003 2.0699 4.72735 6.35938L4.73292 6.36493Z" fill="#FFF000"/>
<path d="M20.906 60.1914C20.6113 60.5576 20.3443 60.9405 20.0218 61.279C18.1419 63.2712 16.112 65.0635 13.6815 66.3953C11.1177 67.8048 8.40917 68.848 5.66174 69.8247C4.77189 70.141 3.92653 70.5849 3.05336 70.9678C2.37485 71.2675 1.69077 71.5616 1.00113 71.8446C0.850972 71.9056 0.661878 71.8834 0.483908 71.9056C0.255883 71.0899 0.828726 70.7348 1.31258 70.3685C1.9188 69.9135 2.56394 69.5139 3.1924 69.0867C3.34812 68.9812 3.48716 68.848 3.6707 68.6927C2.99774 68.4263 2.64736 68.9202 2.19131 69.0811C1.87987 68.8591 1.79088 68.4041 2.08564 68.0989C3.15903 66.9891 4.26022 65.9015 5.36142 64.8138C5.79522 64.3865 6.26239 63.9926 6.70176 63.5708C7.36915 62.9216 7.98648 62.2279 8.68168 61.612C9.87742 60.5576 10.6505 59.1926 11.4291 57.8552C13.0698 55.0418 14.6326 52.1784 16.2009 49.3206C16.4568 48.849 16.6459 48.2941 16.7015 47.7613C16.8127 46.6571 15.9674 46.08 14.9885 45.8635C13.6815 45.575 12.3913 45.9079 11.0898 45.8857C9.2156 45.8469 7.48594 45.3197 5.88977 44.3819C4.63841 43.6494 3.4816 42.7727 2.49164 41.6961C1.45162 40.5641 0.834287 39.2323 0.639632 37.723C0.495031 36.602 0.333745 35.47 0.361553 34.3491C0.428292 31.7576 1.3682 29.4936 3.39818 27.8233C4.51606 26.9022 5.75629 26.1142 7.00208 25.3706C8.01429 24.7713 9.15442 24.4605 10.3502 24.405C11.4792 24.3551 12.5859 24.0665 13.7038 23.9611C16.1008 23.728 18.3644 24.0832 20.2776 25.7646C21.8571 27.1574 22.9027 28.922 23.9427 30.7033C24.738 32.0628 25.3498 33.4945 25.6723 35.0372C25.8002 35.6531 25.8948 36.2913 25.917 36.9183C25.9671 38.3056 26.0283 39.6929 26.3008 41.058C26.3731 41.4131 26.3953 41.7849 26.4065 42.1512C26.4454 43.4996 26.5566 44.8536 26.4899 46.1965C26.3508 48.9655 25.8058 51.6513 24.5823 54.1706C23.4977 56.4013 22.48 58.6654 21.3565 60.8739C20.6558 62.2612 19.7103 63.4987 18.6925 64.6806C16.5736 67.1334 13.8484 68.7038 10.9731 70.0633C9.48811 70.7681 7.98092 71.4284 6.35694 71.7502C5.26131 71.9667 4.15455 72.122 3.03667 71.8945C2.93657 71.8723 2.86427 71.7502 2.77528 71.6726C2.87539 71.5616 2.95325 71.4007 3.08117 71.3507C3.22021 71.2952 3.39818 71.3174 3.55946 71.3341C5.6673 71.5616 7.59717 70.8957 9.48255 70.0966C11.4235 69.2698 13.2756 68.2709 15.0386 67.0945C17.3911 65.5241 19.1931 63.4598 20.5946 61.0293C20.7392 60.7796 20.8782 60.5188 21.0173 60.2691C20.9839 60.2469 20.9505 60.2247 20.9172 60.2025L20.906 60.1914ZM9.81068 63.926C9.76619 63.9426 9.83849 63.926 9.89411 63.8871C11.3902 62.9049 12.8918 61.9394 14.3712 60.935C14.8439 60.6131 15.3333 60.2635 15.6726 59.8141C17.2132 57.7831 18.7259 55.7299 20.2053 53.6601C21.5289 51.8011 22.6913 49.8423 23.4699 47.6837C23.8648 46.5849 24.3487 45.4917 24.2764 44.2931C24.1818 42.7061 24.065 41.1135 23.8926 39.532C23.6813 37.612 23.2808 35.7308 22.5467 33.9329C21.9071 32.368 20.9728 30.9697 19.5768 30.0485C17.469 28.6612 15.122 27.8233 12.5414 27.8788C11.3735 27.901 10.2056 27.9842 9.04319 28.073C8.58714 28.1063 8.11996 28.1729 7.69728 28.3283C6.5516 28.7556 5.65618 29.5491 5.0166 30.5535C3.73743 32.5512 3.47604 34.7597 3.97658 37.0404C4.42707 39.0936 5.46153 40.8305 7.03545 42.2788C7.96424 43.1278 8.97089 43.5606 10.2056 43.5606C10.3502 43.5606 10.5782 43.6217 10.6171 43.7216C10.7673 44.0823 11.0676 44.0934 11.3679 44.1378C12.3134 44.2654 13.2533 44.3986 14.1988 44.5151C14.577 44.5595 14.9551 44.5761 15.3389 44.5928C15.6503 44.6039 15.9674 44.5761 16.2788 44.6039C16.6125 44.6316 16.9462 44.7426 17.2799 44.726C17.6859 44.7093 17.8527 44.8148 17.8917 45.2531C17.925 45.6305 17.9695 46.0134 17.9973 46.3907C18.014 46.6182 18.0641 46.8679 17.9973 47.0788C17.7916 47.7724 17.5302 48.4439 17.3077 49.1375C16.9406 50.2751 16.6347 51.4349 16.2232 52.5613C15.439 54.72 14.449 56.7953 13.2533 58.7542C12.1577 60.541 10.9397 62.2557 9.82181 63.9315L9.81068 63.926ZM6.44036 67.3664C6.46261 67.4275 6.48486 67.483 6.5071 67.544C6.56828 67.544 6.64058 67.5662 6.6962 67.5496C8.45366 67.1112 10.1722 66.5285 11.7127 65.5852C14.0709 64.1368 16.2232 62.4 18.2699 60.5354C19.8938 59.0538 21.3732 57.4446 22.4355 55.5079C22.8192 54.8087 23.1919 54.0874 23.4421 53.3327C23.6813 52.6057 23.7703 51.8233 23.8926 51.0575C23.9927 50.4582 24.0428 49.8534 24.1151 49.2485C23.7202 50.0198 23.4143 50.8134 23.0639 51.5791C22.1963 53.4769 21.1118 55.2416 19.7381 56.812C18.9206 57.7498 17.9918 58.5933 17.0964 59.47C16.5791 59.975 16.0174 60.4356 15.528 60.9572C14.9273 61.5953 14.4212 62.3223 13.7983 62.9327C13.0753 63.6485 12.3023 64.3255 11.4958 64.947C10.2945 65.8737 8.94864 66.5285 7.48038 66.9336C7.12444 67.0335 6.78518 67.2166 6.44036 67.3609V67.3664ZM13.5369 24.5937C18.2309 26.7801 22.391 29.71 24.8937 34.6487C24.8548 34.4656 24.8381 34.3435 24.7992 34.227C23.9482 31.6023 22.5968 29.2716 20.8226 27.1574C19.8605 26.0087 18.6647 25.2485 17.2632 24.8101C16.0063 24.4161 14.7049 24.3607 13.5314 24.5882L13.5369 24.5937ZM21.8237 57.8164C20.0829 59.7253 18.4423 61.7618 16.3344 63.2934C14.2544 64.8027 12.052 66.1401 9.93304 67.5329C14.9107 65.5741 18.9261 62.3833 21.8293 57.8164H21.8237ZM9.90523 25.637C12.9363 25.7757 15.6114 27.0298 18.4256 28.2561C18.3088 28.0841 18.2921 28.0286 18.2587 28.0064C16.6626 26.8245 15.0052 25.7479 13.0753 25.1875C12.6248 25.0543 12.1187 24.9267 11.6738 25.0043C11.0676 25.1098 10.4948 25.4205 9.90523 25.637ZM4.28803 29.9431C3.36481 30.4758 2.54726 31.0862 2.17463 32.1405C1.74083 33.3724 1.68521 34.6321 1.89655 35.9028C1.99666 36.5022 2.208 37.0904 2.36928 37.6786C2.14682 34.8707 2.96994 32.3569 4.28247 29.9431H4.28803ZM25.1662 41.1801C25.4888 38.3833 24.8214 35.8363 23.2586 33.5167C23.8648 36.0749 24.9549 38.5109 25.1662 41.1801ZM13.0586 26.8356C12.914 26.7912 12.7694 26.7357 12.6248 26.7135C11.785 26.5803 10.9452 26.4138 10.0943 26.3417C9.5771 26.2973 8.97645 26.2585 8.54264 26.4749C7.90862 26.7912 7.3914 27.335 6.82411 27.7845C8.87078 27.1574 10.923 26.8522 13.0586 26.8356ZM13.4424 57.1782C13.3979 57.156 13.359 57.1283 13.3145 57.1061C11.418 59.7974 9.52148 62.4887 7.62498 65.1856L7.72509 65.2578C9.96085 62.7995 11.8407 60.0915 13.4368 57.1838L13.4424 57.1782ZM7.10775 26.6691C5.32249 26.9188 4.1045 28.0453 3.14791 29.5657C4.57167 28.6779 6.15672 28.0619 7.10775 26.6691ZM13.359 62.4222C11.5237 63.5986 9.68833 64.775 7.85301 65.9514C9.12661 65.9292 11.9463 64.1202 13.359 62.4222ZM3.50941 41.4242C4.7552 43.1445 8.35911 44.9535 10.1333 44.7482C7.74177 43.9102 5.40591 43.1112 3.50941 41.4242ZM3.10341 35.52C2.87539 37.9227 3.43711 40.0314 5.41703 41.5907C4.06001 39.7928 3.30363 37.7618 3.10341 35.52ZM22.3242 51.6346C20.9783 53.5713 19.638 55.5079 18.2921 57.4446C19.9884 55.7521 21.2842 53.7877 22.3242 51.6346ZM4.37702 69.4751C4.42707 69.5306 4.47156 69.5916 4.52162 69.6471C5.64506 69.0811 6.7685 68.5151 7.89194 67.9435C7.33578 67.9824 6.82411 68.0989 6.30689 68.221C6.03437 68.2876 5.71736 68.2931 5.50602 68.443C5.09446 68.7426 4.74408 69.1255 4.37145 69.4751H4.37702ZM24.6546 49.6369C24.7102 49.648 24.7713 49.6591 24.827 49.6647C25.0272 47.9778 25.2274 46.2964 25.4221 44.6094C24.6768 46.2242 24.9382 47.9611 24.6546 49.6369ZM7.26904 25.8367C8.09772 25.9643 8.79848 25.7146 9.3602 25.0876C8.665 25.3373 7.96424 25.587 7.26904 25.8367ZM1.80756 70.7736C2.29698 70.5294 3.02555 70.6293 3.22021 69.8413C2.7141 70.1743 2.26361 70.4739 1.80756 70.7736ZM5.12227 66.0069C5.12227 66.0069 5.07221 65.9514 5.04997 65.9237C4.67734 66.3121 4.29915 66.695 3.99327 67.0168C4.3214 66.7227 4.7274 66.362 5.12783 66.0013L5.12227 66.0069Z" fill="white"/>
<path d="M15.6948 21.5641C12.9363 21.4919 10.4224 20.704 8.01984 19.3833C6.39586 18.4899 4.88867 17.4522 3.47047 16.2924C1.90766 15.0161 0.617374 13.4624 0.183571 11.4369C-0.250233 9.43368 0.072339 7.47484 1.31257 5.8101C2.00777 4.87784 2.91987 4.09541 3.79304 3.31299C4.32695 2.83021 4.94985 2.42513 5.57275 2.05333C6.72956 1.35414 8.00316 0.899114 9.32125 0.627207C10.606 0.355299 11.913 0.149981 13.2199 0.0279002C14.9218 -0.133025 16.4456 0.494027 17.836 1.40409C18.6592 1.94235 19.5101 2.38628 20.4055 2.79137C22.3465 3.67923 23.8426 5.08871 24.9716 6.90882C25.7557 8.16848 26.2618 9.52247 26.4009 10.9874C26.5677 12.741 26.1006 14.3502 25.0828 15.793C24.0761 17.2136 22.8248 18.39 21.49 19.4998C20.5223 20.3044 19.5045 20.987 18.2643 21.2311C17.4245 21.3976 16.5624 21.4531 15.706 21.5585L15.6948 21.5641ZM5.50045 5.27738C5.99543 5.70466 5.97874 5.73241 5.39478 6.1042C5.189 6.23183 4.9721 6.43715 4.89979 6.65911C4.44931 8.00755 4.54385 9.38374 4.78856 10.7599C5.37253 13.9951 6.81298 16.6753 9.76062 18.3622C10.5615 18.8228 11.4291 19.1613 12.3579 18.956C13.5258 18.6952 14.6937 18.4011 15.8172 17.9904C17.519 17.3745 19.054 16.4755 20.2331 15.0439C21.6624 13.3125 22.3131 11.3703 21.9572 9.12848C21.757 7.89657 21.0896 6.90882 20.2164 6.08755C19.1486 5.08871 17.8805 4.35067 16.5458 3.74582C15.4001 3.2242 14.2154 2.86351 12.9418 2.80247C11.2456 2.73033 9.62714 3.09102 8.00872 3.5183C6.95202 3.80131 5.91756 4.09541 5.50045 5.27738ZM9.49366 19.4499C11.874 20.6041 13.9707 20.9204 16.1676 20.9037C16.4679 20.9037 16.7682 20.8371 17.0685 20.8094C18.0752 20.7206 19.0318 20.482 19.8883 19.916C21.6235 18.7729 23.1195 17.3578 24.3765 15.7097C25.6779 14.0062 26.1228 12.0806 25.6 9.9775C24.9882 7.52478 23.5923 5.59368 21.5623 4.10651C21.4678 4.03437 21.3454 4.00663 21.2286 3.95114C21.8904 4.65588 22.5912 5.28293 23.1474 6.00987C24.5711 7.86328 25.3275 9.97195 25.2329 12.3303C25.1829 13.5955 24.7991 14.7553 23.8425 15.6598C23.2475 16.2203 22.6468 16.7807 22.0573 17.3467C21.1619 18.2069 20.1163 18.8173 18.9595 19.239C17.9473 19.6052 16.9017 19.8106 15.8227 19.9437C14.3712 20.1158 12.9585 19.916 11.5348 19.744C10.8952 19.6663 10.2612 19.5553 9.49366 19.4332V19.4499ZM14.1098 19.2723C14.5047 19.239 14.9051 19.2279 15.2944 19.1613C17.1186 18.8728 18.8649 18.3289 20.4778 17.4189C21.1341 17.0471 21.8849 16.703 22.352 16.1481C23.4254 14.8718 23.9593 13.368 23.8147 11.6422C23.7091 10.3937 23.203 9.35044 22.4466 8.29611C22.4466 8.47368 22.4243 8.56802 22.4466 8.65125C22.797 9.73888 22.7358 10.8543 22.4911 11.9252C21.9961 14.0728 20.7614 15.7652 18.9428 17.0249C17.4579 18.0515 15.8339 18.7562 14.1098 19.2667V19.2723ZM7.10218 17.1026C4.64952 14.2392 3.74855 10.9153 4.03219 7.18073C3.64288 7.66351 3.25357 8.15738 2.96436 8.70119C2.57505 9.43368 2.32478 10.2272 2.36371 11.0651C2.39152 11.7643 2.38596 12.5079 2.63623 13.135C2.89762 13.7898 3.39817 14.378 3.89315 14.9051C4.783 15.8651 5.912 16.5255 7.10774 17.1026H7.10218ZM24.3097 13.7454C24.3097 13.7454 24.3375 13.762 24.3542 13.7676C24.3931 13.6177 24.471 13.4679 24.471 13.3181C24.4821 12.4469 24.5266 11.5701 24.471 10.6989C24.3876 9.45033 23.9204 8.31276 23.2697 7.24177C22.4744 5.93773 21.3676 4.92224 20.2275 3.94559C19.4433 3.26859 18.6592 2.56385 17.5468 2.43067C16.974 2.35854 16.4067 2.21426 15.8394 2.10328C16.5013 2.61935 17.1798 3.05218 17.8416 3.51276C19.6547 4.76686 21.4455 6.04871 22.8248 7.79669C23.8036 9.03969 24.4766 10.427 24.4654 12.0529C24.4654 12.6189 24.3709 13.1793 24.3153 13.7454H24.3097ZM7.63609 2.2531C3.84309 2.74143 1.40156 6.44825 1.7575 10.1939C1.80755 10.1107 1.86873 10.0496 1.87985 9.98304C2.17462 8.46813 2.99217 7.27507 4.11005 6.24848C4.28802 6.082 4.43818 5.88224 4.57166 5.67692C4.98878 5.04986 5.32804 4.35622 5.82858 3.80131C6.35137 3.21865 7.01876 2.76917 7.63053 2.2531H7.63609ZM2.08007 13.8563C1.77418 12.6966 1.37931 11.5146 1.16797 10.2993C0.951069 9.06189 1.22359 7.82443 1.64071 6.50929C0.127955 8.35715 0.450527 12.4025 2.08563 13.8508L2.08007 13.8563ZM16.9128 1.57056C14.7939 0.28316 12.5303 0.47738 10.4002 0.965704C12.4747 1.15992 14.7049 1.36524 16.9128 1.57056ZM8.16444 2.80247C10.3279 2.30304 12.4969 1.82027 14.7271 2.43622C13.3478 1.38744 10.0609 1.56501 8.16444 2.80247Z" fill="white"/>
</g>
<defs>
<clipPath id="clip0_601_69">
<rect width="164" height="72" fill="white"/>
</clipPath>
</defs>
</svg>
