<svg width="184" height="81" viewBox="0 0 184 81" fill="none" xmlns="http://www.w3.org/2000/svg">
<g clip-path="url(#clip0_612_243)">
<path d="M39.753 52.3934C38.6514 51.1483 38.1006 49.4416 38.1006 47.2672C38.1006 46.7251 38.1155 46.3081 38.1423 46.0221C38.1691 45.6498 38.315 45.4652 38.571 45.4652H42.1289C42.4147 45.4652 42.5427 45.6498 42.5159 46.0221C42.4594 46.5374 42.4296 46.88 42.4296 47.0527C42.4296 48.0833 42.6499 48.8697 43.0935 49.4118C43.5371 49.9569 44.1594 50.2279 44.9603 50.2279C46.6186 50.2279 47.4493 49.1705 47.4493 47.0527C47.4493 46.1085 47.2975 45.3013 46.9997 44.6282C46.699 43.958 46.2346 43.3623 45.6064 42.847L41.9621 40.0143C40.6759 39.0433 39.7381 37.977 39.1545 36.8183C38.568 35.6596 38.2762 34.2656 38.2762 32.6363C38.2762 30.4054 38.833 28.6807 39.9495 27.4655C41.066 26.2502 42.6797 25.6426 44.7965 25.6426C46.9134 25.6426 48.6789 26.2204 49.8371 27.3821C50.9953 28.5408 51.5729 30.179 51.5729 32.2938C51.5729 32.5499 51.5431 32.9938 51.4865 33.6222C51.4567 34.0512 51.3287 34.2656 51.0995 34.2656H47.4553C47.1694 34.2656 47.0414 34.0512 47.0682 33.6222C47.095 33.3929 47.1099 33.0801 47.1099 32.678C47.1099 31.7338 46.9164 30.9981 46.5293 30.4679C46.1423 29.9377 45.6064 29.6756 44.9216 29.6756C43.4627 29.6756 42.7214 30.6049 42.6916 32.4636C42.6916 33.378 42.8643 34.1495 43.2067 34.7809C43.549 35.4124 44.0641 35.9992 44.7489 36.5413L48.2651 39.2875C49.581 40.3181 50.5159 41.4053 51.0757 42.5491C51.6324 43.6929 51.9123 45.1673 51.9123 46.9693C51.8557 51.8334 49.4947 54.2639 44.8352 54.2639C42.5487 54.2639 40.8546 53.6414 39.753 52.3963V52.3934Z" fill="black"/>
<path d="M54.8717 53.8739C54.7853 53.7875 54.7437 53.6743 54.7437 53.5313V26.3725C54.7437 26.2295 54.7794 26.1163 54.8508 26.0299C54.9223 25.9436 55.0146 25.9019 55.1307 25.9019H66.367C66.6231 25.9019 66.7541 26.0597 66.7541 26.3755V29.5089C66.7541 29.8515 66.6261 30.0242 66.367 30.0242H59.2066V37.7894H65.7239C65.98 37.7894 66.111 37.9473 66.111 38.2601V41.2208C66.111 41.5365 65.983 41.6944 65.7239 41.6944H59.2066V49.8885H66.367C66.6231 49.8885 66.7541 50.0613 66.7541 50.4038V53.5373C66.7541 53.853 66.6261 54.0079 66.367 54.0079H55.1754C55.0622 54.0079 54.961 53.9662 54.8747 53.8798L54.8717 53.8739Z" fill="black"/>
<path d="M69.8594 53.8739C69.7879 53.7875 69.7522 53.6744 69.7522 53.5314L70.1392 26.3725C70.1392 26.0568 70.2673 25.8989 70.5263 25.8989H75.3287C75.5847 25.8989 75.7574 26.027 75.8438 26.2861L79.488 41.0868L83.0905 26.2861C83.1768 26.03 83.3465 25.8989 83.6056 25.8989H88.4079C88.6938 25.8989 88.8367 26.0568 88.8367 26.3725L89.1791 53.5314C89.1791 53.6744 89.1433 53.7875 89.0719 53.8739C89.0004 53.9603 88.9081 54.002 88.795 54.002H85.1925C84.9066 54.002 84.7637 53.8441 84.7637 53.5314L84.6357 39.3711C84.6357 37.1402 84.7072 34.9509 84.8501 32.8063H84.7637C84.3618 34.7513 83.8914 36.5534 83.3495 38.2125L80.003 50.2251C79.9167 50.4247 79.7738 50.526 79.5743 50.526H79.3599C79.1605 50.526 79.0175 50.4247 78.9312 50.2251L75.543 38.2125C74.9982 36.3806 74.5427 34.5786 74.1705 32.8063H74.0842C74.2271 34.9509 74.2985 37.1402 74.2985 39.3711L74.1705 53.5314C74.1705 53.6744 74.1348 53.7875 74.0633 53.8739C73.9919 53.9603 73.8996 54.002 73.7835 54.002H70.1392C70.0261 54.002 69.9308 53.9603 69.8594 53.8739Z" fill="black"/>
<path d="M92.6328 53.8739C92.5614 53.7875 92.5256 53.6743 92.5256 53.5313V26.3725C92.5256 26.2295 92.5614 26.1163 92.6328 26.0299C92.7043 25.9436 92.7966 25.9019 92.9127 25.9019H96.6016C96.7147 25.9019 96.81 25.9465 96.8814 26.0299C96.9529 26.1163 96.9886 26.2295 96.9886 26.3725V53.5313C96.9886 53.6743 96.9529 53.7875 96.8814 53.8739C96.81 53.9602 96.7177 54.002 96.6016 54.002H92.9127C92.7966 54.002 92.7043 53.9602 92.6328 53.8739Z" fill="black"/>
<path d="M100.287 45.0362V34.8673C100.287 31.8083 100.945 29.5058 102.258 27.9599C103.574 26.414 105.489 25.6426 108.005 25.6426C110.377 25.6426 112.223 26.3515 113.536 27.7663C114.852 29.1812 115.51 31.1202 115.51 33.5805C115.51 34.1822 115.466 34.7809 115.382 35.3826C115.326 35.6983 115.198 35.8562 114.998 35.8562H111.309C110.994 35.8562 110.866 35.6834 110.925 35.3409C110.952 35.0549 110.967 34.6409 110.967 34.0958C110.967 31.2066 109.981 29.762 108.008 29.762C106.894 29.762 106.069 30.176 105.542 31.007C105.012 31.8381 104.747 33.1814 104.747 35.0401V44.8218C104.747 46.7102 105.012 48.0684 105.542 48.8965C106.069 49.7275 106.894 50.1415 108.008 50.1415C110.008 50.1415 111.009 48.682 111.009 45.763C111.009 45.2477 110.994 44.8486 110.964 44.5626C110.964 44.2201 111.092 44.0473 111.351 44.0473H114.954C115.239 44.0473 115.397 44.2201 115.427 44.5626C115.454 44.8486 115.469 45.2775 115.469 45.8494C115.469 48.5093 114.832 50.5764 113.56 52.0508C112.289 53.5252 110.437 54.261 108.005 54.261C102.86 54.261 100.284 51.187 100.284 45.0362H100.287Z" fill="black"/>
<path d="M120.185 52.0509C118.869 50.5765 118.214 48.3961 118.214 45.5069V34.4801C118.214 31.5343 118.872 29.3242 120.185 27.8498C121.501 26.3754 123.415 25.6396 125.931 25.6396C128.447 25.6396 130.361 26.3754 131.677 27.8498C132.993 29.3242 133.651 31.5313 133.651 34.4801V45.5069C133.651 48.3961 132.993 50.5765 131.677 52.0509C130.361 53.5253 128.447 54.261 125.931 54.261C123.415 54.261 121.501 53.5253 120.185 52.0509ZM128.399 48.9829C128.929 48.2115 129.194 46.9813 129.194 45.2924V34.6946C129.194 32.9521 128.929 31.6922 128.399 30.9207C127.869 30.1492 127.047 29.762 125.934 29.762C124.82 29.762 123.996 30.1463 123.469 30.9207C122.939 31.6922 122.674 32.9521 122.674 34.6946V45.2924C122.674 46.9813 122.939 48.2085 123.469 48.9829C123.996 49.7544 124.82 50.1416 125.934 50.1416C127.047 50.1416 127.872 49.7544 128.399 48.9829Z" fill="black"/>
<path d="M137.084 53.8739C136.997 53.7875 136.956 53.6744 136.956 53.5314V26.3725C136.956 26.0568 137.099 25.8989 137.385 25.8989H140.987C141.1 25.8989 141.201 25.9436 141.288 26.027C141.374 26.1104 141.416 26.2266 141.416 26.3695V49.8826H148.106C148.392 49.8826 148.535 50.0554 148.535 50.3979V53.5314C148.535 53.8471 148.392 54.002 148.106 54.002H137.385C137.271 54.002 137.17 53.9603 137.084 53.8739Z" fill="black"/>
<path d="M152.051 52.0509C150.735 50.5765 150.08 48.3961 150.08 45.5069V34.4801C150.08 31.5343 150.738 29.3242 152.051 27.8498C153.367 26.3754 155.281 25.6396 157.797 25.6396C160.313 25.6396 162.227 26.3754 163.543 27.8498C164.859 29.3242 165.517 31.5313 165.517 34.4801V45.5069C165.517 48.3961 164.859 50.5765 163.543 52.0509C162.227 53.5253 160.313 54.261 157.797 54.261C155.281 54.261 153.367 53.5253 152.051 52.0509ZM160.262 48.9829C160.792 48.2115 161.057 46.9813 161.057 45.2924V34.6946C161.057 32.9521 160.792 31.6922 160.262 30.9207C159.732 30.1492 158.911 29.762 157.797 29.762C156.683 29.762 155.859 30.1463 155.332 30.9207C154.802 31.6922 154.537 32.9521 154.537 34.6946V45.2924C154.537 46.9813 154.802 48.2085 155.332 48.9829C155.859 49.7544 156.683 50.1416 157.797 50.1416C158.911 50.1416 159.735 49.7544 160.262 48.9829Z" fill="black"/>
<path d="M168.926 53.8739C168.855 53.7875 168.819 53.6743 168.819 53.5313V26.3725C168.819 26.2295 168.855 26.1163 168.926 26.0299C168.997 25.9436 169.09 25.9019 169.206 25.9019H174.267C174.523 25.9019 174.666 26.018 174.696 26.2444L178.513 40.8336C178.769 41.8046 179.049 43.0079 179.35 44.4377C179.65 45.8674 179.871 47.0559 180.013 48.0001H180.1C180.013 46.7431 179.936 45.3134 179.865 43.7109C179.793 42.1084 179.757 40.7919 179.757 39.7643V26.3784C179.757 26.0627 179.9 25.9048 180.186 25.9048H183.574C183.86 25.9048 184.003 26.0627 184.003 26.3784V53.5373C184.003 53.853 183.875 54.0079 183.616 54.0079H178.599C178.37 54.0079 178.242 53.9066 178.212 53.7071L174.354 39.4634C173.868 37.6911 173.365 35.2159 172.853 32.0407H172.767C172.966 35.6449 173.067 38.5192 173.067 40.6638V53.5343C173.067 53.85 172.939 54.0049 172.683 54.0049H169.209C169.093 54.0049 169 53.9632 168.929 53.8769L168.926 53.8739Z" fill="black"/>
<path d="M61.5377 61.3441C61.5586 61.2786 61.5913 61.2339 61.6688 61.2339H62.3833C62.4607 61.2339 62.5054 61.2786 62.5262 61.3441L65.0867 68.6059C65.1075 68.6714 65.0748 68.7161 65.0093 68.7161H64.2382C64.1607 68.7161 64.1191 68.6834 64.0952 68.6059L63.5236 66.9766H60.5017L59.93 68.6059C59.8973 68.6834 59.8526 68.7161 59.7871 68.7161H59.019C58.9535 68.7161 58.9207 68.6714 58.9415 68.6059L61.5377 61.3441ZM63.211 66.0741L62.035 62.6755H62.0141L60.8262 66.0741H63.211Z" fill="black"/>
<path d="M66.2776 61.3441C66.2776 61.2786 66.3222 61.2339 66.3877 61.2339H68.9065C70.1719 61.2339 71.0055 61.773 71.3479 62.8274C71.4789 63.2355 71.5474 63.6406 71.5474 64.972C71.5474 66.3035 71.4819 66.7085 71.3479 67.1166C71.0055 68.174 70.1719 68.7102 68.9065 68.7102H66.3877C66.3222 68.7102 66.2776 68.6655 66.2776 68.6V61.3381V61.3441ZM67.3196 67.8017H68.6952C69.5973 67.8017 70.157 67.5038 70.3982 66.7771C70.4964 66.503 70.553 66.1396 70.553 64.975C70.553 63.8104 70.4994 63.444 70.3982 63.17C70.157 62.4432 69.5943 62.1453 68.6952 62.1453H67.3196C67.275 62.1453 67.2541 62.1692 67.2541 62.2109V67.7332C67.2541 67.7779 67.275 67.7987 67.3196 67.7987V67.8017Z" fill="black"/>
<path d="M74.8076 68.7131C74.7421 68.7131 74.6975 68.6685 74.6766 68.6029L72.259 61.3649C72.2263 61.2786 72.271 61.2339 72.3365 61.2339H73.0838C73.1731 61.2339 73.2148 61.2666 73.2386 61.3441L75.153 67.1196H75.1738L77.0197 61.3441C77.0406 61.2666 77.0853 61.2339 77.1627 61.2339H77.9219C77.9874 61.2339 78.032 61.2786 77.9993 61.3649L75.5906 68.6029C75.5698 68.6685 75.5251 68.7131 75.4596 68.7131H74.8106H74.8076Z" fill="black"/>
<path d="M79.1396 61.3441C79.1396 61.2786 79.1843 61.2339 79.2498 61.2339H83.7455C83.811 61.2339 83.8557 61.2786 83.8557 61.3441V62.0381C83.8557 62.1036 83.811 62.1483 83.7455 62.1483H80.1817C80.137 62.1483 80.1162 62.1721 80.1162 62.2138V64.415C80.1162 64.4597 80.137 64.4806 80.1817 64.4806H83.2066C83.2721 64.4806 83.3168 64.5252 83.3168 64.5908V65.2848C83.3168 65.3503 83.2721 65.395 83.2066 65.395H80.1817C80.137 65.395 80.1162 65.4158 80.1162 65.4605V67.7362C80.1162 67.7808 80.137 67.8017 80.1817 67.8017H83.7455C83.811 67.8017 83.8557 67.8464 83.8557 67.9119V68.6059C83.8557 68.6714 83.811 68.7161 83.7455 68.7161H79.2498C79.1843 68.7161 79.1396 68.6714 79.1396 68.6059V61.3441Z" fill="black"/>
<path d="M89.6613 68.7132C89.5839 68.7132 89.5512 68.6805 89.5184 68.603L88.0238 65.544H86.3744C86.3297 65.544 86.3089 65.5649 86.3089 65.6095V68.6001C86.3089 68.6656 86.2642 68.7103 86.1987 68.7103H85.4395C85.374 68.7103 85.3293 68.6656 85.3293 68.6001V61.3382C85.3293 61.2727 85.374 61.228 85.4395 61.228H88.1459C89.5422 61.228 90.489 62.0859 90.489 63.3845C90.489 64.3973 89.9174 65.133 89.0152 65.4189L90.6081 68.5762C90.6527 68.6418 90.62 68.7073 90.5426 68.7073H89.6643L89.6613 68.7132ZM89.5065 63.3905C89.5065 62.6101 88.9914 62.1454 88.1221 62.1454H86.3744C86.3297 62.1454 86.3089 62.1693 86.3089 62.211V64.5641C86.3089 64.6087 86.3297 64.6296 86.3744 64.6296H88.1221C88.9914 64.6296 89.5065 64.1679 89.5065 63.3875V63.3905Z" fill="black"/>
<path d="M93.7165 68.7132C93.651 68.7132 93.6063 68.6685 93.6063 68.603V62.2109C93.6063 62.1662 93.5855 62.1454 93.5408 62.1454H91.4954C91.4299 62.1454 91.3853 62.1007 91.3853 62.0352V61.3412C91.3853 61.2756 91.4299 61.231 91.4954 61.231H96.6968C96.7623 61.231 96.8069 61.2756 96.8069 61.3412V62.0352C96.8069 62.1007 96.7623 62.1454 96.6968 62.1454H94.6514C94.6067 62.1454 94.5858 62.1692 94.5858 62.2109V68.603C94.5858 68.6685 94.5412 68.7132 94.4757 68.7132H93.7165Z" fill="black"/>
<path d="M97.9709 61.3441C97.9709 61.2786 98.0156 61.2339 98.0811 61.2339H98.8403C98.9058 61.2339 98.9505 61.2786 98.9505 61.3441V68.6059C98.9505 68.6714 98.9058 68.7161 98.8403 68.7161H98.0811C98.0156 68.7161 97.9709 68.6714 97.9709 68.6059V61.3441Z" fill="black"/>
<path d="M100.433 67.9C100.388 67.8554 100.379 67.7898 100.421 67.7362L100.906 67.1643C100.951 67.1107 101.005 67.1107 101.061 67.1524C101.544 67.5367 102.294 67.9239 103.148 67.9239C104.182 67.9239 104.798 67.4056 104.798 66.6461C104.798 66.0086 104.435 65.5797 103.238 65.4248L102.866 65.3682C101.416 65.1716 100.665 64.4776 100.665 63.3011C100.665 61.9697 101.621 61.1118 103.107 61.1118C103.985 61.1118 104.834 61.3978 105.381 61.8058C105.435 61.8505 105.447 61.9041 105.402 61.9577L105.03 62.5624C104.985 62.619 104.932 62.619 104.875 62.5832C104.271 62.2109 103.711 62.0233 103.071 62.0233C102.16 62.0233 101.654 62.5177 101.654 63.2326C101.654 63.8581 102.071 64.2781 103.226 64.43L103.589 64.4866C105.051 64.6832 105.789 65.3563 105.789 66.5775C105.789 67.8881 104.866 68.8323 103.062 68.8323C102.005 68.8323 100.984 68.4034 100.433 67.8971V67.9Z" fill="black"/>
<path d="M107.293 61.3441C107.293 61.2786 107.338 61.2339 107.403 61.2339H108.162C108.228 61.2339 108.273 61.2786 108.273 61.3441V68.6059C108.273 68.6714 108.228 68.7161 108.162 68.7161H107.403C107.338 68.7161 107.293 68.6714 107.293 68.6059V61.3441Z" fill="black"/>
<path d="M110.118 61.3441C110.118 61.2786 110.163 61.2339 110.229 61.2339H110.931C111.021 61.2339 111.074 61.2547 111.119 61.3441L114.504 66.9528H114.549V61.3441C114.549 61.2786 114.593 61.2339 114.659 61.2339H115.353C115.418 61.2339 115.463 61.2786 115.463 61.3441V68.6059C115.463 68.6714 115.418 68.7161 115.353 68.7161H114.65C114.572 68.7161 114.507 68.6953 114.462 68.6059L111.065 63.0181H111.032V68.6059C111.032 68.6714 110.988 68.7161 110.922 68.7161H110.229C110.163 68.7161 110.118 68.6714 110.118 68.6059V61.3441Z" fill="black"/>
<path d="M117.043 64.975C117.043 63.7419 117.109 63.2921 117.24 62.8632C117.612 61.7075 118.535 61.1147 119.8 61.1147C121.066 61.1147 121.911 61.773 122.286 62.5981C122.319 62.6636 122.307 62.7202 122.254 62.753L121.593 63.0717C121.527 63.1045 121.474 63.0836 121.441 63.0151C121.078 62.3449 120.595 62.0262 119.803 62.0262C118.958 62.0262 118.419 62.4224 118.187 63.1372C118.088 63.4112 118.035 63.8283 118.035 64.975C118.035 66.1218 118.088 66.5358 118.187 66.8098C118.419 67.5247 118.958 67.9208 119.803 67.9208C120.563 67.9208 121.176 67.5485 121.408 66.8426C121.486 66.5894 121.551 66.226 121.551 65.666C121.551 65.6214 121.527 65.6005 121.486 65.6005H120.036C119.97 65.6005 119.925 65.5558 119.925 65.4903V64.8529C119.925 64.7874 119.97 64.7427 120.036 64.7427H122.42C122.486 64.7427 122.531 64.7874 122.531 64.8529V65.4129C122.531 66.0831 122.453 66.6996 122.343 67.063C121.98 68.1949 121.045 68.8353 119.803 68.8353C118.562 68.8353 117.615 68.2425 117.243 67.0868C117.112 66.6579 117.046 66.2082 117.046 64.975H117.043Z" fill="black"/>
<path d="M128.685 61.3441C128.709 61.2786 128.741 61.2339 128.816 61.2339H129.53C129.608 61.2339 129.652 61.2786 129.673 61.3441L132.234 68.6059C132.255 68.6714 132.222 68.7161 132.156 68.7161H131.385C131.308 68.7161 131.266 68.6834 131.242 68.6059L130.671 66.9766H127.649L127.077 68.6059C127.044 68.6834 127 68.7161 126.934 68.7161H126.163C126.097 68.7161 126.065 68.6714 126.086 68.6059L128.679 61.3441H128.685ZM130.358 66.0741L129.182 62.6755H129.161L127.973 66.0741H130.361H130.358Z" fill="black"/>
<path d="M132.939 64.975C132.939 63.7419 133.005 63.2921 133.139 62.8632C133.511 61.7075 134.437 61.1147 135.699 61.1147C136.962 61.1147 137.81 61.773 138.185 62.5981C138.218 62.6636 138.206 62.7202 138.152 62.753L137.491 63.0717C137.426 63.1045 137.372 63.0836 137.337 63.0151C136.973 62.3449 136.491 62.0262 135.699 62.0262C134.854 62.0262 134.315 62.4224 134.082 63.1372C133.981 63.4112 133.928 63.8283 133.928 64.975C133.928 66.1218 133.981 66.5358 134.082 66.8098C134.312 67.5247 134.851 67.9208 135.699 67.9208C136.458 67.9208 137.075 67.5485 137.304 66.8426C137.381 66.5894 137.447 66.226 137.447 65.666C137.447 65.6214 137.426 65.6005 137.381 65.6005H135.928C135.863 65.6005 135.818 65.5558 135.818 65.4903V64.8529C135.818 64.7874 135.863 64.7427 135.928 64.7427H138.316C138.382 64.7427 138.426 64.7874 138.426 64.8529V65.4129C138.426 66.0831 138.349 66.6996 138.239 67.063C137.876 68.1949 136.941 68.8353 135.699 68.8353C134.458 68.8353 133.511 68.2425 133.139 67.0868C133.008 66.6579 132.939 66.2082 132.939 64.975Z" fill="black"/>
<path d="M140.01 61.3441C140.01 61.2786 140.055 61.2339 140.121 61.2339H144.616C144.682 61.2339 144.727 61.2786 144.727 61.3441V62.0381C144.727 62.1036 144.682 62.1483 144.616 62.1483H141.053C141.008 62.1483 140.987 62.1721 140.987 62.2138V64.415C140.987 64.4597 141.008 64.4806 141.053 64.4806H144.077C144.143 64.4806 144.188 64.5252 144.188 64.5908V65.2848C144.188 65.3503 144.143 65.395 144.077 65.395H141.053C141.008 65.395 140.987 65.4158 140.987 65.4605V67.7362C140.987 67.7808 141.008 67.8017 141.053 67.8017H144.616C144.682 67.8017 144.727 67.8464 144.727 67.9119V68.6059C144.727 68.6714 144.682 68.7161 144.616 68.7161H140.121C140.055 68.7161 140.01 68.6714 140.01 68.6059V61.3441Z" fill="black"/>
<path d="M146.2 61.3441C146.2 61.2786 146.245 61.2339 146.31 61.2339H147.013C147.102 61.2339 147.156 61.2547 147.201 61.3441L150.586 66.9528H150.63V61.3441C150.63 61.2786 150.675 61.2339 150.741 61.2339H151.434C151.5 61.2339 151.544 61.2786 151.544 61.3441V68.6059C151.544 68.6714 151.5 68.7161 151.434 68.7161H150.732C150.654 68.7161 150.589 68.6953 150.544 68.6059L147.147 63.0181H147.114V68.6059C147.114 68.6714 147.07 68.7161 147.004 68.7161H146.31C146.245 68.7161 146.2 68.6714 146.2 68.6059V61.3441Z" fill="black"/>
<path d="M153.125 64.975C153.125 63.73 153.179 63.301 153.322 62.8751C153.694 61.6986 154.587 61.1147 155.808 61.1147C156.919 61.1147 157.776 61.6658 158.205 62.6219C158.229 62.6755 158.217 62.7321 158.16 62.7649L157.499 63.0836C157.434 63.1164 157.368 63.0836 157.347 63.027C157.05 62.4462 156.588 62.0262 155.808 62.0262C155.028 62.0262 154.498 62.4224 154.257 63.1253C154.159 63.4351 154.114 63.7955 154.114 64.975C154.114 66.1545 154.159 66.5149 154.257 66.8217C154.498 67.5247 154.995 67.9208 155.808 67.9208C156.621 67.9208 157.05 67.5038 157.347 66.92C157.368 66.8634 157.434 66.8307 157.499 66.8634L158.16 67.1822C158.214 67.2149 158.226 67.2715 158.205 67.3251C157.776 68.2813 156.919 68.8323 155.808 68.8323C154.587 68.8323 153.697 68.2515 153.322 67.0719C153.179 66.643 153.125 66.2141 153.125 64.972V64.975Z" fill="black"/>
<path d="M161.206 68.7131C161.14 68.7131 161.096 68.6685 161.096 68.6029V65.6541L158.887 61.353C158.866 61.2875 158.898 61.2339 158.976 61.2339H159.756C159.833 61.2339 159.878 61.2666 159.92 61.3441L161.59 64.5461H161.611L163.272 61.3441C163.305 61.2666 163.349 61.2339 163.427 61.2339H164.186C164.275 61.2339 164.296 61.2905 164.275 61.353L162.063 65.6541V68.6029C162.063 68.6685 162.019 68.7131 161.953 68.7131H161.206Z" fill="black"/>
<path d="M3.61146 37.1761C3.61146 37.1761 2.37886 48.1135 12.7041 50.3594L19.2959 51.6402L20.1831 52.9567L14.8597 66.0864L9.84295 72.821L13.8861 70.5096L18.6111 66.6017L21.6063 61.8538L24.7473 57.7672L27.933 50.9223L27.0517 44.2026L25.703 37.4204L22.4071 33.2414L16.6252 31.2487L13.7015 30.7632L7.65463 31.627L5.14477 34.123L3.61444 37.1701L3.61146 37.1761Z" fill="#FFF000"/>
<path d="M5.30859 7.15797C5.30859 7.15797 3.53115 14.1875 8.31864 19.4149C8.31864 19.4149 11.7634 23.9573 17.7686 20.4425C17.7686 20.4425 25.0153 18.3277 25.1106 10.4583C25.1106 10.4583 24.3514 4.79594 15.3242 2.86879C15.3242 2.86879 5.78198 2.3386 5.30859 7.16095V7.15797Z" fill="#FFF000"/>
<path d="M23.4551 67.7157C23.1247 68.1267 22.821 68.5586 22.4637 68.9429C20.3528 71.1828 18.0752 73.1993 15.3509 74.7005C12.4749 76.2881 9.43504 77.4587 6.35651 78.5548C5.35614 78.9122 4.40638 79.4097 3.4328 79.8386C2.67061 80.1752 1.90545 80.5088 1.13433 80.8215C0.961646 80.89 0.753235 80.8662 0.550779 80.887C0.297708 79.9726 0.937827 79.5675 1.48267 79.1565C2.1615 78.6442 2.88796 78.1944 3.5906 77.7119C3.76626 77.5927 3.92108 77.4438 4.12949 77.271C3.37623 76.9702 2.98025 77.5272 2.47114 77.7059C2.12279 77.4587 2.02156 76.9434 2.35204 76.5979C3.55785 75.3469 4.79045 74.1226 6.02603 72.9014C6.51133 72.4189 7.03831 71.981 7.52659 71.5015C8.27389 70.7747 8.9676 69.9913 9.74765 69.3003C11.0904 68.1148 11.9538 66.5779 12.8292 65.0737C14.6721 61.9074 16.4257 58.6875 18.1794 55.4707C18.4682 54.9375 18.6795 54.3179 18.7421 53.7163C18.8701 52.4742 17.9174 51.8249 16.8217 51.5806C15.3539 51.253 13.9069 51.6342 12.451 51.6044C10.3491 51.5627 8.40787 50.964 6.61851 49.9126C5.2162 49.0846 3.91513 48.1016 2.80459 46.8893C1.63749 45.6175 0.946759 44.1133 0.723462 42.4155C0.559711 41.1555 0.378095 39.8807 0.410846 38.6178C0.482301 35.7017 1.54222 33.158 3.81687 31.2785C5.07032 30.2449 6.46072 29.3543 7.86005 28.5203C8.9944 27.8471 10.2746 27.4987 11.6144 27.4361C12.8827 27.3765 14.1213 27.0578 15.3747 26.9357C18.0632 26.6736 20.6059 27.0727 22.7495 28.9671C24.521 30.5338 25.6911 32.5235 26.8612 34.5222C27.7544 36.0502 28.4391 37.6646 28.8024 39.4011C28.9482 40.0981 29.0525 40.81 29.0763 41.5189C29.1328 43.0827 29.2013 44.6375 29.508 46.1774C29.5884 46.5795 29.6122 46.9966 29.6271 47.4076C29.6747 48.9237 29.7968 50.4458 29.7223 51.9559C29.5645 55.0686 28.9572 58.0918 27.5787 60.9275C26.361 63.4354 25.2177 65.9821 23.9613 68.4722C23.1723 70.033 22.1153 71.424 20.9691 72.7555C18.5902 75.5166 15.5325 77.28 12.3081 78.811C10.6438 79.6033 8.94974 80.3479 7.12763 80.7083C5.89801 80.9526 4.65647 81.1253 3.40303 80.8692C3.29287 80.8453 3.20951 80.7054 3.11125 80.622C3.22439 80.4968 3.31371 80.3152 3.45364 80.2586C3.60846 80.193 3.81092 80.2228 3.98956 80.2407C6.35651 80.4968 8.51803 79.7462 10.6319 78.8467C12.8113 77.9204 14.8894 76.7915 16.8634 75.472C19.5043 73.7056 21.5229 71.3853 23.0949 68.648C23.2586 68.365 23.4135 68.0761 23.5712 67.7901C23.5325 67.7633 23.4968 67.7395 23.4581 67.7127L23.4551 67.7157ZM11.0071 71.9155C10.9564 71.9364 11.0368 71.9155 11.1023 71.8738C12.7785 70.7717 14.4637 69.6816 16.122 68.5527C16.652 68.1923 17.2028 67.7961 17.5809 67.2927C19.3107 65.0081 21.0078 62.6997 22.6691 60.3675C24.1578 58.2765 25.4618 56.0723 26.3312 53.6448C26.7748 52.4087 27.3137 51.1785 27.2333 49.8292C27.1261 48.042 26.9981 46.2519 26.7986 44.4737C26.5605 42.3172 26.1139 40.1994 25.2862 38.1769C24.5657 36.4166 23.5206 34.8439 21.9516 33.8073C19.5876 32.2436 16.9527 31.3053 14.0588 31.3649C12.7488 31.3917 11.4388 31.484 10.1317 31.5853C9.62261 31.624 9.09562 31.6985 8.62223 31.8742C7.33902 32.3567 6.33269 33.2473 5.61219 34.3792C4.1801 36.6251 3.88238 39.1152 4.44508 41.6798C4.95123 43.9911 6.10939 45.9451 7.87493 47.5684C8.91401 48.5246 10.0484 49.0101 11.4328 49.0101C11.5936 49.0101 11.8496 49.0816 11.8943 49.1888C12.061 49.5939 12.3974 49.6088 12.7369 49.6564C13.7968 49.7994 14.8537 49.9483 15.9136 50.0794C16.3364 50.13 16.7651 50.1479 17.1909 50.1658C17.5422 50.1807 17.8965 50.1509 18.2449 50.1747C18.62 50.2045 18.9951 50.3296 19.3643 50.3147C19.8228 50.2939 20.0104 50.413 20.0491 50.9075C20.0848 51.3364 20.1354 51.7623 20.1682 52.1883C20.1861 52.4474 20.2426 52.7244 20.1712 52.9597C19.9389 53.7371 19.6442 54.4996 19.3971 55.2741C18.9862 56.5579 18.6408 57.8625 18.1823 59.1254C17.304 61.5559 16.1935 63.8882 14.8478 66.0923C13.6211 68.1029 12.2545 70.0301 10.9951 71.9185L11.0071 71.9155ZM7.22588 75.7847C7.2497 75.8502 7.27649 75.9158 7.30031 75.9813C7.37177 75.9843 7.44918 76.0051 7.51468 75.9902C9.48565 75.4958 11.4149 74.8405 13.1388 73.7801C15.7826 72.1508 18.2002 70.1969 20.4927 68.0999C22.3119 66.4349 23.9732 64.6269 25.1641 62.4406C25.5928 61.6513 26.0156 60.8411 26.2925 59.9922C26.5605 59.1731 26.6587 58.2944 26.7986 57.4365C26.9088 56.7634 26.9654 56.0813 27.0458 55.4022C26.6051 56.2719 26.2627 57.1595 25.8667 58.0263C24.8932 60.159 23.6755 62.1487 22.1392 63.915C21.2192 64.9694 20.1771 65.9196 19.1768 66.9025C18.5992 67.4714 17.968 67.9867 17.4142 68.5765C16.7413 69.2943 16.1727 70.1105 15.476 70.8015C14.6632 71.6057 13.7938 72.3653 12.8887 73.0682C11.543 74.1078 10.0305 74.8464 8.38405 75.3052C7.98211 75.4183 7.60698 75.6239 7.21695 75.7877L7.22588 75.7847ZM15.1872 27.6655C20.454 30.1228 25.1194 33.4231 27.93 38.9782C27.8854 38.7726 27.8645 38.6356 27.8228 38.5075C26.8671 35.5587 25.3517 32.9316 23.3628 30.5517C22.2821 29.259 20.9393 28.4041 19.3703 27.9127C17.9561 27.4689 16.4972 27.4063 15.1842 27.6655H15.1872ZM24.4853 65.0439C22.5322 67.1885 20.6892 69.482 18.3252 71.2036C15.991 72.9014 13.5199 74.4086 11.141 75.9753C16.7235 73.7742 21.2281 70.182 24.4853 65.0439ZM11.1172 28.842C14.5203 28.9999 17.5214 30.4117 20.6773 31.7908C20.5493 31.5942 20.5284 31.5376 20.4897 31.5078C18.6974 30.1824 16.8396 28.9641 14.6721 28.3356C14.166 28.1897 13.5973 28.0408 13.1001 28.1271C12.4183 28.2463 11.7782 28.5918 11.1172 28.842ZM4.81427 33.6882C3.77817 34.2869 2.85818 34.9779 2.44434 36.1604C1.95904 37.5455 1.89652 38.9633 2.1347 40.39C2.24784 41.0662 2.48602 41.7244 2.66764 42.3887C2.41754 39.2313 3.34051 36.3987 4.81725 33.6852L4.81427 33.6882ZM28.2367 46.3293C28.5969 43.1869 27.8466 40.3185 26.099 37.7093C26.7778 40.5896 28.0044 43.3299 28.2367 46.3293ZM14.6483 30.1883C14.4845 30.1407 14.3267 30.0751 14.16 30.0483C13.2162 29.8994 12.2724 29.7117 11.3226 29.6313C10.7421 29.5807 10.0692 29.539 9.58092 29.7803C8.86935 30.1347 8.28878 30.7483 7.65163 31.2517C9.94713 30.5458 12.2516 30.2002 14.6483 30.1853V30.1883ZM15.083 64.3231C15.0353 64.2962 14.9877 64.2694 14.9401 64.2397C12.8143 67.2689 10.6855 70.2981 8.55971 73.3244C8.59842 73.3512 8.63712 73.378 8.67285 73.4078C11.1827 70.6436 13.2936 67.5995 15.083 64.3231ZM7.97318 30.0037C5.96946 30.2836 4.60586 31.5525 3.53105 33.2593C5.12689 32.2644 6.90731 31.5674 7.97318 30.0037ZM14.9847 70.2237C12.9244 71.5462 10.8641 72.8716 8.80683 74.1941C10.233 74.1673 13.3978 72.1359 14.9847 70.2237ZM3.93597 46.6034C5.33232 48.5365 9.37549 50.5738 11.3703 50.3415C8.68476 49.4003 6.06473 48.5007 3.93597 46.6034ZM3.48342 39.9611C3.22737 42.6657 3.86153 45.0337 6.07962 46.791C4.55822 44.7656 3.70671 42.487 3.48342 39.9611ZM25.048 58.0889C23.5415 60.2662 22.032 62.4436 20.5255 64.6239C22.4309 62.7206 23.8809 60.5075 25.048 58.0889ZM4.91252 78.1616C4.96611 78.2272 5.0197 78.2897 5.07627 78.3523C6.33865 77.7148 7.59804 77.0774 8.86042 76.44C8.23816 76.4847 7.66057 76.6128 7.08297 76.7498C6.77929 76.8213 6.42201 76.8302 6.1868 77C5.72532 77.3366 5.3353 77.7685 4.9155 78.1616H4.91252ZM27.6621 55.843C27.7276 55.8549 27.7901 55.8668 27.8556 55.8758C28.0789 53.9814 28.3022 52.084 28.5255 50.1896C27.6889 52.0066 27.9806 53.9635 27.6621 55.843ZM8.15182 29.0684C9.08074 29.2113 9.86674 28.9314 10.5009 28.2224C9.71788 28.5054 8.93485 28.7854 8.15182 29.0684ZM2.02752 79.6211C2.57832 79.3471 3.3941 79.4603 3.61144 78.5697C3.04278 78.948 2.53664 79.2846 2.02752 79.6211ZM5.74616 74.2597C5.71937 74.2299 5.69257 74.2001 5.6628 74.1673C5.243 74.6022 4.8232 75.0371 4.47486 75.3975C4.84702 75.0639 5.29659 74.6618 5.74616 74.2567V74.2597Z" fill="black"/>
<path d="M17.6108 24.2608C14.5144 24.1774 11.6949 23.2928 9.00041 21.8065C7.18128 20.8027 5.48423 19.6351 3.89435 18.3334C2.1437 16.8978 0.693753 15.1493 0.205476 12.8707C-0.279823 10.6159 0.0774525 8.41173 1.47083 6.54117C2.25088 5.4927 3.27507 4.61402 4.2546 3.72937C4.85602 3.18429 5.55568 2.73452 6.25237 2.31156C7.55047 1.52521 8.97957 1.01587 10.4563 0.706094C11.8973 0.402277 13.3622 0.172925 14.827 0.032931C16.7384 -0.148763 18.4474 0.557164 20.0075 1.5818C20.9304 2.18944 21.8891 2.68686 22.8925 3.14557C25.0719 4.1434 26.7481 5.73397 28.0164 7.78027C28.8947 9.20106 29.4634 10.7201 29.6182 12.3703C29.8058 14.3451 29.2818 16.1561 28.1355 17.7794C27.0071 19.3759 25.6018 20.6984 24.1042 21.9465C23.0205 22.849 21.8772 23.6204 20.4809 23.8975C19.5371 24.0851 18.5695 24.1477 17.6108 24.2668V24.2608ZM6.17198 5.93949C6.72874 6.42202 6.71087 6.45181 6.05289 6.86584C5.82364 7.00881 5.5795 7.24412 5.49613 7.48836C4.98999 9.00745 5.0942 10.5533 5.37406 12.0992C6.02907 15.7391 7.64574 18.7534 10.9565 20.6538C11.8556 21.172 12.8262 21.5533 13.8713 21.321C15.1813 21.0291 16.4913 20.6955 17.7507 20.2368C19.6591 19.5427 21.383 18.53 22.7049 16.9216C24.3067 14.9706 25.0421 12.7873 24.6372 10.2644C24.4139 8.88235 23.6606 7.76537 22.6841 6.84499C21.4872 5.71907 20.0611 4.89102 18.5665 4.20893C17.2833 3.62214 15.9524 3.21407 14.5233 3.15152C12.6238 3.06812 10.8047 3.47619 8.98851 3.95872C7.80056 4.27445 6.64537 4.60806 6.17794 5.93949H6.17198ZM10.6528 21.8809C13.3235 23.1766 15.6725 23.537 18.1437 23.5192C18.4801 23.5192 18.8166 23.4447 19.156 23.4149C20.2844 23.3166 21.3592 23.0456 22.3208 22.4111C24.271 21.1244 25.9442 19.5338 27.3555 17.6811C28.8173 15.7629 29.3175 13.5975 28.728 11.2325C28.0402 8.4713 26.4742 6.30288 24.1995 4.62593C24.0923 4.54849 23.9554 4.50976 23.8214 4.45019C24.5657 5.2425 25.3488 5.94545 25.977 6.76754C27.5758 8.85554 28.4243 11.2265 28.3171 13.8804C28.2606 15.3072 27.8318 16.6118 26.754 17.6275C26.0871 18.259 25.4143 18.8845 24.7533 19.5249C23.7529 20.4929 22.5739 21.181 21.2758 21.6546C20.1385 22.0686 18.9654 22.3009 17.7537 22.4469C16.1251 22.6435 14.5382 22.4171 12.9424 22.2235C12.2248 22.1371 11.5133 22.009 10.6558 21.878L10.6528 21.8809ZM15.8303 21.6814C16.274 21.6427 16.7205 21.6278 17.1582 21.5593C19.2066 21.2316 21.1657 20.627 22.9758 19.6023C23.7142 19.1853 24.5538 18.8011 25.0778 18.1756C26.2836 16.7399 26.8821 15.0451 26.7183 13.106C26.5992 11.7031 26.0306 10.5295 25.182 9.34403C25.182 9.54062 25.1552 9.65082 25.185 9.74316C25.578 10.9674 25.5125 12.2243 25.2356 13.4247C24.6789 15.8433 23.2944 17.7467 21.252 19.1645C19.5877 20.3202 17.7626 21.1125 15.8274 21.6844L15.8303 21.6814ZM7.97027 19.2389C5.21925 16.0161 4.20994 12.2809 4.52554 8.07515C4.09085 8.61725 3.65616 9.17425 3.32866 9.78784C2.891 10.6099 2.61411 11.5065 2.65282 12.4477C2.68557 13.2311 2.67366 14.0711 2.9565 14.777C3.25125 15.5127 3.81396 16.174 4.36476 16.7697C5.36513 17.8479 6.62751 18.5896 7.97027 19.2389ZM27.278 15.465C27.2929 15.474 27.3108 15.4829 27.3257 15.4919C27.3703 15.3251 27.4567 15.1553 27.4567 14.9885C27.4686 14.0055 27.5192 13.0196 27.4507 12.0426C27.3555 10.6367 26.8344 9.35594 26.102 8.15557C25.2088 6.6901 23.9703 5.54632 22.693 4.44721C21.8117 3.68767 20.9304 2.89536 19.6859 2.74048C19.0399 2.66005 18.4057 2.49921 17.7686 2.37411C18.5129 2.95494 19.2721 3.44343 20.0134 3.95872C22.0469 5.3676 24.0566 6.80924 25.6048 8.7781C26.7064 10.178 27.4537 11.7358 27.4478 13.5647C27.4448 14.1991 27.3406 14.8336 27.281 15.468L27.278 15.465ZM8.56871 2.53495C4.31117 3.08599 1.57503 7.25305 1.97399 11.4707C2.02758 11.3814 2.09904 11.3099 2.11392 11.2325C2.44143 9.5287 3.36439 8.18238 4.61783 7.03264C4.82029 6.84796 4.98702 6.61861 5.13886 6.38926C5.60927 5.68333 5.99037 4.90294 6.54712 4.27743C7.13365 3.62214 7.88095 3.11578 8.56871 2.53495ZM2.33127 15.5872C1.9859 14.2796 1.54228 12.9511 1.3041 11.5869C1.06294 10.1929 1.36662 8.80192 1.83108 7.32752C0.131044 9.40658 0.497251 13.9609 2.32829 15.5872H2.33127ZM18.9773 1.7635C16.5985 0.312919 14.0618 0.533336 11.6711 1.0814C13.9993 1.29884 16.5002 1.53414 18.9773 1.7635ZM9.15821 3.15152C11.5877 2.58857 14.0172 2.04646 16.5211 2.74048C14.9729 1.55797 11.287 1.76052 9.15821 3.15152Z" fill="black"/>
</g>
<defs>
<clipPath id="clip0_612_243">
<rect width="184" height="81" fill="white"/>
</clipPath>
</defs>
</svg>
