<svg width="840" height="167" viewBox="0 0 840 167" fill="none" xmlns="http://www.w3.org/2000/svg">
<g clip-path="url(#clip0_601_104)">
<path d="M10.6459 155.097C4.32192 147.94 1.16382 138.106 1.16382 125.596C1.16382 122.469 1.24141 120.08 1.41212 118.431C1.56731 116.292 2.39757 115.226 3.87187 115.226H24.3103C25.9475 115.226 26.6924 116.292 26.5295 118.431C26.1958 121.395 26.0406 123.371 26.0406 124.359C26.0406 130.287 27.3132 134.807 29.8583 137.935C32.4034 141.07 35.9727 142.626 40.5663 142.626C50.0872 142.626 54.8515 136.535 54.8515 124.351C54.8515 118.921 53.9902 114.277 52.2676 110.402C50.545 106.536 47.8757 103.121 44.2676 100.156L23.3403 83.8579C15.9533 78.272 10.576 72.1338 7.21619 65.4666C3.84859 58.7993 2.17255 50.7784 2.17255 41.3961C2.17255 28.5595 5.36944 18.6403 11.771 11.6463C18.157 4.66788 27.4218 1.16699 39.5731 1.16699C51.7244 1.16699 61.8583 4.49672 68.5081 11.1717C75.158 17.839 78.479 27.2603 78.479 39.4356C78.479 40.9137 78.3161 43.4655 77.9902 47.083C77.8273 49.5492 77.0823 50.7862 75.771 50.7862H54.8437C53.1987 50.7862 52.4616 49.557 52.6245 47.083C52.7797 45.7683 52.8728 43.9556 52.8728 41.6528C52.8728 36.2225 51.7632 31.9903 49.544 28.9407C47.3248 25.8988 44.2521 24.374 40.3103 24.374C31.9378 24.374 27.6701 29.7187 27.5072 40.4236C27.5072 45.6905 28.4926 50.1327 30.4635 53.7503C32.4344 57.3756 35.3908 60.7521 39.3248 63.8717L59.5149 79.6724C67.0649 85.6006 72.4422 91.8555 75.6468 98.4294C78.8515 105.019 80.4499 113.491 80.4499 123.861C80.1163 151.845 66.576 165.833 39.8214 165.833C26.6847 165.833 16.9621 162.254 10.6459 155.097Z" fill="#FFF000" stroke-width="3" stroke-miterlimit="10"/>
<path d="M97.4354 163.616C96.9465 163.126 96.6982 162.464 96.6982 161.64V5.36805C96.6982 4.5434 96.9077 3.8899 97.319 3.392C97.7302 2.90187 98.2579 2.64514 98.9174 2.64514H163.43C164.904 2.64514 165.649 3.55537 165.649 5.36805V23.3937C165.649 25.3698 164.912 26.3578 163.43 26.3578H122.312V71.0369H159.736C161.21 71.0369 161.955 71.9471 161.955 73.752V90.7896C161.955 92.6023 161.218 93.5126 159.736 93.5126H122.312V140.666H163.43C164.904 140.666 165.649 141.654 165.649 143.63V161.655C165.649 163.468 164.912 164.37 163.43 164.37H99.1657C98.5062 164.37 97.932 164.129 97.4431 163.631L97.4354 163.616Z" fill="#FFF000" stroke-width="3" stroke-miterlimit="10"/>
<path d="M183.496 163.616C183.084 163.126 182.875 162.464 182.875 161.64L185.094 5.36805C185.094 3.55537 185.831 2.64514 187.313 2.64514H214.89C216.365 2.64514 217.35 3.392 217.839 4.87015L238.766 90.0428L259.453 4.87015C259.942 3.392 260.927 2.64514 262.409 2.64514H289.986C291.624 2.64514 292.454 3.55537 292.454 5.36805L294.409 161.64C294.409 162.464 294.207 163.118 293.796 163.616C293.385 164.114 292.85 164.355 292.198 164.355H271.511C269.866 164.355 269.051 163.452 269.051 161.64L268.306 80.1703C268.306 67.3337 268.718 54.7383 269.54 42.3996H269.051C266.754 53.5869 264.046 63.9573 260.927 73.5031L241.722 142.626C241.234 143.777 240.403 144.353 239.263 144.353H238.029C236.881 144.353 236.058 143.777 235.569 142.626L216.116 73.5031C212.997 62.9693 210.367 52.5989 208.233 42.3996H207.744C208.566 54.7383 208.978 67.3259 208.978 80.1703L208.24 161.64C208.24 162.464 208.031 163.118 207.627 163.616C207.216 164.106 206.681 164.355 206.021 164.355H185.094C184.434 164.355 183.907 164.114 183.496 163.616Z" fill="#FFF000" stroke-width="3" stroke-miterlimit="10"/>
<path d="M314.242 163.616C313.831 163.126 313.622 162.464 313.622 161.64V5.36805C313.622 4.5434 313.831 3.8899 314.242 3.392C314.646 2.90187 315.181 2.64514 315.849 2.64514H337.024C337.676 2.64514 338.211 2.89409 338.63 3.392C339.034 3.88212 339.243 4.5434 339.243 5.36805V161.64C339.243 162.464 339.034 163.118 338.63 163.616C338.219 164.106 337.684 164.355 337.024 164.355H315.849C315.189 164.355 314.654 164.114 314.242 163.616Z" fill="#FFF000" stroke-width="3" stroke-miterlimit="10"/>
<path d="M358.2 112.752V54.2404C358.2 36.6348 361.971 23.3859 369.521 14.4937C377.071 5.60141 388.066 1.15918 402.514 1.15918C416.14 1.15918 426.731 5.23577 434.281 13.3812C441.831 21.5266 445.61 32.6749 445.61 46.8341C445.61 50.2883 445.362 53.7503 444.865 57.2045C444.531 59.0171 443.802 59.9274 442.654 59.9274H421.47C419.662 59.9274 418.925 58.9393 419.259 56.9633C419.422 55.3218 419.499 52.9334 419.499 49.7981C419.499 33.1728 413.835 24.8718 402.506 24.8718C396.112 24.8718 391.387 27.2602 388.353 32.0292C385.311 36.806 383.798 44.539 383.798 55.2362V111.53C383.798 122.391 385.311 130.21 388.353 134.979C391.387 139.755 396.112 142.144 402.506 142.144C413.998 142.144 419.748 133.749 419.748 116.961C419.748 113.997 419.662 111.694 419.499 110.052C419.499 108.076 420.244 107.088 421.719 107.088H442.398C444.035 107.088 444.943 108.076 445.113 110.052C445.276 111.694 445.354 114.168 445.354 117.451C445.354 132.761 441.699 144.649 434.398 153.129C427.088 161.609 416.458 165.841 402.506 165.841C372.958 165.841 358.192 148.15 358.192 112.76L358.2 112.752Z" fill="#FFF000" stroke-width="3" stroke-miterlimit="10"/>
<path d="M472.442 153.121C464.892 144.641 461.121 132.1 461.121 115.467V52.0232C461.121 35.0711 464.892 22.359 472.442 13.8791C479.992 5.39917 490.987 1.16699 505.436 1.16699C519.884 1.16699 530.879 5.40695 538.429 13.8791C545.979 22.359 549.758 35.0711 549.758 52.0232V115.467C549.758 132.092 545.979 144.641 538.429 153.121C530.879 161.601 519.884 165.833 505.436 165.833C490.987 165.833 479.992 161.593 472.442 153.121ZM519.597 135.469C522.631 131.026 524.151 123.955 524.151 114.238V53.2602C524.151 43.2243 522.631 35.9814 519.597 31.5391C516.563 27.0969 511.837 24.8719 505.436 24.8719C499.034 24.8719 494.316 27.0891 491.282 31.5391C488.241 35.9814 486.728 43.2321 486.728 53.2602V114.238C486.728 123.955 488.241 131.019 491.282 135.469C494.316 139.911 499.042 142.136 505.436 142.136C511.829 142.136 516.555 139.911 519.597 135.469Z" fill="#FFF000" stroke-width="3" stroke-miterlimit="10"/>
<path d="M569.467 163.616C568.978 163.126 568.722 162.464 568.722 161.64V5.36805C568.722 3.55537 569.544 2.64514 571.181 2.64514H591.868C592.52 2.64514 593.094 2.89409 593.591 3.392C594.08 3.88212 594.328 4.5434 594.328 5.36805V140.658H632.737C634.374 140.658 635.197 141.646 635.197 143.622V161.648C635.197 163.46 634.374 164.363 632.737 164.363H571.181C570.53 164.363 569.955 164.122 569.459 163.624L569.467 163.616Z" fill="#FFF000" stroke-width="3" stroke-miterlimit="10"/>
<path d="M655.395 153.121C647.845 144.641 644.074 132.1 644.074 115.467V52.0232C644.074 35.0711 647.845 22.359 655.395 13.8791C662.945 5.39917 673.94 1.16699 688.388 1.16699C702.836 1.16699 713.831 5.40695 721.381 13.8791C728.931 22.359 732.71 35.0711 732.71 52.0232V115.467C732.71 132.092 728.931 144.641 721.381 153.121C713.831 161.601 702.836 165.833 688.388 165.833C673.94 165.833 662.945 161.593 655.395 153.121ZM702.541 135.469C705.575 131.026 707.096 123.955 707.096 114.238V53.2602C707.096 43.2243 705.575 35.9814 702.541 31.5391C699.507 27.0969 694.782 24.8719 688.38 24.8719C681.979 24.8719 677.261 27.0891 674.227 31.5391C671.185 35.9814 669.672 43.2321 669.672 53.2602V114.238C669.672 123.955 671.185 131.019 674.227 135.469C677.261 139.911 681.986 142.136 688.38 142.136C694.774 142.136 699.5 139.911 702.541 135.469Z" fill="#FFF000" stroke-width="3" stroke-miterlimit="10"/>
<path d="M752.287 163.616C751.876 163.126 751.666 162.464 751.666 161.64V5.36805C751.666 4.5434 751.876 3.8899 752.287 3.392C752.69 2.90187 753.226 2.64514 753.893 2.64514H782.945C784.419 2.64514 785.241 3.30642 785.404 4.6212L807.317 88.5646C808.791 94.1583 810.39 101.074 812.12 109.298C813.843 117.529 815.115 124.359 815.938 129.79H816.427C815.938 122.554 815.48 114.323 815.077 105.104C814.665 95.8932 814.456 88.3157 814.456 82.3875V5.36805C814.456 3.55537 815.271 2.64514 816.916 2.64514H836.368C838.006 2.64514 838.828 3.55537 838.828 5.36805V161.64C838.828 163.452 838.083 164.355 836.609 164.355H807.806C806.487 164.355 805.75 163.779 805.587 162.628L783.426 80.6604C780.632 70.4612 777.761 56.2165 774.813 37.9496H774.324C775.464 58.6826 776.046 75.2224 776.046 87.5688V161.632C776.046 163.445 775.302 164.347 773.835 164.347H753.893C753.234 164.347 752.698 164.106 752.287 163.608V163.616Z" fill="#FFF000" stroke-width="3" stroke-miterlimit="10"/>
</g>
</svg>
