<svg width="437" height="240" viewBox="0 0 437 240" fill="none" xmlns="http://www.w3.org/2000/svg">
<path d="M126.203 73.3594C117.557 73.3594 112.4 70.1562 110.734 63.75C110.63 63.2812 110.578 62.8385 110.578 62.4219C110.578 59.401 112.192 57.8906 115.421 57.8906C117.713 57.8906 119.171 59.0625 119.796 61.4062C120.265 63.125 122.4 63.9844 126.203 63.9844C129.328 63.9844 130.89 65.5469 130.89 68.6719C130.89 71.7969 129.328 73.3594 126.203 73.3594ZM119.718 68.6719C119.718 83.6719 111.854 94.8177 96.1244 102.109C84.6661 107.474 71.3588 110.156 56.2025 110.156C44.015 110.156 33.364 108.438 24.2494 105C11.2806 100.156 4.79626 92.5781 4.79626 82.2656C4.79626 72.7865 10.5515 65.2344 22.0619 59.6094C33.2077 54.1406 47.6869 51.4062 65.4994 51.4062C68.5202 51.4062 71.5671 51.4844 74.64 51.6406C80.1088 51.9531 82.8431 53.0469 82.8431 54.9219C82.8431 56.6927 80.1608 57.7083 74.7963 57.9688C54.3796 58.9583 38.8327 61.875 28.1556 66.7188C18.8327 70.9375 14.1713 76.1198 14.1713 82.2656C14.1713 89.1927 19.8744 94.2708 31.2806 97.5C38.8848 99.6875 47.1921 100.781 56.2025 100.781C70.2129 100.781 82.1921 98.4115 92.14 93.6719C104.275 87.8906 110.343 79.5573 110.343 68.6719C110.343 65.4427 108.52 45.6771 104.874 9.375V8.59375C104.874 5.67708 106.463 4.21875 109.64 4.21875C112.4 4.21875 113.937 5.625 114.249 8.4375C117.895 45.0521 119.718 65.1302 119.718 68.6719ZM149.015 73.3594H127.921C124.796 73.3594 123.234 71.7969 123.234 68.6719C123.234 65.5469 124.796 63.9844 127.921 63.9844H149.015C152.14 63.9844 153.703 65.5469 153.703 68.6719C153.703 71.7969 152.14 73.3594 149.015 73.3594ZM169.328 73.3594H148.234C145.109 73.3594 143.546 71.7969 143.546 68.6719C143.546 65.5469 145.109 63.9844 148.234 63.9844H169.328C172.453 63.9844 174.015 65.5469 174.015 68.6719C174.015 71.7969 172.453 73.3594 169.328 73.3594ZM189.64 73.3594H168.546C165.421 73.3594 163.859 71.7969 163.859 68.6719C163.859 65.5469 165.421 63.9844 168.546 63.9844H189.64C192.765 63.9844 194.328 65.5469 194.328 68.6719C194.328 71.7969 192.765 73.3594 189.64 73.3594ZM209.953 73.3594H188.859C185.734 73.3594 184.171 71.7969 184.171 68.6719C184.171 65.5469 185.734 63.9844 188.859 63.9844H209.953C213.078 63.9844 214.64 65.5469 214.64 68.6719C214.64 71.7969 213.078 73.3594 209.953 73.3594ZM230.265 73.3594H209.171C206.046 73.3594 204.484 71.7969 204.484 68.6719C204.484 65.5469 206.046 63.9844 209.171 63.9844H230.265C233.39 63.9844 234.953 65.5469 234.953 68.6719C234.953 71.7969 233.39 73.3594 230.265 73.3594ZM250.578 73.3594H229.484C226.359 73.3594 224.796 71.7969 224.796 68.6719C224.796 65.5469 226.359 63.9844 229.484 63.9844H250.578C253.703 63.9844 255.265 65.5469 255.265 68.6719C255.265 71.7969 253.703 73.3594 250.578 73.3594ZM270.89 73.3594H249.796C246.671 73.3594 245.109 71.7969 245.109 68.6719C245.109 65.5469 246.671 63.9844 249.796 63.9844H270.89C274.015 63.9844 275.578 65.5469 275.578 68.6719C275.578 71.7969 274.015 73.3594 270.89 73.3594ZM291.203 73.3594H270.109C266.984 73.3594 265.421 71.7969 265.421 68.6719C265.421 65.5469 266.984 63.9844 270.109 63.9844H291.203C294.328 63.9844 295.89 65.5469 295.89 68.6719C295.89 71.7969 294.328 73.3594 291.203 73.3594ZM311.515 73.3594H290.421C287.296 73.3594 285.734 71.7969 285.734 68.6719C285.734 65.5469 287.296 63.9844 290.421 63.9844H311.515C314.64 63.9844 316.203 65.5469 316.203 68.6719C316.203 71.7969 314.64 73.3594 311.515 73.3594ZM359.64 73.3594C350.057 73.3594 342.505 72.0052 336.984 69.2969C330.994 66.276 327.999 61.875 327.999 56.0938C327.999 55.625 328.025 55.1823 328.078 54.7656C328.494 48.5156 330.864 43.3854 335.187 39.375C338.989 35.8854 343.13 34.1406 347.609 34.1406C349.796 34.1406 351.645 34.6615 353.156 35.7031C355.968 37.6302 357.374 40.8073 357.374 45.2344C357.374 50.3385 356.098 54.6875 353.546 58.2812C349.432 63.9583 342.817 68.2552 333.703 71.1719C326.463 72.4219 318.807 73.0469 310.734 73.0469C307.609 73.0469 306.046 71.4844 306.046 68.3594C306.046 65.3906 307.661 63.9062 310.89 63.9062H311.359C318.13 63.75 324.796 63.151 331.359 62.1094C338.494 59.8177 343.39 56.8229 346.046 53.125C347.192 51.5104 347.765 50.026 347.765 48.6719C347.765 46.3802 346.541 45.2344 344.093 45.2344C340.083 45.2344 337.895 47.8906 337.531 53.2031V53.8281C337.531 56.9531 339.484 59.4271 343.39 61.25C347.348 63.0729 352.765 63.9844 359.64 63.9844C362.765 63.9844 364.328 65.5469 364.328 68.6719C364.328 71.7969 362.765 73.3594 359.64 73.3594ZM354.874 16.7969C350.499 18.6719 345.239 19.6094 339.093 19.6094C333.52 19.6094 330.734 18.4375 330.734 16.0938C330.734 14.4271 333.104 13.2292 337.843 12.5C341.072 12.0312 345.525 10.599 351.203 8.20312C351.88 7.89062 352.557 7.73438 353.234 7.73438C356.255 7.73438 357.765 9.375 357.765 12.6562C357.765 14.6354 356.801 16.0156 354.874 16.7969ZM395.031 73.3594C388.416 73.3594 383.65 71.0417 380.734 66.4062C374.275 71.0417 367.661 73.3594 360.89 73.3594C357.765 73.3594 356.203 71.7969 356.203 68.6719C356.203 65.5469 357.765 63.9844 360.89 63.9844C367.973 63.9844 374.588 60.625 380.734 53.9062C381.984 52.5 383.364 51.7969 384.874 51.7969C387.635 51.7969 389.015 53.2812 389.015 56.25C389.015 56.7188 388.911 57.3177 388.703 58.0469C388.494 58.724 388.39 59.2448 388.39 59.6094C388.39 62.526 390.604 63.9844 395.031 63.9844C398.156 63.9844 399.718 65.5469 399.718 68.6719C399.718 71.7969 398.156 73.3594 395.031 73.3594ZM380.109 37.6562L377.453 41.9531C376.515 43.4635 375.239 44.2188 373.624 44.2188C372.322 44.2188 371.176 43.776 370.187 42.8906C369.197 41.9531 368.703 40.8333 368.703 39.5312C368.703 38.6979 368.963 37.8385 369.484 36.9531L372.14 32.6562C373.078 31.1458 374.354 30.3906 375.968 30.3906C377.27 30.3906 378.416 30.8594 379.406 31.7969C380.395 32.6823 380.89 33.776 380.89 35.0781C380.89 35.9115 380.63 36.7708 380.109 37.6562ZM416.359 52.6562C416.463 53.9062 416.515 55.0781 416.515 56.1719C416.515 62.6302 413.104 67.1354 406.281 69.6875C399.77 72.1354 394.432 73.3594 390.265 73.3594C387.14 73.3594 385.578 71.7969 385.578 68.6719C385.578 65.5469 387.14 63.9844 390.265 63.9844C393.911 63.9844 397.843 63.125 402.062 61.4062C404.458 60.4167 405.942 59.4271 406.515 58.4375C406.932 57.6562 407.14 56.3802 407.14 54.6094C407.14 54.0885 407.114 53.5156 407.062 52.8906C406.072 42.9948 404.744 27.6562 403.078 6.875V6.25C403.078 4.63542 403.65 3.22917 404.796 2.03125C406.098 0.677083 407.479 0 408.937 0C410.812 0 411.854 1.09375 412.062 3.28125C414.249 29.7396 415.682 46.1979 416.359 52.6562ZM436.749 53.9062C436.854 55.0521 436.906 56.1719 436.906 57.2656C436.906 64.1927 435.786 67.6562 433.546 67.6562C431.88 67.6562 430.499 64.974 429.406 59.6094C428.833 56.7448 427.947 50.1562 426.749 39.8438C425.968 33.0729 425.083 24.5312 424.093 14.2188V13.6719C424.093 11.3281 424.692 9.34896 425.89 7.73438C427.036 6.17188 428.338 5.39062 429.796 5.39062C431.567 5.39062 432.557 6.5625 432.765 8.90625C433.755 19.4271 435.083 34.4271 436.749 53.9062Z" fill="#FFF000"/>
<path d="M51.552 228.654C38.784 228.654 27.84 220.11 24.192 208.494C20.448 208.782 17.952 210.126 16.32 212.334C14.208 215.214 13.44 219.822 13.44 224.814V239.214H1.46627e-05V224.622C1.46627e-05 214.638 2.30402 207.438 7.10402 202.158C11.232 197.55 18.048 195.15 23.232 195.054C25.44 181.134 37.344 170.574 51.552 170.574C67.776 170.574 80.736 183.342 80.736 199.95C80.736 216.27 67.2 228.654 51.552 228.654ZM51.552 215.214C60.384 215.214 67.296 208.782 67.296 199.758C67.296 190.734 60.768 184.014 51.552 184.014C42.624 184.014 36.288 191.022 36.288 199.758C36.288 208.398 42.912 215.214 51.552 215.214ZM96.87 218.094V140.238H110.31V204.654H122.598V218.094H96.87ZM120.671 218.094V204.654H139.583V218.094H120.671ZM137.64 218.094V204.654H156.552V218.094H137.64ZM154.609 218.094V204.654H173.521V218.094H154.609ZM171.578 218.094V204.654H190.49V218.094H171.578ZM188.546 218.094V204.654H207.458V218.094H188.546ZM205.515 218.094V204.654H224.427V218.094H205.515ZM222.484 218.094V204.654H241.396V218.094H222.484ZM239.453 218.094V204.654H258.365V218.094H239.453ZM256.421 218.094V204.654H275.333V218.094H256.421ZM273.39 218.094V204.654H292.302V218.094H273.39ZM290.359 218.094V204.654H309.271V218.094H290.359ZM307.328 218.094V204.654H323.552L311.648 174.126C320.864 166.158 330.08 160.494 341.12 160.494C352.256 160.494 361.856 166.158 370.688 174.222L359.168 204.654H376.832V218.094H307.328ZM341.12 174.702C335.84 174.702 331.616 176.334 326.72 179.886L335.456 204.654H346.976L355.712 179.79C350.336 176.142 346.592 174.702 341.12 174.702ZM374.921 218.094V204.654H384.329V140.238H404.009V153.678H397.769V218.094H374.921ZM420.308 218.094V140.238H433.748V218.094H420.308Z" fill="white"/>
</svg>
