<svg width="410" height="243" viewBox="0 0 410 243" fill="none" xmlns="http://www.w3.org/2000/svg">
<path d="M57.0312 106.719C47.1354 108.802 38.724 109.844 31.7969 109.844C23.4635 109.844 16.4583 108.411 10.7812 105.547C3.59375 101.953 0 96.5365 0 89.2969C0 81.9531 3.51562 74.8958 10.5469 68.125C15.3385 63.4896 22.6823 58.3073 32.5781 52.5781C43.4115 46.3281 49.6875 42.5 51.4062 41.0938C52.2917 40.3646 52.7344 39.7135 52.7344 39.1406C52.7344 37.4219 50.0781 36.5625 44.7656 36.5625C40.7031 36.5625 37.474 37.474 35.0781 39.2969C33.0469 40.8073 32.0312 42.526 32.0312 44.4531C32.0312 46.849 33.4635 49.6354 36.3281 52.8125C37.2135 53.8542 37.6562 54.9479 37.6562 56.0938C37.6562 58.8021 36.224 60.1562 33.3594 60.1562C30.2865 60.1562 27.474 57.9167 24.9219 53.4375C23.4115 50.8333 22.6562 47.8385 22.6562 44.4531C22.6562 39.1406 25.3906 34.7917 30.8594 31.4062C35.3906 28.5938 40.026 27.1875 44.7656 27.1875C57.8385 27.1875 64.375 30.2344 64.375 36.3281C64.375 40.9635 61.1198 45.651 54.6094 50.3906C52.0052 52.3177 46.8229 55.3385 39.0625 59.4531C32.1354 63.151 26.0417 67.2396 20.7812 71.7188C13.1771 78.1771 9.375 84.0365 9.375 89.2969C9.375 92.526 11.276 95.1562 15.0781 97.1875C19.1406 99.375 24.7135 100.469 31.7969 100.469C38.2031 100.469 46.6146 99.8958 57.0312 98.75C65.7812 97.7604 72.2396 96.8229 76.4062 95.9375C79.1146 95.3646 81.276 95.0781 82.8906 95.0781C84.6094 95.0781 85.4688 95.3646 85.4688 95.9375C85.4688 96.1458 85.3125 96.4323 85 96.7969C83.9062 97.9948 81.0677 99.5052 76.4844 101.328C71.9531 103.151 65.4688 104.948 57.0312 106.719ZM53.125 79.6875L50.4688 83.9844C49.5312 85.4948 48.2552 86.25 46.6406 86.25C45.3385 86.25 44.1927 85.7812 43.2031 84.8438C42.2135 83.9583 41.7188 82.8646 41.7188 81.5625C41.7188 80.7292 41.9792 79.8698 42.5 78.9844L45.1562 74.6875C46.0938 73.1771 47.3698 72.4219 48.9844 72.4219C50.2865 72.4219 51.4323 72.8646 52.4219 73.75C53.4115 74.6875 53.9062 75.8073 53.9062 77.1094C53.9062 77.9427 53.6458 78.8021 53.125 79.6875ZM92.0312 67.9688C82.7604 67.9688 77.9427 64.5573 77.5781 57.7344C76.7969 43.9844 75.2344 27.7604 72.8906 9.0625C72.8385 8.75 72.8125 8.46354 72.8125 8.20312C72.8125 6.74479 73.3854 5.41667 74.5312 4.21875C75.7292 2.96875 77.0833 2.34375 78.5938 2.34375C80.625 2.34375 81.7708 3.4375 82.0312 5.625C83.1771 18.0729 84.7656 34.974 86.7969 56.3281C86.9531 57.8385 88.6979 58.5938 92.0312 58.5938C95.1562 58.5938 96.7188 60.1562 96.7188 63.2812C96.7188 66.4062 95.1562 67.9688 92.0312 67.9688ZM114.297 67.9688H93.2031C90.0781 67.9688 88.5156 66.4062 88.5156 63.2812C88.5156 60.1562 90.0781 58.5938 93.2031 58.5938H114.297C117.422 58.5938 118.984 60.1562 118.984 63.2812C118.984 66.4062 117.422 67.9688 114.297 67.9688ZM134.609 67.9688H113.516C110.391 67.9688 108.828 66.4062 108.828 63.2812C108.828 60.1562 110.391 58.5938 113.516 58.5938H134.609C137.734 58.5938 139.297 60.1562 139.297 63.2812C139.297 66.4062 137.734 67.9688 134.609 67.9688ZM154.922 67.9688H133.828C130.703 67.9688 129.141 66.4062 129.141 63.2812C129.141 60.1562 130.703 58.5938 133.828 58.5938H154.922C158.047 58.5938 159.609 60.1562 159.609 63.2812C159.609 66.4062 158.047 67.9688 154.922 67.9688ZM175.234 67.9688H154.141C151.016 67.9688 149.453 66.4062 149.453 63.2812C149.453 60.1562 151.016 58.5938 154.141 58.5938H175.234C178.359 58.5938 179.922 60.1562 179.922 63.2812C179.922 66.4062 178.359 67.9688 175.234 67.9688ZM195.547 67.9688H174.453C171.328 67.9688 169.766 66.4062 169.766 63.2812C169.766 60.1562 171.328 58.5938 174.453 58.5938H195.547C198.672 58.5938 200.234 60.1562 200.234 63.2812C200.234 66.4062 198.672 67.9688 195.547 67.9688ZM215.859 67.9688H194.766C191.641 67.9688 190.078 66.4062 190.078 63.2812C190.078 60.1562 191.641 58.5938 194.766 58.5938H215.859C218.984 58.5938 220.547 60.1562 220.547 63.2812C220.547 66.4062 218.984 67.9688 215.859 67.9688ZM236.172 67.9688H215.078C211.953 67.9688 210.391 66.4062 210.391 63.2812C210.391 60.1562 211.953 58.5938 215.078 58.5938H236.172C239.297 58.5938 240.859 60.1562 240.859 63.2812C240.859 66.4062 239.297 67.9688 236.172 67.9688ZM269.531 67.9688C262.917 67.9688 258.151 65.651 255.234 61.0156C248.776 65.651 242.161 67.9688 235.391 67.9688C232.266 67.9688 230.703 66.4062 230.703 63.2812C230.703 60.1562 232.266 58.5938 235.391 58.5938C242.474 58.5938 249.089 55.2344 255.234 48.5156C256.484 47.1094 257.865 46.4062 259.375 46.4062C262.135 46.4062 263.516 47.8906 263.516 50.8594C263.516 51.3281 263.411 51.9271 263.203 52.6562C262.995 53.3333 262.891 53.8542 262.891 54.2188C262.891 57.1354 265.104 58.5938 269.531 58.5938C272.656 58.5938 274.219 60.1562 274.219 63.2812C274.219 66.4062 272.656 67.9688 269.531 67.9688ZM268.359 26.25C263.984 28.125 258.724 29.0625 252.578 29.0625C247.005 29.0625 244.219 27.8906 244.219 25.5469C244.219 23.8802 246.589 22.6823 251.328 21.9531C254.557 21.4844 259.01 20.0521 264.688 17.6562C265.365 17.3438 266.042 17.1875 266.719 17.1875C269.74 17.1875 271.25 18.8281 271.25 22.1094C271.25 24.0885 270.286 25.4688 268.359 26.25ZM299.844 48.9844C299.844 54.7135 296.276 59.4531 289.141 63.2031C283.151 66.3802 277.057 67.9688 270.859 67.9688C267.734 67.9688 266.172 66.4062 266.172 63.2812C266.172 60.1562 267.734 58.5938 270.859 58.5938C273.984 58.5938 277.812 57.7083 282.344 55.9375C287.76 53.8542 290.469 51.5365 290.469 48.9844C290.469 44.974 289.766 41.5625 288.359 38.75C287.943 37.9688 287.734 37.2135 287.734 36.4844C287.734 35.1823 288.229 34.0885 289.219 33.2031C290.26 32.3177 291.406 31.875 292.656 31.875C294.479 31.875 295.833 32.7604 296.719 34.5312C298.802 38.6979 299.844 43.5156 299.844 48.9844ZM291.562 18.125L288.906 22.4219C287.969 23.9323 286.693 24.6875 285.078 24.6875C283.776 24.6875 282.63 24.2448 281.641 23.3594C280.651 22.4219 280.156 21.3021 280.156 20C280.156 19.1667 280.417 18.3073 280.938 17.4219L283.594 13.125C284.531 11.6146 285.807 10.8594 287.422 10.8594C288.724 10.8594 289.87 11.3281 290.859 12.2656C291.849 13.151 292.344 14.2448 292.344 15.5469C292.344 16.3802 292.083 17.2396 291.562 18.125ZM355.469 47.3438C355.729 49.4271 355.859 51.3802 355.859 53.2031C355.859 58.6198 355.052 61.3281 353.438 61.3281C351.875 61.3281 350.417 58.5677 349.062 53.0469C348.229 49.6094 346.276 43.2812 343.203 34.0625C342.839 32.9688 342.656 31.9271 342.656 30.9375C342.656 27.2396 344.167 25.3906 347.188 25.3906C349.115 25.3906 350.469 26.5365 351.25 28.8281C353.333 35.026 354.74 41.1979 355.469 47.3438ZM388.75 47.0312C388.333 52.0833 384.531 57.1875 377.344 62.3438C370.573 67.2396 361.719 71.4844 350.781 75.0781C337.5 79.4531 323.984 81.6406 310.234 81.6406C305.807 81.6406 303.594 80.8333 303.594 79.2188C303.594 77.5 305.807 76.1979 310.234 75.3125C321.589 73.0208 333.125 69.9479 344.844 66.0938C366.615 59.0104 378.099 52.0833 379.297 45.3125C379.401 44.8438 379.453 44.3229 379.453 43.75C379.453 40.1042 377.448 34.1927 373.438 26.0156C373.021 25.1823 372.812 24.3229 372.812 23.4375C372.812 21.9792 373.307 20.7292 374.297 19.6875C375.339 18.5938 376.484 18.0469 377.734 18.0469C379.141 18.0469 380.286 18.75 381.172 20.1562C383.099 23.1771 384.844 27.1094 386.406 31.9531C388.021 37.0573 388.828 41.4844 388.828 45.2344C388.828 45.8594 388.802 46.4583 388.75 47.0312ZM324.141 105C324.141 108.021 322.5 110.833 319.219 113.438C315.99 116.094 312.839 117.422 309.766 117.422C308.047 117.422 307.188 116.615 307.188 115C307.188 113.698 307.891 112.786 309.297 112.266C313.776 110.651 316.484 108.568 317.422 106.016C313.62 105.078 311.719 103.49 311.719 101.25C311.719 99.4271 312.63 97.3698 314.453 95.0781C316.016 93.099 317.734 91.5365 319.609 90.3906C320.234 90.026 320.885 89.8438 321.562 89.8438C323.49 89.8438 324.453 90.651 324.453 92.2656C324.453 93.099 324.01 93.8802 323.125 94.6094C320.677 96.5365 319.089 98.4375 318.359 100.312C320.599 100.938 321.901 101.354 322.266 101.562C323.516 102.24 324.141 103.385 324.141 105ZM409.375 48.5156C409.479 49.6615 409.531 50.7812 409.531 51.875C409.531 58.8021 408.411 62.2656 406.172 62.2656C404.505 62.2656 403.125 59.5833 402.031 54.2188C401.458 51.3542 400.573 44.7656 399.375 34.4531C398.594 27.6823 397.708 19.1406 396.719 8.82812V8.28125C396.719 5.9375 397.318 3.95833 398.516 2.34375C399.661 0.78125 400.964 0 402.422 0C404.193 0 405.182 1.17188 405.391 3.51562C406.38 14.0365 407.708 29.0365 409.375 48.5156Z" fill="#FFF000"/>
<path d="M36.6785 224.703C25.2545 224.703 18.1505 222.399 12.2945 216.831C7.5905 212.415 5.8625 204.735 5.8625 196.959V175.935H19.3025V195.327C19.3025 200.991 20.3585 205.119 23.3345 207.615C26.5985 210.399 31.9745 211.263 37.6385 211.263H51.6545V184.191C51.6545 174.975 54.1505 168.351 59.9105 163.743C64.3265 160.287 70.8545 158.655 78.2465 158.655H96.3905V199.263H106.663V212.703H82.9505V172.095H76.8065C73.4465 172.095 70.8545 172.767 68.6465 174.495C66.4385 176.223 65.0945 180.063 65.0945 183.327V224.703H36.6785ZM31.8785 242.271C27.8465 242.271 24.3905 239.871 24.3905 235.455C24.3905 231.327 27.6545 228.543 31.8785 228.543C36.1025 228.543 39.3665 231.327 39.3665 235.455C39.3665 239.871 35.9105 242.271 31.8785 242.271ZM52.7105 242.271C48.6785 242.271 45.2225 239.871 45.2225 235.455C45.2225 231.327 48.4865 228.543 52.7105 228.543C57.0305 228.543 60.1985 231.327 60.1985 235.455C60.1985 239.871 56.7425 242.271 52.7105 242.271ZM104.844 212.703V199.263H114.156C113.676 197.343 113.484 195.231 113.484 193.119C113.484 176.799 126.348 163.743 142.188 163.743C158.412 163.743 171.372 176.511 171.372 193.119C171.372 209.439 157.836 221.823 142.188 221.823C134.028 221.823 126.54 218.271 121.26 212.703H104.844ZM142.188 208.383C151.02 208.383 157.932 201.951 157.932 192.927C157.932 183.903 151.404 177.183 142.188 177.183C133.26 177.183 126.924 184.191 126.924 192.927C126.924 201.567 133.548 208.383 142.188 208.383ZM181.881 212.703L180.249 199.263H207.609C211.929 199.263 215.769 198.207 218.457 195.999C221.049 193.791 222.489 190.719 222.489 186.015V127.743H242.169V141.183H235.929V185.535C235.929 188.607 235.545 191.583 234.873 194.367C237.849 197.727 242.265 199.263 248.697 199.263V212.703C236.985 212.703 232.857 207.615 230.937 203.391C230.265 204.255 229.497 205.119 228.729 205.791C223.257 210.783 215.097 212.703 204.825 212.703H181.881ZM193.881 194.463V143.871H207.321V194.463H193.881ZM246.781 212.703V199.263H257.245C255.133 194.847 253.213 189.279 253.213 183.231C253.213 174.111 257.245 167.103 262.813 162.495C267.229 158.847 273.469 156.831 280.285 156.831C287.389 156.831 293.725 158.847 300.253 162.111L295.741 174.303C291.709 171.999 286.429 170.175 281.917 170.175C277.501 170.175 274.045 171.231 271.453 173.439C267.997 176.319 266.749 180.063 266.749 184.287C266.749 190.431 268.669 195.327 271.837 199.263H302.269V212.703H246.781ZM331.378 236.415C323.89 236.415 319.282 233.151 319.282 224.511V220.095H339.25V227.295H326.962C326.962 230.367 328.306 232.095 332.146 232.095H336.178V236.415H331.378ZM312.85 212.703L311.218 199.263H338.578C342.898 199.263 346.738 198.207 349.426 195.999C352.018 193.791 353.458 190.719 353.458 186.015V127.743H373.138V141.183H366.898V185.535C366.898 193.407 364.594 201.279 359.698 205.791C354.226 210.783 346.066 212.703 335.794 212.703H312.85ZM324.85 194.463V143.871H338.29V194.463H324.85ZM390.043 212.703V134.847H403.483V212.703H390.043Z" fill="white"/>
</svg>
