<svg width="866" height="176" viewBox="0 0 866 176" fill="none" xmlns="http://www.w3.org/2000/svg">
<path d="M302.84 38.6H309.4C320.6 38.6 326.44 34.52 326.44 23.72C326.44 13 320.68 8.12 311.72 8.12H302.84V38.6ZM288.2 67V66.84C289.72 66.2 290.76 63.88 290.76 61.08V12.76C290.76 9.88 289.72 7.56 288.2 7V6.84H314.28C330.12 6.84 338.6 12.2 338.6 22.52C338.6 36.36 323.64 39.88 316.28 39.88H302.84V61.08C302.84 63.88 303.88 66.2 305.4 66.84V67H288.2ZM367.598 67.88C354.878 67.88 345.598 59.4 345.598 45.96V13.08C345.598 10.52 344.238 8.04 342.238 7V6.84H361.038V7C359.038 7.96 357.598 10.36 357.598 13.08V47.88C357.598 57.8 363.598 65.08 371.998 65.08C380.718 65.08 389.598 57.32 389.598 44.12V13.08C389.598 10.36 388.238 7.96 386.158 7V6.84H394.238V7C392.238 8.04 390.878 10.52 390.878 13.08V44.12C390.878 57.96 381.438 67.88 367.598 67.88ZM414.246 35.16V65.8C425.846 66.68 437.846 67.32 437.846 51.24C437.846 40.12 432.086 35.16 423.126 35.16H414.246ZM414.246 7.96V33.72H418.246C429.446 33.72 435.286 29.56 435.286 19.88C435.286 7.48 425.846 7.16 414.246 7.96ZM399.606 67V66.84C401.126 66.2 402.166 63.88 402.166 61.08V12.76C402.166 9.88 401.126 7.56 399.606 7V6.84H412.726C424.406 5.96 447.446 4.52 447.446 19.48C447.446 28.36 439.126 32.6 431.926 34.28C443.766 35.56 450.006 40.92 450.006 50.68C450.006 70.04 425.286 67.88 412.966 67H399.606ZM456.091 67V66.84C457.611 66.2 458.651 63.88 458.651 61.08V12.76C458.651 9.88 457.611 7.56 456.091 7V6.84H473.291V7C471.771 7.56 470.731 9.88 470.731 12.76V65.72H486.891C490.971 65.72 496.331 59.88 500.331 51.08H500.571L497.211 67H456.091ZM504.528 67V66.84C506.048 66.2 507.088 63.88 507.088 61.08V12.76C507.088 9.88 506.048 7.56 504.528 7V6.84H521.728V7C520.208 7.56 519.168 9.88 519.168 12.76V61.08C519.168 63.88 520.208 66.2 521.728 66.84V67H504.528ZM578.202 48.76L579.322 49.48C575.882 57.56 570.282 68.12 555.162 68.12C538.842 68.12 527.722 55.8 527.722 37.4C527.722 18.76 539.162 6.84 554.602 6.84C567.162 6.84 573.802 14.6 575.082 19.56C577.082 27.48 565.802 29.72 562.442 16.12C561.722 13 559.882 8.2 554.202 8.2C545.882 8.2 539.882 18.44 539.882 34.76C539.882 51.8 546.362 63.32 559.002 63.32C568.442 63.32 575.162 56.92 578.202 48.76Z" fill="white"/>
<path d="M38.4 134.896C38.4 138.256 39.648 141.04 41.568 141.808V142H20.928V141.808C22.752 141.04 24 138.256 24 134.896V71.344H14.016C9.024 71.344 5.76 73.168 0.864 83.728H0.672L1.632 69.808H60.96L61.824 83.728H61.632C56.832 73.168 53.472 71.344 48.576 71.344H38.4V134.896ZM84.033 107.92H91.905C105.345 107.92 112.353 103.024 112.353 90.064C112.353 77.2 105.441 71.344 94.689 71.344H84.033V107.92ZM66.465 142V141.808C68.289 141.04 69.537 138.256 69.537 134.896V76.912C69.537 73.456 68.289 70.672 66.465 70V69.808H96.705C115.809 69.808 126.945 76.24 126.945 89.2C126.945 101.872 116.193 107.056 107.265 108.784C117.057 110.416 124.449 115.024 124.449 122.8V134.8C124.449 138.16 125.697 140.944 127.521 141.712V141.904H106.881V141.712C108.801 140.944 110.049 138.16 110.049 134.8V122.8C110.049 111.664 106.881 109.456 96.897 109.456H84.033V134.896C84.033 138.256 85.281 141.04 87.105 141.808V142H66.465ZM156.503 79.696L144.311 116.56H168.887L156.503 79.696ZM131.062 142V141.808C133.271 141.04 135.383 138.256 136.535 134.896L155.734 77.104L155.639 76.912C154.487 73.456 152.279 70.672 150.263 70V69.808H171.575V70C169.943 70.672 169.655 73.456 170.807 76.912L190.295 134.896C191.447 138.256 193.559 141.04 195.671 141.808V142H174.263V141.808C175.991 141.04 176.279 138.256 175.127 134.896L169.463 118.096H143.734L138.167 134.896C137.015 138.256 137.398 141.04 138.935 141.808V142H131.062ZM199.496 142V141.808C201.32 141.04 202.568 138.256 202.568 134.896V76.912C202.568 73.456 201.32 70.672 199.496 70V69.808H218.312L251.144 116.656V76.912C251.144 73.456 249.992 70.672 248.072 70V69.808H255.848V70C253.928 70.672 252.776 73.456 252.776 76.912V142H251.336L204.104 74.704V134.896C204.104 138.256 205.352 141.04 207.272 141.808V142H199.496ZM303.18 129.424C303.18 110.032 264.684 114.16 264.684 89.68C264.684 77.968 273.612 69.808 289.068 69.808C305.58 69.808 313.548 79.12 315.084 85.072C317.388 94.576 303.948 97.264 299.916 80.944C298.956 77.2 296.748 71.44 289.164 71.44C281.004 71.44 277.932 78.064 277.932 83.44C277.932 102.448 316.428 99.376 316.428 122.608C316.428 134.896 305.676 143.056 289.644 143.056C272.46 143.056 264.492 133.648 262.956 127.792C260.556 118.288 274.092 115.6 278.124 131.92C279.084 135.568 281.196 141.424 289.932 141.424C297.9 141.424 303.18 136.624 303.18 129.424ZM341.377 107.92H349.249C362.689 107.92 369.697 103.024 369.697 90.064C369.697 77.2 362.785 71.344 352.033 71.344H341.377V107.92ZM323.809 142V141.808C325.633 141.04 326.881 138.256 326.881 134.896V76.912C326.881 73.456 325.633 70.672 323.809 70V69.808H355.105C374.113 69.808 384.289 76.24 384.289 88.624C384.289 105.232 366.337 109.456 357.505 109.456H341.377V134.896C341.377 138.256 342.625 141.04 344.449 141.808V142H323.809ZM403.823 104.848C403.823 127.12 411.406 141.52 423.695 141.52C434.735 141.52 442.319 129.712 442.319 105.808C442.319 81.808 434.735 70.384 423.311 70.384C411.406 70.384 403.823 82.576 403.823 104.848ZM389.423 105.904C389.423 83.728 402.863 68.752 422.927 68.752C443.375 68.752 456.815 84.208 456.815 106.384C456.815 128.56 443.375 143.056 423.311 143.056C402.863 143.056 389.423 128.08 389.423 105.904ZM481.627 107.92H489.499C502.939 107.92 509.947 103.024 509.947 90.064C509.947 77.2 503.035 71.344 492.283 71.344H481.627V107.92ZM464.059 142V141.808C465.883 141.04 467.131 138.256 467.131 134.896V76.912C467.131 73.456 465.883 70.672 464.059 70V69.808H494.299C513.403 69.808 524.539 76.24 524.539 89.2C524.539 101.872 513.787 107.056 504.859 108.784C514.651 110.416 522.043 115.024 522.043 122.8V134.8C522.043 138.16 523.291 140.944 525.115 141.712V141.904H504.475V141.712C506.395 140.944 507.643 138.16 507.643 134.8V122.8C507.643 111.664 504.475 109.456 494.491 109.456H481.627V134.896C481.627 138.256 482.875 141.04 484.699 141.808V142H464.059ZM567.056 134.896C567.056 138.256 568.304 141.04 570.224 141.808V142H549.584V141.808C551.408 141.04 552.656 138.256 552.656 134.896V71.344H542.672C537.68 71.344 534.416 73.168 529.52 83.728H529.328L530.288 69.808H589.616L590.48 83.728H590.288C585.488 73.168 582.128 71.344 577.232 71.344H567.056V134.896ZM606.971 79.696L594.779 116.56H619.355L606.971 79.696ZM581.531 142V141.808C583.739 141.04 585.851 138.256 587.003 134.896L606.203 77.104L606.107 76.912C604.955 73.456 602.747 70.672 600.731 70V69.808H622.043V70C620.411 70.672 620.123 73.456 621.275 76.912L640.763 134.896C641.915 138.256 644.027 141.04 646.139 141.808V142H624.731V141.808C626.459 141.04 626.747 138.256 625.595 134.896L619.931 118.096H594.203L588.635 134.896C587.483 138.256 587.867 141.04 589.403 141.808V142H581.531ZM674.588 134.896C674.588 138.256 675.836 141.04 677.756 141.808V142H657.116V141.808C658.94 141.04 660.188 138.256 660.188 134.896V71.344H650.204C645.212 71.344 641.948 73.168 637.052 83.728H636.86L637.82 69.808H697.148L698.012 83.728H697.82C693.02 73.168 689.66 71.344 684.764 71.344H674.588V134.896ZM702.653 142V141.808C704.477 141.04 705.725 138.256 705.725 134.896V76.912C705.725 73.456 704.477 70.672 702.653 70V69.808H723.293V70C721.469 70.672 720.221 73.456 720.221 76.912V134.896C720.221 138.256 721.469 141.04 723.293 141.808V142H702.653ZM744.885 104.848C744.885 127.12 752.469 141.52 764.757 141.52C775.797 141.52 783.381 129.712 783.381 105.808C783.381 81.808 775.797 70.384 764.373 70.384C752.469 70.384 744.885 82.576 744.885 104.848ZM730.485 105.904C730.485 83.728 743.925 68.752 763.989 68.752C784.437 68.752 797.877 84.208 797.877 106.384C797.877 128.56 784.437 143.056 764.373 143.056C743.925 143.056 730.485 128.08 730.485 105.904ZM805.121 142V141.808C806.945 141.04 808.193 138.256 808.193 134.896V76.912C808.193 73.456 806.945 70.672 805.121 70V69.808H823.937L856.769 116.656V76.912C856.769 73.456 855.617 70.672 853.697 70V69.808H861.473V70C859.553 70.672 858.401 73.456 858.401 76.912V142H856.961L809.729 74.704V134.896C809.729 138.256 810.977 141.04 812.897 141.808V142H805.121Z" fill="#FFF000"/>
</svg>
