<svg width="339" height="217" viewBox="0 0 339 217" fill="none" xmlns="http://www.w3.org/2000/svg">
<path d="M134.2 58.68L146.12 12.76C146.92 9.88 146.84 7.56 145.56 7V6.84H152.04V7C150.28 7.56 148.28 9.88 147.56 12.76L135 60.92L135.08 61.08C135.96 63.88 137.8 66.2 139.56 66.84V67H121.72V66.84C123.08 66.2 123.16 63.88 122.44 61.08L114.44 30.92L106.6 60.92L106.68 61.08C107.64 63.88 109.4 66.2 111.16 66.84V67H93.32V66.84C94.76 66.2 94.84 63.88 94.04 61.08L81.24 12.76C80.44 9.88 78.44 7.56 76.76 7V6.84H94.36V7C93 7.56 92.92 9.88 93.72 12.76L105.8 58.68L113.72 28.28L109.64 12.76C108.84 9.88 106.84 7.56 105.16 7V6.84H123.72V7C123 7.24 122.36 7.64 121.72 8.28C121.4 9.4 121.56 10.92 122.04 12.76L134.2 58.68ZM155.044 67V66.84C156.564 66.2 157.604 63.88 157.604 61.08V12.76C157.604 9.88 156.564 7.56 155.044 7V6.84H172.244V7C170.724 7.56 169.684 9.88 169.684 12.76V36.2H192.724V12.76C192.724 9.88 191.684 7.56 190.084 7V6.84H207.284V7C205.764 7.56 204.724 9.88 204.724 12.76V61.08C204.724 63.88 205.764 66.2 207.284 66.84V67H190.084V66.84C191.684 66.2 192.724 63.88 192.724 61.08V37.48H169.684V61.08C169.684 63.88 170.724 66.2 172.244 66.84V67H155.044ZM242.274 35.08V61.08C242.274 63.88 243.314 66.2 244.834 66.84V67H227.634V66.84C229.234 66.2 230.274 63.88 230.274 61.08V37.88L215.954 13.24C214.434 10.6 212.034 7.96 209.954 7V6.84H230.434V7C228.434 8.04 228.114 10.6 229.634 13.24L241.634 33.8L253.554 13.24C255.154 10.52 255.634 8.04 253.794 7V6.84H262.034V7C259.794 7.96 256.674 10.52 254.994 13.24L242.274 35.08Z" fill="white"/>
<path d="M53.28 115.134L54.4 115.854C50.96 123.934 45.36 134.494 30.24 134.494C13.92 134.494 2.8 122.174 2.8 103.774C2.8 85.1335 14.24 73.2135 29.68 73.2135C42.24 73.2135 48.88 80.9735 50.16 85.9335C52.16 93.8535 40.88 96.0935 37.52 82.4935C36.8 79.3735 34.96 74.5735 29.28 74.5735C20.96 74.5735 14.96 84.8135 14.96 101.134C14.96 118.174 21.44 129.694 34.08 129.694C43.52 129.694 50.24 123.294 53.28 115.134ZM59.0594 133.374V133.214C60.5794 132.574 61.6194 130.254 61.6194 127.454V79.1335C61.6194 76.2535 60.5794 73.9335 59.0594 73.3735V73.2135H76.2594V73.3735C74.7394 73.9335 73.6994 76.2535 73.6994 79.1335V102.574H96.7394V79.1335C96.7394 76.2535 95.6994 73.9335 94.0994 73.3735V73.2135H111.299V73.3735C109.779 73.9335 108.739 76.2535 108.739 79.1335V127.454C108.739 130.254 109.779 132.574 111.299 133.214V133.374H94.0994V133.214C95.6994 132.574 96.7394 130.254 96.7394 127.454V103.854H73.6994V127.454C73.6994 130.254 74.7394 132.574 76.2594 133.214V133.374H59.0594ZM129.409 102.414C129.409 120.974 135.729 132.974 145.969 132.974C155.169 132.974 161.489 123.134 161.489 103.214C161.489 83.2135 155.169 73.6935 145.649 73.6935C135.729 73.6935 129.409 83.8535 129.409 102.414ZM117.409 103.294C117.409 84.8135 128.609 72.3335 145.329 72.3335C162.369 72.3335 173.569 85.2135 173.569 103.694C173.569 122.174 162.369 134.254 145.649 134.254C128.609 134.254 117.409 121.774 117.409 103.294ZM191.206 102.414C191.206 120.974 197.526 132.974 207.766 132.974C216.966 132.974 223.286 123.134 223.286 103.214C223.286 83.2135 216.966 73.6935 207.446 73.6935C197.526 73.6935 191.206 83.8535 191.206 102.414ZM179.206 103.294C179.206 84.8135 190.406 72.3335 207.126 72.3335C224.166 72.3335 235.366 85.2135 235.366 103.694C235.366 122.174 224.166 134.254 207.446 134.254C190.406 134.254 179.206 121.774 179.206 103.294ZM274.603 122.894C274.603 106.734 242.523 110.174 242.523 89.7735C242.523 80.0135 249.963 73.2135 262.843 73.2135C276.603 73.2135 283.243 80.9735 284.523 85.9335C286.443 93.8535 275.243 96.0935 271.883 82.4935C271.083 79.3735 269.243 74.5735 262.923 74.5735C256.123 74.5735 253.563 80.0935 253.563 84.5735C253.563 100.414 285.643 97.8535 285.643 117.214C285.643 127.454 276.683 134.254 263.323 134.254C249.003 134.254 242.363 126.414 241.083 121.534C239.083 113.614 250.363 111.374 253.723 124.974C254.523 128.014 256.283 132.894 263.563 132.894C270.203 132.894 274.603 128.894 274.603 122.894ZM291.794 133.374V133.214C293.314 132.574 294.354 130.254 294.354 127.454V78.4935C294.354 76.1735 293.314 74.1735 291.794 73.3735V73.2135H334.034L335.634 82.2535H335.474C331.874 76.6535 328.594 74.4935 323.714 74.4935H306.434V100.894H315.234C320.354 100.894 324.354 97.7735 325.394 93.1335H325.554V109.934H325.394C324.354 105.294 320.354 102.174 315.234 102.174H306.434V132.094H322.594C326.674 132.094 332.034 126.254 336.034 117.454H336.274L332.914 133.374H291.794Z" fill="white"/>
<path d="M138.024 213.803C122.76 213.803 111.624 203.627 111.624 187.499V148.043C111.624 144.971 109.992 141.995 107.592 140.747V140.555H130.152V140.747C127.752 141.899 126.024 144.779 126.024 148.043V189.803C126.024 201.707 133.224 210.443 143.304 210.443C153.768 210.443 164.424 201.131 164.424 185.291V148.043C164.424 144.779 162.792 141.899 160.296 140.747V140.555H169.992V140.747C167.592 141.995 165.96 144.971 165.96 148.043V185.291C165.96 201.899 154.632 213.803 138.024 213.803ZM215.805 200.171C215.805 180.779 177.309 184.907 177.309 160.427C177.309 148.715 186.237 140.555 201.693 140.555C218.205 140.555 226.173 149.867 227.709 155.819C230.013 165.323 216.573 168.011 212.541 151.691C211.581 147.947 209.373 142.187 201.789 142.187C193.629 142.187 190.557 148.811 190.557 154.187C190.557 173.195 229.053 170.123 229.053 193.355C229.053 205.643 218.301 213.803 202.269 213.803C185.085 213.803 177.117 204.395 175.581 198.539C173.181 189.035 186.717 186.347 190.749 202.667C191.709 206.315 193.821 212.171 202.557 212.171C210.525 212.171 215.805 207.371 215.805 200.171Z" fill="white"/>
</svg>
