<svg viewBox="0 32.58 431.54285714285714 30.635080000000002" xml:space="preserve" style="max-height: 500px" y="0px" x="0px" id="Layer_1" version="1.1" xmlns:xlink="http://www.w3.org/1999/xlink" xmlns="http://www.w3.org/2000/svg" width="431.54285714285714" height="30.635080000000002">
<g>
	
	<path d="M201.53,253.64c0.03,0.04,0.06,0.08,0.1,0.12C201.57,253.72,201.53,253.69,201.53,253.64z" style="fill:#000000;"/>
	<path d="M432,40.77v209.67c-0.55,0.82,0.06,4.2-2.94,3.36c-3.46,1.5-2.96,2.82-7.11,0.87   c-4.55-4.07-6.07,5.44-7.21-0.3c-0.86,0.44-3.32,1.52-7.49-2.55c-0.3-0.9-3.01-2.68-7.22-3.48c-6.54,0.03-1.4,0.43-7.37-0.88   c-4.25-0.95-6-0.92-6.95,1.14c-3.45-0.5-1.33,0.65-6.44,1.61c-3.1,3.34-1.9,1.81-8.86-0.32c-1.12-0.39-2.34-0.98-9.15-2.78   c-4.63-0.06-8.62-1.93-9.26-2.28c0.01-0.01,0.02-0.01,0.03-0.01c-0.17-0.08-0.16-0.07-0.03,0.01c-4.33,0.78-7.76,1.45-9.05,1.1   c-0.27,0.07-1.38-1-2.65,2.74c-4.73,0.95,0.47-0.17-2.87,3.03c-5.72-2-4.27-0.56-5.9,1.26c-2.68,1.03-6.31,2.39-6.1,0.18   c-3.28,0.88,0.2,3.65-6.68-0.39c-0.46-3.35-3.06-1.7-5.2-1.83c-1.1,4.07-6.7-1.29-6.15-2.53c-3.32-0.13-6.63-4.95-5.68-1.42   c-3.28-1.78-5.77-1.28-7.15-1.17c-4.3,0.71-2.81,2.12-5.74-0.51c-2.16,3.46-4.67,1.95-7.82,2.19c-2.51-1.87-5.64,3.17-7.49,2.2   c-0.34,1.9-6.64-2.16-7.22-1.66c-2.31-1.84-2.03-2.08-7.26,0.69c0.73,0.63-4.27,2.87-5.58,3.51c0.06-4.7-2.82-1.54-4.96,3.94   c0.57,1.01-3.9,1.47-5.78,2.73c-5.47-1.15-2.81-0.23-8.5,0.57c-5.32-0.33-11.14-0.97-8.67-1.58c-5.2,0.52-1.97,1.71-8.66-2.3   c5.72-4.24-7.98,0.27-8.41-1.57c-1.5-2.45-7.2-1.07-6.95-0.37c-4.28-4.86-1.14,1.8-6.5-0.13c-4.74,2.18-9.07-0.1-6.57-1.32   c-3.34-2.15-3.41-0.05-7.02-2.44c0.12,1.71-0.38-2.5-5.97-0.8c2.17-4.41-3.51,3.93-6.54,2.49c-4.91,8.7-9.84,3.23-8.54,4.95   c-2.12,2.79-3.75-2.68-6.21,0.38c-0.59-0.9-7.98-2.95-10.44-2.49c-2.33-1.83-9.1-4.63-7.98-1.31c-1.71-1.23-5.32,0.17-8.31,0.1   c-1.85-0.95-3.57-0.69-8.23-0.16c-0.34-0.71-1.94-0.22-7.85-0.66c3.2,3.48-6.98,2.43-7.94-0.54c-4.08-1.04-4.03,6.88-8.46,0.22   c-4,0.93-2.43,1.42-9.03,1.56c-1.7,1.35-8.64-3.16-8.71,2.42c-4.5,1.96-6.38,3.55-8.75,2.42c0.48,0-3.38-5.15-9.32,1.55   c-1.76,1.49-4.9,2.16-8.05-0.39c-1.71,1.41-2.62-1.28-7.97-2.09c-2.27-3.09-4.49-1.35-7.89-3.03c-6.93-2.6-1.35-5.35-7.83-3.2   c-3.49-2.67-9.59-1.96-7.8-2.61c0.5-2.91-1.73-4.38-8.1-2.18c-5.33-2.13-6.84-8.68-9.1-2.12c-0.82,0.34-1.63,0.27-2.42,0.03V54.39   c1.22,0.72,2.32,1.17,2.95,0.26c4.72,2.96,5.74,0.73,8.55,0.2c1.27-2.53,4.18,1.14,5.5-1.13c3.74-1.76,0.99-1.74,5.54-0.14   c3.11-0.67,1.54-1.55,6.29,0.88c1.58,0.64,6.57,2.15,6.4-0.96c-0.37-0.38,2.02-1.8,4.92-3.46c4.9-0.45,1.71-1.17,4.98-2.98   c-1.66-3.55,1.8-0.3,6.19-0.65c2.74-0.73,4.16-1.91,6.44,0.18c0.86-3.83,7.35,1.13,6.24-0.39c2.51-3.35,7.54,2.36,6.61-2.79   c2.09,3.43,3-5.17,6.5-2.69c3.57-3.58,2.97-1.38,5.72-0.15c2.09-1.08,2.98-0.68,5.64,0.77c2.23-2.31-0.85,0.41,5.89,0.53   c1.09,3.02,7.2,4.6,8.34-0.76c0.31,3.02,5.97-1.29,8.31,0.05c2.33-1.71,2.85-0.35,6.89,2.45c4.63-0.73,4.27,3.24,7.88,1.64   c-1.38-0.94-0.17-1.15,3.36-0.23c0.9,2.14,2.72,0.23,3.33,0.1c1.63,1.2,0.51,0.9,3.96,2.24c0.26-3.88,1.48,0.54,3.55,2.33   c4.2,1.08,2.17,0.35,5.68,0.93c3.83,2.61,3.66,1.49,5.79-0.18c3.15-0.91,2.19,0.76,5.59,0.6c0.34,0.27,3.79,0.12,6.54,3.1   c3.34,5.13,5.42,1.9,7.07,2.27c5.75,1.83,4.09,0.26,5.83,0.03c0.14-2.39,5.24,1.63,5.74-0.6c2.87-3.77,5.39-1.58,5.67-0.87   c2.48-2.56,6.83-1.51,9.08-2.11c3.04-2.37,6.8-2.57,8.08-3.07c0.23-0.83,8.1-0.66,7.76-3.81c2.16,0.17,1.72-4.17,4.83-3.21   c1.35-0.44,2.1-2.5,5.48-3.88c2.02-1.58,3.57-1.57,5.1-2.43c3.16,0.16,3.46-1.1,5.59,0.09c2.93,1.46,2.74,4.21,6.02,1.25   c1.96-1.64,4.51,1.24,6.08,0.38c0.25-1.53,7.82-0.58,7.95-2.06c0.96-1.44,2.7-0.65,7.54-2.58c2.25-0.94,4.18-0.7,7.71-0.96   c3.97,1.9,2.97,1.89,7.53,0.56c3.33,2.58,9.21-2.52,7.6,1.12c2.6,2.67,3.72-2.91,7.67,0.88c8.6-1.54,2.23-1.7,7.55,0.76   c0-0.16,4.82-4.07,7.4,0.99c0.4-1.55,1.78,0.67,7.17,1.53c4.83,0.53,4.74,3.34,7.9,1.19c4.01,3.63,3.81,0.65,7.41,1.36   c-0.28,4.93,5.46-0.85,5.51,2.96c-0.11,0.06-0.13,0.18-0.01,0.4c0.01-0.14,0.01-0.28,0.01-0.4c0.79-0.4,6.38,2.6,6.9,2.48   c1.09,2.37,1.06,1.46,5.41-0.68c4.01,2.96,3.55-2.84,5.79-0.6c-0.73,3.61,2.85,0.02,6.42,0.79c4.29-0.94,5.12-1.27,6.01,0.72   c-0.01-0.05,7.78,0.68,5.78-1.25c1.77,0.76,3.17,0.84,5.28-3.91c2.85-1.04,5.47-4.65,5.69-3.15c-0.08-1.3,5.96-0.33,7.5-0.46   c0.76-3.24,5.88-2.41,7.43-0.65c4.58-5.49,7.37-5.19,6.92-2.54c-0.87,0.16,6.44,1.51,7.45,0.91c0.57,0.56,5.23,4.33,6.09,1.84   c5.11,0.77,0.88,2.93,5.4,1.68c1.37,4.08,4.89,3.23,8.27,1.3C431.4,40.67,431.66,40.77,432,40.77z" style="fill:#000000;"/>
</g>
</svg>