<svg width="502" height="234" viewBox="0 0 502 234" fill="none" xmlns="http://www.w3.org/2000/svg">
<path d="M140.482 37.1094C140.482 39.8698 140.092 42.1354 139.311 43.9062C138.529 45.625 137.618 46.4844 136.576 46.4844C134.753 46.4844 133.555 44.0885 132.982 39.2969C132.253 32.8906 130.691 22.1094 128.295 6.95312C128.243 6.53646 128.217 6.14583 128.217 5.78125C128.217 4.16667 128.764 2.8125 129.857 1.71875C131.003 0.572917 132.227 0 133.529 0C135.352 0 136.472 1.04167 136.889 3.125C139.232 13.8542 140.43 25.1823 140.482 37.1094ZM180.17 50.9375C175.066 58.2812 163.035 64.0104 144.076 68.125C131.993 70.7812 121.029 72.1094 111.186 72.1094C108.061 72.1094 106.498 70.5469 106.498 67.4219C106.498 64.2969 108.061 62.7344 111.186 62.7344C120.3 62.7344 130.014 61.6406 140.326 59.4531C157.878 55.7552 168.581 51.1458 172.436 45.625C173.008 44.7917 173.295 44.0625 173.295 43.4375C173.295 41.875 171.394 41.0938 167.592 41.0938C164.258 41.0938 158.451 44.5833 150.17 51.5625C141.316 59.0104 136.889 65.1042 136.889 69.8438C136.889 76.6667 142.331 80.0781 153.217 80.0781C156.342 80.0781 157.904 81.6406 157.904 84.7656C157.904 87.8906 156.342 89.4531 153.217 89.4531C136.29 89.4531 127.826 82.9948 127.826 70.0781C127.826 64.974 130.482 59.5573 135.795 53.8281C136.732 52.8385 141.394 48.5938 149.779 41.0938C152.019 39.1146 154.962 37.2656 158.607 35.5469C162.826 33.5156 166.368 32.5 169.232 32.5C178.868 32.5 183.686 35.5469 183.686 41.6406C183.686 44.401 182.514 47.5 180.17 50.9375ZM180.873 89.4531C176.342 90.3906 171.758 90.8594 167.123 90.8594C162.488 90.8594 157.774 90.3906 152.982 89.4531C150.118 89.4531 148.686 87.8906 148.686 84.7656C148.686 81.6406 150.118 80.0781 152.982 80.0781C158.712 81.0156 164.076 81.4844 169.076 81.4844C174.076 81.4844 178.738 81.0156 183.061 80.0781C184.467 80.0781 185.17 81.6406 185.17 84.7656C185.17 87.8906 183.738 89.4531 180.873 89.4531ZM231.264 37.1094C231.264 39.8698 230.873 42.1354 230.092 43.9062C229.311 45.625 228.399 46.4844 227.357 46.4844C225.535 46.4844 224.337 44.0885 223.764 39.2969C223.035 32.8906 221.472 22.1094 219.076 6.95312C218.972 6.53646 218.92 6.14583 218.92 5.78125C218.92 4.16667 219.519 2.78646 220.717 1.64062C221.758 0.546875 222.956 0 224.311 0C226.133 0 227.253 1.04167 227.67 3.125C229.962 13.8542 231.16 25.1823 231.264 37.1094ZM270.873 50.9375C267.696 55.5729 260.847 61.276 250.326 68.0469C239.805 74.8177 227.514 80.651 213.451 85.5469C200.691 88.151 190.3 89.4531 182.279 89.4531C179.154 89.4531 177.592 87.8906 177.592 84.7656C177.592 81.6406 179.154 80.0781 182.279 80.0781C188.633 80.0781 198.191 78.8281 210.951 76.3281C225.639 71.4323 237.436 65.9115 246.342 59.7656C255.3 53.6198 260.925 48.9062 263.217 45.625C263.79 44.7917 264.076 44.0625 264.076 43.4375C264.076 41.875 262.175 41.0938 258.373 41.0938C255.04 41.0938 249.232 44.5833 240.951 51.5625C232.097 59.0104 227.67 65.1042 227.67 69.8438C227.67 72.3958 228.894 74.6354 231.342 76.5625C234.363 78.9062 238.581 80.0781 243.998 80.0781C247.123 80.0781 248.686 81.6406 248.686 84.7656C248.686 87.8906 247.123 89.4531 243.998 89.4531C235.248 89.4531 228.633 87.3438 224.154 83.125C220.456 79.6354 218.607 75.2865 218.607 70.0781C218.607 65.4427 221.264 60.1562 226.576 54.2188C228.555 51.9792 233.217 47.6042 240.561 41.0938C242.8 39.1146 245.743 37.2656 249.389 35.5469C253.607 33.5156 257.123 32.5 259.936 32.5C269.623 32.5 274.467 35.5469 274.467 41.6406C274.467 44.401 273.269 47.5 270.873 50.9375ZM267.592 89.4531C263.061 90.3906 258.477 90.8594 253.842 90.8594C249.206 90.8594 244.493 90.3906 239.701 89.4531C236.837 89.4531 235.404 87.8906 235.404 84.7656C235.404 81.6406 236.837 80.0781 239.701 80.0781C245.43 81.0156 250.795 81.4844 255.795 81.4844C260.795 81.4844 265.456 81.0156 269.779 80.0781C271.186 80.0781 271.889 81.6406 271.889 84.7656C271.889 87.8906 270.456 89.4531 267.592 89.4531ZM325.326 43.4375C333.347 43.9062 338.738 49.401 341.498 59.9219C344.311 70.3906 345.717 76.3802 345.717 77.8906C345.769 79.349 347.331 80.1302 350.404 80.2344H351.029C351.238 80.2865 351.342 80.3906 351.342 80.5469V89.6094C351.342 89.8177 351.238 89.9219 351.029 89.9219H350.248C343.061 89.9219 338.451 87.1615 336.42 81.6406C333.295 64.349 329.232 55.2083 324.232 54.2188C323.295 54.0625 322.279 53.9844 321.186 53.9844C316.29 53.9844 309.675 55.7031 301.342 59.1406C299.311 61.0156 298.295 62.0052 298.295 62.1094C303.555 62.6823 307.331 63.4375 309.623 64.375C313.113 65.3646 315.587 66.901 317.045 68.9844C318.035 70.9115 318.529 72.3958 318.529 73.4375V74.375C318.529 78.1771 316.055 81.0417 311.107 82.9688C299.441 87.7083 289.154 90.0781 280.248 90.0781C278.738 90.0781 277.279 90 275.873 89.8438H268.764C268.503 89.8438 268.373 89.7396 268.373 89.5312V80.4688C268.425 80.2604 268.555 80.1562 268.764 80.1562H275.248C276.342 80.3125 277.566 80.3906 278.92 80.3906C285.587 80.3906 295.535 78.3854 308.764 74.375V74.2188C304.441 73.0729 297.227 71.7969 287.123 70.3906C285.404 69.4531 284.545 68.3073 284.545 66.9531V65.1562C284.545 63.125 286.212 60.4167 289.545 57.0312C292.93 53.6458 297.722 50.4167 303.92 47.3438C309.285 44.6875 315.352 43.3594 322.123 43.3594C323.165 43.3594 324.232 43.3854 325.326 43.4375ZM298.217 20.3125L295.561 24.6094C294.623 26.1198 293.347 26.875 291.732 26.875C290.43 26.875 289.285 26.4323 288.295 25.5469C287.305 24.6094 286.811 23.4896 286.811 22.1875C286.811 21.3542 287.071 20.4948 287.592 19.6094L290.248 15.3125C291.186 13.8021 292.462 13.0469 294.076 13.0469C295.378 13.0469 296.524 13.5156 297.514 14.4531C298.503 15.3385 298.998 16.4323 298.998 17.7344C298.998 18.5677 298.738 19.4271 298.217 20.3125ZM376.342 68.75C376.446 70 376.498 71.1719 376.498 72.2656C376.498 78.724 373.087 83.2292 366.264 85.7812C359.753 88.2292 354.415 89.4531 350.248 89.4531C347.123 89.4531 345.561 87.8906 345.561 84.7656C345.561 81.6406 347.123 80.0781 350.248 80.0781C353.894 80.0781 357.826 79.2188 362.045 77.5C364.441 76.5104 365.925 75.5208 366.498 74.5312C366.915 73.75 367.123 72.474 367.123 70.7031C367.123 70.1823 367.097 69.6094 367.045 68.9844C366.055 59.0885 364.727 43.75 363.061 22.9688V22.3438C363.061 20.7292 363.633 19.3229 364.779 18.125C366.081 16.7708 367.462 16.0938 368.92 16.0938C370.795 16.0938 371.837 17.1875 372.045 19.375C374.232 45.8333 375.665 62.2917 376.342 68.75ZM396.732 70C396.837 71.1458 396.889 72.2656 396.889 73.3594C396.889 80.2865 395.769 83.75 393.529 83.75C391.863 83.75 390.482 81.0677 389.389 75.7031C388.816 72.8385 387.93 66.25 386.732 55.9375C385.951 49.1667 385.066 40.625 384.076 30.3125V29.7656C384.076 27.4219 384.675 25.4427 385.873 23.8281C387.019 22.2656 388.321 21.4844 389.779 21.4844C391.55 21.4844 392.54 22.6562 392.748 25C393.738 35.5208 395.066 50.5208 396.732 70Z" fill="#FFF000"/>
<path d="M41.1642 201.707H48.7082V213.188H28.0442C11.7262 213.188 0.000234656 205.725 0.000234656 190.145C0.000234656 176.861 10.4142 167.021 28.0442 167.021H29.6842V162.921H41.1642V201.707ZM24.6822 201.707H29.6842V178.501H25.2562C18.5322 178.501 11.4802 182.765 11.4802 190.145C11.4802 197.689 17.8762 201.707 24.6822 201.707ZM34.2762 156.853C30.8322 156.853 27.8802 154.803 27.8802 150.949C27.8802 147.505 30.6682 145.127 34.2762 145.127C37.9662 145.127 40.6722 147.505 40.6722 150.949C40.6722 154.803 37.7202 156.853 34.2762 156.853ZM16.4822 156.853C13.0382 156.853 10.0862 154.803 10.0862 150.949C10.0862 147.505 12.8742 145.127 16.4822 145.127C20.0902 145.127 22.8782 147.505 22.8782 150.949C22.8782 154.803 19.9262 156.853 16.4822 156.853ZM47.1406 213.188V201.707H64.2786V167.021H75.7586V201.707H90.8466V213.188H47.1406ZM78.3006 230.654C74.8566 230.654 71.9046 228.604 71.9046 224.832C71.9046 221.306 74.6926 218.928 78.3006 218.928C81.9906 218.928 84.6966 221.306 84.6966 224.832C84.6966 228.604 81.7446 230.654 78.3006 230.654ZM60.5066 230.654C57.0626 230.654 54.1106 228.604 54.1106 224.832C54.1106 221.306 56.8986 218.928 60.5066 218.928C64.1146 218.928 66.9026 221.306 66.9026 224.832C66.9026 228.604 63.9506 230.654 60.5066 230.654ZM89.1816 213.188V201.707H123.212C124.032 198.099 124.606 193.425 124.606 189.981C124.606 186.619 123.458 182.601 120.588 180.059C118.292 178.009 115.012 176.943 110.912 176.943C106.566 176.943 103.286 177.845 99.0216 180.551L94.2656 170.547C99.5956 167.513 105.418 165.463 112.306 165.463C119.03 165.463 124.688 167.759 128.624 171.778C132.97 176.123 136.004 182.601 136.004 190.883C136.004 194.573 135.594 198.263 134.938 201.707H143.794V213.188H89.1816ZM111.65 230.654C108.042 230.654 104.926 228.522 104.926 224.504C104.926 220.896 107.878 218.436 111.65 218.436C115.504 218.436 118.374 220.896 118.374 224.504C118.374 228.522 115.258 230.654 111.65 230.654ZM142.273 213.188V201.707H159.411V167.021H170.891V201.707H185.979V213.188H142.273ZM173.433 230.654C169.989 230.654 167.037 228.604 167.037 224.832C167.037 221.306 169.825 218.928 173.433 218.928C177.123 218.928 179.829 221.306 179.829 224.832C179.829 228.604 176.877 230.654 173.433 230.654ZM155.639 230.654C152.195 230.654 149.243 228.604 149.243 224.832C149.243 221.306 152.031 218.928 155.639 218.928C159.247 218.928 162.035 221.306 162.035 224.832C162.035 228.604 159.083 230.654 155.639 230.654ZM184.314 213.188V201.707H201.452V167.021H212.932V213.188H184.314ZM197.844 160.051C194.4 160.051 191.448 158.001 191.448 154.147C191.448 150.703 194.236 148.325 197.844 148.325C201.452 148.325 204.24 150.703 204.24 154.147C204.24 158.001 201.288 160.051 197.844 160.051ZM215.638 160.051C212.194 160.051 209.242 158.001 209.242 154.147C209.242 150.703 212.03 148.325 215.638 148.325C219.328 148.325 222.034 150.703 222.034 154.147C222.034 158.001 219.082 160.051 215.638 160.051ZM229.728 213.188V146.685H241.208V213.188H229.728ZM256.438 231.228C254.306 231.228 252.01 230.9 250.616 230.49L249.796 219.01C251.928 219.584 253.486 219.748 255.208 219.748C259.8 219.748 261.358 217.37 261.358 211.711V167.021H272.838V201.707H281.694V213.188H272.756C272.1 225.816 267.262 231.228 256.438 231.228ZM280.088 213.188V201.707H297.226V167.021H308.706V201.707H323.794V213.188H280.088ZM311.33 160.051C307.886 160.051 304.934 158.001 304.934 154.147C304.934 150.703 307.722 148.325 311.33 148.325C315.02 148.325 317.726 150.703 317.726 154.147C317.726 158.001 314.774 160.051 311.33 160.051ZM293.536 160.051C290.092 160.051 287.14 158.001 287.14 154.147C287.14 150.703 289.928 148.325 293.536 148.325C297.144 148.325 299.932 150.703 299.932 154.147C299.932 158.001 296.98 160.051 293.536 160.051ZM322.129 213.188V201.707H340.005V171.121H351.485V201.707H359.849C364.769 201.707 370.673 199.493 370.673 191.457V171.121H382.153V191.457C382.317 198.919 386.335 202.527 392.485 202.527C398.963 202.527 402.325 198.509 402.325 192.195V161.281H413.723V190.719C413.723 206.463 406.753 214.008 392.485 214.008C386.253 214.008 379.939 212.203 376.167 206.135C371.985 210.482 366.081 213.188 359.849 213.188H322.129ZM439.632 233.442C433.236 233.442 429.3 230.654 429.3 223.274V219.502H446.356V225.652H435.86C435.86 228.276 437.008 229.752 440.288 229.752H443.732V233.442H439.632ZM423.806 213.188L422.412 201.707H445.782C449.472 201.707 452.752 200.805 455.048 198.919C457.262 197.033 458.492 194.409 458.492 190.391V140.617H475.302V152.097H469.972V189.981C469.972 196.705 468.004 203.429 463.822 207.283C459.148 211.547 452.178 213.188 443.404 213.188H423.806ZM434.056 197.607V154.393H445.536V197.607H434.056ZM489.742 213.188V146.685H501.222V213.188H489.742Z" fill="white"/>
</svg>
