<svg width="87" height="179" viewBox="0 0 87 179" fill="none" xmlns="http://www.w3.org/2000/svg">
<path d="M61.5621 135.871H25.3572C24.1325 135.871 23.0401 135.077 22.676 133.902C17.6694 118.038 2.16953 109.853 2.02058 109.77C1.33372 109.415 0.828918 108.794 0.613757 108.057C0.398596 107.321 0.489626 106.527 0.87857 105.856C15.9646 79.739 26.2841 51.6357 32.2755 32.6602C32.7472 31.1789 34.3195 30.3597 35.8091 30.8231C37.2904 31.2948 38.1096 32.8754 37.6462 34.3567C31.7458 53.0177 21.7326 80.3928 7.14305 106.245C12.009 109.332 22.527 117.235 27.3847 130.227H59.576C64.4337 117.227 74.9518 109.332 79.8177 106.245C65.7329 81.2865 55.91 54.9045 49.9352 36.318H48.2884L48.3711 87.642C53.7253 89.6447 57.4079 94.8003 57.4079 100.676C57.4079 108.364 51.1517 114.612 43.4721 114.612C35.7925 114.612 29.5529 108.355 29.5529 100.676C29.5529 96.9353 31.0093 93.4266 33.6657 90.795C34.7664 89.7026 36.5539 89.7026 37.6462 90.8115C38.7386 91.9121 38.7386 93.6996 37.6297 94.792C36.0573 96.356 35.1884 98.4497 35.1884 100.676C35.1884 105.252 38.9041 108.984 43.4804 108.984C48.0567 108.984 51.7889 105.26 51.7889 100.676C51.7889 96.7036 48.9504 93.2776 45.0444 92.5411C43.7204 92.2928 42.7521 91.1343 42.7521 89.7771L42.6611 33.5126C42.6611 32.7678 42.959 32.0478 43.4804 31.5182C44.01 30.9886 44.7217 30.6907 45.4748 30.6907H52.004C53.2288 30.6907 54.3212 31.4851 54.6853 32.6602C60.6849 51.644 70.9961 79.7473 86.0822 105.856C86.4711 106.527 86.5622 107.321 86.347 108.057C86.1318 108.794 85.6188 109.415 84.9319 109.77C84.7829 109.853 69.2831 118.029 64.2765 133.902C63.9041 135.077 62.82 135.871 61.5952 135.871H61.5621Z" fill="#010101" stroke="#010101" stroke-miterlimit="10"/>
<path d="M68.5216 167.971H18.3975C15.0211 167.971 12.2737 165.224 12.2737 161.847V151.702C12.2737 148.325 15.0211 145.578 18.3975 145.578H22.5435V143.046C22.5435 141.49 23.8013 140.232 25.3571 140.232H61.5703C63.1261 140.232 64.3839 141.49 64.3839 143.046V145.578H68.5299C71.9063 145.578 74.6537 148.325 74.6537 151.702V161.847C74.6537 165.224 71.9063 167.971 68.5299 167.971H68.5216ZM18.3975 151.205C18.1244 151.205 17.901 151.429 17.901 151.702V161.847C17.901 162.12 18.1244 162.344 18.3975 162.344H68.5216C68.7947 162.344 69.0182 162.12 69.0182 161.847V151.702C69.0182 151.429 68.7947 151.205 68.5216 151.205H61.562C60.0062 151.205 58.7484 149.947 58.7484 148.391V145.859H28.1707V148.391C28.1707 149.947 26.9129 151.205 25.3571 151.205H18.3975Z" fill="#010101" stroke="#010101" stroke-miterlimit="10"/>
<path d="M55.3472 177.513H31.5719C30.0162 177.513 28.7583 176.255 28.7583 174.699C28.7583 173.143 30.0162 171.885 31.5719 171.885H55.3472C56.903 171.885 58.1608 173.143 58.1608 174.699C58.1608 176.255 56.903 177.513 55.3472 177.513Z" fill="#010101" stroke="#010101" stroke-miterlimit="10"/>
<path d="M54.3542 25.7752H32.5734C31.4976 25.7752 30.5211 25.1628 30.0494 24.2028L23.3049 10.4574C22.7753 9.38158 22.9904 8.09062 23.8263 7.23825C24.6704 6.38588 25.953 6.16245 27.0371 6.66725L34.7829 10.3415L41.1881 1.58615C42.2473 0.137951 44.672 0.137951 45.7313 1.58615L52.1364 10.3415L59.8822 6.66725C60.9663 6.15417 62.249 6.37761 63.0931 7.23825C63.9372 8.09062 64.1441 9.38158 63.6144 10.4574L56.87 24.2028C56.3983 25.1711 55.4135 25.7752 54.346 25.7752H54.3542ZM34.3278 20.1479H52.5999L55.0163 15.2157L52.4426 16.4322C51.2179 17.0115 49.7614 16.6391 48.967 15.5468L43.4638 8.01614L37.9607 15.5468C37.1579 16.6308 35.7015 17.0115 34.485 16.4322L31.9113 15.2157L34.3278 20.1479Z" fill="#010101" stroke="#010101" stroke-miterlimit="10"/>
</svg>
