<svg width="124" height="123" viewBox="0 0 124 123" fill="none" xmlns="http://www.w3.org/2000/svg">
<g clip-path="url(#clip0_604_121)">
<path d="M113.475 7.98047C114.923 7.98047 116.154 9.21014 116.154 10.6379C116.154 12.0656 114.915 13.2953 113.475 13.2953C112.036 13.2953 110.796 12.0656 110.796 10.6379C111.004 9.00382 112.036 7.98047 113.475 7.98047Z" fill="black"/>
<path d="M113.475 110.307C114.923 110.307 116.154 111.537 116.154 112.965C116.154 114.392 114.915 115.622 113.475 115.622C112.036 115.622 110.796 114.392 110.796 112.965C111.004 111.33 112.036 110.307 113.475 110.307Z" fill="black"/>
<path d="M100.688 7.98047C102.135 7.98047 103.367 9.21014 103.367 10.6379C103.367 12.0656 102.127 13.2953 100.688 13.2953C99.2482 13.2953 98.0085 12.0656 98.0085 10.6379C98.0085 9.00382 99.2482 7.98047 100.688 7.98047Z" fill="black"/>
<path d="M100.688 110.307C102.135 110.307 103.367 111.537 103.367 112.965C103.367 114.392 102.127 115.622 100.688 115.622C99.2482 115.622 98.0085 114.392 98.0085 112.965C98.0085 111.33 99.2482 110.307 100.688 110.307Z" fill="black"/>
<path d="M87.6835 7.98047C89.1312 7.98047 90.3625 9.21014 90.3625 10.6379C90.3625 12.0656 89.1229 13.2953 87.6835 13.2953C86.2442 13.2953 85.0045 12.0656 85.0045 10.6379C85.2125 9.00382 86.2442 7.98047 87.6835 7.98047Z" fill="black"/>
<path d="M87.6835 110.307C89.1312 110.307 90.3625 111.537 90.3625 112.965C90.3625 114.392 89.1229 115.622 87.6835 115.622C86.2442 115.622 85.0045 114.392 85.0045 112.965C85.2125 111.33 86.2442 110.307 87.6835 110.307Z" fill="black"/>
<path d="M74.8958 7.98047C76.3435 7.98047 77.5748 9.21014 77.5748 10.6379C77.5748 12.0656 76.3351 13.2953 74.8958 13.2953C73.4565 13.2953 72.2168 12.0656 72.2168 10.6379C72.2168 9.00382 73.4565 7.98047 74.8958 7.98047Z" fill="black"/>
<path d="M74.8958 110.307C76.3435 110.307 77.5748 111.537 77.5748 112.965C77.5748 114.392 76.3351 115.622 74.8958 115.622C73.4565 115.622 72.2168 114.392 72.2168 112.965C72.2168 111.33 73.4565 110.307 74.8958 110.307Z" fill="black"/>
<path d="M61.9002 7.98047C63.3479 7.98047 64.5792 9.21014 64.5792 10.6379C64.5792 12.0656 63.3396 13.2953 61.9002 13.2953C60.4609 13.2953 59.2212 12.0656 59.2212 10.6379C59.4292 9.00382 60.4609 7.98047 61.9002 7.98047Z" fill="black"/>
<path d="M61.9002 110.307C63.3479 110.307 64.5792 111.537 64.5792 112.965C64.5792 114.392 63.3396 115.622 61.9002 115.622C60.4609 115.622 59.2212 114.392 59.2212 112.965C59.4292 111.33 60.4609 110.307 61.9002 110.307Z" fill="black"/>
<path d="M49.1042 7.98042C50.5518 7.98042 51.7832 9.21009 51.7832 10.6378C51.7832 12.0656 50.5435 13.2952 49.1042 13.2952C47.6648 13.2952 46.4252 11.8592 46.4252 10.4315C46.4252 9.00377 47.6648 7.97217 49.1042 7.97217V7.98042Z" fill="black"/>
<path d="M49.1042 110.307C50.5518 110.307 51.7832 111.537 51.7832 112.964C51.7832 114.392 50.5435 115.622 49.1042 115.622C47.6648 115.622 46.4252 114.186 46.4252 112.758C46.4252 111.33 47.6648 110.299 49.1042 110.299V110.307Z" fill="black"/>
<path d="M36.1085 7.98047C37.5561 7.98047 38.7875 9.21014 38.7875 10.6379C38.7875 12.0656 37.5478 13.2953 36.1085 13.2953C34.6691 13.2953 33.4294 12.0656 33.4294 10.6379C33.6374 9.00382 34.6691 7.98047 36.1085 7.98047Z" fill="black"/>
<path d="M36.1085 110.307C37.5561 110.307 38.7875 111.537 38.7875 112.965C38.7875 114.392 37.5478 115.622 36.1085 115.622C34.6691 115.622 33.4294 114.392 33.4294 112.965C33.6374 111.33 34.6691 110.307 36.1085 110.307Z" fill="black"/>
<path d="M23.3124 7.98047C24.7601 7.98047 25.9914 9.21014 25.9914 10.6379C25.9914 12.0656 24.7518 13.2953 23.3124 13.2953C21.8731 13.2953 20.6334 12.0656 20.6334 10.6379C20.6334 9.00382 21.8731 7.98047 23.3124 7.98047Z" fill="black"/>
<path d="M23.3124 110.307C24.7601 110.307 25.9914 111.537 25.9914 112.965C25.9914 114.392 24.7518 115.622 23.3124 115.622C21.8731 115.622 20.6334 114.392 20.6334 112.965C20.6334 111.33 21.8731 110.307 23.3124 110.307Z" fill="black"/>
<path d="M10.3167 7.98047C11.7644 7.98047 12.9957 9.21014 12.9957 10.6379C12.9957 12.0656 11.7561 13.2953 10.3167 13.2953C8.87736 13.2953 7.6377 12.0656 7.6377 10.6379C7.84569 9.00382 8.87736 7.98047 10.3167 7.98047Z" fill="black"/>
<path d="M10.3167 110.307C11.7644 110.307 12.9957 111.537 12.9957 112.965C12.9957 114.392 11.7561 115.622 10.3167 115.622C8.87736 115.622 7.6377 114.392 7.6377 112.965C7.84569 111.33 8.87736 110.307 10.3167 110.307Z" fill="black"/>
<path d="M121.313 20.6732H2.67901C1.23135 20.6732 0 19.4435 0 18.0158C0 16.5881 1.23967 15.3584 2.67901 15.3584H121.313C122.76 15.3584 123.992 16.5881 123.992 18.0158C123.784 19.4518 122.544 20.6732 121.313 20.6732Z" fill="black"/>
<path d="M121.313 5.32307H2.67901C1.23135 5.32307 0 4.0934 0 2.66566C0 1.23792 1.23967 0 2.67901 0H121.313C122.76 0 123.992 1.22967 123.992 2.65741C123.784 4.0934 122.544 5.31482 121.313 5.31482V5.32307Z" fill="black"/>
<path d="M121.313 123H2.67901C1.23135 123 0 121.77 0 120.343C0 118.915 1.23967 117.685 2.67901 117.685H121.313C122.76 117.685 123.992 118.915 123.992 120.343C123.784 121.779 122.544 123 121.313 123Z" fill="black"/>
<path d="M121.313 107.65H2.67901C1.23135 107.65 0 106.42 0 104.992C0 103.565 1.23967 102.335 2.67901 102.335H121.313C122.76 102.335 123.992 103.565 123.992 104.992C123.784 106.428 122.544 107.65 121.313 107.65Z" fill="black"/>
<path d="M15.475 107.65C14.0274 107.65 12.796 106.42 12.796 104.992V18.214C12.796 16.7781 14.0357 15.5566 15.475 15.5566C16.9144 15.5566 18.154 16.7863 18.154 18.214V105.191C18.154 106.42 16.9144 107.65 15.475 107.65Z" fill="black"/>
<path d="M108.317 107.65C106.869 107.65 105.638 106.42 105.638 104.992V18.214C105.638 16.7781 106.878 15.5566 108.317 15.5566C109.756 15.5566 110.996 16.7863 110.996 18.214V105.191C110.996 106.42 109.756 107.65 108.317 107.65Z" fill="black"/>
<path d="M46.4251 84.7234C46.0091 84.7234 45.6015 84.5171 45.1855 84.3108C44.3618 83.8981 43.9458 83.0811 43.9458 82.0578V41.1238C43.9458 40.3068 44.3618 39.2834 45.1855 38.8708C46.0091 38.4581 47.0408 38.4581 47.6648 38.8708L83.7732 59.3378C84.5969 59.7504 85.0129 60.5674 85.0129 61.5908C85.0129 62.6141 84.5969 63.4312 83.7732 63.8438L47.6648 84.3108C47.2488 84.5171 46.8411 84.7234 46.4251 84.7234ZM49.1041 45.6381V77.7663L77.3669 61.599L49.1041 45.6381Z" fill="black"/>
</g>
<defs>
<clipPath id="clip0_604_121">
<rect width="124" height="123" fill="white"/>
</clipPath>
</defs>
</svg>
