<svg width="132" height="132" viewBox="0 0 132 132" fill="none" xmlns="http://www.w3.org/2000/svg">
<path d="M120.135 8.98193C121.661 8.98193 122.959 10.2889 122.959 11.8064C122.959 13.3238 121.652 14.6308 120.135 14.6308C118.617 14.6308 117.31 13.3238 117.31 11.8064C117.529 10.0696 118.617 8.98193 120.135 8.98193Z" fill="#010101" stroke="#010101" stroke-miterlimit="10"/>
<path d="M120.135 117.74C121.661 117.74 122.959 119.047 122.959 120.564C122.959 122.082 121.652 123.389 120.135 123.389C118.617 123.389 117.31 122.082 117.31 120.564C117.529 118.827 118.617 117.74 120.135 117.74Z" fill="#010101" stroke="#010101" stroke-miterlimit="10"/>
<path d="M106.653 8.98193C108.179 8.98193 109.477 10.2889 109.477 11.8064C109.477 13.3238 108.17 14.6308 106.653 14.6308C105.135 14.6308 103.828 13.3238 103.828 11.8064C103.828 10.0696 105.135 8.98193 106.653 8.98193Z" fill="#010101" stroke="#010101" stroke-miterlimit="10"/>
<path d="M106.653 117.74C108.179 117.74 109.477 119.047 109.477 120.564C109.477 122.082 108.17 123.389 106.653 123.389C105.135 123.389 103.828 122.082 103.828 120.564C103.828 118.827 105.135 117.74 106.653 117.74Z" fill="#010101" stroke="#010101" stroke-miterlimit="10"/>
<path d="M92.9428 8.98193C94.4691 8.98193 95.7673 10.2889 95.7673 11.8064C95.7673 13.3238 94.4603 14.6308 92.9428 14.6308C91.4254 14.6308 90.1184 13.3238 90.1184 11.8064C90.3377 10.0696 91.4254 8.98193 92.9428 8.98193Z" fill="#010101" stroke="#010101" stroke-miterlimit="10"/>
<path d="M92.9428 117.74C94.4691 117.74 95.7673 119.047 95.7673 120.564C95.7673 122.082 94.4603 123.389 92.9428 123.389C91.4254 123.389 90.1184 122.082 90.1184 120.564C90.3377 118.827 91.4254 117.74 92.9428 117.74Z" fill="#010101" stroke="#010101" stroke-miterlimit="10"/>
<path d="M79.4611 8.98193C80.9874 8.98193 82.2856 10.2889 82.2856 11.8064C82.2856 13.3238 80.9786 14.6308 79.4611 14.6308C77.9437 14.6308 76.6367 13.3238 76.6367 11.8064C76.6367 10.0696 77.9437 8.98193 79.4611 8.98193Z" fill="#010101" stroke="#010101" stroke-miterlimit="10"/>
<path d="M79.4611 117.74C80.9874 117.74 82.2856 119.047 82.2856 120.564C82.2856 122.082 80.9786 123.389 79.4611 123.389C77.9437 123.389 76.6367 122.082 76.6367 120.564C76.6367 118.827 77.9437 117.74 79.4611 117.74Z" fill="#010101" stroke="#010101" stroke-miterlimit="10"/>
<path d="M65.76 8.98193C67.2862 8.98193 68.5844 10.2889 68.5844 11.8064C68.5844 13.3238 67.2774 14.6308 65.76 14.6308C64.2425 14.6308 62.9355 13.3238 62.9355 11.8064C63.1548 10.0696 64.2425 8.98193 65.76 8.98193Z" fill="#010101" stroke="#010101" stroke-miterlimit="10"/>
<path d="M65.76 117.74C67.2862 117.74 68.5844 119.047 68.5844 120.564C68.5844 122.082 67.2774 123.389 65.76 123.389C64.2425 123.389 62.9355 122.082 62.9355 120.564C63.1548 118.827 64.2425 117.74 65.76 117.74Z" fill="#010101" stroke="#010101" stroke-miterlimit="10"/>
<path d="M52.2695 8.98192C53.7957 8.98192 55.0939 10.2889 55.0939 11.8063C55.0939 13.3238 53.787 14.6308 52.2695 14.6308C50.752 14.6308 49.4451 13.1045 49.4451 11.5871C49.4451 10.0696 50.752 8.97314 52.2695 8.97314V8.98192Z" fill="#010101" stroke="#010101" stroke-miterlimit="10"/>
<path d="M52.2695 117.74C53.7957 117.74 55.0939 119.047 55.0939 120.564C55.0939 122.082 53.787 123.389 52.2695 123.389C50.752 123.389 49.4451 121.862 49.4451 120.345C49.4451 118.827 50.752 117.731 52.2695 117.731V117.74Z" fill="#010101" stroke="#010101" stroke-miterlimit="10"/>
<path d="M38.5683 8.98193C40.0946 8.98193 41.3927 10.2889 41.3927 11.8064C41.3927 13.3238 40.0858 14.6308 38.5683 14.6308C37.0509 14.6308 35.7439 13.3238 35.7439 11.8064C35.9632 10.0696 37.0509 8.98193 38.5683 8.98193Z" fill="#010101" stroke="#010101" stroke-miterlimit="10"/>
<path d="M38.5683 117.74C40.0946 117.74 41.3927 119.047 41.3927 120.564C41.3927 122.082 40.0858 123.389 38.5683 123.389C37.0509 123.389 35.7439 122.082 35.7439 120.564C35.9632 118.827 37.0509 117.74 38.5683 117.74Z" fill="#010101" stroke="#010101" stroke-miterlimit="10"/>
<path d="M25.0778 8.98193C26.6041 8.98193 27.9023 10.2889 27.9023 11.8064C27.9023 13.3238 26.5953 14.6308 25.0778 14.6308C23.5604 14.6308 22.2534 13.3238 22.2534 11.8064C22.2534 10.0696 23.5604 8.98193 25.0778 8.98193Z" fill="#010101" stroke="#010101" stroke-miterlimit="10"/>
<path d="M25.0778 117.74C26.6041 117.74 27.9023 119.047 27.9023 120.564C27.9023 122.082 26.5953 123.389 25.0778 123.389C23.5604 123.389 22.2534 122.082 22.2534 120.564C22.2534 118.827 23.5604 117.74 25.0778 117.74Z" fill="#010101" stroke="#010101" stroke-miterlimit="10"/>
<path d="M11.3767 8.98193C12.9029 8.98193 14.2011 10.2889 14.2011 11.8064C14.2011 13.3238 12.8941 14.6308 11.3767 14.6308C9.8592 14.6308 8.55225 13.3238 8.55225 11.8064C8.77153 10.0696 9.8592 8.98193 11.3767 8.98193Z" fill="#010101" stroke="#010101" stroke-miterlimit="10"/>
<path d="M11.3767 117.74C12.9029 117.74 14.2011 119.047 14.2011 120.564C14.2011 122.082 12.8941 123.389 11.3767 123.389C9.8592 123.389 8.55225 122.082 8.55225 120.564C8.77153 118.827 9.8592 117.74 11.3767 117.74Z" fill="#010101" stroke="#010101" stroke-miterlimit="10"/>
<path d="M128.397 22.4726H3.32442C1.79818 22.4726 0.5 21.1656 0.5 19.6482C0.5 18.1307 1.80695 16.8237 3.32442 16.8237H128.397C129.924 16.8237 131.222 18.1307 131.222 19.6482C131.002 21.1744 129.695 22.4726 128.397 22.4726Z" fill="#010101" stroke="#010101" stroke-miterlimit="10"/>
<path d="M128.397 6.15762H3.32455C1.7983 6.15762 0.500122 4.85067 0.500122 3.3332C0.500122 1.81573 1.80708 0.5 3.32455 0.5H128.397C129.924 0.5 131.222 1.80695 131.222 3.32442C131.003 4.85067 129.696 6.14885 128.397 6.14885V6.15762Z" fill="#010101" stroke="#010101" stroke-miterlimit="10"/>
<path d="M128.397 131.231H3.32442C1.79818 131.231 0.5 129.924 0.5 128.406C0.5 126.889 1.80695 125.582 3.32442 125.582H128.397C129.924 125.582 131.222 126.889 131.222 128.406C131.002 129.932 129.695 131.231 128.397 131.231Z" fill="#010101" stroke="#010101" stroke-miterlimit="10"/>
<path d="M128.397 114.915H3.32442C1.79818 114.915 0.5 113.608 0.5 112.091C0.5 110.574 1.80695 109.267 3.32442 109.267H128.397C129.924 109.267 131.222 110.574 131.222 112.091C131.002 113.617 129.695 114.915 128.397 114.915Z" fill="#010101" stroke="#010101" stroke-miterlimit="10"/>
<path d="M16.8149 114.916C15.2887 114.916 13.9905 113.609 13.9905 112.091V19.8588C13.9905 18.3326 15.2974 17.0344 16.8149 17.0344C18.3324 17.0344 19.6393 18.3414 19.6393 19.8588V112.302C19.6393 113.609 18.3324 114.916 16.8149 114.916Z" fill="#010101" stroke="#010101" stroke-miterlimit="10"/>
<path d="M114.696 114.916C113.17 114.916 111.872 113.609 111.872 112.091V19.8588C111.872 18.3326 113.179 17.0344 114.696 17.0344C116.214 17.0344 117.521 18.3414 117.521 19.8588V112.302C117.521 113.609 116.214 114.916 114.696 114.916Z" fill="#010101" stroke="#010101" stroke-miterlimit="10"/>
<path d="M49.4451 90.5483C49.0065 90.5483 48.5767 90.329 48.1381 90.1097C47.2698 89.6711 46.8312 88.8028 46.8312 87.7151V44.2084C46.8312 43.34 47.2698 42.2524 48.1381 41.8138C49.0065 41.3752 50.0942 41.3752 50.752 41.8138L88.8204 63.5671C89.6888 64.0057 90.1273 64.8741 90.1273 65.9618C90.1273 67.0494 89.6888 67.9178 88.8204 68.3564L50.752 90.1097C50.3135 90.329 49.8837 90.5483 49.4451 90.5483ZM52.2695 49.0064V83.1539L82.0663 65.9705L52.2695 49.0064Z" fill="#010101" stroke="#010101" stroke-miterlimit="10"/>
</svg>
