<svg width="230" height="125" viewBox="0 0 230 125" fill="none" xmlns="http://www.w3.org/2000/svg">
<path d="M15.5218 77.6255H13.0811C11.2976 77.6255 9.85193 79.0711 9.85193 80.8547V88.28C9.85193 90.0635 11.2976 91.5092 13.0811 91.5092H15.5218C17.3054 91.5092 18.751 90.0635 18.751 88.28V80.8547C18.751 79.0711 17.3054 77.6255 15.5218 77.6255ZM15.3153 81.0612V88.0734H13.297V81.0612H15.3153Z" fill="#010101" stroke="#010101" stroke-width="2" stroke-miterlimit="10"/>
<path d="M215.169 49.9051V23.8368C215.169 21.7716 213.489 20.0913 211.424 20.0913H99.8567C97.7915 20.0913 96.1112 21.7716 96.1112 23.8368V49.9051C96.1112 51.1723 97.2471 53.6506 99.8567 53.6506H211.433C213.235 53.6506 215.16 52.1486 215.16 49.9051H215.169ZM211.733 23.8368V49.9051C211.733 50.1773 211.414 50.2148 211.424 50.2148H99.8473C99.6877 50.2148 99.5845 49.9238 99.5469 49.783V23.8368C99.5469 23.6678 99.6877 23.527 99.8567 23.527H211.424C211.593 23.527 211.733 23.6678 211.733 23.8368Z" fill="#010101" stroke="#010101" stroke-width="2" stroke-miterlimit="10"/>
<path d="M226.612 52.7963H223.73C223.655 52.7963 223.589 52.8151 223.514 52.8151V17.2564C223.514 5.38156 219.487 1.37322 207.575 1.37322H117.063C113.703 1.37322 110.389 1.27935 107.169 1.18548C92.9477 0.772443 79.5052 0.368793 62.7772 8.08507C61.7164 8.57321 47.9923 16.2426 46.9973 17.9229C42.8012 25.0102 31.0203 45.6808 29.4808 48.3749L2.6897 72.4813C1.61017 73.4482 1 74.8469 1 76.3113V96.0244C1 106.397 5.13037 112.687 12.0206 112.856H22.1494C23.0318 112.856 23.8485 112.461 24.3929 111.757C24.9468 111.044 25.1251 110.133 24.8998 109.251C24.3929 107.336 24.1395 105.365 24.1395 103.384C24.1395 90.6831 34.4748 80.3478 47.1756 80.3478C59.8765 80.3478 70.2119 90.6831 70.2119 103.384C70.2119 105.365 69.9584 107.336 69.4515 109.251C69.2262 110.115 69.4139 111.053 69.949 111.757C70.4841 112.452 71.2914 112.856 72.1738 112.856H157.926C158.808 112.856 159.625 112.452 160.169 111.757C160.723 111.044 160.902 110.133 160.676 109.26C160.169 107.345 159.916 105.365 159.916 103.393C159.916 90.6925 170.251 80.3571 182.952 80.3571C195.653 80.3571 205.988 90.6925 205.988 103.393C205.988 105.374 205.735 107.355 205.228 109.26C205.003 110.133 205.181 111.044 205.735 111.757C206.279 112.461 207.096 112.856 207.978 112.856H209.462C209.706 112.856 209.931 112.809 210.156 112.715C223.805 111.504 223.683 102.06 223.561 92.0724C223.561 91.5185 223.561 90.9365 223.542 90.3639C223.608 90.3639 223.674 90.3827 223.749 90.3827H226.631C227.579 90.3827 228.349 89.6129 228.349 88.6648V54.5048C228.349 53.5567 227.579 52.7869 226.631 52.7869L226.612 52.7963ZM223.955 86.9564V56.232H224.885V86.9564H223.955ZM209.405 103.393C209.405 88.7962 197.53 76.9214 182.933 76.9214C168.336 76.9214 156.461 88.7962 156.461 103.393C156.461 105.449 156.706 107.477 157.175 109.429H72.9341C73.3941 107.449 73.6288 105.421 73.6288 103.393C73.6288 88.7962 61.754 76.9214 47.1569 76.9214C32.5598 76.9214 20.685 88.7962 20.685 103.393C20.685 105.459 20.9196 107.486 21.3984 109.429H12.3116C9.93662 109.429 4.42633 108.124 4.42633 96.0338V76.3206C4.42633 75.8231 4.63285 75.3632 4.98017 75.044L31.959 50.7405C32.0998 50.6185 32.2124 50.4777 32.3063 50.3181C32.4377 50.0928 45.2419 27.5917 49.8322 19.8285C51.2497 18.58 61.8009 12.3093 64.1853 11.2016C80.1811 3.83267 93.2293 4.20816 107.066 4.6212C110.295 4.71507 113.628 4.81833 117.045 4.81833H207.556C217.61 4.81833 220.06 7.259 220.06 17.2658V88.7493C220.06 89.9039 220.079 91.0398 220.088 92.1381C220.219 102.717 220.294 108.547 209.396 109.345C209.246 109.354 209.105 109.382 208.964 109.439H208.701C209.161 107.467 209.396 105.44 209.396 103.403L209.405 103.393Z" fill="#010101" stroke="#010101" stroke-width="2" stroke-miterlimit="10"/>
<path d="M47.0909 84.2153C36.3707 84.2153 27.65 92.936 27.65 103.647C27.65 114.358 36.3707 123.088 47.0909 123.088C57.8111 123.088 66.5318 114.367 66.5318 103.647C66.5318 92.9267 57.8111 84.2153 47.0909 84.2153ZM63.3683 103.656C63.3683 112.63 56.0651 119.924 47.1003 119.924C38.1355 119.924 30.8323 112.621 30.8323 103.656C30.8323 94.6914 38.1355 87.3882 47.1003 87.3882C56.0651 87.3882 63.3683 94.6914 63.3683 103.656Z" fill="#010101" stroke="#010101" stroke-width="2" stroke-miterlimit="10"/>
<path d="M47.1004 93.8184C41.6746 93.8184 37.2626 98.2303 37.2626 103.647C37.2626 109.063 41.6746 113.485 47.1004 113.485C52.5262 113.485 56.9381 109.073 56.9381 103.647C56.9381 98.221 52.5262 93.8184 47.1004 93.8184ZM47.1004 110.096C43.552 110.096 40.6607 107.205 40.6607 103.656C40.6607 100.108 43.552 97.2165 47.1004 97.2165C50.6487 97.2165 53.54 100.108 53.54 103.656C53.54 107.205 50.6487 110.096 47.1004 110.096Z" fill="#010101" stroke="#010101" stroke-width="2" stroke-miterlimit="10"/>
<path d="M182.971 84.2153C172.251 84.2153 163.53 92.936 163.53 103.647C163.53 114.358 172.251 123.088 182.971 123.088C193.691 123.088 202.412 114.367 202.412 103.647C202.412 92.9267 193.691 84.2153 182.971 84.2153ZM199.239 103.656C199.239 112.63 191.935 119.924 182.971 119.924C174.006 119.924 166.703 112.621 166.703 103.656C166.703 94.6914 174.006 87.3882 182.971 87.3882C191.935 87.3882 199.239 94.6914 199.239 103.656Z" fill="#010101" stroke="#010101" stroke-width="2" stroke-miterlimit="10"/>
<path d="M182.971 93.8184C177.545 93.8184 173.133 98.2303 173.133 103.647C173.133 109.063 177.545 113.485 182.971 113.485C188.397 113.485 192.809 109.073 192.809 103.647C192.809 98.221 188.397 93.8184 182.971 93.8184ZM189.411 103.656C189.411 107.205 186.519 110.096 182.971 110.096C179.423 110.096 176.531 107.205 176.531 103.656C176.531 100.108 179.423 97.2165 182.971 97.2165C186.519 97.2165 189.411 100.108 189.411 103.656Z" fill="#010101" stroke="#010101" stroke-width="2" stroke-miterlimit="10"/>
<path d="M82.1147 29.8545H72.2957C70.2305 29.8545 68.5502 31.5348 68.5502 33.6V56.7207C68.5502 58.9267 70.5215 60.4662 72.2957 60.4662H82.1335C83.8982 60.4662 85.8602 58.8609 85.8602 56.7207V33.6C85.8602 31.5348 84.1799 29.8545 82.1147 29.8545ZM71.9765 33.6C71.9765 33.431 72.1173 33.2902 72.2863 33.2902H82.1053C82.2743 33.2902 82.4151 33.431 82.4151 33.6V56.7207C82.4151 56.8239 82.1804 57.0117 82.1053 57.0304H72.3238C72.2018 57.0023 71.9765 56.8239 71.9765 56.7207V33.6Z" fill="#010101" stroke="#010101" stroke-width="2" stroke-miterlimit="10"/>
<path d="M90.8635 18.2139C89.9154 18.2139 89.1456 18.9836 89.1456 19.9317V73.589C89.1456 74.5371 89.9154 75.3068 90.8635 75.3068C91.8116 75.3068 92.5813 74.5371 92.5813 73.589V19.9317C92.5813 18.9836 91.8116 18.2139 90.8635 18.2139Z" fill="#010101" stroke="#010101" stroke-width="2" stroke-miterlimit="10"/>
<path d="M73.2346 21.6496H83.307C84.2552 21.6496 85.0249 20.8798 85.0249 19.9317C85.0249 18.9836 84.2552 18.2139 83.307 18.2139H73.2346C72.2865 18.2139 71.5167 18.9836 71.5167 19.9317C71.5167 20.8798 72.2865 21.6496 73.2346 21.6496Z" fill="#010101" stroke="#010101" stroke-width="2" stroke-miterlimit="10"/>
<path d="M64.3729 24.7661C64.8892 23.9776 64.6639 22.9074 63.8753 22.3912C63.0868 21.8749 62.0167 22.1001 61.5004 22.8887L48.0297 43.4654C44.6879 48.5721 42.9231 54.486 42.9231 60.5877V72.6221C42.9231 73.5702 43.6928 74.3399 44.641 74.3399C45.5891 74.3399 46.3588 73.5702 46.3588 72.6221V60.5877C46.3588 55.1619 47.9265 49.8957 50.9022 45.3522L64.3729 24.7755V24.7661Z" fill="#010101" stroke="#010101" stroke-width="2" stroke-miterlimit="10"/>
</svg>
