<svg width="230" height="125" viewBox="0 0 230 125" fill="none" xmlns="http://www.w3.org/2000/svg">
<path d="M15.5218 77.625H13.0811C11.2976 77.625 9.85193 79.0706 9.85193 80.8542V88.2795C9.85193 90.063 11.2976 91.5087 13.0811 91.5087H15.5218C17.3054 91.5087 18.751 90.063 18.751 88.2795V80.8542C18.751 79.0706 17.3054 77.625 15.5218 77.625ZM15.3153 81.0607V88.073H13.297V81.0607H15.3153Z" fill="#010101" stroke="#010101" stroke-width="2" stroke-miterlimit="10"/>
<path d="M215.169 49.9046V23.8363C215.169 21.7711 213.489 20.0908 211.424 20.0908H99.8567C97.7915 20.0908 96.1112 21.7711 96.1112 23.8363V49.9046C96.1112 51.1718 97.2471 53.6501 99.8567 53.6501H211.433C213.235 53.6501 215.16 52.1481 215.16 49.9046H215.169ZM211.733 23.8363V49.9046C211.733 50.1768 211.414 50.2143 211.424 50.2143H99.8473C99.6877 50.2143 99.5845 49.9233 99.5469 49.7825V23.8363C99.5469 23.6673 99.6877 23.5265 99.8567 23.5265H211.424C211.593 23.5265 211.733 23.6673 211.733 23.8363Z" fill="#010101" stroke="#010101" stroke-width="2" stroke-miterlimit="10"/>
<path d="M226.612 52.7958H223.73C223.655 52.7958 223.589 52.8146 223.514 52.8146V17.2559C223.514 5.38107 219.487 1.37274 207.575 1.37274H117.063C113.703 1.37274 110.389 1.27886 107.169 1.18499C92.9477 0.771954 79.5052 0.368305 62.7772 8.08459C61.7164 8.57272 47.9923 16.2421 46.9973 17.9224C42.8012 25.0097 31.0203 45.6803 29.4808 48.3745L2.6897 72.4808C1.61017 73.4477 1 74.8464 1 76.3108V96.0239C1 106.397 5.13037 112.686 12.0206 112.855H22.1494C23.0318 112.855 23.8485 112.461 24.3929 111.757C24.9468 111.043 25.1251 110.133 24.8998 109.25C24.3929 107.335 24.1395 105.364 24.1395 103.383C24.1395 90.6826 34.4748 80.3473 47.1756 80.3473C59.8765 80.3473 70.2119 90.6826 70.2119 103.383C70.2119 105.364 69.9584 107.335 69.4515 109.25C69.2262 110.114 69.4139 111.053 69.949 111.757C70.4841 112.451 71.2914 112.855 72.1738 112.855H157.926C158.808 112.855 159.625 112.451 160.169 111.757C160.723 111.043 160.902 110.133 160.676 109.26C160.169 107.345 159.916 105.364 159.916 103.393C159.916 90.692 170.251 80.3567 182.952 80.3567C195.653 80.3567 205.988 90.692 205.988 103.393C205.988 105.374 205.735 107.354 205.228 109.26C205.003 110.133 205.181 111.043 205.735 111.757C206.279 112.461 207.096 112.855 207.978 112.855H209.462C209.706 112.855 209.931 112.808 210.156 112.714C223.805 111.503 223.683 102.06 223.561 92.0719C223.561 91.518 223.561 90.936 223.542 90.3634C223.608 90.3634 223.674 90.3822 223.749 90.3822H226.631C227.579 90.3822 228.349 89.6124 228.349 88.6643V54.5043C228.349 53.5562 227.579 52.7864 226.631 52.7864L226.612 52.7958ZM223.955 86.9559V56.2315H224.885V86.9559H223.955ZM209.405 103.393C209.405 88.7958 197.53 76.9209 182.933 76.9209C168.336 76.9209 156.461 88.7958 156.461 103.393C156.461 105.449 156.706 107.476 157.175 109.429H72.9341C73.3941 107.448 73.6288 105.42 73.6288 103.393C73.6288 88.7958 61.754 76.9209 47.1569 76.9209C32.5598 76.9209 20.685 88.7958 20.685 103.393C20.685 105.458 20.9196 107.486 21.3984 109.429H12.3116C9.93662 109.429 4.42633 108.124 4.42633 96.0333V76.3202C4.42633 75.8226 4.63285 75.3627 4.98017 75.0435L31.959 50.74C32.0998 50.618 32.2124 50.4772 32.3063 50.3176C32.4377 50.0923 45.2419 27.5912 49.8322 19.828C51.2497 18.5795 61.8009 12.3088 64.1853 11.2011C80.1811 3.83218 93.2293 4.20767 107.066 4.62071C110.295 4.71458 113.628 4.81784 117.045 4.81784H207.556C217.61 4.81784 220.06 7.25851 220.06 17.2653V88.7488C220.06 89.9034 220.079 91.0393 220.088 92.1376C220.219 102.717 220.294 108.546 209.396 109.344C209.246 109.354 209.105 109.382 208.964 109.438H208.701C209.161 107.467 209.396 105.439 209.396 103.402L209.405 103.393Z" fill="#010101" stroke="#010101" stroke-width="2" stroke-miterlimit="10"/>
<path d="M47.0909 84.2148C36.3707 84.2148 27.65 92.9356 27.65 103.646C27.65 114.357 36.3707 123.087 47.0909 123.087C57.8111 123.087 66.5318 114.367 66.5318 103.646C66.5318 92.9262 57.8111 84.2148 47.0909 84.2148ZM63.3683 103.656C63.3683 112.63 56.0651 119.924 47.1003 119.924C38.1355 119.924 30.8323 112.621 30.8323 103.656C30.8323 94.691 38.1355 87.3877 47.1003 87.3877C56.0651 87.3877 63.3683 94.691 63.3683 103.656Z" fill="#010101" stroke="#010101" stroke-width="2" stroke-miterlimit="10"/>
<path d="M47.1004 93.8174C41.6746 93.8174 37.2626 98.2294 37.2626 103.646C37.2626 109.062 41.6746 113.484 47.1004 113.484C52.5262 113.484 56.9381 109.072 56.9381 103.646C56.9381 98.22 52.5262 93.8174 47.1004 93.8174ZM47.1004 110.095C43.552 110.095 40.6607 107.204 40.6607 103.655C40.6607 100.107 43.552 97.2156 47.1004 97.2156C50.6487 97.2156 53.54 100.107 53.54 103.655C53.54 107.204 50.6487 110.095 47.1004 110.095Z" fill="#010101" stroke="#010101" stroke-width="2" stroke-miterlimit="10"/>
<path d="M182.971 84.2148C172.251 84.2148 163.53 92.9356 163.53 103.646C163.53 114.357 172.251 123.087 182.971 123.087C193.691 123.087 202.412 114.367 202.412 103.646C202.412 92.9262 193.691 84.2148 182.971 84.2148ZM199.239 103.656C199.239 112.63 191.935 119.924 182.971 119.924C174.006 119.924 166.703 112.621 166.703 103.656C166.703 94.691 174.006 87.3877 182.971 87.3877C191.935 87.3877 199.239 94.691 199.239 103.656Z" fill="#010101" stroke="#010101" stroke-width="2" stroke-miterlimit="10"/>
<path d="M182.971 93.8174C177.545 93.8174 173.133 98.2294 173.133 103.646C173.133 109.062 177.545 113.484 182.971 113.484C188.397 113.484 192.809 109.072 192.809 103.646C192.809 98.22 188.397 93.8174 182.971 93.8174ZM189.411 103.655C189.411 107.204 186.519 110.095 182.971 110.095C179.423 110.095 176.531 107.204 176.531 103.655C176.531 100.107 179.423 97.2156 182.971 97.2156C186.519 97.2156 189.411 100.107 189.411 103.655Z" fill="#010101" stroke="#010101" stroke-width="2" stroke-miterlimit="10"/>
<path d="M82.1147 29.8535H72.2957C70.2305 29.8535 68.5502 31.5338 68.5502 33.599V56.7197C68.5502 58.9257 70.5215 60.4652 72.2957 60.4652H82.1335C83.8982 60.4652 85.8602 58.86 85.8602 56.7197V33.599C85.8602 31.5338 84.1799 29.8535 82.1147 29.8535ZM71.9765 33.599C71.9765 33.43 72.1173 33.2892 72.2863 33.2892H82.1053C82.2743 33.2892 82.4151 33.43 82.4151 33.599V56.7197C82.4151 56.8229 82.1804 57.0107 82.1053 57.0295H72.3238C72.2018 57.0013 71.9765 56.8229 71.9765 56.7197V33.599Z" fill="#010101" stroke="#010101" stroke-width="2" stroke-miterlimit="10"/>
<path d="M90.8635 18.2129C89.9154 18.2129 89.1456 18.9826 89.1456 19.9307V73.588C89.1456 74.5361 89.9154 75.3059 90.8635 75.3059C91.8116 75.3059 92.5813 74.5361 92.5813 73.588V19.9307C92.5813 18.9826 91.8116 18.2129 90.8635 18.2129Z" fill="#010101" stroke="#010101" stroke-width="2" stroke-miterlimit="10"/>
<path d="M73.2346 21.6486H83.307C84.2552 21.6486 85.0249 20.8789 85.0249 19.9307C85.0249 18.9826 84.2552 18.2129 83.307 18.2129H73.2346C72.2865 18.2129 71.5167 18.9826 71.5167 19.9307C71.5167 20.8789 72.2865 21.6486 73.2346 21.6486Z" fill="#010101" stroke="#010101" stroke-width="2" stroke-miterlimit="10"/>
<path d="M64.3729 24.7659C64.8892 23.9773 64.6639 22.9072 63.8753 22.3909C63.0868 21.8746 62.0167 22.0999 61.5004 22.8884L48.0297 43.4652C44.6879 48.5718 42.9231 54.4858 42.9231 60.5874V72.6218C42.9231 73.5699 43.6928 74.3397 44.641 74.3397C45.5891 74.3397 46.3588 73.5699 46.3588 72.6218V60.5874C46.3588 55.1616 47.9265 49.8954 50.9022 45.352L64.3729 24.7753V24.7659Z" fill="#010101" stroke="#010101" stroke-width="2" stroke-miterlimit="10"/>
</svg>
