<svg width="169" height="145" viewBox="0 0 169 145" fill="none" xmlns="http://www.w3.org/2000/svg">
<path d="M134.302 53.9186C134.191 53.4404 134.079 52.9621 133.96 52.4839C133.76 51.6789 133.553 50.8659 133.338 50.0609C133.123 49.2638 132.908 48.4827 132.676 47.7016C132.581 47.3748 132.485 47.048 132.382 46.7212C132.238 46.2509 132.103 45.7727 131.951 45.3104C131.855 44.9996 131.76 44.6967 131.656 44.3938C131.489 43.8677 131.321 43.3497 131.146 42.8316C131.074 42.6164 131.003 42.4012 130.923 42.178C130.684 41.4766 130.445 40.7831 130.19 40.0977C130.19 40.0737 130.174 40.0578 130.166 40.0339C123.287 21.0241 112.559 6.52566 101.998 2.63603C101.83 2.57226 101.663 2.54038 101.488 2.51647C99.766 1.91868 98.0603 1.59985 96.3864 1.59985C95.1829 1.59985 93.9953 1.75129 92.8555 2.06215C85.7059 3.98305 80.6685 11.5073 78.6679 23.2559C78.5005 24.2522 78.357 25.2804 78.2375 26.3245L19.6778 62.1363L19.6299 61.945C19.4546 61.2994 19.0481 60.7653 18.4742 60.4385C17.9083 60.1117 17.2149 60.0161 16.5852 60.1835L2.3418 63.9934C1.70415 64.1688 1.16216 64.5753 0.835363 65.1491C0.5006 65.723 0.412923 66.3925 0.588276 67.0382L9.86601 101.702C10.0414 102.348 10.4479 102.882 11.0217 103.209C11.3964 103.432 11.8268 103.543 12.2651 103.543C12.4804 103.543 12.6956 103.511 12.9108 103.456L27.1542 99.6457C28.4773 99.295 29.2664 97.9241 28.9156 96.601L28.8599 96.4097L32.5662 96.5053L58.2473 143.069C58.6857 143.858 59.5226 144.353 60.4233 144.353C60.758 144.353 61.0848 144.289 61.3957 144.153L74.292 138.646C74.9377 138.367 75.4398 137.833 75.671 137.163C75.8941 136.502 75.8304 135.768 75.4876 135.147L54.2859 97.0473L97.7096 98.1473C104.365 106.987 111.841 112.319 118.736 112.319C119.947 112.319 121.143 112.16 122.291 111.857C129.432 109.936 134.47 102.412 136.462 90.6629C138.2 80.4287 137.491 67.8272 134.502 54.7396C134.438 54.4686 134.374 54.1896 134.31 53.9106L134.302 53.9186ZM23.4558 95.4931L14.0107 98.0197L6.01623 68.154L15.4613 65.6274L15.6925 66.4802C15.7005 66.528 15.7084 66.5838 15.7164 66.6317L23.1768 94.4808C23.1768 94.4808 23.2008 94.5525 23.2167 94.5924L23.4558 95.4851V95.4931ZM86.5906 62.5667C83.0278 49.2957 81.9358 36.0566 83.514 25.2804C85.0204 14.9824 88.9021 8.26324 94.1467 6.85245C94.872 6.66116 95.6213 6.55754 96.3944 6.55754C96.6096 6.55754 96.8248 6.57348 97.0321 6.58942C91.1817 16.8635 90.1933 35.0284 94.4576 54.5005C94.872 56.4373 95.3104 58.2626 95.7966 60.032C95.7966 60.0559 95.8046 60.0799 95.8126 60.1038C95.8205 60.1436 95.8365 60.1755 95.8444 60.2154C96.0198 60.861 96.2031 61.5385 96.4024 62.2239C96.4183 62.2877 96.4422 62.3594 96.4582 62.4232C96.8169 63.6746 97.2154 64.9897 97.6697 66.4085C97.6856 66.4722 97.7175 66.5201 97.7414 66.5838C103.815 85.1552 113.603 99.9885 123.63 105.847C122.801 106.405 121.924 106.819 120.992 107.074C115.237 108.621 108.039 104.03 101.185 94.6163C95.0554 86.1994 89.8745 74.8254 86.5906 62.5826V62.5667ZM129.807 56.5967C133.944 75.6145 132.684 93.5403 127.145 102.101C118.441 97.7009 109.299 84.2785 103.377 67.6678C104.142 67.5164 104.923 67.349 105.72 67.1418C109.944 66.002 113.746 64.1608 116.408 61.9609C119.613 59.3227 120.96 56.3417 120.218 53.5759C119.262 50.0449 115.109 47.9327 109.099 47.9327C106.509 47.9327 103.664 48.3313 100.89 49.0805C100.117 49.2797 99.3515 49.5189 98.5863 49.7819C95.4061 32.422 96.6176 16.2179 101.974 8.04804C105.848 9.99285 109.96 13.8267 113.962 19.3264C115.085 20.8727 116.177 22.5146 117.229 24.2442C117.309 24.3797 117.389 24.5152 117.477 24.6507C117.692 25.0014 117.899 25.3601 118.106 25.7188C118.29 26.0296 118.465 26.3484 118.648 26.6593C118.728 26.8028 118.808 26.9383 118.887 27.0817C121.9 32.5177 124.61 38.7586 126.786 45.4379C126.842 45.5973 126.89 45.7568 126.938 45.9162C127.089 46.3785 127.233 46.8408 127.376 47.311C127.464 47.6139 127.559 47.9088 127.647 48.2117C127.751 48.5704 127.862 48.929 127.966 49.2877C128.165 49.9732 128.356 50.6666 128.54 51.3521C128.556 51.3999 128.564 51.4477 128.58 51.5035C128.715 52.0137 128.843 52.5158 128.97 53.0259C129.01 53.1933 129.058 53.3607 129.098 53.5281C129.225 54.0302 129.345 54.5323 129.464 55.0345C129.52 55.2656 129.568 55.4968 129.624 55.7359C129.687 56.0228 129.751 56.3098 129.815 56.6047L129.807 56.5967ZM100.627 58.8205C100.26 57.4416 99.9174 56.0627 99.5986 54.6838C100.443 54.3729 101.304 54.094 102.165 53.8708C104.54 53.2331 106.939 52.8904 109.099 52.8904C113.093 52.8904 115.197 54.0382 115.42 54.8591C115.58 55.4569 114.974 56.6924 113.252 58.1111C111.116 59.8726 107.992 61.3711 104.453 62.3276C103.528 62.5667 102.643 62.758 101.798 62.9094C101.384 61.5624 100.985 60.1994 100.619 58.8205H100.627ZM34.1603 91.5795H34.1204C34.1204 91.5795 34.1204 91.5795 34.1125 91.5795L27.5128 91.4121L21.0168 67.1418L77.3368 32.701C77.026 42.2975 78.4128 53.3208 81.2822 64.0093C84.1516 74.7138 88.4637 84.948 93.525 93.086L34.1603 91.5795ZM48.7145 97.2864L69.7967 135.171L61.4993 138.709L38.3687 96.7683L48.7145 97.2864Z" fill="#010101" stroke="#010101" stroke-miterlimit="10"/>
<path d="M75.4717 62.9815L32.8133 74.4272C31.4902 74.7779 30.7011 76.1489 31.0518 77.472C31.3467 78.556 32.3271 79.3132 33.4509 79.3132C33.6582 79.3132 33.8734 79.2813 34.0965 79.2255L76.755 67.7798C77.3926 67.6044 77.9346 67.1979 78.2614 66.6241C78.5962 66.0502 78.6839 65.3807 78.5085 64.735C78.1498 63.4199 76.7869 62.6308 75.4638 62.9815H75.4717Z" fill="#010101" stroke="#010101" stroke-miterlimit="10"/>
<path d="M149.12 45.199L163.22 41.429C164.543 41.0783 165.332 39.7073 164.973 38.3842C164.614 37.0691 163.259 36.28 161.928 36.6307L147.828 40.4008C147.191 40.5761 146.649 40.9826 146.322 41.5565C145.987 42.1304 145.899 42.7999 146.075 43.4455C146.37 44.5295 147.358 45.2867 148.474 45.2867C148.681 45.2867 148.896 45.2548 149.12 45.199Z" fill="#010101" stroke="#010101" stroke-miterlimit="10"/>
<path d="M165.985 57.6172H151.415C150.044 57.6172 148.928 58.7331 148.928 60.104C148.928 61.4749 150.044 62.5908 151.415 62.5908H165.985C167.356 62.5908 168.472 61.4749 168.472 60.104C168.472 58.7331 167.356 57.6172 165.985 57.6172Z" fill="#010101" stroke="#010101" stroke-miterlimit="10"/>
<path d="M164.463 78.9544L150.379 75.1844C149.056 74.8337 147.701 75.6227 147.342 76.9459C146.991 78.269 147.78 79.6319 149.104 79.9906L163.188 83.7607C163.403 83.8165 163.61 83.8484 163.825 83.8484C164.949 83.8484 165.937 83.0912 166.224 82.0072C166.4 81.3695 166.304 80.7 165.977 80.1181C165.642 79.5443 165.108 79.1298 164.471 78.9624L164.463 78.9544Z" fill="#010101" stroke="#010101" stroke-miterlimit="10"/>
<path d="M130.038 15.7796C130.7 15.7796 131.329 15.5245 131.8 15.0542L142.106 4.74831C142.576 4.27805 142.831 3.65634 142.831 2.98681C142.831 2.31729 142.576 1.69558 142.106 1.22532C141.635 0.755058 141.014 0.5 140.344 0.5C139.675 0.5 139.053 0.755058 138.583 1.22532L128.277 11.5313C127.304 12.5037 127.304 14.0739 128.277 15.0463C128.747 15.5165 129.369 15.7716 130.038 15.7716V15.7796Z" fill="#010101" stroke="#010101" stroke-miterlimit="10"/>
<path d="M155.99 18.3139C155.305 17.1263 153.782 16.7198 152.595 17.4053L139.961 24.6904C138.774 25.3759 138.367 26.8982 139.053 28.0859C139.499 28.851 140.32 29.3293 141.205 29.3293C141.635 29.3293 142.066 29.2177 142.44 28.9945L155.074 21.7094C156.261 21.0239 156.668 19.5016 155.982 18.3139H155.99Z" fill="#010101" stroke="#010101" stroke-miterlimit="10"/>
</svg>
