<svg width="99" height="158" viewBox="0 0 99 158" fill="none" xmlns="http://www.w3.org/2000/svg">
<path d="M86.9566 139.742V134.741C86.9566 132.221 86.5615 129.681 85.8009 127.21C85.7713 127.033 85.712 126.855 85.633 126.698C84.9415 124.601 84.013 122.543 82.8079 120.584C79.8347 115.75 77.8196 110.867 76.8022 106.073C76.0713 102.608 72.7721 100.097 68.9593 100.097H67.0232C63.9512 87.2105 62.5091 73.5755 62.6177 58.5327H67.1319C72.13 58.5327 76.1898 54.4866 76.1898 49.5051C76.1898 44.5237 72.13 40.4775 67.1319 40.4775H65.9268L76.0713 12.1836C76.4664 11.081 75.8935 9.87012 74.7872 9.47633C69.3643 7.53692 64.86 7.55661 61.3632 9.5354C59.7038 4.58349 55.0118 1 49.4901 1C43.9684 1 39.2765 4.58349 37.617 9.5354C34.1203 7.55661 29.616 7.53692 24.1931 9.47633C23.0868 9.87012 22.5138 11.081 22.909 12.1836L33.0535 40.4775H31.8484C26.8502 40.4775 22.7904 44.5237 22.7904 49.5051C22.7904 54.4866 26.8502 58.5327 31.8484 58.5327H36.3526C36.4613 73.5854 35.0191 87.2302 31.9471 100.097H30.0111C26.1983 100.097 22.8991 102.608 22.1681 106.073C21.1507 110.867 19.1356 115.75 16.1624 120.584C14.9475 122.553 14.0091 124.621 13.3275 126.727C13.2584 126.875 13.209 127.023 13.1793 127.19C12.4187 129.671 12.0236 132.211 12.0236 134.741V139.742C5.63269 141.829 1 147.825 1 154.883C1 156.055 1.94827 157 3.12373 157H95.8763C97.0517 157 98 156.055 98 154.883C98 147.825 93.3673 141.829 86.9764 139.742H86.9566ZM27.6404 12.8236C33.4486 11.2878 36.0267 13.1977 37.4886 14.8614C38.0714 15.5309 39.0098 15.7573 39.8395 15.4521C40.6692 15.1371 41.2224 14.3495 41.2224 13.4635C41.2224 8.92503 44.9266 5.23324 49.4802 5.23324C54.0339 5.23324 57.7381 8.92503 57.7381 13.4635C57.7381 14.3495 58.2912 15.1371 59.121 15.4521C59.9507 15.7573 60.8891 15.5309 61.4719 14.8614C62.9338 13.1977 65.502 11.2878 71.3201 12.8236L61.4126 40.4775H37.5775L27.6701 12.8236H27.6404ZM27.028 49.5051C27.028 46.8667 29.1814 44.7206 31.8286 44.7206H62.8844H67.1121C69.7594 44.7206 71.9127 46.8667 71.9127 49.5051C71.9127 52.1435 69.7594 54.2897 67.1121 54.2897H31.8187C29.1715 54.2897 27.0181 52.1435 27.0181 49.5051H27.028ZM40.5902 58.5327H58.3604C58.2517 73.5165 59.6643 87.1712 62.6572 100.097H36.2934C39.2864 87.1908 40.6989 73.546 40.5902 58.5327ZM26.3168 106.949C26.6329 105.433 28.1837 104.34 29.9913 104.34H33.5967C33.5967 104.34 33.6165 104.34 33.6264 104.34C33.6363 104.34 33.6461 104.34 33.6659 104.34H65.2946C65.2946 104.34 65.3144 104.34 65.3341 104.34C65.3341 104.34 65.3539 104.34 65.3637 104.34H68.9691C70.7768 104.34 72.3276 105.443 72.6437 106.949C73.7599 112.226 75.9626 117.552 79.1828 122.799C79.7162 123.675 80.1903 124.571 80.6151 125.477H18.3454C18.7603 124.571 19.2344 123.675 19.7777 122.799C23.0077 117.552 25.2105 112.226 26.3168 106.949ZM16.2513 134.741C16.2513 133.067 16.4686 131.384 16.8736 129.72H82.077C82.482 131.384 82.6993 133.067 82.6993 134.741V138.984C82.4622 138.974 82.235 138.945 81.9881 138.945H16.9526C16.7156 138.945 16.4785 138.974 16.2414 138.984V134.741H16.2513ZM5.41538 152.757C6.42291 147.323 11.2136 143.188 16.9526 143.188H81.9881C87.7271 143.188 92.5178 147.323 93.5253 152.757H5.41538Z" fill="#010101" stroke="#010101" stroke-width="2" stroke-miterlimit="10"/>
</svg>
