<svg width="170" height="156" viewBox="0 0 170 156" fill="none" xmlns="http://www.w3.org/2000/svg">
<path d="M168.088 56.9081C167.51 49.7067 164.132 44.3561 158.071 41.0053C155.343 39.4966 152.238 38.7686 148.493 38.7774C143.291 38.7861 138.081 38.7774 132.88 38.7774C123.889 38.7774 114.6 38.7774 105.46 38.8212C103.662 38.8212 102.671 38.5405 102.171 36.9441C102.004 36.4178 101.653 35.9793 101.346 35.5933L101.127 35.3126C99.2496 32.8391 96.7673 30.8743 93.7587 29.4796C93.6359 29.4182 93.3113 29.2691 93.1359 29.1638C93.2324 29.0235 93.4078 28.8042 93.5043 28.6901C97.4778 23.8132 101.443 18.9275 105.407 14.033L105.767 13.5944C107.916 10.9454 110.135 8.19991 112.275 5.4632C113.135 4.36676 113.652 3.52469 113.556 2.7528C113.477 2.14757 113.065 1.75285 112.705 1.47216C111.302 0.375723 110.328 1.34059 109.118 2.8142C107.662 4.58605 106.223 6.3842 104.784 8.17359L103.32 9.98929C98.8198 15.5767 94.3288 21.1642 89.8378 26.7516L89.715 26.9095C89.215 27.5411 88.9782 27.7779 88.4695 27.6639C86.452 27.2253 84.4258 27.313 82.461 27.4007L81.5487 27.4358C80.4874 27.4797 79.7681 27.1464 78.9787 26.2604C73.9351 20.6028 68.8651 14.9803 63.7864 9.35775L61.0673 6.34035C60.541 5.75266 60.0059 5.21759 59.4884 4.74393C58.5674 3.91064 57.5762 3.8317 56.7517 4.54219C55.7781 5.39302 55.664 6.48069 56.4447 7.4631L56.6815 7.76133C56.971 8.12973 57.2604 8.49814 57.5762 8.84023C62.8303 14.6206 68.0845 20.4011 73.3825 26.2254L75.8122 28.8919C75.4262 29.0849 75.0315 29.2866 74.6368 29.4708C70.4528 31.4444 67.6722 34.0144 66.146 37.3301C65.5758 38.5669 64.9092 38.7423 63.6198 38.7686C52.0502 38.7423 40.4893 38.7598 28.9197 38.7774H23.8761C21.9464 38.7861 20.2184 38.8212 18.5869 38.8826C11.096 39.1721 3.75425 45.2332 1.85961 52.689C1.28069 54.9696 1.01754 57.4344 1.01754 60.443V92.0994L1 115.791C1 116.677 1 117.563 1.03509 118.449C1.5526 128.448 9.0961 136.255 18.9816 137.001C19.3588 137.027 19.7535 137.001 20.1394 136.966C20.9464 136.895 21.4815 136.869 21.7008 137.167C21.9814 137.545 21.7709 138.115 21.4288 138.948C21.2885 139.29 21.1481 139.632 21.0604 139.957C20.578 141.755 20.0517 143.535 19.5254 145.325C19.043 146.974 18.5518 148.632 18.0957 150.29C17.7711 151.465 17.8325 152.351 18.2711 152.982C18.7184 153.631 19.5166 153.991 20.7622 154.105C21.3323 154.158 21.9025 154.158 22.4551 154.149C22.92 154.149 23.3849 154.14 23.8498 154.167C23.9901 154.175 24.1392 154.184 24.2708 154.184C26.0076 154.184 27.3057 153.403 28.3145 151.737C29.7179 149.439 31.1915 147.132 32.6125 144.904C33.9633 142.799 35.3141 140.685 36.6211 138.553C37.2439 137.536 37.8754 137.194 39.121 137.194H39.1297C63.8566 137.229 88.5835 137.229 113.31 137.22H127.406H127.976C128.669 137.22 129.362 137.22 130.055 137.202C130.704 137.185 131.108 137.422 131.494 138.062C133.537 141.413 135.625 144.746 137.704 148.07L138.678 149.623C139.107 150.307 139.432 150.886 139.713 151.368C141.362 154.254 141.686 154.237 147.01 154.123H147.186C148.282 154.096 149.37 153.974 149.949 153.237C150.528 152.491 150.37 151.36 150.116 150.246C149.826 149 149.467 147.763 149.116 146.562C148.958 146.018 148.8 145.483 148.642 144.939L148.054 142.878C147.589 141.246 147.125 139.615 146.703 137.974C146.66 137.816 146.572 137.439 146.546 137.238C146.73 137.202 147.098 137.194 147.353 137.176L147.975 137.159C149.081 137.124 150.23 137.08 151.352 136.922C158.834 135.834 164.027 131.703 166.79 124.642C168.001 121.545 168.097 118.379 168.097 115.142C168.097 102.862 168.115 90.5819 168.124 78.293L168.141 62.6622C168.141 62.092 168.15 61.5219 168.167 60.943C168.194 59.6185 168.22 58.2501 168.115 56.9081H168.088ZM70.1458 38.7949C72.6544 34.0846 78.9699 31.1374 85.8731 31.5409C90.9079 31.8391 96.5831 35.1635 98.1269 38.5844C94.0745 38.9002 75.5666 39.0493 70.1458 38.8037V38.7949ZM163.948 59.8115L163.904 116.028C163.904 118.142 163.79 120.624 162.966 122.984C160.913 128.87 156.054 132.518 149.975 132.747C144.739 132.939 139.634 132.966 133.967 132.975C122.117 132.992 110.267 132.992 98.4076 132.983H85.1275L73.286 132.948C56.7605 132.948 40.2437 132.948 23.7182 132.948C22.9902 132.948 22.2621 132.913 21.5341 132.878C20.7973 132.843 20.0693 132.808 19.3324 132.808C12.8678 132.799 5.67521 127.08 5.26295 118.598C5.19278 117.247 5.18401 115.905 5.18401 114.897C5.18401 96.8886 5.17524 78.8807 5.18401 60.8728C5.18401 59.4869 5.20155 57.9957 5.31558 56.5309C5.81556 50.0926 11.1399 43.2947 19.1746 43.0579C20.1921 43.0316 21.2095 42.9965 22.227 43.0052C61.6988 43.1807 100.758 43.1017 137.081 42.9877C138.941 42.9877 140.818 43.0228 142.686 43.0666C145.028 43.1193 147.44 43.1807 149.826 43.128C156.203 42.9789 163.22 48.1541 163.869 56.987C163.939 57.9431 163.939 58.9255 163.939 59.7939L163.948 59.8115ZM32.5336 137.097L32.4634 137.211C32.1388 137.755 31.8845 138.194 31.6213 138.615L25.5076 148.456C24.8936 149.439 24.3673 150.035 23.4551 150.176C22.6568 150.298 22.5165 150.149 22.5165 150.14C22.5165 150.14 22.3849 149.983 22.5954 149.246C23.0603 147.588 23.6042 145.921 24.1217 144.307L24.6041 142.799C24.7796 142.246 24.9638 141.702 25.148 141.158C25.5251 140.062 25.9023 138.922 26.2005 137.773C26.3497 137.211 26.5075 137.071 27.104 137.071C27.1303 137.071 27.1479 137.071 27.1742 137.071C28.5425 137.088 29.9197 137.088 31.4547 137.088H32.5423L32.5336 137.097ZM145.59 149.947C145.063 150.298 144.388 150.035 143.905 149.754C143.563 149.553 143.274 149.132 143.081 148.825C142.563 148.009 142.046 147.202 141.528 146.395C139.678 143.509 137.765 140.527 136.143 137.404C136.099 137.316 136.064 137.255 136.064 137.176H137.221C138.502 137.176 139.8 137.185 141.09 137.176C141.748 137.159 141.941 137.308 142.107 137.887C142.642 139.737 143.212 141.579 143.774 143.421C144.326 145.211 144.87 147 145.397 148.798C145.432 148.921 145.475 149.044 145.528 149.176C145.765 149.807 145.721 149.877 145.581 149.965L145.59 149.947Z" fill="#010101" stroke="#010101" stroke-width="2" stroke-miterlimit="10"/>
<path d="M107.854 53.9258C102.311 50.9873 96.2409 48.9962 89.8289 47.9875C76.1103 45.8472 62.4443 45.8648 49.2081 48.0314C41.4716 49.3032 34.5158 51.847 28.5161 55.5924C21.3673 60.0571 16.5342 66.3463 14.1571 74.2932C11.9643 81.6087 11.6485 89.2925 13.2186 97.143C15.1395 106.739 20.1656 114.361 28.1565 119.8C32.244 122.589 36.9981 124.712 42.6908 126.3C50.4098 128.449 58.4182 129.51 67.0493 129.51C68.3124 129.51 69.593 129.484 70.8912 129.44C71.4526 129.44 72.0929 129.448 72.7771 129.457C74.4525 129.484 76.5401 129.519 78.5838 129.413C88.8728 128.905 97.8198 126.756 105.933 122.835C115.942 117.993 122.468 110.379 125.336 100.204C127.248 93.4239 127.503 86.0909 126.099 78.4071C124.108 67.5129 117.968 59.2677 107.863 53.917L107.854 53.9258ZM121.801 97.3448C119.389 107.336 113.424 114.668 104.091 119.142C97.1093 122.484 89.364 124.457 80.3995 125.159C77.9962 125.352 75.584 125.414 73.6543 125.457C72.9174 125.475 72.2508 125.493 71.7245 125.519C60.383 125.361 51.6465 124.747 43.1645 122.159C37.9279 120.563 33.8755 118.712 30.3932 116.335C22.4199 110.888 17.9201 103.23 16.6219 92.9327C15.9728 87.8014 16.2711 82.5911 17.5078 77.4422C19.5341 68.9953 24.49 62.5131 32.244 58.1975C37.9191 55.031 44.4539 52.9259 52.1992 51.7592C58.1638 50.8645 64.1109 50.4084 70.0053 50.4084C76.7769 50.4084 83.4696 51.0049 90.0394 52.189C98.2846 53.6714 105.056 56.4432 110.74 60.6536C116.31 64.7762 119.959 70.2584 121.591 76.9686C123.301 83.9945 123.371 90.8538 121.801 97.3448Z" fill="#010101" stroke="#010101" stroke-width="2" stroke-miterlimit="10"/>
<path d="M134.476 50.1102V49.9173C134.476 49.6717 134.476 49.4261 134.458 49.1805C134.327 47.5753 133.862 47.0928 132.371 47.049C131.757 47.0314 131.283 47.1806 130.95 47.5051C130.485 47.9612 130.441 48.6366 130.45 49.1629C130.459 49.6541 130.45 50.1453 130.45 50.6365L130.406 95.1432C130.406 104.976 130.406 114.8 130.406 124.633C130.406 125.44 130.441 126.238 130.467 127.045V127.291C130.52 128.44 131.213 129.027 132.529 129.045H132.573C133.669 129.045 134.344 128.44 134.406 127.37L134.432 126.94C134.485 126.142 134.537 125.317 134.537 124.493C134.52 102.45 134.502 80.4158 134.476 58.373V50.1102Z" fill="#010101" stroke="#010101" stroke-width="2" stroke-miterlimit="10"/>
<path d="M148.045 105.721C148.045 105.721 148.001 105.721 147.975 105.721C144.203 105.721 141.107 108.713 141.054 112.414C141.028 114.177 141.756 115.949 143.046 117.274C144.326 118.589 146.063 119.352 147.8 119.379C147.826 119.379 147.852 119.379 147.879 119.379C151.615 119.379 154.852 116.388 154.957 112.809C155.01 111.055 154.291 109.274 152.992 107.923C151.668 106.546 149.861 105.739 148.045 105.721ZM147.879 115.265C147.221 115.265 146.58 114.984 146.08 114.467C145.537 113.914 145.23 113.151 145.247 112.397C145.273 111.151 146.703 109.73 147.94 109.721H147.949C148.589 109.721 149.291 110.055 149.843 110.616C150.396 111.177 150.712 111.888 150.694 112.519C150.659 114.011 149.37 115.265 147.879 115.265Z" fill="#010101" stroke="#010101" stroke-width="2" stroke-miterlimit="10"/>
<path d="M160.124 77.4072C159.694 77.0212 159.115 77.0212 158.764 77.0212H139.914C139.449 77.0212 138.59 77.0212 138.072 77.6703C137.783 78.0387 137.721 78.4861 137.704 78.7931C137.651 79.6176 137.879 80.2667 138.362 80.6614C138.897 81.1088 139.599 81.1088 140.063 81.1088L157.492 81.1263C157.598 81.1263 157.729 81.1263 157.87 81.1351C158.08 81.1438 158.308 81.1526 158.528 81.1526C159.08 81.1526 159.641 81.0912 160.019 80.8105C160.817 80.2053 160.703 78.7931 160.598 78.3019C160.51 77.9072 160.352 77.6177 160.124 77.4072Z" fill="#010101" stroke="#010101" stroke-width="2" stroke-miterlimit="10"/>
<path d="M159.843 68.5305C159.413 68.2323 158.922 68.1797 158.501 68.1709H158.238L139.633 68.2586C139.335 68.2586 138.932 68.2586 138.555 68.4779C137.879 68.8551 137.625 69.7147 137.862 70.8199C137.932 71.162 138.037 71.5304 138.309 71.8198C138.791 72.3286 139.519 72.3374 139.914 72.3374C143.291 72.3549 146.694 72.3725 150.089 72.3725C152.642 72.3725 155.203 72.3724 157.738 72.3549C158.878 72.3549 160.448 72.3374 160.606 70.3111C160.659 69.5831 160.369 68.9077 159.843 68.5393V68.5305Z" fill="#010101" stroke="#010101" stroke-width="2" stroke-miterlimit="10"/>
<path d="M159.466 59.6538C159.018 59.4345 158.545 59.4345 158.159 59.4345L139.432 59.3818C139.169 59.3818 138.818 59.3818 138.476 59.5573C137.932 59.8467 137.642 60.4607 137.669 61.294C137.695 62.2764 138.09 63.0308 138.756 63.3641C139.169 63.5658 139.598 63.5658 139.949 63.5746L156.624 63.6185H157.054C157.229 63.6272 157.413 63.636 157.598 63.636C158.483 63.636 159.44 63.5483 160.045 62.9255C160.413 62.5396 160.589 62.0133 160.553 61.3642C160.51 60.6274 160.089 59.9608 159.475 59.6625L159.466 59.6538Z" fill="#010101" stroke="#010101" stroke-width="2" stroke-miterlimit="10"/>
</svg>
