<svg width="172" height="158" viewBox="0 0 172 158" fill="none" xmlns="http://www.w3.org/2000/svg">
<path d="M167.378 23.9024H139.432V18.7009H153.624C155.063 18.7009 156.291 17.4641 156.291 16.0256V3.41216C156.291 1.97364 155.054 1 153.624 1H120.073C118.635 1 117.573 1.97364 117.573 3.41216V16.0168C117.573 17.4553 118.635 18.6921 120.073 18.6921H134.222V23.8936H88.0046V18.6921H102.241C103.679 18.6921 104.863 17.4553 104.863 16.0168V3.41216C104.863 1.97364 103.67 1 102.241 1H68.6897C67.2512 1 66.146 1.97364 66.146 3.41216V16.0168C66.146 17.4553 67.2512 18.6921 68.6897 18.6921H82.7943V23.8936H36.7877V18.6921H50.8572C52.2958 18.6921 53.4361 17.4553 53.4361 16.0168V3.41216C53.4361 1.97364 52.2958 1 50.8572 1H17.3325C15.894 1 14.7449 1.97364 14.7449 3.41216V16.0168C14.7449 17.4553 15.894 18.6921 17.3325 18.6921H31.6038V23.8936H3.57005C2.13152 23.8936 1 24.8936 1 26.3321V109.644C1 111.082 2.13152 112.31 3.57005 112.31H71.1545V140.774H39.6297C38.1912 140.774 37.0158 141.835 37.0158 143.274V154.01C37.0158 155.449 38.1912 156.808 39.6297 156.808H131.327C132.766 156.808 134.02 155.449 134.02 154.01V143.274C134.02 141.835 132.766 140.774 131.327 140.774H99.8812V112.31H167.387C168.825 112.31 170.036 111.082 170.036 109.644V26.3321C170.036 24.8936 168.825 23.8936 167.387 23.8936L167.378 23.9024ZM122.775 6.2015H151.089V13.4906H122.775V6.2015ZM71.365 6.2015H99.6794V13.4906H71.365V6.2015ZM19.9465 6.2015H48.2609V13.4906H19.9465V6.2015ZM128.818 151.598H42.2173V145.975H128.818V151.598ZM76.356 140.774V112.512H94.6709V140.774H76.356ZM164.825 107.109H6.2015V29.1039H164.825V107.109Z" fill="#010101" stroke="#010101" stroke-width="2" stroke-miterlimit="10"/>
<path d="M61.348 50.1644C60.5498 48.9627 58.9358 48.6382 57.7429 49.4364L24.8849 71.216C23.6832 72.0142 23.3586 73.6282 24.1568 74.8211C24.6568 75.5754 25.4813 75.9877 26.3322 75.9877C26.8234 75.9877 27.3233 75.8474 27.7707 75.5579L60.6287 53.7783C61.8304 52.98 62.155 51.3661 61.3568 50.1732L61.348 50.1644Z" fill="#010101" stroke="#010101" stroke-width="2" stroke-miterlimit="10"/>
<path d="M25.8847 64.9881C26.3759 64.9881 26.8758 64.8478 27.3232 64.5583L50.6642 49.0854C51.8659 48.2872 52.1904 46.6732 51.3922 45.4803C50.594 44.2786 48.98 43.9541 47.7871 44.7523L24.4461 60.2252C23.2444 61.0234 22.9199 62.6374 23.7181 63.8303C24.2181 64.5847 25.0426 64.9969 25.8934 64.9969L25.8847 64.9881Z" fill="#010101" stroke="#010101" stroke-width="2" stroke-miterlimit="10"/>
</svg>
