<svg width="495" height="272" viewBox="0 0 495 272" fill="none" xmlns="http://www.w3.org/2000/svg">
<path d="M153.153 96.6406C153.153 100.339 150.445 103.516 145.028 106.172C140.445 108.411 136.096 109.531 131.981 109.531C129.846 109.531 128.778 108.984 128.778 107.891C128.778 106.849 129.794 106.198 131.825 105.938C133.7 105.729 136.382 104.714 139.872 102.891C143.726 100.807 146.018 98.9583 146.747 97.3438L146.591 97.2656C143.935 96.1719 142.346 95.4427 141.825 95.0781C140.263 94.0365 139.481 92.5781 139.481 90.7031C139.481 87.4219 141.148 84.2708 144.481 81.25C147.45 78.5938 150.132 77.2656 152.528 77.2656C154.612 77.2656 155.653 78.3073 155.653 80.3906C155.653 82.474 154.612 83.5156 152.528 83.5156C151.799 83.5156 150.601 84.2708 148.935 85.7812C147.06 87.3958 146.018 88.8802 145.81 90.2344C148.726 91.4323 150.341 92.1354 150.653 92.3438C152.32 93.3854 153.153 94.8177 153.153 96.6406ZM196.278 106.797C187.007 106.797 182.19 103.385 181.825 96.5625C181.044 82.8125 179.481 66.5885 177.138 47.8906C177.086 47.5781 177.06 47.2917 177.06 47.0312C177.06 45.5729 177.632 44.2448 178.778 43.0469C179.976 41.7969 181.33 41.1719 182.841 41.1719C184.872 41.1719 186.018 42.2656 186.278 44.4531C187.424 56.901 189.013 73.8021 191.044 95.1562C191.2 96.6667 192.945 97.4219 196.278 97.4219C199.403 97.4219 200.966 98.9844 200.966 102.109C200.966 105.234 199.403 106.797 196.278 106.797ZM267.294 6.95312C257.138 21.0156 242.606 31.875 223.7 39.5312C222.554 40 221.565 40.2344 220.731 40.2344C219.273 40.2344 218.544 39.6875 218.544 38.5938C218.544 37.2396 219.638 35.8594 221.825 34.4531C239.638 22.8385 252.346 12.0573 259.95 2.10938C260.992 0.703125 262.294 0 263.856 0C266.825 0 268.31 1.38021 268.31 4.14062C268.31 5.07812 267.971 6.01562 267.294 6.95312ZM223.544 86.0938C223.544 90.8854 222.997 94.349 221.903 96.4844C220.497 99.349 217.685 101.562 213.466 103.125C206.955 105.573 201.617 106.797 197.45 106.797C194.325 106.797 192.763 105.234 192.763 102.109C192.763 98.9844 194.325 97.4219 197.45 97.4219C201.096 97.4219 205.028 96.5625 209.247 94.8438C211.591 93.8542 213.049 92.8125 213.622 91.7188C214.039 90.9375 214.247 89.1406 214.247 86.3281C214.247 85.651 213.075 74.0104 210.731 51.4062V50.7812C210.731 49.1667 211.304 47.7604 212.45 46.5625C213.752 45.2083 215.132 44.5312 216.591 44.5312C218.518 44.5312 219.56 45.625 219.716 47.8125C220.497 56.3021 221.304 64.7917 222.138 73.2812C223.075 77.9688 223.544 82.2396 223.544 86.0938ZM319.403 106.797C313.049 106.797 308.57 104.818 305.966 100.859C305.705 100.495 305.159 99.2188 304.325 97.0312C303.752 95.5208 303.153 94.7656 302.528 94.7656C301.799 94.7656 300.914 95.4948 299.872 96.9531C297.893 99.8698 294.82 103.594 290.653 108.125C285.289 111.927 274.429 113.828 258.075 113.828C254.273 113.828 252.372 112.969 252.372 111.25C252.372 109.479 254.351 108.177 258.31 107.344C262.685 106.719 267.034 106.094 271.356 105.469C279.013 103.958 284.351 101.719 287.372 98.75C289.716 95.7292 292.06 92.7344 294.403 89.7656C297.789 85.651 300.705 83.5938 303.153 83.5938C306.018 83.5938 308.518 85.9115 310.653 90.5469C312.789 95.1302 315.705 97.4219 319.403 97.4219C322.528 97.4219 324.091 98.9844 324.091 102.109C324.091 105.234 322.528 106.797 319.403 106.797ZM301.669 50.9375L299.013 55.2344C298.075 56.7448 296.799 57.5 295.185 57.5C293.882 57.5 292.737 57.0573 291.747 56.1719C290.757 55.2344 290.263 54.1146 290.263 52.8125C290.263 51.9792 290.523 51.1198 291.044 50.2344L293.7 45.9375C294.638 44.4271 295.914 43.6719 297.528 43.6719C298.83 43.6719 299.976 44.1406 300.966 45.0781C301.955 45.9635 302.45 47.0573 302.45 48.3594C302.45 49.1927 302.19 50.0521 301.669 50.9375ZM346.981 86.0938C347.086 87.3438 347.138 88.5156 347.138 89.6094C347.138 96.0677 343.726 100.573 336.903 103.125C330.393 105.573 325.054 106.797 320.888 106.797C317.763 106.797 316.2 105.234 316.2 102.109C316.2 98.9844 317.763 97.4219 320.888 97.4219C324.534 97.4219 328.466 96.5625 332.685 94.8438C335.08 93.8542 336.565 92.8646 337.138 91.875C337.554 91.0938 337.763 89.8177 337.763 88.0469C337.763 87.526 337.737 86.9531 337.685 86.3281C336.695 76.4323 335.367 61.0938 333.7 40.3125V39.6875C333.7 38.0729 334.273 36.6667 335.419 35.4688C336.721 34.1146 338.101 33.4375 339.56 33.4375C341.435 33.4375 342.476 34.5312 342.685 36.7188C344.872 63.1771 346.304 79.6354 346.981 86.0938ZM367.372 87.3438C367.476 88.4896 367.528 89.6094 367.528 90.7031C367.528 97.6302 366.409 101.094 364.169 101.094C362.502 101.094 361.122 98.4115 360.028 93.0469C359.455 90.1823 358.57 83.5938 357.372 73.2812C356.591 66.5104 355.705 57.9688 354.716 47.6562V47.1094C354.716 44.7656 355.315 42.7865 356.513 41.1719C357.659 39.6094 358.961 38.8281 360.419 38.8281C362.19 38.8281 363.179 40 363.388 42.3438C364.377 52.8646 365.705 67.8646 367.372 87.3438Z" fill="#FFF000"/>
<path d="M30.8162 253.531C19.3922 253.531 12.2882 251.227 6.4322 245.659C1.7282 241.243 0.000195384 233.563 0.000195384 225.787V204.763H13.4402V224.155C13.4402 229.819 14.4962 233.947 17.4722 236.443C20.7362 239.227 26.1122 240.091 31.7762 240.091H45.7922V213.019C45.7922 203.803 48.2882 197.179 54.0482 192.571C58.4642 189.115 64.9922 187.483 72.3842 187.483H90.5282V228.091H100.8V241.531H77.0882V200.923H70.9442C67.5842 200.923 64.9922 201.595 62.7842 203.323C60.5762 205.051 59.2322 208.891 59.2322 212.155V253.531H30.8162ZM26.0162 271.099C21.9842 271.099 18.5282 268.699 18.5282 264.283C18.5282 260.155 21.7922 257.371 26.0162 257.371C30.2402 257.371 33.5042 260.155 33.5042 264.283C33.5042 268.699 30.0482 271.099 26.0162 271.099ZM46.8482 271.099C42.8162 271.099 39.3602 268.699 39.3602 264.283C39.3602 260.155 42.6242 257.371 46.8482 257.371C51.1682 257.371 54.3362 260.155 54.3362 264.283C54.3362 268.699 50.8802 271.099 46.8482 271.099ZM98.9814 241.531V228.091H109.445C107.333 223.675 105.413 218.107 105.413 212.059C105.413 202.939 109.445 195.931 115.013 191.323C119.429 187.675 125.669 185.659 132.485 185.659C139.589 185.659 145.925 187.675 152.453 190.939L147.941 203.131C143.909 200.827 138.629 199.003 134.117 199.003C129.701 199.003 126.245 200.059 123.653 202.267C120.197 205.147 118.949 208.891 118.949 213.115C118.949 219.259 120.869 224.155 124.037 228.091H154.469V241.531H98.9814ZM170.618 241.531V163.675H184.058V228.091H196.346V241.531H170.618ZM194.419 241.531V228.091H206.323V187.483H219.763V228.091H230.035V241.531H194.419ZM212.659 179.323C208.435 179.323 204.787 176.827 204.787 172.123C204.787 167.899 208.243 165.019 212.659 165.019C217.171 165.019 220.531 167.899 220.531 172.123C220.531 176.827 216.883 179.323 212.659 179.323ZM228.169 241.531V228.091H237.577V163.675H251.017V192.283H280.297C288.937 192.283 295.465 194.395 300.265 199.483C304.297 203.803 305.833 210.907 305.833 218.779V228.091H316.201V241.531H228.169ZM281.641 205.627H251.017V228.091H292.393V218.203C292.393 214.363 291.529 211.579 289.801 209.371C288.169 207.259 285.097 205.627 281.641 205.627ZM314.419 241.531V228.091H323.827V187.483H337.267V192.283H366.547C375.187 192.283 381.715 194.395 386.515 199.483C390.547 203.803 392.083 210.907 392.083 218.779V241.531H314.419ZM367.891 205.627H337.267V228.091H378.643V218.203C378.643 214.363 377.779 211.579 376.051 209.371C374.419 207.259 371.347 205.627 367.891 205.627ZM422.453 265.243C414.965 265.243 410.357 261.979 410.357 253.339V248.923H430.325V256.123H418.037C418.037 259.195 419.381 260.923 423.221 260.923H427.253V265.243H422.453ZM403.925 241.531L402.293 228.091H429.653C433.973 228.091 437.813 227.035 440.501 224.827C443.093 222.619 444.533 219.547 444.533 214.843V156.571H464.213V170.011H457.973V214.363C457.973 222.235 455.669 230.107 450.773 234.619C445.301 239.611 437.141 241.531 426.869 241.531H403.925ZM415.925 223.291V172.699H429.365V223.291H415.925ZM481.118 241.531V163.675H494.558V241.531H481.118Z" fill="white"/>
</svg>
