<svg width="146" height="157" viewBox="0 0 146 157" fill="none" xmlns="http://www.w3.org/2000/svg">
<g clip-path="url(#clip0_604_108)">
<path d="M143.704 19.5399H119.567V15.1021H131.825C133.068 15.1021 134.128 14.0469 134.128 12.8195V2.05801C134.128 0.830688 133.06 0 131.825 0H102.846C101.604 0 100.687 0.830688 100.687 2.05801V12.8121C100.687 14.0394 101.604 15.0946 102.846 15.0946H115.067V19.5324H75.1478V15.0946H87.4439C88.6864 15.0946 89.7092 14.0394 89.7092 12.8121V2.05801C89.7092 0.830688 88.6788 0 87.4439 0H58.4651C57.2227 0 56.2681 0.830688 56.2681 2.05801V12.8121C56.2681 14.0394 57.2227 15.0946 58.4651 15.0946H70.6476V19.5324H30.9107V15.0946H43.0628C44.3053 15.0946 45.2902 14.0394 45.2902 12.8121V2.05801C45.2902 0.830688 44.3053 0 43.0628 0H14.1068C12.8643 0 11.8718 0.830688 11.8718 2.05801V12.8121C11.8718 14.0394 12.8643 15.0946 14.1068 15.0946H26.4332V19.5324H2.21981C0.977323 19.5324 0 20.3855 0 21.6129V97.183C0 98.4103 0.977323 99.458 2.21981 99.458H60.5941V143.327H33.3654C32.1229 143.327 31.1077 144.233 31.1077 145.46V154.62C31.1077 155.848 32.1229 157.007 33.3654 157.007H112.566C113.809 157.007 114.892 155.848 114.892 154.62V145.46C114.892 144.233 113.809 143.327 112.566 143.327H85.4059V99.458H143.712C144.954 99.458 146 98.4103 146 97.183V21.6129C146 20.3855 144.954 19.5324 143.712 19.5324L143.704 19.5399ZM105.18 4.43782H129.636V10.6568H105.18V4.43782ZM60.7759 4.43782H85.2317V10.6568H60.7759V4.43782ZM16.3645 4.43782H40.8203V10.6568H16.3645V4.43782ZM110.4 152.562H35.6003V147.765H110.4V152.562ZM65.0867 143.327V99.6376H80.9057V143.327H65.0867ZM141.5 95.0202H4.49266V23.9777H141.5V95.0202Z" fill="black"/>
<path d="M52.1239 41.9459C51.4345 40.9207 50.0405 40.6438 49.0101 41.3248L20.6298 59.9068C19.5919 60.5878 19.3116 61.9648 20.001 62.9825C20.4329 63.6261 21.145 63.9779 21.8799 63.9779C22.3042 63.9779 22.736 63.8581 23.1224 63.6112L51.5027 45.0292C52.5406 44.3482 52.8209 42.9712 52.1315 41.9534L52.1239 41.9459Z" fill="black"/>
<path d="M21.4934 54.5935C21.9177 54.5935 22.3495 54.4738 22.7359 54.2268L42.8961 41.0256C43.934 40.3446 44.2143 38.9676 43.5249 37.9498C42.8354 36.9246 41.4414 36.6477 40.4111 37.3287L20.2509 50.5299C19.213 51.2109 18.9327 52.5879 19.6221 53.6057C20.054 54.2493 20.7661 54.601 21.501 54.601L21.4934 54.5935Z" fill="black"/>
<path d="M49.5707 50.9787L29.4106 64.1799C28.3727 64.8609 28.0924 66.2379 28.7818 67.2557C29.2136 67.8993 29.9258 68.251 30.6607 68.251C31.0849 68.251 31.5168 68.1313 31.9032 67.8843L52.0633 54.6831C53.1012 54.0021 53.3816 52.6251 52.6921 51.6073C52.0027 50.582 50.6087 50.3051 49.5783 50.9862L49.5707 50.9787Z" fill="black"/>
</g>
<defs>
<clipPath id="clip0_604_108">
<rect width="146" height="157" fill="white"/>
</clipPath>
</defs>
</svg>
