<svg width="82" height="170" viewBox="0 0 82 170" fill="none" xmlns="http://www.w3.org/2000/svg">
<g clip-path="url(#clip0_604_102)">
<path d="M58.267 130.007H23.7253C22.5568 130.007 21.5147 129.244 21.1673 128.116C16.3906 112.88 1.60285 105.02 1.46073 104.941C0.805427 104.599 0.323817 104.003 0.118541 103.295C-0.0867355 102.588 0.000112178 101.825 0.371189 101.181C14.7642 76.0986 24.6096 49.1084 30.3257 30.8845C30.7758 29.4618 32.2759 28.675 33.697 29.1201C35.1103 29.5731 35.8919 31.0911 35.4498 32.5137C29.8205 50.4356 20.2672 76.7264 6.34789 101.555C10.9903 104.519 21.0251 112.109 25.6597 124.587H56.3722C61.0067 112.101 71.0415 104.519 75.6839 101.555C62.2462 77.5848 52.8746 52.2477 47.1742 34.3973H45.603L45.682 83.6886C50.7902 85.6119 54.3036 90.5633 54.3036 96.2061C54.3036 103.589 48.3348 109.59 41.008 109.59C33.6812 109.59 27.7282 103.582 27.7282 96.2061C27.7282 92.6138 29.1178 89.244 31.6521 86.7166C32.7022 85.6675 34.4076 85.6675 35.4498 86.7325C36.4919 87.7896 36.4919 89.5062 35.434 90.5553C33.9339 92.0574 33.1049 94.0682 33.1049 96.2061C33.1049 100.601 36.6498 104.186 41.0159 104.186C45.382 104.186 48.9427 100.609 48.9427 96.2061C48.9427 92.3912 46.2347 89.1009 42.5081 88.3936C41.2449 88.1552 40.3211 87.0425 40.3211 85.7391L40.2343 31.7031C40.2343 30.9878 40.5185 30.2963 41.0159 29.7877C41.5212 29.279 42.2002 28.9929 42.9187 28.9929H49.148C50.3165 28.9929 51.3587 29.7559 51.7061 30.8845C57.4301 49.1163 67.2676 76.1065 81.6606 101.181C82.0317 101.825 82.1186 102.588 81.9133 103.295C81.708 104.003 81.2185 104.599 80.5632 104.941C80.4211 105.02 65.6333 112.872 60.8567 128.116C60.5014 129.244 59.4671 130.007 58.2986 130.007H58.267Z" fill="black"/>
<path d="M64.9069 160.836H17.0854C13.8641 160.836 11.2429 158.198 11.2429 154.955V145.211C11.2429 141.969 13.8641 139.33 17.0854 139.33H21.0409V136.898C21.0409 135.404 22.241 134.196 23.7253 134.196H58.2749C59.7592 134.196 60.9593 135.404 60.9593 136.898V139.33H64.9148C68.136 139.33 70.7573 141.969 70.7573 145.211V154.955C70.7573 158.198 68.136 160.836 64.9148 160.836H64.9069ZM17.0854 144.734C16.8249 144.734 16.6117 144.949 16.6117 145.211V154.955C16.6117 155.217 16.8249 155.432 17.0854 155.432H64.9069C65.1674 155.432 65.3806 155.217 65.3806 154.955V145.211C65.3806 144.949 65.1674 144.734 64.9069 144.734H58.267C56.7827 144.734 55.5826 143.526 55.5826 142.032V139.6H26.4097V142.032C26.4097 143.526 25.2096 144.734 23.7253 144.734H17.0854Z" fill="black"/>
<path d="M52.3376 170H29.6546C28.1703 170 26.9702 168.792 26.9702 167.298C26.9702 165.803 28.1703 164.595 29.6546 164.595H52.3376C53.8219 164.595 55.022 165.803 55.022 167.298C55.022 168.792 53.8219 170 52.3376 170Z" fill="black"/>
<path d="M51.3902 24.2721H30.6099C29.5835 24.2721 28.6519 23.684 28.2019 22.7621L21.7673 9.56104C21.262 8.52785 21.4672 7.28802 22.2647 6.46941C23.07 5.65081 24.2937 5.43622 25.328 5.92102L32.718 9.44978L38.8289 1.04117C39.8395 -0.349662 42.1528 -0.349662 43.1634 1.04117L49.2743 9.44978L56.6642 5.92102C57.6985 5.42827 58.9223 5.64286 59.7276 6.46941C60.5329 7.28802 60.7303 8.52785 60.225 9.56104L53.7904 22.7621C53.3403 23.6919 52.4008 24.2721 51.3823 24.2721H51.3902ZM32.2837 18.8677H49.7164L52.0218 14.1309L49.5664 15.2992C48.3979 15.8556 47.0083 15.4979 46.2504 14.4488L41.0001 7.21649L35.7497 14.4488C34.9839 15.49 33.5943 15.8556 32.4337 15.2992L29.9783 14.1309L32.2837 18.8677Z" fill="black"/>
</g>
<defs>
<clipPath id="clip0_604_102">
<rect width="82" height="170" fill="white"/>
</clipPath>
</defs>
</svg>
