<svg width="350" height="213" viewBox="0 0 350 213" fill="none" xmlns="http://www.w3.org/2000/svg">
<path d="M118.294 40.3906C118.294 49.5052 111.263 57.0573 97.2002 63.0469C84.596 68.4115 70.5596 71.0938 55.0908 71.0938C43.3721 71.0938 33.5283 70.1042 25.5596 68.125C12.07 64.6875 5.3252 58.724 5.3252 50.2344C5.3252 40.4427 12.07 32.5781 25.5596 26.6406C36.2887 21.9531 47.2783 19.6094 58.5283 19.6094C63.9971 19.6094 66.7314 20.1823 66.7314 21.3281C66.7314 22.474 63.8148 23.5677 57.9814 24.6094C29.1273 29.6094 14.7002 37.6302 14.7002 48.6719C14.7002 53.3073 20.0648 56.7969 30.7939 59.1406C38.4502 60.8594 46.5492 61.7188 55.0908 61.7188C69.57 61.7188 82.3564 59.2969 93.4502 54.4531C103.763 49.974 108.919 45.2865 108.919 40.3906C108.919 37.9427 107.096 33.5938 103.45 27.3438C102.981 26.5625 102.747 25.7552 102.747 24.9219C102.747 23.6198 103.242 22.526 104.231 21.6406C105.221 20.7031 106.367 20.2344 107.669 20.2344C109.336 20.2344 110.638 21.0417 111.575 22.6562C116.054 30.3125 118.294 36.224 118.294 40.3906ZM95.4033 9.0625C91.0283 10.9375 85.7679 11.875 79.6221 11.875C74.0492 11.875 71.2627 10.7031 71.2627 8.35938C71.2627 6.69271 73.6325 5.49479 78.3721 4.76562C81.6012 4.29688 86.0544 2.86458 91.7314 0.46875C92.4085 0.15625 93.0856 0 93.7627 0C96.7835 0 98.2939 1.64062 98.2939 4.92188C98.2939 6.90104 97.3304 8.28125 95.4033 9.0625ZM161.731 60.4688C157.461 67.5521 150.247 71.0938 140.091 71.0938C136.966 71.0938 135.403 69.5312 135.403 66.4062C135.403 63.2812 136.966 61.7188 140.091 61.7188C146.601 61.7188 152.33 59.5312 157.278 55.1562C158.58 54.0104 159.752 53.4375 160.794 53.4375C162.304 53.4375 163.06 54.401 163.06 56.3281C163.06 57.5781 162.617 58.9583 161.731 60.4688ZM140.794 71.0938C131.523 71.0938 126.705 67.6823 126.341 60.8594C125.56 47.1094 123.997 30.8854 121.653 12.1875C121.601 11.875 121.575 11.5885 121.575 11.3281C121.575 9.86979 122.148 8.54167 123.294 7.34375C124.492 6.09375 125.846 5.46875 127.356 5.46875C129.388 5.46875 130.534 6.5625 130.794 8.75C131.94 21.1979 133.528 38.099 135.56 59.4531C135.716 60.9635 137.461 61.7188 140.794 61.7188C143.919 61.7188 145.481 63.2812 145.481 66.4062C145.481 69.5312 143.919 71.0938 140.794 71.0938ZM153.841 23.2031L151.185 27.5C150.247 29.0104 148.971 29.7656 147.356 29.7656C146.054 29.7656 144.909 29.3229 143.919 28.4375C142.929 27.5 142.435 26.3802 142.435 25.0781C142.435 24.2448 142.695 23.3854 143.216 22.5L145.872 18.2031C146.81 16.6927 148.086 15.9375 149.7 15.9375C151.002 15.9375 152.148 16.4062 153.138 17.3438C154.127 18.2292 154.622 19.3229 154.622 20.625C154.622 21.4583 154.362 22.3177 153.841 23.2031ZM218.685 43.8281C218.789 45.2344 218.841 46.5625 218.841 47.8125C218.841 54.4792 217.851 57.8125 215.872 57.8125C214.257 57.8125 212.877 55.0521 211.731 49.5312C210.794 45 209.075 38.4115 206.575 29.7656C206.263 28.776 206.106 27.8385 206.106 26.9531C206.106 23.0469 207.695 21.0938 210.872 21.0938C212.799 21.0938 214.101 22.2396 214.778 24.5312C216.914 31.7708 218.216 38.2031 218.685 43.8281ZM264.075 71.0938C255.534 71.0938 250.716 67.6823 249.622 60.8594C249.153 57.6302 248.19 48.3333 246.731 32.9688C243.242 43.6458 238.58 52.2396 232.747 58.75C225.664 66.6146 216.237 72.2656 204.466 75.7031C194.674 78.5156 185.039 79.9219 175.56 79.9219C169.882 79.9219 167.044 78.9062 167.044 76.875C167.044 75.3125 169.049 74.1667 173.06 73.4375C190.195 70.4167 203.112 66.7969 211.81 62.5781C220.143 58.5156 226.94 52.2396 232.2 43.75C234.648 39.7917 237.721 33.0208 241.419 23.4375C243.867 17.0833 246.132 13.9062 248.216 13.9062C252.33 13.9062 255.013 20.9896 256.263 35.1562C256.471 40.7292 257.304 48.4896 258.763 58.4375C259.388 60.625 261.159 61.7188 264.075 61.7188C267.2 61.7188 268.763 63.2812 268.763 66.4062C268.763 69.5312 267.2 71.0938 264.075 71.0938ZM310.481 36.0156C310.742 36.6406 310.872 37.2917 310.872 37.9688C310.872 40.9896 309.231 42.5 305.95 42.5C303.971 42.5 302.591 41.5104 301.81 39.5312C301.08 37.8646 299.804 37.0312 297.981 37.0312C295.898 37.0312 293.711 38.4115 291.419 41.1719C290.534 42.3177 290.091 43.6198 290.091 45.0781C290.091 50.2865 293.659 53.5938 300.794 55C303.294 55.5208 304.544 57.0312 304.544 59.5312C304.544 62.7604 303.034 64.375 300.013 64.375C295.794 64.375 291.445 62.2917 286.966 58.125C282.487 53.9062 280.247 49.6094 280.247 45.2344C280.247 41.849 281.549 38.5417 284.153 35.3125C288.268 30.1562 293.19 27.5781 298.919 27.5781C304.336 27.5781 308.19 30.3906 310.481 36.0156ZM321.185 56.6406C314.414 60.3385 305.325 63.6719 293.919 66.6406C282.356 69.6094 272.539 71.0938 264.466 71.0938C261.341 71.0938 259.778 69.5312 259.778 66.4062C259.778 63.2812 261.341 61.7188 264.466 61.7188C271.705 61.7188 280.69 60.3385 291.419 57.5781C302.148 54.8177 310.56 51.7708 316.653 48.4375C317.435 47.9688 318.242 47.7344 319.075 47.7344C320.325 47.7344 321.393 48.2552 322.278 49.2969C323.216 50.2865 323.685 51.4062 323.685 52.6562C323.685 54.4271 322.851 55.7552 321.185 56.6406ZM344.075 51.6406C344.179 52.7865 344.231 53.9062 344.231 55C344.231 61.9271 343.112 65.3906 340.872 65.3906C339.205 65.3906 337.825 62.7083 336.731 57.3438C336.159 54.4792 335.273 47.8906 334.075 37.5781C333.294 30.8073 332.409 22.2656 331.419 11.9531V11.4062C331.419 9.0625 332.018 7.08333 333.216 5.46875C334.362 3.90625 335.664 3.125 337.122 3.125C338.893 3.125 339.882 4.29688 340.091 6.64062C341.08 17.1615 342.409 32.1615 344.075 51.6406ZM348.919 86.4062C348.919 89.4271 347.278 92.2396 343.997 94.8438C340.768 97.5 337.617 98.8281 334.544 98.8281C332.825 98.8281 331.966 98.0208 331.966 96.4062C331.966 95.1042 332.669 94.1927 334.075 93.6719C338.554 92.0573 341.263 89.974 342.2 87.4219C338.398 86.4844 336.497 84.8958 336.497 82.6562C336.497 80.8333 337.409 78.776 339.231 76.4844C340.794 74.5052 342.513 72.9427 344.388 71.7969C345.013 71.4323 345.664 71.25 346.341 71.25C348.268 71.25 349.231 72.0573 349.231 73.6719C349.231 74.5052 348.789 75.2865 347.903 76.0156C345.455 77.9427 343.867 79.8438 343.138 81.7188C345.377 82.3438 346.679 82.7604 347.044 82.9688C348.294 83.6458 348.919 84.7917 348.919 86.4062Z" fill="#FFF000"/>
<path d="M26.3222 205.078C16.5642 205.078 10.4962 203.11 5.49424 198.354C1.47623 194.582 0.000234656 188.022 0.000234656 181.38V154.566H11.4802V179.986C11.4802 184.824 12.3822 188.35 14.9242 190.482C17.7122 192.86 22.3042 193.598 27.1422 193.598H33.7022V154.566H45.1822V205.078H26.3222ZM22.9602 147.268C19.3522 147.268 16.2362 145.136 16.2362 141.118C16.2362 137.51 19.1882 135.05 22.9602 135.05C26.8142 135.05 29.6842 137.51 29.6842 141.118C29.6842 145.136 26.5682 147.268 22.9602 147.268ZM95.7756 148.662L95.6936 183.348H103.32V194.828H95.5296C94.7096 205.57 89.3796 212.868 74.6196 212.868C70.1916 212.868 67.6496 212.294 62.6476 210.9L61.8276 199.338C66.2556 200.732 69.9456 201.388 73.7996 201.388C80.1136 201.388 83.3936 200.568 84.1316 194.828H82.8196C67.1576 194.828 54.6936 188.186 54.6936 171.704C54.6936 157.354 66.4196 148.662 82.8196 148.662H95.7756ZM66.1736 171.704C66.1736 179.33 72.0776 183.348 79.4576 183.348H84.2956V160.142H79.4576C72.6516 160.142 66.1736 164.734 66.1736 171.704ZM110.856 212.294C107.412 212.294 104.46 210.244 104.46 206.472C104.46 202.946 107.248 200.568 110.856 200.568C114.464 200.568 117.252 202.946 117.252 206.472C117.252 210.244 114.3 212.294 110.856 212.294ZM128.65 212.294C125.206 212.294 122.254 210.244 122.254 206.472C122.254 202.946 125.042 200.568 128.65 200.568C132.34 200.568 135.046 202.946 135.046 206.472C135.046 210.244 132.094 212.294 128.65 212.294ZM101.754 194.828V183.348H118.892V148.662H130.372V194.828H101.754ZM145.77 212.868C143.638 212.868 141.342 212.54 139.948 212.13L139.128 200.65C141.26 201.224 142.818 201.388 144.54 201.388C149.132 201.388 150.69 199.01 150.69 193.352V148.662H162.17V183.348H171.026V194.828H162.088C161.432 207.456 156.594 212.868 145.77 212.868ZM156.184 141.692C152.576 141.692 149.46 139.56 149.46 135.542C149.46 131.934 152.412 129.474 156.184 129.474C160.038 129.474 162.908 131.934 162.908 135.542C162.908 139.56 159.792 141.692 156.184 141.692ZM169.42 194.828V183.348H180.408C178.03 180.232 176.472 176.378 176.472 171.704C176.472 157.272 187.624 148.662 204.024 148.662H217.554V183.348H225.18V194.828H169.42ZM187.952 171.704C187.952 176.706 190.412 180.724 194.184 183.348H206.074V160.142H201.236C194.594 160.142 187.952 164.16 187.952 171.704ZM200.498 141.692C196.89 141.692 193.774 139.56 193.774 135.542C193.774 131.934 196.726 129.474 200.498 129.474C204.352 129.474 207.222 131.934 207.222 135.542C207.222 139.56 204.106 141.692 200.498 141.692ZM223.553 194.828V183.348H231.589V128.326H243.069V183.348H253.565V194.828H223.553ZM251.9 194.828V183.348H269.038V148.662H280.518V183.348H295.606V194.828H251.9ZM283.142 141.692C279.698 141.692 276.746 139.642 276.746 135.788C276.746 132.344 279.534 129.966 283.142 129.966C286.832 129.966 289.538 132.344 289.538 135.788C289.538 139.642 286.586 141.692 283.142 141.692ZM265.348 141.692C261.904 141.692 258.952 139.642 258.952 135.788C258.952 132.344 261.74 129.966 265.348 129.966C268.956 129.966 271.744 132.344 271.744 135.788C271.744 139.642 268.792 141.692 265.348 141.692ZM293.941 194.828V183.348H301.977V128.326H318.787V139.806H313.457V194.828H293.941ZM332.709 194.828V128.326H344.189V194.828H332.709Z" fill="white"/>
</svg>
