<svg width="194" height="224" viewBox="0 0 194 224" fill="none" xmlns="http://www.w3.org/2000/svg">
<path d="M76 61.08C76 63.88 77.04 66.2 78.64 66.84V67H61.44V66.84C62.96 66.2 64 63.88 64 61.08V8.12H55.68C51.52 8.12 48.8 9.64 44.72 18.44H44.56L45.36 6.84H94.8L95.52 18.44H95.36C91.36 9.64 88.56 8.12 84.48 8.12H76V61.08ZM128.428 58.76L143.788 12.76C144.668 9.88 144.428 7.56 143.148 7V6.84H149.708V7C147.868 7.56 146.108 9.88 145.148 12.76L129.148 60.92L129.228 61.08C130.188 63.88 131.948 66.2 133.708 66.84V67H115.868V66.84C117.307 66.2 117.548 63.88 116.588 61.08L100.348 12.76C99.3875 9.88 97.5475 7.56 95.8675 7V6.84H113.628V7C112.268 7.56 112.028 9.88 112.988 12.76L128.428 58.76Z" fill="white"/>
<path d="M25.44 96.226L13.248 133.09H37.824L25.44 96.226ZM0 158.53V158.338C2.208 157.57 4.32 154.786 5.472 151.426L24.672 93.634L24.576 93.442C23.424 89.986 21.216 87.202 19.2 86.53V86.338H40.512V86.53C38.88 87.202 38.592 89.986 39.744 93.442L59.232 151.426C60.384 154.786 62.496 157.57 64.608 158.338V158.53H43.2V158.338C44.928 157.57 45.216 154.786 44.064 151.426L38.4 134.626H12.672L7.104 151.426C5.952 154.786 6.336 157.57 7.872 158.338V158.53H0ZM86.0018 87.778V156.994C104.914 157.186 114.322 146.05 114.322 120.034C114.322 98.53 107.986 87.298 86.0018 87.778ZM84.4658 158.53H68.4338V158.338C70.2578 157.57 71.5058 154.786 71.5058 151.426V93.442C71.5058 89.986 70.2578 87.202 68.4338 86.53V86.338H84.1778C111.058 85.282 128.914 89.602 128.914 122.05C128.914 153.634 111.73 159.586 84.4658 158.53ZM176.336 145.954C176.336 126.562 137.84 130.69 137.84 106.21C137.84 94.498 146.768 86.338 162.224 86.338C178.736 86.338 186.704 95.65 188.24 101.602C190.544 111.106 177.104 113.794 173.072 97.474C172.112 93.73 169.904 87.97 162.32 87.97C154.16 87.97 151.088 94.594 151.088 99.97C151.088 118.978 189.584 115.906 189.584 139.138C189.584 151.426 178.832 159.586 162.8 159.586C145.616 159.586 137.648 150.178 136.112 144.322C133.712 134.818 147.248 132.13 151.28 148.45C152.24 152.098 154.352 157.954 163.088 157.954C171.056 157.954 176.336 153.154 176.336 145.954Z" fill="#FFF000"/>
</svg>
