<svg width="733" height="234" viewBox="0 0 733 234" fill="none" xmlns="http://www.w3.org/2000/svg">
<path d="M36.4 56.52C36.4 40.36 4.32 43.8 4.32 23.4C4.32 13.64 11.76 6.84 24.64 6.84C38.4 6.84 45.04 14.6 46.32 19.56C48.24 27.48 37.04 29.72 33.68 16.12C32.88 13 31.04 8.2 24.72 8.2C17.92 8.2 15.36 13.72 15.36 18.2C15.36 34.04 47.44 31.48 47.44 50.84C47.44 61.08 38.48 67.88 25.12 67.88C10.8 67.88 4.16 60.04 2.88 55.16C0.88 47.24 12.16 45 15.52 58.6C16.32 61.64 18.08 66.52 25.36 66.52C32 66.52 36.4 62.52 36.4 56.52ZM68.2306 38.6H74.7906C85.9906 38.6 91.8306 34.52 91.8306 23.72C91.8306 13 86.0706 8.12 77.1106 8.12H68.2306V38.6ZM53.5906 67V66.84C55.1106 66.2 56.1506 63.88 56.1506 61.08V12.76C56.1506 9.88 55.1106 7.56 53.5906 7V6.84H79.6706C95.5106 6.84 103.991 12.2 103.991 22.52C103.991 36.36 89.0306 39.88 81.6706 39.88H68.2306V61.08C68.2306 63.88 69.2706 66.2 70.7906 66.84V67H53.5906ZM120.269 36.04C120.269 54.6 126.589 66.6 136.829 66.6C146.029 66.6 152.349 56.76 152.349 36.84C152.349 16.84 146.029 7.32 136.509 7.32C126.589 7.32 120.269 17.48 120.269 36.04ZM108.269 36.92C108.269 18.44 119.469 5.96 136.189 5.96C153.229 5.96 164.429 18.84 164.429 37.32C164.429 55.8 153.229 67.88 136.509 67.88C119.469 67.88 108.269 55.4 108.269 36.92ZM185.106 38.6H191.666C202.866 38.6 208.706 34.52 208.706 23.72C208.706 13 202.946 8.12 193.986 8.12H185.106V38.6ZM170.466 67V66.84C171.986 66.2 173.026 63.88 173.026 61.08V12.76C173.026 9.88 171.986 7.56 170.466 7V6.84H195.666C211.586 6.84 220.866 12.2 220.866 23C220.866 33.56 211.906 37.88 204.466 39.32C212.626 40.68 218.786 44.52 218.786 51V61C218.786 63.8 219.826 66.12 221.346 66.76V66.92H204.146V66.76C205.746 66.12 206.786 63.8 206.786 61V51C206.786 41.72 204.146 39.88 195.826 39.88H185.106V61.08C185.106 63.88 186.146 66.2 187.666 66.84V67H170.466ZM256.297 61.08C256.297 63.88 257.337 66.2 258.937 66.84V67H241.737V66.84C243.257 66.2 244.297 63.88 244.297 61.08V8.12H235.977C231.817 8.12 229.097 9.64 225.017 18.44H224.857L225.657 6.84H275.097L275.817 18.44H275.657C271.657 9.64 268.857 8.12 264.777 8.12H256.297V61.08ZM357.811 48.76L358.931 49.48C355.491 57.56 349.891 68.12 334.771 68.12C318.451 68.12 307.331 55.8 307.331 37.4C307.331 18.76 318.771 6.84 334.211 6.84C346.771 6.84 353.411 14.6 354.691 19.56C356.691 27.48 345.411 29.72 342.051 16.12C341.331 13 339.491 8.2 333.811 8.2C325.491 8.2 319.491 18.44 319.491 34.76C319.491 51.8 325.971 63.32 338.611 63.32C348.051 63.32 354.771 56.92 357.811 48.76ZM363.591 67V66.84C365.111 66.2 366.151 63.88 366.151 61.08V12.76C366.151 9.88 365.111 7.56 363.591 7V6.84H380.791V7C379.271 7.56 378.231 9.88 378.231 12.76V36.2H401.271V12.76C401.271 9.88 400.231 7.56 398.631 7V6.84H415.831V7C414.311 7.56 413.271 9.88 413.271 12.76V61.08C413.271 63.88 414.311 66.2 415.831 66.84V67H398.631V66.84C400.231 66.2 401.271 63.88 401.271 61.08V37.48H378.231V61.08C378.231 63.88 379.271 66.2 380.791 66.84V67H363.591ZM440.341 15.08L430.181 45.8H450.661L440.341 15.08ZM419.141 67V66.84C420.981 66.2 422.741 63.88 423.701 61.08L439.701 12.92L439.621 12.76C438.661 9.88 436.821 7.56 435.141 7V6.84H452.901V7C451.541 7.56 451.301 9.88 452.261 12.76L468.501 61.08C469.461 63.88 471.221 66.2 472.981 66.84V67H455.141V66.84C456.581 66.2 456.821 63.88 455.861 61.08L451.141 47.08H429.701L425.061 61.08C424.101 63.88 424.421 66.2 425.701 66.84V67H419.141ZM476.169 67V66.84C477.689 66.2 478.729 63.88 478.729 61.08V12.76C478.729 9.88 477.689 7.56 476.169 7V6.84H491.849L519.209 45.88V12.76C519.209 9.88 518.249 7.56 516.649 7V6.84H523.129V7C521.529 7.56 520.569 9.88 520.569 12.76V67H519.369L480.009 10.92V61.08C480.009 63.88 481.049 66.2 482.649 66.84V67H476.169ZM529.372 67V66.84C530.892 66.2 531.932 63.88 531.932 61.08V12.76C531.932 9.88 530.892 7.56 529.372 7V6.84H545.052L572.412 45.88V12.76C572.412 9.88 571.452 7.56 569.852 7V6.84H576.332V7C574.732 7.56 573.772 9.88 573.772 12.76V67H572.572L533.212 10.92V61.08C533.212 63.88 534.252 66.2 535.852 66.84V67H529.372ZM582.575 67V66.84C584.095 66.2 585.135 63.88 585.135 61.08V12.12C585.135 9.8 584.095 7.8 582.575 7V6.84H624.815L626.415 15.88H626.255C622.655 10.28 619.375 8.12 614.495 8.12H597.215V34.52H606.015C611.135 34.52 615.135 31.4 616.175 26.76H616.335V43.56H616.175C615.135 38.92 611.135 35.8 606.015 35.8H597.215V65.72H613.375C617.455 65.72 622.815 59.88 626.815 51.08H627.055L623.695 67H582.575ZM632.341 67V66.84C633.861 66.2 634.901 63.88 634.901 61.08V12.76C634.901 9.88 633.861 7.56 632.341 7V6.84H649.541V7C648.021 7.56 646.981 9.88 646.981 12.76V65.72H663.141C667.221 65.72 672.581 59.88 676.581 51.08H676.821L673.461 67H632.341ZM713.978 56.52C713.978 40.36 681.898 43.8 681.898 23.4C681.898 13.64 689.338 6.84 702.218 6.84C715.978 6.84 722.618 14.6 723.898 19.56C725.818 27.48 714.618 29.72 711.258 16.12C710.458 13 708.618 8.2 702.298 8.2C695.498 8.2 692.938 13.72 692.938 18.2C692.938 34.04 725.018 31.48 725.018 50.84C725.018 61.08 716.058 67.88 702.698 67.88C688.378 67.88 681.738 60.04 680.458 55.16C678.458 47.24 689.738 45 693.098 58.6C693.898 61.64 695.658 66.52 702.938 66.52C709.578 66.52 713.978 62.52 713.978 56.52Z" fill="white"/>
<path d="M282.44 106.226L270.248 143.09H294.824L282.44 106.226ZM257 168.53V168.338C259.208 167.57 261.32 164.786 262.472 161.426L281.672 103.634L281.576 103.442C280.424 99.986 278.216 97.202 276.2 96.53V96.338H297.512V96.53C295.88 97.202 295.592 99.986 296.744 103.442L316.232 161.426C317.384 164.786 319.496 167.57 321.608 168.338V168.53H300.2V168.338C301.928 167.57 302.216 164.786 301.064 161.426L295.4 144.626H269.672L264.104 161.426C262.952 164.786 263.336 167.57 264.872 168.338V168.53H257ZM343.002 97.778V166.994C361.914 167.186 371.322 156.05 371.322 130.034C371.322 108.53 364.986 97.298 343.002 97.778ZM341.466 168.53H325.434V168.338C327.258 167.57 328.506 164.786 328.506 161.426V103.442C328.506 99.986 327.258 97.202 325.434 96.53V96.338H341.178C368.058 95.282 385.914 99.602 385.914 132.05C385.914 163.634 368.73 169.586 341.466 168.53ZM433.336 155.954C433.336 136.562 394.84 140.69 394.84 116.21C394.84 104.498 403.768 96.338 419.224 96.338C435.736 96.338 443.704 105.65 445.24 111.602C447.544 121.106 434.104 123.794 430.072 107.474C429.112 103.73 426.904 97.97 419.32 97.97C411.16 97.97 408.088 104.594 408.088 109.97C408.088 128.978 446.584 125.906 446.584 149.138C446.584 161.426 435.832 169.586 419.8 169.586C402.616 169.586 394.648 160.178 393.112 154.322C390.712 144.818 404.248 142.13 408.28 158.45C409.24 162.098 411.352 167.954 420.088 167.954C428.056 167.954 433.336 163.154 433.336 155.954Z" fill="#FFF000"/>
</svg>
