<svg width="624" height="213" viewBox="0 0 624 213" fill="none" xmlns="http://www.w3.org/2000/svg">
<path d="M257.75 40.3906C257.75 49.5052 250.719 57.0573 236.656 63.0469C224.052 68.4115 210.016 71.0938 194.547 71.0938C182.828 71.0938 172.984 70.1042 165.016 68.125C151.526 64.6875 144.781 58.724 144.781 50.2344C144.781 40.4427 151.526 32.5781 165.016 26.6406C175.745 21.9531 186.734 19.6094 197.984 19.6094C203.453 19.6094 206.188 20.1823 206.188 21.3281C206.188 22.474 203.271 23.5677 197.438 24.6094C168.583 29.6094 154.156 37.6302 154.156 48.6719C154.156 53.3073 159.521 56.7969 170.25 59.1406C177.906 60.8594 186.005 61.7188 194.547 61.7188C209.026 61.7188 221.812 59.2969 232.906 54.4531C243.219 49.974 248.375 45.2865 248.375 40.3906C248.375 37.9427 246.552 33.5938 242.906 27.3438C242.438 26.5625 242.203 25.7552 242.203 24.9219C242.203 23.6198 242.698 22.526 243.688 21.6406C244.677 20.7031 245.823 20.2344 247.125 20.2344C248.792 20.2344 250.094 21.0417 251.031 22.6562C255.51 30.3125 257.75 36.224 257.75 40.3906ZM234.859 9.0625C230.484 10.9375 225.224 11.875 219.078 11.875C213.505 11.875 210.719 10.7031 210.719 8.35938C210.719 6.69271 213.089 5.49479 217.828 4.76562C221.057 4.29688 225.51 2.86458 231.188 0.46875C231.865 0.15625 232.542 0 233.219 0C236.24 0 237.75 1.64062 237.75 4.92188C237.75 6.90104 236.786 8.28125 234.859 9.0625ZM301.188 60.4688C296.917 67.5521 289.703 71.0938 279.547 71.0938C276.422 71.0938 274.859 69.5312 274.859 66.4062C274.859 63.2812 276.422 61.7188 279.547 61.7188C286.057 61.7188 291.786 59.5312 296.734 55.1562C298.036 54.0104 299.208 53.4375 300.25 53.4375C301.76 53.4375 302.516 54.401 302.516 56.3281C302.516 57.5781 302.073 58.9583 301.188 60.4688ZM280.25 71.0938C270.979 71.0938 266.161 67.6823 265.797 60.8594C265.016 47.1094 263.453 30.8854 261.109 12.1875C261.057 11.875 261.031 11.5885 261.031 11.3281C261.031 9.86979 261.604 8.54167 262.75 7.34375C263.948 6.09375 265.302 5.46875 266.812 5.46875C268.844 5.46875 269.99 6.5625 270.25 8.75C271.396 21.1979 272.984 38.099 275.016 59.4531C275.172 60.9635 276.917 61.7188 280.25 61.7188C283.375 61.7188 284.938 63.2812 284.938 66.4062C284.938 69.5312 283.375 71.0938 280.25 71.0938ZM293.297 23.2031L290.641 27.5C289.703 29.0104 288.427 29.7656 286.812 29.7656C285.51 29.7656 284.365 29.3229 283.375 28.4375C282.385 27.5 281.891 26.3802 281.891 25.0781C281.891 24.2448 282.151 23.3854 282.672 22.5L285.328 18.2031C286.266 16.6927 287.542 15.9375 289.156 15.9375C290.458 15.9375 291.604 16.4062 292.594 17.3438C293.583 18.2292 294.078 19.3229 294.078 20.625C294.078 21.4583 293.818 22.3177 293.297 23.2031ZM358.141 43.8281C358.245 45.2344 358.297 46.5625 358.297 47.8125C358.297 54.4792 357.307 57.8125 355.328 57.8125C353.714 57.8125 352.333 55.0521 351.188 49.5312C350.25 45 348.531 38.4115 346.031 29.7656C345.719 28.776 345.562 27.8385 345.562 26.9531C345.562 23.0469 347.151 21.0938 350.328 21.0938C352.255 21.0938 353.557 22.2396 354.234 24.5312C356.37 31.7708 357.672 38.2031 358.141 43.8281ZM403.531 71.0938C394.99 71.0938 390.172 67.6823 389.078 60.8594C388.609 57.6302 387.646 48.3333 386.188 32.9688C382.698 43.6458 378.036 52.2396 372.203 58.75C365.12 66.6146 355.693 72.2656 343.922 75.7031C334.13 78.5156 324.495 79.9219 315.016 79.9219C309.339 79.9219 306.5 78.9062 306.5 76.875C306.5 75.3125 308.505 74.1667 312.516 73.4375C329.651 70.4167 342.568 66.7969 351.266 62.5781C359.599 58.5156 366.396 52.2396 371.656 43.75C374.104 39.7917 377.177 33.0208 380.875 23.4375C383.323 17.0833 385.589 13.9062 387.672 13.9062C391.786 13.9062 394.469 20.9896 395.719 35.1562C395.927 40.7292 396.76 48.4896 398.219 58.4375C398.844 60.625 400.615 61.7188 403.531 61.7188C406.656 61.7188 408.219 63.2812 408.219 66.4062C408.219 69.5312 406.656 71.0938 403.531 71.0938ZM449.938 36.0156C450.198 36.6406 450.328 37.2917 450.328 37.9688C450.328 40.9896 448.688 42.5 445.406 42.5C443.427 42.5 442.047 41.5104 441.266 39.5312C440.536 37.8646 439.26 37.0312 437.438 37.0312C435.354 37.0312 433.167 38.4115 430.875 41.1719C429.99 42.3177 429.547 43.6198 429.547 45.0781C429.547 50.2865 433.115 53.5938 440.25 55C442.75 55.5208 444 57.0312 444 59.5312C444 62.7604 442.49 64.375 439.469 64.375C435.25 64.375 430.901 62.2917 426.422 58.125C421.943 53.9062 419.703 49.6094 419.703 45.2344C419.703 41.849 421.005 38.5417 423.609 35.3125C427.724 30.1562 432.646 27.5781 438.375 27.5781C443.792 27.5781 447.646 30.3906 449.938 36.0156ZM460.641 56.6406C453.87 60.3385 444.781 63.6719 433.375 66.6406C421.812 69.6094 411.995 71.0938 403.922 71.0938C400.797 71.0938 399.234 69.5312 399.234 66.4062C399.234 63.2812 400.797 61.7188 403.922 61.7188C411.161 61.7188 420.146 60.3385 430.875 57.5781C441.604 54.8177 450.016 51.7708 456.109 48.4375C456.891 47.9688 457.698 47.7344 458.531 47.7344C459.781 47.7344 460.849 48.2552 461.734 49.2969C462.672 50.2865 463.141 51.4062 463.141 52.6562C463.141 54.4271 462.307 55.7552 460.641 56.6406ZM483.531 51.6406C483.635 52.7865 483.688 53.9062 483.688 55C483.688 61.9271 482.568 65.3906 480.328 65.3906C478.661 65.3906 477.281 62.7083 476.188 57.3438C475.615 54.4792 474.729 47.8906 473.531 37.5781C472.75 30.8073 471.865 22.2656 470.875 11.9531V11.4062C470.875 9.0625 471.474 7.08333 472.672 5.46875C473.818 3.90625 475.12 3.125 476.578 3.125C478.349 3.125 479.339 4.29688 479.547 6.64062C480.536 17.1615 481.865 32.1615 483.531 51.6406ZM488.375 86.4062C488.375 89.4271 486.734 92.2396 483.453 94.8438C480.224 97.5 477.073 98.8281 474 98.8281C472.281 98.8281 471.422 98.0208 471.422 96.4062C471.422 95.1042 472.125 94.1927 473.531 93.6719C478.01 92.0573 480.719 89.974 481.656 87.4219C477.854 86.4844 475.953 84.8958 475.953 82.6562C475.953 80.8333 476.865 78.776 478.688 76.4844C480.25 74.5052 481.969 72.9427 483.844 71.7969C484.469 71.4323 485.12 71.25 485.797 71.25C487.724 71.25 488.688 72.0573 488.688 73.6719C488.688 74.5052 488.245 75.2865 487.359 76.0156C484.911 77.9427 483.323 79.8438 482.594 81.7188C484.833 82.3438 486.135 82.7604 486.5 82.9688C487.75 83.6458 488.375 84.7917 488.375 86.4062Z" fill="#FFF000"/>
<path d="M41.1642 183.348H48.7082V194.828H28.0442C11.7262 194.828 0.000234656 187.366 0.000234656 171.786C0.000234656 158.502 10.4142 148.662 28.0442 148.662H29.6842V144.562H41.1642V183.348ZM24.6822 183.348H29.6842V160.142H25.2562C18.5322 160.142 11.4802 164.406 11.4802 171.786C11.4802 179.33 17.8762 183.348 24.6822 183.348ZM34.2762 138.494C30.8322 138.494 27.8802 136.444 27.8802 132.59C27.8802 129.146 30.6682 126.768 34.2762 126.768C37.9662 126.768 40.6722 129.146 40.6722 132.59C40.6722 136.444 37.7202 138.494 34.2762 138.494ZM16.4822 138.494C13.0382 138.494 10.0862 136.444 10.0862 132.59C10.0862 129.146 12.8742 126.768 16.4822 126.768C20.0902 126.768 22.8782 129.146 22.8782 132.59C22.8782 136.444 19.9262 138.494 16.4822 138.494ZM47.1406 194.828V183.348H64.2786V148.662H75.7586V183.348H90.8466V194.828H47.1406ZM78.3006 212.294C74.8566 212.294 71.9046 210.244 71.9046 206.472C71.9046 202.946 74.6926 200.568 78.3006 200.568C81.9906 200.568 84.6966 202.946 84.6966 206.472C84.6966 210.244 81.7446 212.294 78.3006 212.294ZM60.5066 212.294C57.0626 212.294 54.1106 210.244 54.1106 206.472C54.1106 202.946 56.8986 200.568 60.5066 200.568C64.1146 200.568 66.9026 202.946 66.9026 206.472C66.9026 210.244 63.9506 212.294 60.5066 212.294ZM89.1816 194.828V183.348H97.2176V148.662H108.698V152.762H133.708C141.088 152.762 146.664 154.566 150.764 158.912C154.208 162.602 155.52 168.67 155.52 175.394V194.828H89.1816ZM134.856 164.16H108.698V183.348H144.04V174.902C144.04 171.622 143.302 169.244 141.826 167.358C140.432 165.554 137.808 164.16 134.856 164.16ZM126.082 145.382C122.474 145.382 119.358 143.25 119.358 139.232C119.358 135.624 122.31 133.164 126.082 133.164C129.936 133.164 132.806 135.624 132.806 139.232C132.806 143.25 129.69 145.382 126.082 145.382ZM170.39 194.828V128.326H181.87V183.348H192.366V194.828H170.39ZM199.823 212.294C196.379 212.294 193.427 210.244 193.427 206.472C193.427 202.946 196.215 200.568 199.823 200.568C203.431 200.568 206.219 202.946 206.219 206.472C206.219 210.244 203.267 212.294 199.823 212.294ZM217.617 212.294C214.173 212.294 211.221 210.244 211.221 206.472C211.221 202.946 214.009 200.568 217.617 200.568C221.307 200.568 224.013 202.946 224.013 206.472C224.013 210.244 221.061 212.294 217.617 212.294ZM190.721 194.828V183.348H207.859V148.662H219.339V194.828H190.721ZM234.737 212.868C232.605 212.868 230.309 212.54 228.915 212.13L228.095 200.65C230.227 201.224 231.785 201.388 233.507 201.388C238.099 201.388 239.657 199.01 239.657 193.352V148.662H251.137V183.348H259.993V194.828H251.055C250.399 207.456 245.561 212.868 234.737 212.868ZM258.387 194.828V183.348H266.423V128.326H283.233V139.806H277.903V194.828H258.387ZM297.154 194.828V128.326H308.634V194.828H297.154ZM369.85 194.828C360.092 194.828 354.024 192.86 349.022 188.104C345.004 184.332 343.528 177.772 343.528 171.13V155.632H355.008V169.736C355.008 174.574 355.91 178.1 358.452 180.232C361.24 182.61 365.832 183.348 370.67 183.348H393.63V148.662H405.11V194.828H369.85ZM365.832 146.038C362.388 146.038 359.436 143.988 359.436 140.134C359.436 136.69 362.224 134.312 365.832 134.312C369.44 134.312 372.228 136.69 372.228 140.134C372.228 143.988 369.276 146.038 365.832 146.038ZM383.626 146.038C380.182 146.038 377.23 143.988 377.23 140.134C377.23 136.69 380.018 134.312 383.626 134.312C387.316 134.312 390.022 136.69 390.022 140.134C390.022 143.988 387.07 146.038 383.626 146.038ZM420.795 194.828V128.326H432.275V194.828H420.795ZM483.994 148.662L483.912 183.348H491.538V194.828H483.748C482.928 205.57 477.598 212.868 462.838 212.868C458.41 212.868 455.868 212.294 450.866 210.9L450.046 199.338C454.474 200.732 458.164 201.388 462.018 201.388C468.332 201.388 471.612 200.568 472.35 194.828H471.038C455.376 194.828 442.912 188.186 442.912 171.704C442.912 157.354 454.638 148.662 471.038 148.662H483.994ZM454.392 171.704C454.392 179.33 460.296 183.348 467.676 183.348H472.514V160.142H467.676C460.87 160.142 454.392 164.734 454.392 171.704ZM489.973 194.828V183.348H500.141V148.662H511.621V183.348H520.395V194.828H489.973ZM505.553 141.692C501.945 141.692 498.829 139.56 498.829 135.542C498.829 131.934 501.781 129.474 505.553 129.474C509.407 129.474 512.277 131.934 512.277 135.542C512.277 139.56 509.161 141.692 505.553 141.692ZM518.801 194.828V183.348H529.789C527.411 180.232 525.853 176.378 525.853 171.704C525.853 157.272 537.005 148.662 553.405 148.662H566.935V183.348H574.479V194.828H518.801ZM537.333 171.704C537.333 176.706 539.793 180.724 543.565 183.348H555.455V160.142H550.617C543.975 160.142 537.333 164.16 537.333 171.704ZM558.981 141.692C555.537 141.692 552.585 139.642 552.585 135.788C552.585 132.344 555.373 129.966 558.981 129.966C562.671 129.966 565.377 132.344 565.377 135.788C565.377 139.642 562.425 141.692 558.981 141.692ZM541.187 141.692C537.743 141.692 534.791 139.642 534.791 135.788C534.791 132.344 537.579 129.966 541.187 129.966C544.795 129.966 547.583 132.344 547.583 135.788C547.583 139.642 544.631 141.692 541.187 141.692ZM572.854 194.828V183.348H580.89V128.326H597.7V139.806H592.37V194.828H572.854ZM611.621 194.828V128.326H623.101V194.828H611.621Z" fill="white"/>
</svg>
