<svg width="713" height="99" viewBox="0 0 713 99" fill="none" xmlns="http://www.w3.org/2000/svg">
<path d="M30.816 89.856C19.392 89.856 12.288 87.552 6.43197 81.984C1.72797 77.568 -2.89679e-05 69.888 -2.89679e-05 62.112V30.72H13.44V60.48C13.44 66.144 14.496 70.272 17.472 72.768C20.736 75.552 26.112 76.416 31.776 76.416H39.456V30.72H52.896V64.416H63.264V77.856H52.896V89.856H30.816ZM27.168 22.176C22.944 22.176 19.296 19.68 19.296 14.976C19.296 10.752 22.752 7.87195 27.168 7.87195C31.68 7.87195 35.04 10.752 35.04 14.976C35.04 19.68 31.392 22.176 27.168 22.176ZM61.47 77.856V64.416H81.534V23.808H94.974V64.416H112.638V77.856H61.47ZM97.95 98.304C93.918 98.304 90.462 95.904 90.462 91.488C90.462 87.36 93.726 84.576 97.95 84.576C102.27 84.576 105.438 87.36 105.438 91.488C105.438 95.904 101.982 98.304 97.95 98.304ZM77.118 98.304C73.086 98.304 69.63 95.904 69.63 91.488C69.63 87.36 72.894 84.576 77.118 84.576C81.342 84.576 84.606 87.36 84.606 91.488C84.606 95.904 81.15 98.304 77.118 98.304ZM110.689 77.856V64.416H123.553C120.769 60.768 118.945 56.256 118.945 50.784C118.945 33.888 132.001 23.808 151.201 23.808H167.041V77.856H110.689ZM132.385 50.784C132.385 56.64 135.265 61.344 139.681 64.416H153.601V37.248H147.937C140.161 37.248 132.385 41.952 132.385 50.784ZM147.169 15.648C142.945 15.648 139.297 13.152 139.297 8.44795C139.297 4.22396 142.753 1.34395 147.169 1.34395C151.681 1.34395 155.041 4.22396 155.041 8.44795C155.041 13.152 151.393 15.648 147.169 15.648ZM182.001 98.976C179.505 98.976 176.817 98.592 175.185 98.112L174.225 84.672C176.721 85.344 178.545 85.536 180.561 85.536C185.937 85.536 187.761 82.752 187.761 76.128V23.808H201.201V64.416H211.569V77.856H201.105C200.337 92.64 194.673 98.976 182.001 98.976ZM209.689 77.856V64.416H229.753V23.808H243.193V64.416H260.857V77.856H209.689ZM246.265 15.648C242.233 15.648 238.777 13.248 238.777 8.73595C238.777 4.70395 242.041 1.91996 246.265 1.91996C250.585 1.91996 253.753 4.70395 253.753 8.73595C253.753 13.248 250.297 15.648 246.265 15.648ZM225.433 15.648C221.401 15.648 217.945 13.248 217.945 8.73595C217.945 4.70395 221.209 1.91996 225.433 1.91996C229.657 1.91996 232.921 4.70395 232.921 8.73595C232.921 13.248 229.465 15.648 225.433 15.648ZM258.907 77.856V64.416H298.747C299.707 60.192 300.379 54.72 300.379 50.688C300.379 46.752 299.035 42.048 295.675 39.072C292.987 36.672 289.147 35.424 284.347 35.424C279.259 35.424 275.419 36.48 270.427 39.648L264.859 27.936C271.099 24.384 277.915 21.984 285.979 21.984C293.851 21.984 300.475 24.672 305.083 29.376C310.171 34.464 313.723 42.048 313.723 51.744C313.723 56.064 313.243 60.384 312.475 64.416H322.843V77.856H258.907ZM321.064 77.856V64.416H330.376C329.896 62.496 329.704 60.384 329.704 58.272C329.704 41.952 342.568 28.896 358.408 28.896C374.632 28.896 387.592 41.664 387.592 58.272C387.592 60.384 387.304 62.496 386.92 64.416H397.672V77.856H379.72C374.344 83.52 366.664 86.976 358.408 86.976C350.248 86.976 342.76 83.424 337.48 77.856H321.064ZM358.408 73.536C367.24 73.536 374.152 67.104 374.152 58.08C374.152 49.056 367.624 42.336 358.408 42.336C349.48 42.336 343.144 49.344 343.144 58.08C343.144 66.72 349.768 73.536 358.408 73.536ZM395.782 77.856V64.416H405.19V-4.76837e-05H424.87V13.44H418.63V77.856H395.782ZM441.169 77.856V-4.76837e-05H454.609V77.856H441.169Z" fill="white"/>
<path d="M568.708 98.976H526.372C514.948 98.976 507.844 96.672 501.988 91.104C497.284 86.688 495.556 79.008 495.556 71.232V50.208H508.996V69.6C508.996 75.264 510.052 79.392 513.028 81.888C516.292 84.672 521.668 85.536 527.332 85.536H555.268V77.856H553.54C535.204 77.856 520.612 70.08 520.612 50.784C520.612 33.984 534.34 23.808 553.54 23.808H568.708V64.416H579.076V77.856H568.708V98.976ZM534.052 50.784C534.052 59.712 540.964 64.416 549.604 64.416H555.268V37.248H549.604C541.636 37.248 534.052 42.624 534.052 50.784ZM560.836 15.648C556.804 15.648 553.348 13.248 553.348 8.73595C553.348 4.70395 556.612 1.91996 560.836 1.91996C565.156 1.91996 568.324 4.70395 568.324 8.73595C568.324 13.248 564.868 15.648 560.836 15.648ZM540.004 15.648C535.972 15.648 532.516 13.248 532.516 8.73595C532.516 4.70395 535.78 1.91996 540.004 1.91996C544.228 1.91996 547.492 4.70395 547.492 8.73595C547.492 13.248 544.036 15.648 540.004 15.648ZM587.938 98.304C583.906 98.304 580.45 95.904 580.45 91.488C580.45 87.36 583.714 84.576 587.938 84.576C592.162 84.576 595.426 87.36 595.426 91.488C595.426 95.904 591.97 98.304 587.938 98.304ZM608.77 98.304C604.738 98.304 601.282 95.904 601.282 91.488C601.282 87.36 604.546 84.576 608.77 84.576C613.09 84.576 616.258 87.36 616.258 91.488C616.258 95.904 612.802 98.304 608.77 98.304ZM577.282 77.856V64.416H597.346V23.808H610.786V77.856H577.282ZM628.813 98.976C626.317 98.976 623.629 98.592 621.997 98.112L621.037 84.672C623.533 85.344 625.357 85.536 627.373 85.536C632.749 85.536 634.573 82.752 634.573 76.128V23.808H648.013V64.416H658.381V77.856H647.917C647.149 92.64 641.485 98.976 628.813 98.976ZM656.501 77.856V64.416H669.365C666.581 60.768 664.757 56.256 664.757 50.784C664.757 33.888 677.813 23.808 697.013 23.808H712.853V77.856H656.501ZM678.197 50.784C678.197 56.64 681.077 61.344 685.493 64.416H699.413V37.248H693.749C685.973 37.248 678.197 41.952 678.197 50.784ZM692.981 15.648C688.757 15.648 685.109 13.152 685.109 8.44795C685.109 4.22396 688.565 1.34395 692.981 1.34395C697.493 1.34395 700.853 4.22396 700.853 8.44795C700.853 13.152 697.205 15.648 692.981 15.648Z" fill="#FFF000"/>
</svg>
