<svg width="374" height="156" viewBox="0 0 374 156" fill="none" xmlns="http://www.w3.org/2000/svg">
<path d="M53.28 48.76L54.4 49.48C50.96 57.56 45.36 68.12 30.24 68.12C13.92 68.12 2.8 55.8 2.8 37.4C2.8 18.76 14.24 6.84 29.68 6.84C42.24 6.84 48.88 14.6 50.16 19.56C52.16 27.48 40.88 29.72 37.52 16.12C36.8 13 34.96 8.2 29.28 8.2C20.96 8.2 14.96 18.44 14.96 34.76C14.96 51.8 21.44 63.32 34.08 63.32C43.52 63.32 50.24 56.92 53.28 48.76ZM70.6594 36.04C70.6594 54.6 76.9794 66.6 87.2194 66.6C96.4194 66.6 102.739 56.76 102.739 36.84C102.739 16.84 96.4194 7.32 86.8994 7.32C76.9794 7.32 70.6594 17.48 70.6594 36.04ZM58.6594 36.92C58.6594 18.44 69.8594 5.96 86.5794 5.96C103.619 5.96 114.819 18.84 114.819 37.32C114.819 55.8 103.619 67.88 86.8994 67.88C69.8594 67.88 58.6594 55.4 58.6594 36.92ZM120.856 67V66.84C122.376 66.2 123.416 63.88 123.416 61.08V12.76C123.416 9.88 122.376 7.56 120.856 7V6.84H136.536L163.896 45.88V12.76C163.896 9.88 162.936 7.56 161.336 7V6.84H167.816V7C166.216 7.56 165.256 9.88 165.256 12.76V67H164.056L124.696 10.92V61.08C124.696 63.88 125.736 66.2 127.336 66.84V67H120.856ZM202.859 61.08C202.859 63.88 203.899 66.2 205.499 66.84V67H188.299V66.84C189.819 66.2 190.859 63.88 190.859 61.08V8.12H182.539C178.379 8.12 175.659 9.64 171.579 18.44H171.419L172.219 6.84H221.659L222.379 18.44H222.219C218.219 9.64 215.419 8.12 211.339 8.12H202.859V61.08ZM236.122 15.08L225.962 45.8H246.442L236.122 15.08ZM214.922 67V66.84C216.762 66.2 218.522 63.88 219.482 61.08L235.482 12.92L235.402 12.76C234.442 9.88 232.602 7.56 230.922 7V6.84H248.682V7C247.322 7.56 247.082 9.88 248.042 12.76L264.282 61.08C265.242 63.88 267.002 66.2 268.762 66.84V67H250.922V66.84C252.362 66.2 252.602 63.88 251.642 61.08L246.922 47.08H225.482L220.842 61.08C219.882 63.88 220.202 66.2 221.482 66.84V67H214.922ZM318.28 48.76L319.4 49.48C315.96 57.56 310.36 68.12 295.24 68.12C278.92 68.12 267.8 55.8 267.8 37.4C267.8 18.76 279.24 6.84 294.68 6.84C307.24 6.84 313.88 14.6 315.16 19.56C317.16 27.48 305.88 29.72 302.52 16.12C301.8 13 299.96 8.2 294.28 8.2C285.96 8.2 279.96 18.44 279.96 34.76C279.96 51.8 286.44 63.32 299.08 63.32C308.52 63.32 315.24 56.92 318.28 48.76ZM352.859 61.08C352.859 63.88 353.899 66.2 355.499 66.84V67H338.299V66.84C339.819 66.2 340.859 63.88 340.859 61.08V8.12H332.539C328.379 8.12 325.659 9.64 321.579 18.44H321.419L322.219 6.84H371.659L372.379 18.44H372.219C368.219 9.64 365.419 8.12 361.339 8.12H352.859V61.08Z" fill="white"/>
<path d="M156.024 153.085C140.76 153.085 129.624 142.909 129.624 126.781V87.3253C129.624 84.2533 127.992 81.2773 125.592 80.0293V79.8373H148.152V80.0293C145.752 81.1813 144.024 84.0613 144.024 87.3253V129.085C144.024 140.989 151.224 149.725 161.304 149.725C171.768 149.725 182.424 140.413 182.424 124.573V87.3253C182.424 84.0613 180.792 81.1813 178.296 80.0293V79.8373H187.992V80.0293C185.592 81.2773 183.96 84.2533 183.96 87.3253V124.573C183.96 141.181 172.632 153.085 156.024 153.085ZM233.805 139.453C233.805 120.061 195.309 124.189 195.309 99.7093C195.309 87.9973 204.237 79.8373 219.693 79.8373C236.205 79.8373 244.173 89.1493 245.709 95.1013C248.013 104.605 234.573 107.293 230.541 90.9733C229.581 87.2293 227.373 81.4693 219.789 81.4693C211.629 81.4693 208.557 88.0933 208.557 93.4693C208.557 112.477 247.053 109.405 247.053 132.637C247.053 144.925 236.301 153.085 220.269 153.085C203.085 153.085 195.117 143.677 193.581 137.821C191.181 128.317 204.717 125.629 208.749 141.949C209.709 145.597 211.821 151.453 220.557 151.453C228.525 151.453 233.805 146.653 233.805 139.453Z" fill="#FFF000"/>
</svg>
