<svg width="314" height="223" viewBox="0 0 314 223" fill="none" xmlns="http://www.w3.org/2000/svg">
<path d="M121.406 69.1406C112.76 69.1406 107.604 65.9375 105.938 59.5312C105.833 59.0625 105.781 58.6198 105.781 58.2031C105.781 55.1823 107.396 53.6719 110.625 53.6719C112.917 53.6719 114.375 54.8438 115 57.1875C115.469 58.9062 117.604 59.7656 121.406 59.7656C124.531 59.7656 126.094 61.3281 126.094 64.4531C126.094 67.5781 124.531 69.1406 121.406 69.1406ZM114.922 64.4531C114.922 79.4531 107.057 90.599 91.3281 97.8906C79.8698 103.255 66.5625 105.938 51.4062 105.938C39.2188 105.938 28.5677 104.219 19.4531 100.781C6.48438 95.9375 0 88.3594 0 78.0469C0 68.5677 5.75521 61.0156 17.2656 55.3906C28.4115 49.9219 42.8906 47.1875 60.7031 47.1875C63.724 47.1875 66.7708 47.2656 69.8438 47.4219C75.3125 47.7344 78.0469 48.8281 78.0469 50.7031C78.0469 52.474 75.3646 53.4896 70 53.75C49.5833 54.7396 34.0365 57.6562 23.3594 62.5C14.0365 66.7188 9.375 71.901 9.375 78.0469C9.375 84.974 15.0781 90.0521 26.4844 93.2812C34.0885 95.4688 42.3958 96.5625 51.4062 96.5625C65.4167 96.5625 77.3958 94.1927 87.3438 89.4531C99.4792 83.6719 105.547 75.3385 105.547 64.4531C105.547 61.224 103.724 41.4583 100.078 5.15625V4.375C100.078 1.45833 101.667 0 104.844 0C107.604 0 109.141 1.40625 109.453 4.21875C113.099 40.8333 114.922 60.9115 114.922 64.4531ZM207.734 50.625C203.099 57.3438 193.255 62.3698 178.203 65.7031C172.214 67.0573 166.719 67.7344 161.719 67.7344C149.948 67.7344 142.63 64.1146 139.766 56.875C139.505 56.25 139.375 55.625 139.375 55C139.375 51.9792 141.016 50.4688 144.297 50.4688C146.328 50.4688 147.734 51.4583 148.516 53.4375C149.87 56.9271 153.75 58.6719 160.156 58.6719C163.49 58.6719 167.708 58.1771 172.812 57.1875C187.448 54.3229 196.536 50.3385 200.078 45.2344C200.651 44.4531 200.938 43.724 200.938 43.0469C200.938 41.276 199.036 40.3906 195.234 40.3906C191.536 40.3906 186.146 43.6458 179.062 50.1562C173.854 54.8958 169.193 59.9219 165.078 65.2344C164.089 66.4323 162.891 67.0312 161.484 67.0312C159.193 67.0312 158.047 65.9635 158.047 63.8281C158.047 62.8385 158.438 61.7708 159.219 60.625C163.958 53.6458 169.349 47.5 175.391 42.1875C183.359 35.2604 190.495 31.7969 196.797 31.7969C206.484 31.7969 211.328 34.9479 211.328 41.25C211.328 44.0625 210.13 47.1875 207.734 50.625ZM152.422 51.3281C145.026 63.2031 135.26 69.1406 123.125 69.1406C120 69.1406 118.438 67.5781 118.438 64.4531C118.438 61.3281 120 59.7656 123.125 59.7656C131.771 59.7656 138.88 55.2865 144.453 46.3281C145.391 44.8177 146.667 44.0625 148.281 44.0625C149.583 44.0625 150.729 44.5312 151.719 45.4688C152.708 46.3542 153.203 47.4479 153.203 48.75C153.203 49.5833 152.943 50.4427 152.422 51.3281ZM232.578 49.6875C232.682 50.8333 232.734 51.9531 232.734 53.0469C232.734 59.974 231.615 63.4375 229.375 63.4375C227.708 63.4375 226.328 60.7552 225.234 55.3906C224.661 52.526 223.776 45.9375 222.578 35.625C221.797 28.8542 220.911 20.3125 219.922 10V9.45312C219.922 7.10938 220.521 5.13021 221.719 3.51562C222.865 1.95312 224.167 1.17188 225.625 1.17188C227.396 1.17188 228.385 2.34375 228.594 4.6875C229.583 15.2083 230.911 30.2083 232.578 49.6875ZM289.844 64.375C289.844 67.4479 288.307 68.9844 285.234 68.9844H280.391C277.318 68.9844 275.781 67.4479 275.781 64.375C275.781 61.3542 277.318 59.8438 280.391 59.8438H285.234C288.307 59.8438 289.844 61.3542 289.844 64.375ZM279.609 59.6875C281.068 63.0729 281.797 66.1719 281.797 68.9844C281.797 78.9844 273.906 86.7708 258.125 92.3438C248.385 95.7812 238.854 97.5 229.531 97.5C226.875 97.5 224.557 97.1875 222.578 96.5625C220.599 95.9375 219.609 95.2604 219.609 94.5312C219.609 93.1771 221.354 92.1875 224.844 91.5625C236.927 89.2708 245.339 87.2656 250.078 85.5469C265.13 80.1302 272.656 75.3385 272.656 71.1719C272.656 69.8698 272.031 69.2188 270.781 69.2188C262.812 69.2188 258.828 67.1875 258.828 63.125C258.828 60.2604 259.922 57.5781 262.109 55.0781C264.349 52.5781 267.057 51.3281 270.234 51.3281C273.984 51.3281 277.109 54.1146 279.609 59.6875ZM302.422 58.9844C299.974 62.4219 297.266 64.8958 294.297 66.4062C293.672 66.7188 291.354 67.5521 287.344 68.9062C286.927 69.0625 286.484 69.1406 286.016 69.1406C284.818 69.1406 283.776 68.6458 282.891 67.6562C281.953 66.6146 281.484 65.4688 281.484 64.2188C281.484 62.2396 282.578 60.8333 284.766 60C288.724 58.5417 290.885 57.7083 291.25 57.5C293.385 56.4062 295.026 54.8698 296.172 52.8906C296.536 52.2135 296.719 51.3802 296.719 50.3906C296.719 48.5677 296.016 45.8854 294.609 42.3438C293.307 39.2708 292.031 36.1979 290.781 33.125C290.469 32.4479 290.312 31.7708 290.312 31.0938C290.312 27.9688 292.005 26.4062 295.391 26.4062C297.266 26.4062 298.698 27.2656 299.688 28.9844C302.656 34.4531 304.141 41.4323 304.141 49.9219C304.141 54.2969 303.568 57.3177 302.422 58.9844ZM311.094 12.9688C306.719 14.8438 301.458 15.7812 295.312 15.7812C289.74 15.7812 286.953 14.6094 286.953 12.2656C286.953 10.599 289.323 9.40104 294.062 8.67188C297.292 8.20312 301.745 6.77083 307.422 4.375C308.099 4.0625 308.776 3.90625 309.453 3.90625C312.474 3.90625 313.984 5.54688 313.984 8.82812C313.984 10.8073 313.021 12.1875 311.094 12.9688Z" fill="#FFF000"/>
<path d="M7.46438 213.875V136.019H20.9044V200.435H33.1924V213.875H7.46438ZM31.2656 213.875V200.435H50.1776V213.875H31.2656ZM48.2344 213.875V200.435H67.1464V213.875H48.2344ZM65.2031 213.875V200.435H84.1151V213.875H65.2031ZM82.1719 213.875V200.435H101.084V213.875H82.1719ZM99.1406 213.875V200.435H118.053V213.875H99.1406ZM116.109 213.875V200.435H135.021V213.875H116.109ZM133.078 213.875V200.435H144.982V159.827H158.422V200.435H168.694V213.875H133.078ZM151.318 151.667C147.094 151.667 143.446 149.171 143.446 144.467C143.446 140.243 146.902 137.363 151.318 137.363C155.83 137.363 159.19 140.243 159.19 144.467C159.19 149.171 155.542 151.667 151.318 151.667ZM166.828 213.875V200.435H183.052L171.148 169.907C180.364 161.939 189.58 156.275 200.62 156.275C211.756 156.275 221.356 161.939 230.188 170.003L218.668 200.435H236.332V213.875H166.828ZM200.62 170.483C195.34 170.483 191.116 172.115 186.22 175.667L194.956 200.435H206.476L215.212 175.571C209.836 171.923 206.092 170.483 200.62 170.483ZM234.422 213.875V200.435H243.734C243.254 198.515 243.062 196.403 243.062 194.291C243.062 177.971 255.926 164.915 271.766 164.915C287.99 164.915 300.95 177.683 300.95 194.291C300.95 210.611 287.414 222.995 271.766 222.995C263.606 222.995 256.118 219.443 250.838 213.875H234.422ZM271.766 209.555C280.598 209.555 287.51 203.123 287.51 194.099C287.51 185.075 280.982 178.355 271.766 178.355C262.838 178.355 256.502 185.363 256.502 194.099C256.502 202.739 263.126 209.555 271.766 209.555Z" fill="white"/>
</svg>
