<svg width="641" height="176" viewBox="0 0 641 176" fill="none" xmlns="http://www.w3.org/2000/svg">
<path d="M302.2 15.08L292.04 45.8H312.52L302.2 15.08ZM281 67V66.84C282.84 66.2 284.6 63.88 285.56 61.08L301.56 12.92L301.48 12.76C300.52 9.88 298.68 7.56 297 7V6.84H314.76V7C313.4 7.56 313.16 9.88 314.12 12.76L330.36 61.08C331.32 63.88 333.08 66.2 334.84 66.84V67H317V66.84C318.44 66.2 318.68 63.88 317.72 61.08L313 47.08H291.56L286.92 61.08C285.96 63.88 286.28 66.2 287.56 66.84V67H281ZM338.028 67V66.84C339.548 66.2 340.588 63.88 340.588 61.08V12.76C340.588 9.88 339.548 7.56 338.028 7V6.84H355.228V7C353.708 7.56 352.668 9.88 352.668 12.76V61.08C352.668 63.88 353.708 66.2 355.228 66.84V67H338.028Z" fill="white"/>
<path d="M21.408 107.92H29.28C42.72 107.92 49.728 103.024 49.728 90.064C49.728 77.2 42.816 71.344 32.064 71.344H21.408V107.92ZM3.84 142V141.808C5.664 141.04 6.912 138.256 6.912 134.896V76.912C6.912 73.456 5.664 70.672 3.84 70V69.808H35.136C54.144 69.808 64.32 76.24 64.32 88.624C64.32 105.232 46.368 109.456 37.536 109.456H21.408V134.896C21.408 138.256 22.656 141.04 24.48 141.808V142H3.84ZM87.5018 107.92H95.3738C108.814 107.92 115.822 103.024 115.822 90.064C115.822 77.2 108.91 71.344 98.1578 71.344H87.5018V107.92ZM69.9338 142V141.808C71.7578 141.04 73.0058 138.256 73.0058 134.896V76.912C73.0058 73.456 71.7578 70.672 69.9338 70V69.808H100.174C119.278 69.808 130.414 76.24 130.414 89.2C130.414 101.872 119.662 107.056 110.734 108.784C120.526 110.416 127.918 115.024 127.918 122.8V134.8C127.918 138.16 129.166 140.944 130.99 141.712V141.904H110.35V141.712C112.27 140.944 113.518 138.16 113.518 134.8V122.8C113.518 111.664 110.35 109.456 100.366 109.456H87.5018V134.896C87.5018 138.256 88.7498 141.04 90.5738 141.808V142H69.9338ZM152.291 104.848C152.291 127.12 159.875 141.52 172.163 141.52C183.203 141.52 190.787 129.712 190.787 105.808C190.787 81.808 183.203 70.384 171.779 70.384C159.875 70.384 152.291 82.576 152.291 104.848ZM137.891 105.904C137.891 83.728 151.331 68.752 171.395 68.752C191.843 68.752 205.283 84.208 205.283 106.384C205.283 128.56 191.843 143.056 171.779 143.056C151.331 143.056 137.891 128.08 137.891 105.904ZM230.096 71.248V140.464C249.008 140.656 258.416 129.52 258.416 103.504C258.416 82 252.08 70.768 230.096 71.248ZM228.56 142H212.528V141.808C214.352 141.04 215.6 138.256 215.6 134.896V76.912C215.6 73.456 214.352 70.672 212.528 70V69.808H228.272C255.152 68.752 273.008 73.072 273.008 105.52C273.008 137.104 255.824 143.056 228.56 142ZM309.774 143.056C294.51 143.056 283.374 132.88 283.374 116.752V77.296C283.374 74.224 281.742 71.248 279.342 70V69.808H301.902V70C299.502 71.152 297.774 74.032 297.774 77.296V119.056C297.774 130.96 304.974 139.696 315.054 139.696C325.518 139.696 336.174 130.384 336.174 114.544V77.296C336.174 74.032 334.542 71.152 332.046 70V69.808H341.742V70C339.342 71.248 337.71 74.224 337.71 77.296V114.544C337.71 131.152 326.382 143.056 309.774 143.056ZM408.28 120.112L409.624 120.976C405.496 130.672 398.776 143.344 380.632 143.344C361.048 143.344 347.704 128.56 347.704 106.48C347.704 84.112 361.432 69.808 379.96 69.808C395.032 69.808 403 79.12 404.536 85.072C406.936 94.576 393.4 97.264 389.368 80.944C388.504 77.2 386.296 71.44 379.48 71.44C369.496 71.44 362.296 83.728 362.296 103.312C362.296 123.76 370.072 137.584 385.24 137.584C396.568 137.584 404.632 129.904 408.28 120.112ZM449.775 134.896C449.775 138.256 451.023 141.04 452.943 141.808V142H432.303V141.808C434.127 141.04 435.375 138.256 435.375 134.896V71.344H425.391C420.399 71.344 417.135 73.168 412.239 83.728H412.047L413.007 69.808H472.335L473.199 83.728H473.007C468.207 73.168 464.847 71.344 459.951 71.344H449.775V134.896ZM477.84 142V141.808C479.664 141.04 480.912 138.256 480.912 134.896V76.912C480.912 73.456 479.664 70.672 477.84 70V69.808H498.48V70C496.656 70.672 495.408 73.456 495.408 76.912V134.896C495.408 138.256 496.656 141.04 498.48 141.808V142H477.84ZM520.073 104.848C520.073 127.12 527.656 141.52 539.945 141.52C550.985 141.52 558.569 129.712 558.569 105.808C558.569 81.808 550.985 70.384 539.561 70.384C527.656 70.384 520.073 82.576 520.073 104.848ZM505.673 105.904C505.673 83.728 519.113 68.752 539.177 68.752C559.625 68.752 573.065 84.208 573.065 106.384C573.065 128.56 559.625 143.056 539.561 143.056C519.113 143.056 505.673 128.08 505.673 105.904ZM580.309 142V141.808C582.133 141.04 583.381 138.256 583.381 134.896V76.912C583.381 73.456 582.133 70.672 580.309 70V69.808H599.125L631.957 116.656V76.912C631.957 73.456 630.805 70.672 628.885 70V69.808H636.661V70C634.741 70.672 633.589 73.456 633.589 76.912V142H632.149L584.917 74.704V134.896C584.917 138.256 586.165 141.04 588.085 141.808V142H580.309Z" fill="#FFF000"/>
</svg>
